<mxfile host="app.diagrams.net" modified="2023-08-01T13:55:47.771Z" agent="Mozilla/5.0 (Windows NT 10.0; Win64; x64) AppleWebKit/537.36 (KHTML, like Gecko) Chrome/115.0.0.0 Safari/537.36" etag="NzB-Fd6rlRImoseQG2UH" version="21.6.6" type="github">
  <diagram name="Page-1" id="e6SaUZ4TQCZP3zaO02Ij">
    <mxGraphModel dx="4545" dy="2535" grid="1" gridSize="10" guides="1" tooltips="1" connect="1" arrows="1" fold="1" page="1" pageScale="1" pageWidth="1920" pageHeight="1200" background="#FFFFFF" math="0" shadow="0">
      <root>
        <mxCell id="0" />
        <mxCell id="1" parent="0" />
        <mxCell id="bc7KVerA1UK6MyxtnoFU-34" value="" style="endArrow=none;dashed=1;html=1;dashPattern=1 3;strokeWidth=4;rounded=0;sketch=1;hachureGap=4;jiggle=2;curveFitting=1;fontFamily=Architects Daughter;fontSource=https%3A%2F%2Ffonts.googleapis.com%2Fcss%3Ffamily%3DArchitects%2BDaughter;fontSize=16;entryX=0.5;entryY=1;entryDx=0;entryDy=0;exitX=0;exitY=0.75;exitDx=0;exitDy=0;" edge="1" parent="1">
          <mxGeometry width="50" height="50" relative="1" as="geometry">
            <mxPoint x="-1390" y="-815" as="sourcePoint" />
            <mxPoint x="-1650" y="-887.5" as="targetPoint" />
            <Array as="points">
              <mxPoint x="-1425" y="-807.5" />
              <mxPoint x="-1440" y="-807.5" />
              <mxPoint x="-1500" y="-807.5" />
              <mxPoint x="-1545" y="-817.5" />
              <mxPoint x="-1605" y="-847.5" />
            </Array>
          </mxGeometry>
        </mxCell>
        <mxCell id="bc7KVerA1UK6MyxtnoFU-37" value="" style="endArrow=none;dashed=1;html=1;dashPattern=1 3;strokeWidth=4;rounded=0;sketch=1;hachureGap=4;jiggle=2;curveFitting=1;fontFamily=Architects Daughter;fontSource=https%3A%2F%2Ffonts.googleapis.com%2Fcss%3Ffamily%3DArchitects%2BDaughter;fontSize=16;entryX=0.452;entryY=1.153;entryDx=0;entryDy=0;entryPerimeter=0;" edge="1" parent="1">
          <mxGeometry width="50" height="50" relative="1" as="geometry">
            <mxPoint x="-1200" y="-802.5" as="sourcePoint" />
            <mxPoint x="-973.1600000000001" y="-892.5000000000001" as="targetPoint" />
            <Array as="points">
              <mxPoint x="-1200" y="-802.5" />
              <mxPoint x="-1170" y="-802.5" />
              <mxPoint x="-1090" y="-802.5" />
              <mxPoint x="-1050" y="-812.5" />
              <mxPoint x="-1010" y="-837.09" />
              <mxPoint x="-990" y="-857.09" />
            </Array>
          </mxGeometry>
        </mxCell>
        <mxCell id="bc7KVerA1UK6MyxtnoFU-46" value="" style="shape=flexArrow;endArrow=classic;html=1;rounded=0;sketch=1;hachureGap=4;jiggle=2;curveFitting=1;fontFamily=Architects Daughter;fontSource=https%3A%2F%2Ffonts.googleapis.com%2Fcss%3Ffamily%3DArchitects%2BDaughter;fontSize=16;" edge="1" parent="1">
          <mxGeometry width="50" height="50" relative="1" as="geometry">
            <mxPoint x="-1642" y="-841" as="sourcePoint" />
            <mxPoint x="-1616" y="-818" as="targetPoint" />
          </mxGeometry>
        </mxCell>
        <mxCell id="bc7KVerA1UK6MyxtnoFU-49" value="" style="shape=flexArrow;endArrow=classic;html=1;rounded=0;sketch=1;hachureGap=4;jiggle=2;curveFitting=1;fontFamily=Architects Daughter;fontSource=https%3A%2F%2Ffonts.googleapis.com%2Fcss%3Ffamily%3DArchitects%2BDaughter;fontSize=16;" edge="1" parent="1">
          <mxGeometry width="50" height="50" relative="1" as="geometry">
            <mxPoint x="-1580" y="-800" as="sourcePoint" />
            <mxPoint x="-1548" y="-785" as="targetPoint" />
          </mxGeometry>
        </mxCell>
        <mxCell id="bc7KVerA1UK6MyxtnoFU-60" value="" style="endArrow=none;dashed=1;html=1;dashPattern=1 3;strokeWidth=4;rounded=0;sketch=1;hachureGap=4;jiggle=2;curveFitting=1;fontFamily=Architects Daughter;fontSource=https%3A%2F%2Ffonts.googleapis.com%2Fcss%3Ffamily%3DArchitects%2BDaughter;fontSize=16;" edge="1" parent="1">
          <mxGeometry width="50" height="50" relative="1" as="geometry">
            <mxPoint x="-1150" y="-620" as="sourcePoint" />
            <mxPoint x="-1330" y="-720" as="targetPoint" />
            <Array as="points">
              <mxPoint x="-1330" y="-620" />
            </Array>
          </mxGeometry>
        </mxCell>
        <mxCell id="bc7KVerA1UK6MyxtnoFU-62" value="" style="endArrow=classic;html=1;rounded=0;sketch=1;hachureGap=4;jiggle=2;curveFitting=1;fontFamily=Architects Daughter;fontSource=https%3A%2F%2Ffonts.googleapis.com%2Fcss%3Ffamily%3DArchitects%2BDaughter;fontSize=16;" edge="1" parent="1">
          <mxGeometry width="50" height="50" relative="1" as="geometry">
            <mxPoint x="-1340" y="-700" as="sourcePoint" />
            <mxPoint x="-1340" y="-650" as="targetPoint" />
          </mxGeometry>
        </mxCell>
        <mxCell id="bc7KVerA1UK6MyxtnoFU-65" value="" style="endArrow=classic;html=1;rounded=0;sketch=1;hachureGap=4;jiggle=2;curveFitting=1;fontFamily=Architects Daughter;fontSource=https%3A%2F%2Ffonts.googleapis.com%2Fcss%3Ffamily%3DArchitects%2BDaughter;fontSize=16;" edge="1" parent="1">
          <mxGeometry width="50" height="50" relative="1" as="geometry">
            <mxPoint x="-1270" y="-610" as="sourcePoint" />
            <mxPoint x="-1210" y="-610" as="targetPoint" />
          </mxGeometry>
        </mxCell>
        <mxCell id="bc7KVerA1UK6MyxtnoFU-67" value="&lt;span style=&quot;background-color: rgb(0, 0, 0); font-size: 25px;&quot;&gt;&lt;font style=&quot;font-size: 25px;&quot; color=&quot;#ffffff&quot;&gt;User&lt;span style=&quot;font-family: &amp;quot;SÃ¶hne Mono&amp;quot;, Monaco, &amp;quot;Andale Mono&amp;quot;, &amp;quot;Ubuntu Mono&amp;quot;, monospace; text-align: left;&quot;&gt; Query&lt;/span&gt;&lt;/font&gt;&lt;/span&gt;" style="rounded=1;whiteSpace=wrap;html=1;strokeWidth=2;fillWeight=4;hachureGap=8;hachureAngle=45;fillColor=#1ba1e2;sketch=1;jiggle=2;curveFitting=1;fontFamily=Architects Daughter;fontSource=https%3A%2F%2Ffonts.googleapis.com%2Fcss%3Ffamily%3DArchitects%2BDaughter;fontSize=20;container=0;" vertex="1" parent="1">
          <mxGeometry x="-1430" y="-390" width="190" height="90" as="geometry" />
        </mxCell>
        <mxCell id="bc7KVerA1UK6MyxtnoFU-1" value="" style="shape=image;imageAspect=0;aspect=fixed;verticalLabelPosition=bottom;verticalAlign=top;sketch=1;hachureGap=4;jiggle=2;curveFitting=1;fontFamily=Architects Daughter;fontSource=https%3A%2F%2Ffonts.googleapis.com%2Fcss%3Ffamily%3DArchitects%2BDaughter;fontSize=20;image=data:image/png,iVBORw0KGgoAAAANSUhEUgAAAEAAAABACAYAAACqaXHeAAAACXBIWXMAAAsTAAALEwEAmpwYAAABrklEQVR4nO2XPW7DMAyFBbTXKtBJq7z0BNEdig6FexQPHYp07dKp2ZKZQDYvOUE4Z1GhAg7cILYjQzL1wwe8JSEk6gtJKUKwWCxWQAGAsUbEm9y27VaUDAAA8oIAMwBkBQFmAsgGAjgCuLTIDUDTNKNmAJh5BWDsLQCe723fAIK/K8Dzve17BgR/V4DnezsGAE4QwPO9Td0Czu8KIE546fUWL9nY1hOpJbw4ACy9BTCyhJOfAegZQHIzAFMDgJGVbHIzYExKqTdr4aDkZkBoANHPgOQBYOktgAwAuQKQWwDLmQG+E055vaENNt1GA34UgRK2a0/svXFZz1m+E5gBwOsP4F0zDxQsfnEpBqDKqwCl1HNVVWbA9dLxJFLXk6yp4kmk/idZU8eTSJUwA+QaTN96h2a1xc/6x9x3MU9rc7faHd/td9ccMp4EgO4lOXWY0PFkAPSfjx/715fDSVem82WCpy9x9v774WDd/2zMNtbuMQaKGACeD34LgDmeqhQGEFqSKwBGW4Da5BWgcwfAKl2y9BaQDAD4IST5JQj8FJb8XwD4FpAlXoMsFkvkpF8z12xTWX1GLAAAAABJRU5ErkJggg==;container=0;" vertex="1" parent="1">
          <mxGeometry x="-1710" y="-1070" width="150" height="150" as="geometry" />
        </mxCell>
        <mxCell id="bc7KVerA1UK6MyxtnoFU-2" value="" style="endArrow=classic;html=1;rounded=0;sketch=1;hachureGap=4;jiggle=2;curveFitting=1;fontFamily=Architects Daughter;fontSource=https%3A%2F%2Ffonts.googleapis.com%2Fcss%3Ffamily%3DArchitects%2BDaughter;fontSize=16;" edge="1" parent="1">
          <mxGeometry width="50" height="50" relative="1" as="geometry">
            <mxPoint x="-1530" y="-1080" as="sourcePoint" />
            <mxPoint x="-1560" y="-1050" as="targetPoint" />
          </mxGeometry>
        </mxCell>
        <mxCell id="bc7KVerA1UK6MyxtnoFU-3" value="&lt;font style=&quot;font-size: 12px;&quot;&gt;Confluence &lt;/font&gt;" style="text;strokeColor=none;align=center;fillColor=none;html=1;verticalAlign=middle;whiteSpace=wrap;rounded=0;fontSize=20;fontFamily=Architects Daughter;container=0;" vertex="1" parent="1">
          <mxGeometry x="-1520" y="-1100" width="60" height="30" as="geometry" />
        </mxCell>
        <mxCell id="bc7KVerA1UK6MyxtnoFU-4" value="&lt;font style=&quot;font-size: 12px;&quot;&gt;resolved incidents&lt;/font&gt;" style="text;strokeColor=none;align=center;fillColor=none;html=1;verticalAlign=middle;whiteSpace=wrap;rounded=0;fontSize=20;fontFamily=Architects Daughter;container=0;" vertex="1" parent="1">
          <mxGeometry x="-1780" y="-1120" width="110" height="30" as="geometry" />
        </mxCell>
        <mxCell id="bc7KVerA1UK6MyxtnoFU-5" value="" style="endArrow=classic;html=1;rounded=0;sketch=1;hachureGap=4;jiggle=2;curveFitting=1;fontFamily=Architects Daughter;fontSource=https%3A%2F%2Ffonts.googleapis.com%2Fcss%3Ffamily%3DArchitects%2BDaughter;fontSize=16;" edge="1" parent="1">
          <mxGeometry width="50" height="50" relative="1" as="geometry">
            <mxPoint x="-1730" y="-1090" as="sourcePoint" />
            <mxPoint x="-1700" y="-1060" as="targetPoint" />
          </mxGeometry>
        </mxCell>
        <mxCell id="bc7KVerA1UK6MyxtnoFU-6" value="&lt;font style=&quot;font-size: 15px;&quot;&gt;K.A.&lt;/font&gt;" style="text;strokeColor=none;align=center;fillColor=none;html=1;verticalAlign=middle;whiteSpace=wrap;rounded=0;fontSize=20;fontFamily=Architects Daughter;container=0;" vertex="1" parent="1">
          <mxGeometry x="-1610" y="-1120" width="60" height="30" as="geometry" />
        </mxCell>
        <mxCell id="bc7KVerA1UK6MyxtnoFU-7" value="" style="endArrow=classic;html=1;rounded=0;sketch=1;hachureGap=4;jiggle=2;curveFitting=1;fontFamily=Architects Daughter;fontSource=https%3A%2F%2Ffonts.googleapis.com%2Fcss%3Ffamily%3DArchitects%2BDaughter;fontSize=16;" edge="1" parent="1">
          <mxGeometry width="50" height="50" relative="1" as="geometry">
            <mxPoint x="-1590" y="-1090" as="sourcePoint" />
            <mxPoint x="-1610" y="-1060" as="targetPoint" />
          </mxGeometry>
        </mxCell>
        <mxCell id="bc7KVerA1UK6MyxtnoFU-8" value="data_Collection    " style="text;strokeColor=none;align=center;fillColor=none;html=1;verticalAlign=middle;whiteSpace=wrap;rounded=0;fontSize=20;fontFamily=Architects Daughter;container=0;" vertex="1" parent="1">
          <mxGeometry x="-1665" y="-910" width="60" height="30" as="geometry" />
        </mxCell>
        <mxCell id="bc7KVerA1UK6MyxtnoFU-11" value="Data Preprocessing" style="text;strokeColor=none;align=center;fillColor=none;html=1;verticalAlign=middle;whiteSpace=wrap;rounded=0;fontSize=20;fontFamily=Architects Daughter;container=0;" vertex="1" parent="1">
          <mxGeometry x="-1360" y="-765" width="60" height="30" as="geometry" />
        </mxCell>
        <mxCell id="bc7KVerA1UK6MyxtnoFU-12" value="" style="shape=image;imageAspect=0;aspect=fixed;verticalLabelPosition=bottom;verticalAlign=top;sketch=1;hachureGap=4;jiggle=2;curveFitting=1;fontFamily=Architects Daughter;fontSource=https%3A%2F%2Ffonts.googleapis.com%2Fcss%3Ffamily%3DArchitects%2BDaughter;fontSize=20;image=data:image/png,iVBORw0KGgoAAAANSUhEUgAAAgAAAAIACAYAAAD0eNT6AAAACXBIWXMAAA7DAAAOwwHHb6hkAAAAGXRFWHRTb2Z0d2FyZQB3d3cuaW5rc2NhcGUub3Jnm+48GgAAIABJREFUeJzt3Xm4XVWdJ/zv2nuf8Y65yQ0ZIQyBQAhjEERFMzCIhRRBou1YSoliWVXddlfbXdVONVhtvVVdZWm3Ja+vitrVGgFLy0ZUIIgoQ0JIQoCQhBAy3CR3vvece8a993r/yA0FGW7uOWvts/bw/TwPT9Xjk7PXD6+563vWb+21BIimYWhoqDOTybxDSrlSSnmxEGIRgG4AKbOVETVveHj4N2ecccabTddBZIIwXQCF2/j4+LmWZX1aSvkeAHnT9RDp1NfXh2w2yxBAiWSZLoDCSUqZGx8f/1shxHNSyo+Akz/FVKVSedMrr7zymOk6iFqNKwB0nLGxscWWZd0H4ELTtRAFqa+v79X/nysBlDRcAaDXmZiYuNSyrN+Akz8lDFcCKGkYAOhVY2Nji33f/zmAXtO1EJnAEEBJwgBAAAApZdayrB+Ckz8lXKVSedO+ffseN10HUdAYAAgAUCgU/hLAxabrIAqDUql0FVcCKO4YAAjj4+PnCiH+2HQdRGHCdgDFHQMAwbKsTwNwTNdBFDYMARRnDAAJNzQ01Dl5yA8RnQD3BFBcMQAkXCaTeQd4yA/RlLgngOKIASDhpJQrTddAFAVsB1DcMAAknJSSO/+JpontAIoTBoCEE0KcaboGoihhO4DiggGAOk0XQBQ1XAmgOOBlQAlXKBSkyuc/0LdfVymR9N15C0yXQApeexlQM/L5/BMLFy58o6ZyiFqKKwBERE0qlUpXcSWAoooBgIhIAUMARRUDABGRIoYAiiIGACIiDRgCKGoYAIiINGEIoChhACAi0oghgKKCAYCISDOGAIoCBgAiogAwBFDYMQAQEQWEIYDCjAGAiChADAEUVgwAREQBYwigMGIAICJqAYYAChsGACKiFmEIoDBhACAiaiGGAAoLBgAiohZjCKAwEKYLILMKhYI0XQORKX19fUbHz+fzTyxcuPCNRougxOIKABGRIVwJIJMYAIiIDGIIIFMYAIiIDGMIIBMYAIiIQoAhgFqNAYCIKCQYAqiVGACIiEKEIYBahQGAiChkGAKoFRgAiIhCiCGAgsYAQEQUUgwBFCQGACKiEGMIoKAwABARhRxDAAWBAYCIKAIYAkg3BgAioohgCCCdGACIiCKEIYB0YQAgIooYhgDSQZgugMwqFApS5fMf6NuvqxRqwnfnLTBdQqT19fWZLkFJPp9/YuHChW80XYcuch2WwcLvA1gFYNHkf7wHwIOw8A2xBttM1RZHXAEgIoqouKwEyPuRkffgf8HCZgB/BGApgLbJf5YC+GP42CzvwVflOqRN1honDABERBEW9RAg70cGJfwMwJ2Yek6yAfwBBH7GEKAHAwARUcRFOgSU8A8AVkz7zwushIW/C66g5GAAICKKgSiGALkOywDc0cRH75T3YKnuepKGAYCIKCYiFwKObPhrZh6yAdyuuZrEYQAgIoqRiIWA1QqfvVZbFQnFAEBEFDMRCgGnK3z2DG1VJBQDABFRDEUkBLQrfLZDWxUJxQBARBRTEQkBZAgDABFRjDEE0MkwABARxRxDAJ0IAwARUQIwBNCxGACIiBKCIYBeiwGAiChBGALoKAYAIqKEYQggABCmCyCzCoWCNF0DEZnR0dFhdA6Q90Dp9494F+cwFVwBICIiSiAGACIiogRiACAiIkogBgAiIqIEYgAgIiJKIAYAIiKiBGIAICIiSiDHdAFERBQP8h4sB3AHgGsBzJ/8jw8A+CV8fF2sxdNxHj9qeIhCwvEgIKLk0nUQkFyHHCx8DcAHcfJ5RQK4Gz4+IdaiDOg7CKjZ8ZOOLQAiImra5OT7IIAPYeovlQLA78HCevkjdGsb/0fohoX1DYz/oFyHnK7xo4wBgIiImnfkm/fVDXziSnj4hVyHLtWh5Tp0wcMvAFzZwMeuhoWvqo4dB2wBJBxbAETJpdoCkOtwOSxsQHNzySYAl6mMD+BJNDb5HyUhsFzcik2K40caVwCIiKg5Nj6O5r9Iqk7+QHOTPwAISHxUw/iRxgBARETNkVhtugQF15ouwDQGACIiapj8PCz826t2UXT65L9DYnEPQMJxD0C8WIXnkDpwN+yhRyDKr0B4JaXnSTsPmTsD3swVqC/4EPz2CzRVSmGgsgdASgjciyqAlMaSWqmGW5EVQu1VxChjAEg4BoCY8KvIbP8vSO3/JiD9YMYQNuoLb0f1vL8GrHQwY1BLKW8CvAe7AZypqZxW2yXehcWmizAp0csfRLHgV5F7eg1S+74R3OQPANJDau9dyD29BvBrwY1DUfJL0wU0TeIXpkswjQGAKOIy2z8Ne/jRlo1nD/8KmRf/tGXjUYj5uAuI5BK6hMA3TBdhGgMAUYRZheeQ2v+tlo+b2vcNWMUXWj4uhcvk2fp3m66jCd8U78IzposwjQGAKMJSB+4Odtn/ZKSH1IHvtH5cCh8fn8CRA3mi4kkU8EnTRYQBAwBRhNlD682NPfiwsbEpPMRalOHjegAbTNcyDZvh40bxYVRMFxIGDABEESbK+wyOvdfY2BQuYi3GYOM6ABtN1zKFzbCwWqzFsOlCwoIBgCjChDdhcOyisbEpfMQtGIWNaxHOEHBk8l+DIdOFhAkDABERaSFuwSiquA4CT5uu5TW2cPI/MQYAIiLSRrwPI6jgWiAUN+1tRY2T/8kwABARkVbifRiBjxsAPGuwjK2oYZV4LwYN1hBqDABEUSU90xWYeQWRIkGsxQB8rAKwzcDw2+Hjek7+U3NMF0AUK34dzqH74PT/K6yJFyHqo5DpmfC6lsM97RZ4s1ZpG8qqHtD2rGaJWj9kZo6251nFF+Acuhf26FMQtQFIux1+22J4p/0O3Fk3AILfWaJErMWAvA+r4ONhAEtbNOx2+Fgh1uJQi8aLLF4GlHC8DEgfe+RxZLbdCav00kn/jDfjTagsuwsyd7ryeM7BdchuvV35OSoql/0Abu+Nys8R7jgyL/xHOAfXnXRVwe9YiurSr8DrukJ5PDpC9TKg6ZL3YXaLQsCLEFghbsXBgMeJBcZpIg2cg/cgt/GmKSd/ALBHfoP8E2+DNaa+Pyp1cJ3yM1Q5h36k/AxR3ofcEyvh9H1/ypaCVXgOuQ03wjl0r/KY1FpiDfohcC2AFwMc5nmk8FZO/tPHAECkyDm4Dtlnfx/wq9P686I2gNzGm2CPPtX0mPbYBtgD5i8zcw7dd8rQMxWr/ApyT90Aa2Ka84JXQXbr7UdWCihSxK04CAvXIJiNgS9AYLW4GYcDeHZsMQAQKTgy+d/R8IY84Y4ju/Fm2CO/bXhM4RaQefZOhOISNr+GzLY/APx6wx+1Si8dmfwrDZ4oKD1kn72DISCCxBr0T24M3KLxsZtRwzX85t84BgCiJjU7+R8lvCKyT98Ce/Ch6X/GHUN207um/425BeyR3yD73J2AdKf9Gav4AnJPvR2isr+5QRkCIkusxQBsvA0CzS+B/ZtNsLCau/2bwwBA1ATVyf8o4ZWQ23Qr0js+d8pjfe3Bh5D77ZuaWjUImtP3A+Q2vANWaffUf1D6SB34HnJPrISoKn5hYwiILHELRuHhOgg8rvCYjfBxLQ/5aR7fAkg4vgXQOF2T/7FkagbcOe+CN/Ot8PNnA1YaonoY1tgmOId/BHssTKernoSVgjvnVrhzboHXeSlkZi7glWGVdsMeWo/Uge/CKj6vd0xho7LsLrhz1+p9bgK06i2Ak5HfQRvy+FcAKxr6oMBjKOMd4v0YD6ayZGAASDgGgMY4h+478updA8vd1ALCRuXCr8Gd9+9MVxIppgMAAMh1aIeF7wG4eZof+SlKeI/4IMzdhBUTbAEQTRMn/xCTHrLb7oTT939MV0INEmtRxDasgcQXAEy1m9SDwF9gG27m5K+H8fRHZnEFYHo4+UcEVwIaEoYVgNeS92AJgD8BsBrAbBz5ktoPgV/Bw5fEWqN3C8ROqH741HoMAKfGyT9iGAKmLWwBgFqLLQCiKXDyjyC2A4imhQGA6CScQ/ciu/UjnPyj6GgIOHiP6UqIQosBgOgE7NGnkH32Y+G4cpeaIz1kt30c9ugTpishCiUGAKJjSR+Z5//9tM/2pxDzq0eOTW7iqGKiuGMAIDqGM/gArAI3G8eFVdoF57D6rYVEccMAQHQM+/BPTZdAmjn9/JkSHYsBgOgY1sQO0yWQZlbxBdMlEIUOAwDRMU51KQ9Fj6iPmS6BKHQYAIiOIdO9pksgzWSGP1OiYzEAEB3D677SdAmkmdd5uekSiEKHAYDoGO6cNYDgX404cefcYroEotDhbzmiY/jt58Od9x7TZZAmXs+b4c1s7Lp5oiRgACA6ger5fwe//QLTZZAimepB9cKvmS6DKJQYAIhOQNrtKF92D/zs6aZLoSZJpxPly++Dn1tkuhSiUGIAIDoJmVuI8hseYAiIIGnnUbnsh/C7uPmP6GQYAIimIHMLUbniXyEzc02XQtNl51G57B54M642XQlRqDEAEJ2Cnz8L5eU/hrTbTZdCpyJslC/5Z3g9bzFdCVHoMQAQTYPffj5qF/yt6TLoFGpnfgrerFWmyyCKBAYAommqz3sv/I6lpsugk5Dpmaif9Z9Ml0EUGQwARNMmUJ//AdNF0Em4c9dC2nnTZRBFBgMAUQO8nreZLoFOwuu5xnQJRJHCAEDUAD9/pukS6CT8HH82RI1gACBqhJU2XQGdjJ0xXQFRpDimCyCKElEbMF1Cw2TmNHg9b4XXtRx+27mQ+TMhUz2QdhsAQHgTEPVhiNLLsCZ2wB7bAHv4UYjqYcOVN0ZU+4H8OabLIIoMBgCiBthjm0yXMC0y1QN33rtRn/se+F2XTf1nrW7IVDeQPwverFWo404AgDX2NFJ934dzcB1EfbgVZSuxxjby8B+iBgjTBZBZhUJBmq4hSrLP/j6cvh+YLuOkZHY+aov+CPUFvwdo2hEvvBKc/d9Ces8/QlT6tDwzCF7X5Shf9YjpMiKlo6ODc0CC8YefcAwA02eVXkL+N1cAft10KcezUqgv/Chqiz/76tK+dl4J6T1fRnr33wF+NZgxFJWX/4RX/zaAASDZ+MNPOAaAafLryG24EfboE6YrOY7fthiVi++G37GsJeNZ41uR3fIhWKVdLRmvEX7uTJSv/g2k02G6lEhgAEg2vgVAdCp+Ddltd4Ry8ndPuxnlN/66ZZM/APidF6F89a/hzr6pZWNOl1V+Gdln1kK4BdOlEIUeAwDRFKyJncht/B04B+8xXcpx6vPeh8rF3w5uyX8K0m5H5ZLvor7w9paPfSr28GPIPbkS9thG06UQhRqXfxKOLYBjSB+iehD2+CY4h34E5/C/hLLnX1/4EVQv+LLpMgAAmRf+BKm9/2S6jOMJC+7Ma+HOWwuv+yrI7HxA2KarChW2AJKNP/yES1oAsArPIXXgbthDj0CUX4HwSqZLaph72s2oXHx3eCYz6SG7+f1w+n9qupKGSTsPmTsD3swVqC/4EPz2C0yX1FIMAMnGH37CJSYA+FVktv8XpPZ/E5C+6Wqa5ufPQvmNj4Vuk5vwJpB7/BpYEztMl9I8YaO+8HZUz/vrxJz4yACQbNwDQPHnV5F7eg1S+74R6ckfVhqVS74XuskfAKTdhspF3wSslOlSmic9pPbehdzTawC/ZroaosAxAFDsZbZ/Gvbwo6bLUFY745Mt3e3fKL/zYtTP+ITpMpTZw79C5sU/NV0GUeAYACjWrMJzSO3/lukylMnsPNTP/rTpMk6pdvZ/hczMMV2GstS+b8AqvmC6DKJAMQBQrKUO3B3tZf9JtUV/DKnpaN8gSbsNtUV/ZLoMddJD6sB3TFdBFCgGAIo1e2i96RKUyVTPkbP9I8JdeDtkqsd0GcrswYdNl0AUKAYAijVR3me6BGXuvHdru9inFaSdhzv3XabLUCbKe02XQBQoXgesmVyHZbDw+wBWAVg0+R/vAfAgLHxDrME2U7UlkfAmTJegrD73PaZLaJg7771I7b3LdBlKhFc0XQJRoBgANJH3I4MS/h7Ax3D8yspSAEvh45PyHvwTfHxKrAXfM6JTkpk58LsuNV1Gw7yuyyDTsyFq/aZLIaKTYAtAg8nJ/2cA7sTU/53aAP4AAj+T65CMk0ZIiddzDaJ5XpeA1/MW00UQ0RQYAHQo4R8ATP8ScoGVsPB3wRVEceF1LTddQtO87itMl0BEU2AAUCTXYRmAO5r46J3yHizVXQ/Fi992rukSmubnF5sugYimwACg6siGv2b+e7QBhO8uVQoV2Xa26RKaJtvOMV0CEU2BAUDdaoXPXqutCool6XSZLqFpUa6dKAkYANSdrvDZM7RVQbEk7TbTJTRNOu2mSyCiKTAAqFP5LRe+a92IiCgRGACIQizKBxkJlwfpEIUZAwBRiAl31HQJTRPumOkSiGgKDABEISYmdpsuoWliYpfpEohoCgwARCFmTewwXULTrNJO0yUQ0RQYAIhCzB7bYLqEptmjT5kugYimwABAFGL20K8ASNNlNEHCHn7MdBFENAUGAKIQE7V+WGObTJfRMHtsI28CJAo5BgCKNWlH/zCaVN/3TZfQMOfA/zFdgjLp8JgOijcGAIo1mVtgugRlzsF1EF7JdBnTJrwSnEP3mi5DmcwuNF0CUaAYACjWvJkrTZegTNSH4ez/lukyps3Z9w2I+rDpMpR5s1aZLoEoUAwAFGv1BR8ChG26DGXpPf8YiVUA4RWR3vOPpstQJ2zU53/QdBVEgWIAoFjz2y9AfWH0b10WlT6kXvrvpss4pfSuv4aoHjZdhrL66XfAb19iugyiQDEAUOxVz/treDPfZroMZelXvgprfIvpMk7KGt+M1N6vmS5DmTdzBarn/pXpMogCxwBA8WelUb7sXtRP/1i02wF+HdktH4RwC6YrOY7wJpDd+hHAr5supXnCRv2MO1G+7F7ASpmuhihwwnQBUSfvUTulRbzL7M+gUChE8ZSZplnFF5A68B3Ygw9DlF+J5G177uybULnku+EJM9JD9pn3whm433QlDZN2G2TuDHizVqE+/4OJW/bv6OjgHJBg/OEfQ96D5QDuAHAtgPmT//EBAL+Ej6+LtXj6mD+vNQA0Or6qpAWAU5IeRKUP9uiTcA6ugzP4c0D6pqs6Tn3Bh1FdGobNdhKZ5/4Qqf13my7keHYO9Tm3wZvzTngdl0BmZoO/8l6PASDZ+MOfJNchBwtfA/BBnPy/Fwngbvj4hFiLMqAvADQ7vioGgKlZY08ju+3jsIrbTZdynPq896F64VcB4ZgpQHrIvPAppPZ908z4U/B6r0Plgi9DZqN/DkSQGACSjXsA8Ork+yCAD2HqUCQA/B4srJc/Qre28X+EblhY38D4D8p1yOkan07O77oc5avWw+t5s+lSjpPq+9/Ibv4AhFds+djCLSD7zHtDOfnXT/84ypf+kJM/0SkwAACY/OZ9dQOfuBIefiHXoUt1aLkOXfDwCwBXNvCxq2Hhq6pj0/RIux2VS38AP7fIdCnHcfp/itxv39zStwOs8c3IPf7mUPb83dnvQPX8vwEEf7URnUril3/kOlwOCxvQ3H8XmwBcpljCk2hs8j9KQmC5uBVKN8WwBTB99tDDyG282XQZJyYc1E+/A7XFnwnu/gOvhPSeLyO9+28BvxbMGAqk3YbSNc9CpntNlxIZbAEkG2OyjY+j+SCkOvkDzU3+ACAg8VEN49M0eTNXwuu63HQZJyZdpF75X8j/+lKk9nxV66mBwishtecraPv1RUjv+mIoJ38AcBf8Hid/ogYY2j0UIhKrTZeg4FrTBSSNe9otsMe0voihlageQubF/4r07v8H7tzb4M57z2RoaTTjSthjG+H0fR/OwR9C1EeCKFcrd+6tpksgipREL//Iz8PChagAiOqpH3VsQ1Z8Hk2/p8YWQGPs4ceQ2/B202U0RKZ74fVcA6/7Cvht50LmFkGmZ0HabQCOHOIjaoMQ5T2wJnbAHt0Ae/hRiNqA4cobIBwUVx8CrIzpSiKFLYBkS/QPX0oI3IsqohsAargVWSGafxWRAaAxVnE78r+5wnQZdAyZ6sHEyldaPm5fX1/Lx3ytefPmKX2eASDZEr0HYHLi3G+6DgV7VSZ/aoKM8FG3cRbSfQlEYZboADDpl6YLaJrEL0yXkDRWabfpEugEhFeEqPWbLoMoUhgAfNwFRPJbtITAN0wXkTT20COmS6CTsId+ZboEokhJfACYPFs/hAeZn9I3xbvwjOkikkR4RTiH7jFdBp1Eav+3TZdAFCmJDwAAAB+fwJEDeaLiSRTwSdNFJE3qpb+BqI+aLoNOwh5+FPbAz02XQRQZDAAAxFqU4eN6ABtM1zINm+HjRvFhVEwXkiT24INI7wnD7Xs0ley2OyHKe02XQRQJDACTxFqMwcZ1ADaarmUKm2FhtViLYdOFJIk9+iSym98PSM90KXQKojaA3MabIKoHTZdCFHoMAK8hbsEobFyLcIaAI5P/GgyZLiRJ7LENyG78XQhvwnQpNE1WaTdyT90IUT1kuhSiUGMAOIa4BaOo4joIhOm81y2c/FvPGnt6cvJv/XW7pMYq7UJu4zshaoOmSyEKLQaAExDvwwgquBZQu2lPk62ocfJvNVHei9ym2yDccdOlUJOs4gvIbVoDeGXTpRCFEgPASYj3YQQ+bgDwrMEytqKGVeK94NeYFss++9FonYVPJ2SNPYPMrr80XQZRKDEATEGsxQB8rAKwzcDw2+Hjek7+rWcPPgR75LemyyBNUnu/zk2BRCfAAHAKYi0GYGEVgOdaOOx2+Fgh1oK7mAxwDt1rugTSya/COfwT01UQhQ4DwDSINeiHhZVoTQh4EQIrOfmbY4/zgMW4sceicMQHUWsxAEyTWIN+CFwL4MUAh3keKbxV3AquVxrEnePxI6qHTZdAFDqO6QKiRNyKg/I+XAMfDwJYpvnxL0BgtbgZ/E1lmHS6+A55zEinM5Dnzps3L5DnErUCVwAaJNagf3Jj4BaNj92MGq7hN/9w8NvPN10Caea3nWu6BKLQYQBogliLAdh4GwSe0vC4TbCwmrv9w8M97SbTJZBm3uwbTZdAFDoMAE0St2AUHq6DwOMKj9kIH9fykJ9wcefcCr/tPNNlkCZez5vhdV1hugyi0GEAUCDWYgwTuBbA+sY/jMdQwSpe7BNCwkb1wv8JWBnTlZAi6XSgesE/mC6DKJQYABSJD2ICPt4J4McNfOynmMAN4v3gObMh5XVficqF/wQI23Qp1Cwrg8rF3+VqDtFJMABoINaiiG1YA4kvAKhP8Uc9CPwFtuFm8UHwermQc+e+C5WLvgkIviwTOVYalUu+C2/WKtOVEIWWMF1A3Mh7sATAnwBYDWA2joSsfgj8Ch6+JNYavVvgOIVCQZquIeycQ/chu/V2QLqmS6HpsNKoXPI9uL1vN11J6HV0dHAOSDD+8BOOAWB6GAIigpN/QxgAko0tAKJpcOesQeWi/4/tgDDj5E/UEAYAomliCAgxTv5EDeNvMqIGuHPWoCJdZJ+9A5Ce1mf7befCnf9+eD1vgZ9dCFgZiMoB2ONPw+lbB3v4V1rHC4o3401w5/wu/I6LIbNzALcEa2IH7KH1cA7dA+EW9A5oZVC+5J/h9V6n97lEMcf+T8JxD0BznIPrtIUAabejdv6XUJ/3fkCcfFHOHnkcmW2fgFXapTxmEPyOpagu/cqUh+4IdwzpnX+B1N67AGj4nx4nfyXcA5Bs/OEnHANA83SEAJmZi/LyH0/7/gHhFpDddBvskd80PWYQ3NnvQOWibwN2dlp/3jl0H7LPfhTwa80PyslfGQNAsnEPAFGT3LlrUVl2V9OHBcnsApTf8LOGLh+STgcql/0Afv6cpsYMgtf9BlQuvnvakz8w2Uq55HvNn7bIyZ9IGQMAkYJmQ4CfPR3lNzwAP392w2NKpwvVC7/a8OcCYWVQXfb1piZyt/ftKF/6fcDONTwmJ38iddwESKTInbsWFWEju+3jgFc55Z/325egfNl9kLmFTY/pzXgTvJ43wx5+rOln6FCfe5vSaoQ3azXKl/0Q2WfeC+Ge+mRsabdNnvB3bdNj6tTX12d0/Hnz5hkdn6KNKwBEGrhzbkX5ip/B71h68j8kLNTnvQ/lKx9WmvxfO6Zp7ty1ys/wet6K8lUPw++6bMo/53dehPKVD4Zm8ieKOq4AEGnidS1H6Y2/hTP4AOz++2FN7IBwC5CZ0+B1vQHunDXw25doHM/0FbcCfveVWp7kt52H0lWPwBl4AM7hf4E1thmiPgyZ6oHfeRHc094Jt/cdU74lQUSNYQAg0klYcHtvhNt7Y+BDyazZ5V+Z6oK08xqfKOD2vp2H+RC1COM0UWQZ/uvLq5KJIo0BgIiIKIEYAIiIiBKIAYCIiCiBGACIIko67TB5mre0O4yNTUTqGACIosrKQKZnGRtex1kGRGQOAwBRhHmzVhoce5WxsYlIHQMAUYTVF3zEzMB2DvW57zEzNhFpwQBAFGHejKuNHAlcO/M/Qmbnt3xcItKHAYAo4qoX/k/4XZe3bDx3zi2onfUnLRuPiILBAEAUcdJuQ/mK++HOfy8CfSvASqN29qdRuejbPJOfKAbMvUNEoVAoFKTpGkgfa+wZpA58F/bwr2BV9gNeSel50umEzJ0Bd9ZquAs/Aj+3SE+hMRH164A7Ojo4ByQYf/gJxwBAlFwMAMnGdTwiIqIEYgAgIiJKIAYAIiKiBGIAICIiSiAGACIiogRiACAiIkogBgAiIqIEYgAgIiJKIAYAIiKiBGIAICIiSiAGACIiogRiACAiIkogBgAiIqIEYgAgIiJKIAYAIiKiBGIAICIiSiAGACIiogRiACAiIkogBgAiIqIEYgAgIiJKIAYAIiKiBGIAICIiSiAGACIiogRiACAiIkogBgAiIqIEYgAgIiJKIAYAIiKiBGIAICIiSiAGACIiogRiACAiIkogBgAiIqIEEqYLoCNue+mlLrde/x0psAKQFwF4uN5HAAAgAElEQVRYBKAbQMpsZURETasDGAWwR0Bs8YVcXxPOT3+2ePG46cKIAcC4W3bsOF9K7z8DeDeAnOl6iIgCVhYS3/cgvvSTJUteNF1MkjEAGHJT38a8Xcx/EVL8AQDHdD1ERC3mCuArTr79z364cGHZdDFJxABgwDu3b59nCfkvAK4wXQsRkVlis+d4N//r2Uv3mq4kaRgAWmzNzucv833xUwBzTddCRBQSfZYlb7pv8QWbTBeSJAwALbRm584Fvu8+BU7+RETHGhA+3vyj88/fYbqQpOBrgC1y2759Od+v3wtO/kREJ9ILC/fd1Lcxb7qQpGAAaJF6ufDXgHiD6TqIiMJKAkut8fyfmq4jKdgCaIHJV/22grv9iYimJlHyIRb/ZMmSPtOlxB1XAFpASu/T4ORPRHRqAnlLyM+ZLiMJuAIQsLfv3NmZ8d1D4CE/RETTc2QVYM5PliwpmC4lzrgCELCs590ETv5ERNMnkBfCv9F0GXHHABCwI2f7ExFRIwTEStM1xB0DQODkxaYrICKKIP7uDBgDQPAWmS6AiCiCzjRdQNwxAASv03QBREQR1GW6gLhjAAhe2nQBREQRlDFdQNwxABARESUQAwAREVECMQAQERElEAMAERFRAjEAEBERJRADABERUQIxABARESUQAwAREVECMQAQERElEAMAERFRAjEAEBERJRADABERUQIxABARESUQAwAREVECMQAQERElEANA8GqmCyAiiqCq6QLijgEgeOOmCyAiiqAx0wXEHQNA8F42XQARUdRIYLfpGuKOASBgAmKL6RqIiKJGAFtN1xB3DAAB84Vcb7oGIqLIkeIh0yXEHQNAwGrC+SkkSqbrICKKDIlSyvPuN11G3DEABOxnixePC+AHpusgIooKCfmdHy5dWjRdR9wxALSAB/ElAK7pOoiIImDC9vHnpotIAgaAFvjJkiUvCuArpusgIgo9If7HfRdccNB0GUnAANAiXensnwLyKdN1EBGFlsA2r734302XkRTCdAFJ8jsvvjjfgf8UgHmmayEiCpkB3/av/sk5S3eZLiQpuALQQj8977wDliVvAjBouhYiohAZsCx5Ayf/1mIAaLH7Fl+wSfh4EwS2ma6FiCgEnvVt/+r7Fl+wyXQhScMAYMCPzj9/h9c+caWU8q94RgARJdQEpPzLVL79Sn7zN4N7AAx75/bt82zIz0rgAxDIm66HiChQEiUJ+R3bx59zt79ZDAAh8c7t2zuE8G8UECsBXAzgLABdANJmKyMialoNwCiAl4XEZgnxcMrz7uchP+HAABByX+nrWwfI20zXQUTUCCmx7o/mz3+36Tro5LgHIOTSwCcAHDZdBxHRdElgMGXbf2i6DpoaA0DIfWzevEEh8THTdRARTZcQ8hN3zpnTb7oOmhoDQAR8cv78HwPih6brICI6FSmx7g/nLuDvqwhgAIgItgKIKOy49B8tDAARwVYAEYUdl/6jhQEgQtgKIKKw4tJ/9DAARAxbAUQUNlz6jyYGgIhhK4CIwoZL/9HEABBBbAUQUVhw6T+6GAAiiq0AIjKNS//RxgAQUWwFEJFpXPqPNgaACGMrgIhM4dJ/9DEARBxbAUTUalz6jwcGgIhjK4CIWo1L//HAABADbAUQUatw6T8+GABigq0AIgoal/7jhQEgJtgKIKKgcek/XhgAYoStACIKCpf+44cBIGbYCiAi3bj0H08MADHDVgAR6cal/3hiAIghtgKISBcu/ccXA0BMsRVARKq49B9vDAAxxVYAEani0n+8MQDEGFsBRNQsLv3HHwNAzLEVQESN4tJ/MjAAxBxbAUTUKC79JwMDQAKwFUBE08Wl/+RgAEgItgKI6FS49J8sDAAJwVYAEZ0Kl/6ThQEgQdgKIKKT4dJ/8jAAJAxbAUR0LC79JxMDQMKwFUBEx+LSfzIxACQQWwFEdBSX/pOLASCh2AogIi79JxsDQEKxFUBEXPpPNgaABGMrgCi5uPRPDAAJx1YAUfJw6Z8ABoDEYyuAKHm49E8AAwCBrQCiJOHSPx3FAEAA2AogSgIu/dNrMQAQALYCiJKAS//0WgwA9Cq2Aojii0v/dCwGAHodtgKI4odL/3QiDAD0OmwFEMUPl/7pRBgA6DhsBRDFB5f+6WQYAOiE2Aogij4u/dNUGADohNgKIIo+Lv3TVITpAijcvtLXtw6Qt5mug+hEfABVX8KVPuqQcKWEC0BKedyftSBgQ8CygBQEUuLf/okjKbHuj+bPf7fpOii8HNMFULilgU/UgGsAnGa6FkqmivRR8n2UPB8Tvo+y9FGREjXfR/0EE32jhBDICIGcJZAVFnLCQt6y0W5byAsBEcGAwKV/mo7o/S+bWu6rBw7cLAX+xXQdFH91KTHiuSh4PsY9D0XfQ03DJN8sC0CbZaPTttHp2Oi2bOQsK/y/OIVcy41/dCqh/98xhQNbARQEFxJDdQ+jfh0jro+S78HcdD89jhCYYTuY6djosR3krHBtpeLSP00XWwA0LWwFkC4l6WOw7mLQq2PU80/Yrw8zV0oMuHUMuHUAQF5YmJVyMNtJocu2jdbGpX9qBFcAaNrYCqBmVaSP/rqLw24d455nupzAZIXALCeFOSlDYYBL/9QABgBqCFsBNF0+gAG3jgP1Gkbc+E76J9Nm2ZibSmGu4yDdgjYBl/6pUWwBUEPYCqBTqfg+9tdr6KvXtezSj6oJ38OuqoeXasBsO4XT02l0BrQqwKV/agZXAKhhbAXQiYx7HvbWauj33Mj19Vul07ZwejqD2U5K7y9fLv1TExgAqClsBdBRo56L3bVqIpf5m5W3LCxKZzDHcZTPGeDSPzWLLQBqClsBNOZ72F2pYthzTZcSOSXfx/OVMl62BM5MZzE3lWrqOVz6JxVcAaCmsRWQTCXfx65qBQMuJ35dOiwb52Qz6LEb/E7GpX9SwABAStgKSA4XEi9Xq9hXq4X+sJ6omuk4ODeTRX4abw1w6Z9UhesIK4ocXhscfxLAwXodjxeL2MvJP1BDrosnJop4qVqBP8Wf49I/6cAVAFLGVkB8lX2J7ZUy+/wG5CyBJdncidsCXPonDRgASAu2AuJnb62G3dUqwn86f3wJAPNSaSzOZGBPvi3ApX/ShW8BkBZ8KyA+ar6P56sVDIVwk1/V91Gsuyh53pF/XBdV6aPm+aj5R/6RUsIH4E2eRWALAQtHrv1NW9aRf2wLGWEh7zjI2zbyjoV2J4VM2C72AXCgXsOQ52JpNosu2+HSP2nDFQDShq2A6Dtcd/FitRyKE/yqno/heg3DtRrG6nWM1+qo+FN1xtVlLQud6RS6nBR6Mmn0pFLIGL7g5ygB4Nx89tNfWnjm35iuheKBAYC0YisgmqSU2F2rYU+taqwGV0oMVKo4XK1gsFJDMST7DtodB7MyGZyWzaA3k4GjeHBPs2bY9r5vnXPu6UYGp1hiC4C0YisgeqpS4tlyCWMGbumr+j4Olss4UC5jqFqbcue7KUXXRdF1sWdiApYQmJlOY34uh3m5bEsu+QGAtGX53Snx9pYMRonBFQDSjq2A6BjzPGwtl1GTrZt6fSnRV65gb7mEgUo1slsMBYDeTAant+UxL5uFFeDKwAIn/fdfPfvsTwU2ACUSAwAFgq2A8Ouvu3iuUmrZt+6i5+Ll4gT2lcqoBdzLb7W0ZeH0fB5ntrWhzdG7Z4BL/xQUtgAoEGwFhNu+Wg07qpWWjDVar+OlYhH7y5XY3hJY833sKhbx0sQETstkcHZ7G3ozGeXncumfgsQVAAoMWwHhtL1SxoF6PfBxBqtVvDBewFCtFvhYYTQzk8b5HZ2YlUk3/Qwu/VOQGAAoUGwFhIcE8EKljIMBT/7DtTqeHx/HYNXcGwVh0ptJ44LOLsxIN3bjH5f+KWhsAVCg2AoIBwlgW7mMfje4yb/ieXhufBz7SuXAxoiigWoNvxoYwPxcDku7OpGfxrkCXPqnVuAKAAWOrQCzJICt5RIGAzrZzwews1DAjmIRnh/PHr8uthA4r6MD53S0T3kTG5f+qRUYAKgl2AowQwJ4rlzG4YC++Y/VXTwzOoLRWvB7CuKk00nh0hldmJE+fn8Al/6pVcJ18DXFFq8Nbj0JYHulEsjk70uJ58bH8cjAACf/Joy7dTw6OITnxsbhv+bNCC79UysxAFBLfGzevEEh8THTdSTJjkoFfXX9O/ALrotHBwexs1CM7Wt9rSClxM5iEY/0D2J8MqTNtpwv//0Zi58zXBolBFsA1FJsBbTG3loVOwPYhb93ooQt42Ps9WtmC4ErZ8wY/u0ll840XQslBwMAtdTX+/pm1SC3gW8FBGbIdbGlXNJ6xO7RJf+XihMan0rHk3dhcPgPsXZtMg9PoJZiAKCW41sBwSl4Hp4uleBpnP6rno8nh4cwHJJevxACedtCu+Ogw0mh3bGRdxw4woJjATYE0raNoy/beQBqngcPEq4PuNJHyXVRdD0U3DqKroeS54WpnfFb1N1bcP31/aYLoXhjACAj2ArQz5UST5UmUNZ4zn6h7uLxoSGUDNwUeJRjWZiVSaM3ncGsTBodjqP94h1fSozXXQzWqhis1jBYq8E1el+BeBm29w689doXDBZBMccAQEawFaCXBLClXMKQxnf9B2tVPDk0jLqBfn9nKoUFuRx6Mxl0pxyIAG/aOxEJYLRWx0C1gv2lyqub9FpsBBK/i1WrHjUxOMUfAwAZw1aAPruqVbxS07fp73ClgqeGR+C1cFk8bVmYl8tiYT6PmSd4P96kQt3F3lIJ+0olVFq7MlAFxLuxcuWPWzkoJQMDABnFVoC6Yc/F5pK+TX+HyhU8NTLyuvfTg9SbyeCc9nbMzmZC/wtJAuivVLGrWMBAtWX79GoQ8n1YsfqeVg1IyRD2v28Uc2wFqKlLiSdKRdQ0LdP3lSvYMDys9Q2Ck5mTy+Lc9g70NHhJTliM1evYUSjiQLkldx+4kysB97ViMEoGBgAyjq2A5m0tlzCgqe/fX6niieHhwL/5z8/lcF5nOzqdaE78x2phEKgBYg1Wrvy/QQ9EycAAQKHAVkDjDtRr2F6paHnWYK2KxweHA+35tzsOLu7uQm8mE9gYJg1Va9gyOorxgC5dmlSGL6/H6tW/DnIQSgYGAAoFtgIaU/MlHp8owtWwWF9w63i0fxD1gCZ/2xJY3N6Oc9vbtb++FzYSwO7iBF4YH4cbXJgaBsTVWLnyxaAGoGSI999GihS2AqZva7mMAQ2vptV8H78aGMCEG8x7/nOyWVzc3YWcbZ/6D8dI2fOwZXQUhyr6j2M+QrwM338jVq/mBVvUNF4GRKHxyfnzfwyIH5quI+z6666Wyd+XEk8MDQUy+QsASzo7cGXPjMRN/gCQs21cNXMmlnV1BbTqIc+EJe7DunXhel+SIoUBgEKF1wZPzYPEzqqevv/WsfFAjvfNOTbeMmsWlnR0tPwAn7A5u70N1/TOQpvjBPH4qzFr1v8I4sGUDAwAFCq8Nnhqe6pVVKT6QTR7J0rYM6H/Yp+52SxW9s5GT4ZfTI/qTqXwttm9mJPNBvB0+Qd46KEPBPBgSoBkx3MKLb4VcLyK9PFEcUL5op+CW8cjA4Par/Q9q60Ny7o6E/+tfyrbxsaxq1jU/dgJQFzOTYHUKK4AUCixFXC8XZWq8uTvA9g0MqZ98l/c3o6Lurs4+Z/ChV2dWNrVqfuxbYD8Z+4HoEYxAFAosRXwekXPx2ENG/9eGB/HSE3fEbZCCFzS3RXEpBZbi9vbcdmMbt3Lr5ehd+YX9D6S4o5xnUKNrYAjdJz4N1Kr4dHBIW333gshsHxGN+bnclqep8MZmQyu7erGsnwesydPGux369g6UcIvx0extxrUa3mNO1AuY+PIqLafBwAPEFdi5cqndT2Q4o0BgEKNBwQB456HjaUJpcV/CeCR/gGM1fXt+r+kuxuL2vLanqciJQQ+0nsaru8++TdrH8DPR0fwzYH+IA/pacieiRI2j47qfORWdHYtx/LlRu4vpmhhC4BCja0A4OVaVfm8vx2FgtbJ/4LOjlBN/p+ZvxA3TDH5A0d+2b29ewY+O38hnJDsVVjUlseSzg6dj7wI46P/QecDKb4YACj0knxA0ITnYUhx6b/sedhR0Lfz/My2PM7t0DppKbm99zQsy08/jCzL5/Hh3tkBVtSYJR0dOLutXeMTxWfwi1/M0/hAiikGAIqEpL4V8Eq9pvzt/7nxcW2X/MzNZnFRV5eWZ+lwRiaD67q7G/7cDd0zcHo6PJcSXdjVgTk5becEtMNxvqjrYRRfDAAUCUlsBVSlxCHFZfvhag37S3quqc05Ni6d0R2qV/2u7WpuN70FYFWIgowQApfPmIG8tmOT5Qewfv1yTQ+jmGIAoMhIWivggIZv/88XClpqsQBc0T0DaStcvzIuamDp/1iX5Ns0VqIuJQSu6Jmh6+4AC9L/Kx0PovgK199molNISitAAjioeE7/QLWKQU2vvS3t6grl8b69k6/6NfXZVPOfDcqMdBrn69tfcR0efvituh5G8cMAQJGSlFbAoOsqn/m/fVzPxr85uSzObg/Xt+WjsgorErmQrWYctbijHadlte1P+LyuB1H8hPNvANEUktAK6KurndY3VK1hqKb+7d+2RKg2/SXFJd3dml5VlG/Dgw++UcODKIYYACiS4twKqEuJIc9TeoauC2fO7+jQuDGNpitn2/petRTiU3oeRHHDAECRFOdWwOF6Xel42KLn4pCG3n9HysFZ7TrfT6dGnNPehg6FPQ6vErgF69efo/4gihsGAIqsuLYC+hUP/nm5OKHlfPmLu7v4C8Iga/KiJQ1swI9lWCY1/PtNkRa3VkBFSox4zQcAX0ot7/3Pz+UwK0QH5STVzEwa83QcECTxe7j/fv5A6XUYACjS4tYKGKyrffvvK1dQ9dXeHgCA8zq59B8W53VouWp5FjKZd+p4EMUHAwBFXpxaAYOe2rv/e8sl5RrmZrPo1NF7Ji26Uo6e1wItfFj9IRQnDAAUC3FoBfgARt3md//XfB8DFfXNf4s7+O0/bLSsAkisxoMPzlR/EMUFAwDFQhxaAcOuC0/h8N8DpbLy0cG9mQx60uE78S/petIpzMoorwKkYItbdNRD8cAAQLER9VbAqMLmPwDoq6hv/juHr/2F1jk6TmOUuE39IRQXDAAUK1FuBajs/nelxJDi3QEZ28JsfUfQkmanZbPI2Mq/st+G9euZ8ggAAwDFTFRbAZ6UKCjs3h+oVOErvvu/MJdv6mpdag0BYEG2+dsPJ6Xh+ys0lEMxwABAsRPFVsCY70Fl/j5crSjXsDCfU34GBWthm4afkZA3qD+E4oABgGIpaq2AcU/t3f2BqtrlQZ2Og64QXo9Lr9edSml4RVOs1FIMRR4DAMVS1FoB4wqX/1Q9HxOKxwcv4Lf/yJiv/rM6D48+2qujFoo2BgCKrSi1Agp+8wFgqKb27R848vofRUNvRvk1TQHX5RXBxABA8RaFVkBdSqXje0fqagEgZVno5vJ/ZMxIp+FYir+6pbxaTzUUZQwAFGtRaAWUpK90gM9YXe31v5mZNITg/v+oEABmphUDm4WLtBRDkcYAQLEX9lZASXEDoGoA6OWtf5Gj/DOTDADEAEAJEeZWQEmh/1/1fVQVA8Qs9Z4ytdgs9QOb5vNeAGIAoEQIcyug7DffACgqXh8shECH4yg9g1qv03F0tG3O1VELRRcDACVGWFsBFdn8N/iSwuuDAJC3LVjs/0eOJQRylq32ECEW6aiFoosBgBIljK2AqsIRgBOKFwjx2390Kf/shDxTTyUUVQwAlChhawVIADWFVwDLrtoKQLvyqXJkSrtyeBOL1KugKGMAoMQJUyvAlRIqW/hUzg8AdEwiZEp7SrEFADlbSyEUWQwAlEhhaQW4ijf41RTeIACAvKM6iZApeVv1ZydmaSmEIosBgBIpLK0AV+kIIKDmqX3eEfwVEFXKpwECfA0w4fi3nxIrDK0AT3EFoK4YIBwrum8AZBIeXlLqb29066iDoivZf4Mo8Uy3Aly1+Ru+YoBwIvoKYEZY+NP5802XYZSG8MYjIBOOAYASzXQrQO0WgGQGgIyw8GfzF+CifJvpUozS0L5hAEg4BgBKPKOtAKk2Aau9AxC9AHB08l+Wz5suxTgNPzsGgIRjACCCuVaAFIo9gATRPfmXFV+hJIo6BgAimG8FNEv1L7Dqa4itkrUsfHaB3m/+g67aLYqmafjZVXXUQdHFAEA0yUQrQHURV/Uc/ygEgKxl4c/mLcAFOb3L/lsmSlqf12quwh0SkxgAEo4BgOg1Wt0KsBUjQNwDQM6y8Ln5C3Gh5p6/BPDQ+KjWZ7aaq3CL5CQGgIRjACB6jVa3AlTf5FJ9F9z1wtsHz1sWPjt/IZbkctqf/eDYKPZUoz3/1VXDm8SInkooqhgAiI7RylaA6gpAWvE0ONWTCIOStyx8dkEwk/+OShn/b7/xU6CVuaqbGC0M6qmEoooBgOgEWtUKSCm+y5221T5fUrxNMAh5y8LnFizEeVn9k//L1Qr+4sB+9W/PIVDyFH92Pob0VEJRxQBAdAKtagWkFFsAqsfhFl1XrQDNjk7+5wY0+X9u/z4UVSfOkCjWFf89BAb0VEJRxQBAdBJHWgHBcoRQ+kuYU7zNrxiiV+FaMfkXYjL5AzrCm9yjow6KLgYAIsPSChv52mxHaexCSFoAQU7+e6rV2E3+AFBQDW9SvKynEooqBgAiw9IKrwLkHcU9AJ6nfJ+Aqqxl4fMLTg9s8v/s/r2xm/w9KdVPMpRcAUg6BgAiw3Ki+WX8DielNLaUEgXD+wA+PnsOFmez2p975Jt//CZ/ACi4LqRqcHPdF/VUQ1HFAEBkWE7hVb60ZSGr+CrggMH34c/L5vDWzk7tz31lcvIfj+HkDwADFdWfmdiHG24Y1lIMRRYDAJFhOcXTgDpTaqsAg9Wa0udV3NDdrf2Ze2M++QPAYE31Zyaf1VIIRRoDAJFhecVv8F3KAaBq7DigZfk2rc/bVzvS8x+L8eQvAQyprtoIbNVSDEUaAwCRYe2Wo3QeYE8mrTS+KyVGa61/HdARAj2O2lsMr7WvVsVn9+2L9eQPAMO1mvodDj5+q6caijIGACLDHKF2oM/MtFoAAID+akX5GY3Sueqwt3pk8h/1wnWwURA0tGwkLOtxHbVQtDEAEIVAu8KRvmnLQrvieQD7y2WlzzfDkxJDGg4ierlawWf2703E5A8AB0rK1xi/gBUreA8AMQAQhUGHrXai36ys2ipAoe5irN76CXSr4mS2e/KEvzhv+Hut0Xod48qvbYr1WoqhyGMAIAqBLkstAJym4T36ferfLBv289HRpj+7o1LGZ/bF8z3/k9HyMxL+A+oPoThgACAKgS5b7WLg3kwGlsKRwgCwr1xu+dsAOyplPDI+1vDnXiiX8fn9+1BSPQ0vQiS0tGqqgP2IejUUBwwARCHgCIE2hX0AjhDKmwGrnod+5QNmGvf1/sN4sTL9iW3jRBF/fmCf+lG4EXO4XEHVU/13lo9gxYqiloIo8hgAiEJihqW2kW9+Tv0s/V3FgvIzGlXxfXxu3z48NDY25QqED2Dd0CC+eGA/Kgmb/AFgV3FCw1OsdRoeQjGh7yVcIlLSk3Kwr978K17zcllsGVV7vW6gWsNwrYYeDa8WNqIqfXz18EHcPzqC67q6cWE+j95UChaAMc/Dc6US7hsZwisGjy02abhWx2BN+d+9jlrtX3TUQ/HAAEAUEjMsGxaOfNNtRtqy0JvJoF9xktxRLOKqnh6lZzRrd7WCf+o/ZGTsMHuxoGNlRv6C5//Ta7EFQBQSthDoctTeBji9La9cx6FyxcjJgHRiY3UXhysaDmoS+Lb6QyhOGACIQmSWrXau/7xsFhnFuwUAYGeR+8TCYvv4uI7HDKJc+1cdD6L4YAAgCpHZKbV7ASwhsCCvvhnwQLmMwYT228NksFrDQR3f/iG/hRtv5A+UXocBgChEssJSPhXwrLY2CMUzAQBgy9hY0/sRSJ0vJbaMNn5Gwgl4kOLrOh5E8cIAQBQyvYo35LU5DuZkM8p1FOouXiqwFWDKrmIRBQ13JQC4F6tWvaTjQRQvDABEITMnlVZqAwDAOe3tWmrZXiyglKCjdsOi7Hp4UVf4Etbf63kQxQ0DAFHIZIXADMXb/Wam05iZUX+X3/Mltiqc10/N2Tw6Bk9qOZj5YaxY8YSOB1H8MAAQhdDctNrbAABwQWeHhkqAQ5UqdvGtgJbZWSzicFXHxj8AEl/Q8yCKIwYAohCa7aSQUtzINzOdQa+GVQAAeG5sHMO15k8ppOkZqdXxwpiW1/4AgZ9h1apH9TyM4ogBgCiELADzUjpWAbrUi8GR44U3DI+glsAz+FulLiU2DA/revPCh4//pudRFFcMAEQhtUDDZsAZ6RQWajgXAADKnodNI6OQenrT9BpSSmwcHta44VJ8C6tWbdL0MIopBgCikMpaFnod9VWApZ2dcDScCwAAhyoVbNW1RE2venZ8HIf1XcVcgON8RtfDKL4YAIhCbKGGzYBZ28a5HXo2BALAyxMT2K7lchoCgO3jBezWctXvJCG/gGuuOajvgRRXDABEIdZtO8qvBALA4o52dGnYU3CU9kkrofboD1Nb0NH9jzofSPHFAEAUcos07OQXAC6bMUN5T8FrPTs+jgPlssYnJsuBchlb9LZTXEDcjuXLeZUjTQsDAFHI9dgOuhTvBwCArpSj7YRAYHLj2sgoXuZKQMP2TpSwcXhE74ZKiS9h5cqn9T2Q4o4BgCgCzsqon+0PAOd3dWJGWs/ZAMCRELBlbAzPcWPgtO0sFrFpdBSa36V4GkNDf673kRR3DABEEdBjO5ipeEkQcOQv/PIZM7S9FXDUzmIRW0b5iuBU5OTtfgGEpQlAvA9r1/KkJmoIAwBRRCzOZLVc89vm2Li4u1tDRa/38kQJT47wsKATqfk+ngDAKIkAAAavSURBVBgexssTQbRLxB1YufLFAB5MMccAQBQRbZaFORpWAQBgYT6HM9vyWp71WofKFazvH8AQjw1+1Uithkf6B3W+5/9vJL6MlSv/Wf+DKQkYAIgi5JxMVvmOgKOWdXWhR+N+gKPKnofHBgaxvVBIfEvgpeIEfj0wiJLnBvB08Ri6uv4kgAdTQjAAEEVIWgiclc5qeZYlBK6a2YM2R/0Ng2NJHDkr4InhYZRdXcfbRkfJ8/D44DCeHRvTdbb/McTLqNdv5St/pIIBgChiFqRT6NTwWiAApC0LV82cqW1V4ViHK1U8ONCP7YUC/ASsBvg48q3/4cP9+q70Pd4wgLfj+uv7gxqAkoEBgCiClmSz2g716XAcXDVzJuyAQoDnS2wfL+DhwwPoD6IPHhKD1RrW9/fj2bExuMGFnRIg3slNf6QDAwBRBHVYNs5M6zkbAABmZtK4sqcHVkAhAACKnovfDg3hqeFhjNXjs3I9WqvjyaFhPDY4iEI9iF7/q2qAuA0rV/4myEEoOfRsKSailluUTmPIczGm6QrZ2dkMls+YgQ3Dw7oPqXmdvnIFfeUKZqYzWNLZjl5Nhxy12nCthh3FIg6VA1vqfy0XEu/BqpX3t2IwSobg4j5RDHyl70CoG9cTvo+nJopaN5odKlewYWQEXot69rMyGZzT3obTNLY1giIBHK5UsKs4gcFqy9oZNUC8FytX3tuqASkZwv73jciosAcAADhQr2F7Re+30MFqFU8MDQfZyz5O2rIwL5fFwnweMwN4PVFFoe5ib6mEveUSql5LDzoqAWINVq78eSsHpWRgACCaQhQCAAA8XynjoOa++lC1hieHh42c7NeRcrAgl0dvOo0ZmXTLf1FJHDnAp79axYFyOeje/skMAeJm9vwpKAwARFOISgDwpMSGUgkTvt537idcD48PDaHoGpkAAQCOEJiZSaM3k8GsTAadjqN9s6IvJcZdF4OVKgZqVQxVay1d/TiB3RDWO7BixXaTRVC8MQAQTSEqAQAASr6PDaUiXM0VVz0PTw2PhOZ4XyEE8raNdttBe+rI/82nbKSEBVsIOEIgZVmvXnjkSom678OVcvIfHyXXQ7Huoei6KLguyr4XolMLxWNwnDW45poB05VQvDEAEE0hSgEAAIY9F5vLZe2TmQTw/Ng4dhaLWp9Lx5J3YXD4D3mzH7UCXwMkipEe28E56TR2at6hLgAs7epEZyqFzaOjLXtDIEGKEPLjWLH6f5suhJKDBwERxczp6QwWpFOBPHthPodVp/UGcolQYglsgC8v5+RPrcYAQBRD52VyOC0VzAJf3nbw5t5ZOLejnT1ENS4gvoiOrjdh9eodpouh5GELgCimlmbzcGUJQwHs4LcAXNDZifm5HJ4ZGcVojI72bZEt8OVHsXrVBtOFUHJxBYAopgSAZdkcOm39f81tIWS7bZcWZXP73jV3zuPLujo2WgLxvelHnwKE/E8Q1nKsXs3Jn4ziCgBRjNlC4NJcO54pT2C8wTsDhBAyC1HNWmLQsaz9DsQuW8hnPchHv7bonCchxOt3Aj766Fy4tc8D4nYAeu4rjg8J4HsQ1n/GihWHTBdDBPA1QKIpRe01wJPxpMTmchmj3uvbARaAjLAq057kp2P9+uWQ/l8BuE5P9VEnHoCUf4ZVqzaZroTotRgAiKYQkwAwIoDdNYm9O6qVWbYQu1MQm6VTffjLC5dsDWzU9b98M6T9F4B8W2BjhNvDkPgMVq36relCiE6EAYBoChEKACMC2C0hdkshd1tS7Pal3O2l68/9h95FB41W9tBDl0Hg3wP4d4h/29GHxP2Q8otYvfpx08UQTYUBgGgKIQsA4Z3kp+Ohh84GcCcEPgig13Q5mvVD4Dvw5NewevVu08UQTQcDANEUDASAaE/y07FuXRozZ94MCx+GxGoAwZxaFLwaIH8JgW9jYPgnPL6XooYBgGgKAQWA+E/y0/XAAz3IpNZA4jYAbwWQMV3SKVQB+QgEfoiq+yPccMOw6YKImsUAQDQFhQDASb5RP/95GxxnJQTeDmAFgPNg/neUhMR2CLkeAj9DzVuP66+fMFwTkRam/3IRhdopAgAn+SCtXz8LUl4NId8IKS4B5DIA8wMedT8EngWwBVI8Dt//DVavHgp4TCIjGACIpvCVvgNDgNglIHdKiV1SiJ0Q3k7Xxa5PLVzI5d9We+CBHqRSSyDEIgh5JiTOAORsQMwCMHPyHwdH9hW0T36qAMAFUIfEEIQYAvwhQPQDcg9g7YHvv4xMZjve8pYRE/9aRCb8/1LpzQDuLx8XAAAAAElFTkSuQmCC;container=0;" vertex="1" parent="1">
          <mxGeometry x="-1375" y="-875" width="90" height="90" as="geometry" />
        </mxCell>
        <mxCell id="bc7KVerA1UK6MyxtnoFU-13" value="&lt;font style=&quot;font-size: 20px;&quot;&gt;noise&lt;/font&gt;" style="text;strokeColor=none;align=center;fillColor=none;html=1;verticalAlign=middle;whiteSpace=wrap;rounded=0;fontSize=20;fontFamily=Architects Daughter;container=0;" vertex="1" parent="1">
          <mxGeometry x="-1360" y="-960" width="60" height="30" as="geometry" />
        </mxCell>
        <mxCell id="bc7KVerA1UK6MyxtnoFU-14" value="&lt;font style=&quot;font-size: 18px;&quot;&gt;handling missing val&lt;/font&gt;" style="text;strokeColor=none;align=center;fillColor=none;html=1;verticalAlign=middle;whiteSpace=wrap;rounded=0;fontSize=20;fontFamily=Architects Daughter;container=0;" vertex="1" parent="1">
          <mxGeometry x="-1510" y="-915" width="100" height="30" as="geometry" />
        </mxCell>
        <mxCell id="bc7KVerA1UK6MyxtnoFU-15" value="&lt;font style=&quot;font-size: 18px;&quot;&gt;Clean unnecessary&amp;nbsp;&lt;/font&gt;" style="text;strokeColor=none;align=center;fillColor=none;html=1;verticalAlign=middle;whiteSpace=wrap;rounded=0;fontSize=20;fontFamily=Architects Daughter;container=0;" vertex="1" parent="1">
          <mxGeometry x="-1240" y="-915" width="60" height="30" as="geometry" />
        </mxCell>
        <mxCell id="bc7KVerA1UK6MyxtnoFU-21" value="" style="shape=link;html=1;rounded=0;sketch=1;hachureGap=4;jiggle=2;curveFitting=1;fontFamily=Architects Daughter;fontSource=https%3A%2F%2Ffonts.googleapis.com%2Fcss%3Ffamily%3DArchitects%2BDaughter;fontSize=16;entryX=0.424;entryY=-0.001;entryDx=0;entryDy=0;entryPerimeter=0;exitX=0.5;exitY=1;exitDx=0;exitDy=0;" edge="1" parent="1" source="bc7KVerA1UK6MyxtnoFU-13" target="bc7KVerA1UK6MyxtnoFU-12">
          <mxGeometry width="100" relative="1" as="geometry">
            <mxPoint x="-1345" y="-915.74" as="sourcePoint" />
            <mxPoint x="-1315" y="-915.74" as="targetPoint" />
          </mxGeometry>
        </mxCell>
        <mxCell id="bc7KVerA1UK6MyxtnoFU-22" value="" style="shape=link;html=1;rounded=0;sketch=1;hachureGap=4;jiggle=2;curveFitting=1;fontFamily=Architects Daughter;fontSource=https%3A%2F%2Ffonts.googleapis.com%2Fcss%3Ffamily%3DArchitects%2BDaughter;fontSize=16;entryX=0.016;entryY=0.407;entryDx=0;entryDy=0;entryPerimeter=0;" edge="1" parent="1" source="bc7KVerA1UK6MyxtnoFU-14" target="bc7KVerA1UK6MyxtnoFU-12">
          <mxGeometry width="100" relative="1" as="geometry">
            <mxPoint x="-1550" y="-795" as="sourcePoint" />
            <mxPoint x="-1450" y="-795" as="targetPoint" />
          </mxGeometry>
        </mxCell>
        <mxCell id="bc7KVerA1UK6MyxtnoFU-23" value="" style="shape=link;html=1;rounded=0;sketch=1;hachureGap=4;jiggle=2;curveFitting=1;fontFamily=Architects Daughter;fontSource=https%3A%2F%2Ffonts.googleapis.com%2Fcss%3Ffamily%3DArchitects%2BDaughter;fontSize=16;exitX=1.03;exitY=0.381;exitDx=0;exitDy=0;exitPerimeter=0;" edge="1" parent="1" source="bc7KVerA1UK6MyxtnoFU-12" target="bc7KVerA1UK6MyxtnoFU-15">
          <mxGeometry width="100" relative="1" as="geometry">
            <mxPoint x="-1260" y="-825" as="sourcePoint" />
            <mxPoint x="-1210" y="-845" as="targetPoint" />
          </mxGeometry>
        </mxCell>
        <mxCell id="bc7KVerA1UK6MyxtnoFU-39" value="" style="endArrow=none;dashed=1;html=1;dashPattern=1 3;strokeWidth=4;rounded=0;sketch=1;hachureGap=4;jiggle=2;curveFitting=1;fontFamily=Architects Daughter;fontSource=https%3A%2F%2Ffonts.googleapis.com%2Fcss%3Ffamily%3DArchitects%2BDaughter;fontSize=16;" edge="1" parent="1">
          <mxGeometry width="50" height="50" relative="1" as="geometry">
            <mxPoint x="-1260" y="-820" as="sourcePoint" />
            <mxPoint x="-1200" y="-810" as="targetPoint" />
            <Array as="points">
              <mxPoint x="-1230" y="-810" />
            </Array>
          </mxGeometry>
        </mxCell>
        <mxCell id="bc7KVerA1UK6MyxtnoFU-52" value="" style="shape=flexArrow;endArrow=classic;html=1;rounded=0;sketch=1;hachureGap=4;jiggle=2;curveFitting=1;fontFamily=Architects Daughter;fontSource=https%3A%2F%2Ffonts.googleapis.com%2Fcss%3Ffamily%3DArchitects%2BDaughter;fontSize=16;" edge="1" parent="1">
          <mxGeometry width="50" height="50" relative="1" as="geometry">
            <mxPoint x="-1490" y="-780" as="sourcePoint" />
            <mxPoint x="-1456" y="-774" as="targetPoint" />
          </mxGeometry>
        </mxCell>
        <mxCell id="bc7KVerA1UK6MyxtnoFU-26" value="&lt;font style=&quot;font-size: 24px;&quot;&gt;Model Training&lt;/font&gt;" style="text;strokeColor=none;align=center;fillColor=none;html=1;verticalAlign=middle;whiteSpace=wrap;rounded=0;fontSize=20;fontFamily=Architects Daughter;container=0;" vertex="1" parent="1">
          <mxGeometry x="-1060" y="-920" width="170" height="30" as="geometry" />
        </mxCell>
        <mxCell id="bc7KVerA1UK6MyxtnoFU-27" value="" style="shape=image;imageAspect=0;aspect=fixed;verticalLabelPosition=bottom;verticalAlign=top;sketch=1;hachureGap=4;jiggle=2;curveFitting=1;fontFamily=Architects Daughter;fontSource=https%3A%2F%2Ffonts.googleapis.com%2Fcss%3Ffamily%3DArchitects%2BDaughter;fontSize=20;image=data:image/png,iVBORw0KGgoAAAANSUhEUgAAAgAAAAIACAYAAAD0eNT6AAAABHNCSVQICAgIfAhkiAAAAAlwSFlzAAAOxAAADsQBlSsOGwAAABl0RVh0U29mdHdhcmUAd3d3Lmlua3NjYXBlLm9yZ5vuPBoAACAASURBVHic7N13lFzVlS/+7z73VnXOanUrAgYhQIhggwEFkBiCsU2U5Aw2IDDBefzGv9+z5408M/bMrLE944iNwTjxPDY2NmCTDIggiWCiEkGWDAqt7pY6VKdK9579/igJWqJbHerce25V7c9aWtjQfc7uUnWdfU/YhyCEKHqrVz95uI7hPWAsBuFYaMwGoRYAwOiDwnbS2KwVP0HE9//dwoVvWA5ZCOMS62Y2Quv3MPFZYDoB4HcAqAFQBiABRjsIrwC8Tmv3wcYzd663HHKgyHYAQohgrGJWZz7x9KVM+rMALcL4f98ZRE8Q+NuPLzz9D6uIdJBxChG0xBMtpzHUF0G4ELnBfrw2gvgHdZny22jp66mg4rNFEgAhitBDa55eTKy/B+CEfNph0IuK+VNnn3nGWkOhCRGa3sdajiCHvs2gC/NsahfAX6hf1P4bI4FFhCQAQhSR1atXu9ot/wqAfwSgDDXLDHy3viL2xVNOOSVrqE0hApV4YtrlTPgBgGpjjRL+AB27qn7x9h5jbVokCYAQReKBB16qilUO/ZaB9wTSAfEjZdCXLFq0qD+Q9oUwgBnUu2b6PxHxPwXTAV7WRO9pXNS2PZD2QyQJgBBF4J5nn62sTGYfBLAwyH4IWFPu8HkLFixIBtmPEJPVs6b1uwT6VMDdvOG7alHT6bt2BtxPoExNEQohLGFmqkhl/i8CHvwBgIFFSZ9uZ2Z5eBCR0/vE9C+FMPgDwGGOp+9rf6ClKoS+AiMJgBAF7uE1T3+BmC4OsctLVz/x1OdC7E+IMXWvmbYYxP8aYpfHV1SpH4TYn3GSxQtRwB5eu/YwaLUZQGXIXSc9readf9Zpfwu5XyHehjfNiyd6ul8CcEzYfRP4fXWL2u8Nu18TZAZAiEKmnf9E+IM/AFS4Sn/dQr9CvE1vb/enYGHwBwAGfZO5MMdSmQEQokA9smbNXGZnM+wl8j5DHXfO4tNes9S/EOB7jyrrqx3YxqDp9oLgD9Qvbr/DWv+TVJBZixAC0HCvht3fYYegr7LYvxBI1A1caHXwBwCia632P0mSAAhRoBTzh2zHACAKMYhSxvRh2yEAOHvgqakttoOYKEkAhChAj6xZM5eBWbbjAHDYg489Ncd2EKI07Vt7X2o7DgDK990oxDEhkgAIUYCY3XfbjmE/RTjNdgyiNPU/Of1oAA224wAAMBfc74EkAEIUJJ5rO4K36KNtRyBKk8+IzO8BIzqxjJckAEIUpqm2A9hPkYpMLKK0EDg67z2C7AEQQoQiMiVIGVxjOwZRmlhbqYExMjZ462BIJAEQojBF6Xc3SrGIEkKKM7ZjeAunbEcwUfKLK4QQoiARVI/tGN5EFJ1YxkkSACGEEAWJmf9qO4Y3MbbYDmGiJAEQQghRkIbKaTOASCwDEOgl2zFMlCQAQgghCtL0U9qGCHjadhwAoLR+xHYMEyUJgBBCiIKlgd/bjgHAazVntm+2HcRESQIghBCiYLmkbweQthoE00+s9j9JkgAIIYQoWDULOzoB/NReBJRgL/4je/1PniQAQgghCpqnnH8B0G+lc8LXG5a+3mul7zxJAiCEEKKgTVmwcxcRfSX8nnl9XVnbf4XfrxmSAAghhCh4tQvavkvge0LsckAp9UE6BdkQ+zRKEgAhhBAFjwicgfdRAM+F0FuWwB+oXdD2SvB9BUcSACGEEEWhedHefkfzBQCeDbCbFDN/sG5R+30B9hEKSQCEEEIUjZoz2/dkst5SEN1hvHHGTqXpnIbFu6NQeyBvkgAIIYQoKlOX7hmoX9j2AWa6OulX5F0jgEHw4P5f5dHJtWe2rTURYxRIAiCEEKIoNSxu+8l1W37yu//p/AgG/aoJfz+D8Gz/qfhfW/8bFz7z65W1S9v2BhCmNa7tAIQQQoigdHlN6V90fAK/3vMRnFG7DqfVPon5VevR6HaN+PUZjuO1oWPw/MC78GjPUnRkW/f9FztlBoJkPAG44IJPl+myxIkAz2XgaGhMBaGaCDHTfQlRqt7YvuP0w2bPsh1GJPBHP1qLTJ2mO34wYDsWEV0ZHcdjvUvwWO8SAECt24dp8TZUqCRilEVSV6Ar24SOTCt0iUyOG0kALrjsozM9rT6imM7z0bsAjIo3/yPl/sFsoichBAAMDaVshxAKXrLKRePOU0C0AOCjALwD4HcANAVAPQBCCgAy4GUrPQAJAL0A7wXoDQBbAN4Cxa8B9CrdcWu3vZ9GREmfV4s+r9Z2GFblkwDQ+Rd97L1M9Dnfx9kEKIaM8kKI/PClVzSByj4IwsXAzoUAqnDAZwuN9q0ugKbcHzoSwGlvfr3OfQ8vW/kqwE8C9CQ0r8OJszbTqlU6qJ9FiCibVAJw7sWXv5fAX2PQSaYDEkKUJl6+cgmYPgvwewGOB9TNXIDmAvgEFAEbdvbyspUPgvmPKHPuo1/dXFSbvIQ4lAklABdc9tGZvk/fAXDpIbJwIYQYN16+cjEY/wzGEoQ/i1gP4AMg+gAy2udlK58C8EdA/YF+d3NBV3kTYizjTgDOu/jyC30ftyE3xSaEEHnhSz5RD8f9DzCuQTSeKBwAC3N/9L/xsms2g/Bz+M5t9PsfdtoOTgjTxrPVkc67+PJ/BXAXZPAXQhjAy686D467GcC1iMbgPwI+Dsz/DuXt5OVX38WXrVzOF3y6zHZUQphyyBmAFStWOIlM+U0ArgkpHiFEkeNlK68F4/sonDokMTBdBMJFqEwmeNnKn4H5W3TnrW/YDkyIfBxqBoB6M+W3QQZ/IYQBDBAvu+a7AH6Ewhn8D1YH4DMg+isvX3kHr7jmLNsBCTFZo/4Snnfx5d8EcHmIsQghihQDhOUrvw3mT9mOxRAXjOVgXs7LrnkJpL+Hwcpf0H3fzbvuvBDDdT8+8wQifykpPoGZ5hK4BqBqAD0AupjxiiJ62slmH6leuqd9Im2PmACcf/HHrmTg8yaCF0IILL/6n8H4tO0wgsEngunHqEp+lS9b+Z/IqpvpnpuHbEclClfvE7MbQNnrQfgE2J8DAGDat1nmwC0zRDiPwfBiru5dM/1RQP+obmH7b4kwZn2Lty0BnH/hx+cx6HsmfgghhODlKy8D05dtxxE4xnQQ/gsx/QYvX7mKL/lEve2QRGHhTfPivWunfRmUfQPA18CYM4FvVwCfDdCvE2unbU48Me094/iGt6xatUqx0rcCqJxg3EII8Ta84qq5YPwckd3pHwDCFDD+CY67lZdd/X8kERDj0bWmdV5fT/fzYPwrgJo8m5vLhPsSa6b9rHN1c/VoX3RAArDuhW3X4c3ymUIIMXm8YoUDrX4KYOL3sBaHRoC+Csd9nZet/DJffnmpvg5iDIm1re9zQE8zMM9kuwxcEY+5T3Y9NWPmSP/9zQRgyYoV1QD/s8nOhRAlTNd9AcDptsOIgDoA/4qhsi28/OpP8pJVhXoCQgSgd+20Zcz0BwSXKB/veHpN12PT33Z96JsJQDxTdh2k0I8QwgC+9LqpAH3FdhwRMw1MP0TTzo28/OoVXErLImJEPWunnQnG7Qj+WOxhjuIHup9tqBv+LxUALFmyxAWU7PoXQpihvK8CXNp3rY5uLph+g8tWruXlKxfbDkbY0b+2ZSqY/gdAONUlCceqdMWPh/8rBQDxhtnvAXh6KEEIIYoaX7ZyJoCrbMcReYQzwHicl13ze16x8gjb4Yhw+UzfIfC0UDtlXtH7ROuK/f9XAQD7UvBHCGEI8RcBBHWdbxHiS6DxCi9b+W1eccOoO7bF5LBG3dhfNXYzM2fuzBhoBwDQvWbaYoA+aKq9CSH6Jt97VBkAqCVLlrhEPOZ5QSGEGEtuAFNX2o6jAMUBfAY68zIvX3mF7WCKCRFG3AE/IYyhOz7wAd9AOAAABdjcHzMrUTt4JQCo8obZpwKQtTohRP44/SFZ+8/LTDB+xsuueYSXXWP0SFgpWvJfL9QzcHLeDREnDIQDAEism3kUgHNNtTcZBHwKAJTPLJtQhBBmMMnTqxG8FOAXeNk1/8krrjUxhV2SsmWx5QBi+bdEf8u/jX209xFYPgHCwLzudS3zFYGPsxmIEKI48KVXNAFYYDuOYuAB6NM6tjvrfXFHOtO19+Kr/t12TIXmjG+tqwDx/zHRFgOvmmgHADToPFNt5YNYnavAaq7tQIQQRUDF3g/AsR1GodIA+n2N3VkfOzMeuj2NNDN8htOv9Zd2X3TlG3sv/MQxtuMsFKqi+iYAbyt+M6m2COtNtMOr4RJwqom28kWMBQrgGbYDEUIUhQttB1CIPAZ6fI2dWQ9dfm7QH0mKefYgsHnPJVf+IuQQC8qK3/zGWfjD9f8F0MfNtUqPmmil353xDkTkhAwBxyiAZMOOECIvufK20ZjaLBRZZnR6PnZmPSR8DT3yuH8ADdCAzx9ru+jKjr0XXyn3thzkjJs2nbyr69iHwfQ5g83uWfPJeUZmAHz4kam3w8B0F2D7F1Q4Cm5dFVRlDH4iCb8/aTsiIcRENGyfB6h8bzArCR6AhKfRr8e8rn1UaeapGcZTW5ffsO7TS676Qp+Ke+YiLBw+OY5D3MKaj2HC+wh6MUa45j5Pd4JoHOnZ2JRC1SgTPDbUuAi+BvHICKicNws1C49G/B3NULG3wvD7kxh6aTv6Hn8F3t5+K+EJISZAOe8GovPJFkUaQK+v0e9rI68UA1DpoQXfeeTHT3335Pfh2SmlV0xQQYMZAAW3rV6BzC25EHkR+jXJWBn83bpKNH1kAcrntI74352aCtQsmovq045C4uGN6HtoEziPbFkIETR9qtxtM7qk1ujyNbwAPvydbBqf/8ud2NY0C1975yVIuZFYYi4OxJue+OTx63C9ofa0TpifoJgcBiVCj8Stq0TrZ84fdfAfjmIO6t9zIqZefw7cusoQohNCTArTibZDiCKfgT2ejw4vmMF/P2bgiL078ONHfojTOrcG11GJIY2vm5r+BwBF2GaqrXwp8NZwEwBHYeo1Z8NpmNi2g/Ijp2LaF9+HimMis39CCDEc4SjbIURNihltWQ+D49ndZwh5WXzmuT/gH5/7PVzIrGmeXpk25ZVfm2ywZmFHJ4B2k21OFgMbQ00Aas86FrHp9ZP6XlVVhqnXnI36954IUtGYQhFCAGVDyRiARttxREmf1ujI+jBWPH4CmIG5Hdtw64PfxwndOyxEUCSYv2Cy/v+whh8z3+Zk8OrwRlICahbnWXOIgLpz5suSgBARUtHda/8kUURoZnR4Gt2emY1++XC8DL701G9w46Y/W46kADF+vfaGE+4LomlidVcQ7U5QirPlD4aWAJQdMdXYoC1LAkJER1kqaaDWeuHzAOz2NJIR2rDMAM54Yz1uXn0zpg0Zu8+m2G3XcXVDUI0PVuAugCz/ZdDdDUtf7w0tAYhPm9zU/2hySwJL0XDpKbIkIIRFbjJT8tvOs8xoz3jIRuiQ93CVyX588/FbceH2F22HEnVZrfHhJ1fO6w6qg+mntA0B/IOg2h8PIv0NIMTzCKqqzHyjRKhdfIwsCQhhkZP1Srr+f0ozdnsaUa/EozXjgxsfxtef/jViEZqliBAG+Monb5y/LuiOVJa+BaAr6H5G8fu6he1/AUJMADgT3K+HLAkIYVEJH/9P7yvnqyP65D+S2V07cevDskHw7fjv115/wu1h9FS7tG0vQF8Ko6+D9Gu8VSY5tAQg2x7skocsCQghwpRhRkfWj8RhO4eAckWoVgoNjkKjq9DkOGh2HUx1FaY4Co2ugwZHodZRqPKy+N/P/BbXvrwaSmYDfAZdu/b6E/4rzE7rF7XdCsKvwuyTGDc2Lmrbvv//h1YJMPW3TnDGB8UDnC3ctyQQn96Irl+ugZcYCq4vIUTJyjLQ4dkb/OMElCuFciKUEcE55CwMvf1/7/sY/tjO9Tizewd+d9hJuH/asUg6Jbefs4eAK9Zef/wfbXQ+VEYrK1P6cIDOCKG7f6tbvPuAssbhLQGkPQw8/ddQ+io/cipav/heWRIQQhjng9HhefBDnvWPE9DgKMyKOZgec9HoKFSqsQb/Q1MEHJ7swd+/shq/f+JW3LhlDRoyJXIZG/PTPrx3rrl+vpXBH8htCHQ0Lgbh+SD7YfB36xbu/vLB/z7UufLEQxtDu+nPqSqXwkFCCKMYwJ5ssGV9hyMA1Yowfd+gX+coOBTMpotqL40Pv/Ec7lh7G67fsgbVXjqQfmwjIEGEz8U6uxY9df3Jr9uOp+bM9j2+k17KREEkIh4zf7FhUftniN5emiLUkdHvT6Lrl+ugsyHtl5XCQUIIg7o9H6kQNvztH/hnxB1McR3EAxr0R1LuZ/HRN57Db9b+FBft2ggqoA2OYxhi4NuuVsesuW7+tx9dtTQyBzeaTu/uq1/QdhERfTbLMSOZV0bHtylFZzUsbv/maF8T+qNxcstu7Ln5EeihTGh9yikBIUS+BnxGfwh1/auUwsxYbuB3LR6xqM2m8A8vP4xvvnAXWlN91uLIFwNbQPxPDH3Euuvnf+7RG+dFohb/wYjAdQvbvvP3f/3Od+7tfj+yPLn9GF3ZJty8+wZc+8qPl9UuaDvkkUYr1wGntnai7Rt/RPPli1F2RHMofe4/JdC35lX03vW8XC8shBg3jxndfrCV/V0QmmIKFSE+7Y/Hu7vfwE+fuh3/eczf4eHWo22HMx5DAJ4B+BFSzoNrPznvadsBTcS25FF939/1GdzecQXOrFuNhXVrMLfyFcQoO+r39Pl1eGngJDzWuwTP9p+GLLtg6DFnOKwkAADg9w6h4/t/Rt25x6PuvBPCOUsspwSEEJOwx9OB7vivcRQalULExv43VXsZfHXjfXzhro3r/uGki/6UVU4knqAYpAmcYEUJAN3sOa+tu/HY7Sav8LWl16vH3V2X4u6uSxFXGcyKb8f0sl2ocgZRplJI63J0ZxuxMz0L7dlp0DzxCX1rCQAAsNbofWA90ju60PSRBXAqA6gWOIL9pwS6bl+H5CttofQphChMCV8jHdA6uALQ5DqoUhEd+Q9Ep/TsWPjI6h8MonxoBd1+ezTXBT5lOwDzMjqOramjsDVl9tbtSGyPT27ehd3f+BPSf9sTWp+5UwJSOEgIMbosM3r9YB52YwRMixXM4D8Mn4dUxWN86XVTbUci8hOZkW//kkDigfUI7R5NuUtACHEI3T4H8nEUJ0JrzEUsqnP+YzsJynuML7t2mu1AxORFJgEA3loS6Lx1Nfyh8M6gSuEgIcTBkpoDudq3nAitroMiuEHpGJB+kD987RTbgYjJiVQCsJ8sCQghbGIgkF3/ZYrQ4joouFn/0R2PtP97/sQnym0HIiYusiOdLAkIIWwZ8DWyhj93YgS0OE5kd/pPGtEi9Md+zqtWRXY8ESOL9F+YLAkIIcLGABKGC/44RGhx3WJ68j8Ir8DGHV+wHYWYmEgnAPvJkoAQIiyDvoZn+Nhfs6PgFu3gvw/Tv/GKq8K41U4YUjAjmywJCCHCYPrpv8FRKC/eR//hXGh1O6+4odp2IIWMCXEj7SgasxJgwSQAgCwJCCGCNaQZWYNP/xWKUOcU1Mdsvo6ATn/VdhCFjMEzjDSkdf9YX1KQ78zk5l1o/+a9SL+xN7Q+918vXL1gTmh9CiHCNWDw6Z9AaHKK4LDfhNFnecXKd9mOolAR+GQT7ehsVXEmAADg9Qyi47sPou/Rl4GwrqskoGnZu1F9htlyjEII+3yG0XP/9Q4V/7r/yBxofNt2EIXozB+/dARAJxloqv/pTx9VvAkAkFsS6Ln7OXTe+mh4SwJEaLz4VLhNsswlRDEZ1NrY9qIYAbWlNfV/sIW8/Jr32w6i0Hie+grMXI336nguRCqKd2jYSwIUd1B//omh9CWECMeA0ad/J5QLTiON+Wsczj2vRWHh9zcuJeDjRhojvDKeLyuKBAB4a0kgrFMClfNnQcVjwXckhAicx4yMoc+NGFEBXvATiBOwbOUFtoMoBIt/sOEEKL4DMFMhmjQ/MZ6vK5oEABh2SuAnj0IPZQLti8pcxA9rCrQPIUQ4kgY3/9XJ4D8MfdZ2BJHGTItu2nC5JqwFYGxA8dl5ZDxfV1QJwH7JTTvR9o0/Bl44yK2vCrR9IUQ4hgxtJHaIUFXaa/8H4XP50pXH2o4iahb9aNPshTet/+TCH278CwM/B2ByU9mrT94476/j+ULXYKeRogfTyLYnUHZEc3CdyC+6EAWPAaQMLf9XK5JF7wPRrw8/ed3CmzZ02w4kImIAWljreFDbIxj4xXi/tigTgFhzLaZcsRjxGQ2B9uP3DgbavhAieGnNYEMbh6qkbPjbnNW5tf57cxbXc9HdghRJnlKqdBOAqpMPR9MHTgeVBfujsdbI7OoJtA8hRPDShqb/ywiIyxj3Nq2pPhzX14FNda22Qyl+hP9Z88l528f75UWTrpKr0HDpKZhy+aLAB38ASL3WDr8/GXg/QohgZQwlAJXy9D+qd3e9YTuEUqB9H1+fyDcUxTs21lyL1s9egNrFx4TTIQOJBzeE05cQIlBpQ+v/5TLFPapTu8f9UCom78dP3Tj/5Yl8Q8EvAYQ15T9c32MvI/16eFcTCyGCoQF4Btb/FYC4HP8b1bzEbpT7WaQcqZ0SkL06pv73RL+pYGcAwp7y32/gyb+i557nQutPCBEcz9T6v1Ky+/8QHGYcNRDe5W2lhkHXPbly3oRPWhTkDEBYu/yHY62RuH8DEg9vDKXSoBAieJ6h32XZ/De2OX17sLFumu0wihB9b931x/9uMt9ZcAlA5fxZaPrQGVAV8dD69PuT2Hv7WqReaw+tTyFE8EzNAMjE9thkBiAI/EhttvyLk/3ugkkAyFWov/Cd4W302ye1pR17b18Dvy8Var9CiOB5htqJyfr/mFpSfbZDKCoEbHBT/rL7Pj9n0lfhFkQC4DZWofmKMxGfHWLtfc1I/HkDeh8M53IhIUT4fGMzAJIAjGVqesB2CMWD+WnXKXv/o5+f35tPM5FPAGTKXwgRFGaCiQxfJgDG1pySBMAEBv5YXc0fevCKuXmXoo1sAiBT/kKIoJkoAVywR6lCVukHe0NrCfAI/I9rr5v/HyAyMnUVyQRApvyFEGHQBiYASAoAjYvDDJc1PJKUacIIL0Lr69fccOJTuN5cs5FLAGTKXwgRFhNbAGQ4G79y38OAG95nexFoZ8LX4+17b3p01VJTe1bfFJkEQKb8hRBhUwZmAByZABi3tHJsh1AYmF5jxd/jof5bnvzCgsAunYlEAiBT/kIIG0x8ALqyBDAuWeUgKwnAoWxm4M/E+n/W3nDiU2F0aD0BkCn/Q3NqK+DUVkBVRmfajNMevMQQ/MSQJE+ioFUohQHt59eGjP/jklGxDIDHbcdhGwE+E/UR814AWzXjlTir5x69cV7oA5K1BECm/EfnVJahZsmxqHrnYXAba2yHMyq/P4nkhp1IrN4Er0uO+IjCU6EIDgj+JDNZB4QKuQZ4XKq81I61188/13Yc4i1WEgCnoQpTrzoL8RmNofX5Vi3/DZF+aq086TA0feA0qPLoPPGPxqmpQPWCOag+7Uj03vsSEqs32Q5JiAlRAOodQpc/uQ+FeodkE+AwGrniSrl/ApoBptxhS9LyUkVN6AlArLkWLTeeC6e2IrQ+vcQQun65BqmtnaH1ORk1i+ei8ZJTgEJbU3QU6i88GW5TNbp++7TtaISYkBpHIQVg0NcT+r4qRahxSnNMyzIjw4yMZngAsshdrKQPcayiwtDZdWFOqAmAirmYevWSUAf/5Ctt2Hv7WujBSZdLDkX50a1ovLgAB/9hqhfMQaa9F/1rXrUdihATMsVRUAD6x5kEVDkKU0pk6l8DSGtGmhkpzv1zMscnFfHLxoMTeQk1Aag5+zi4U2tD6atQpvwBAIrQeOmpRVFPtOF9J2PoxTfgD0R3j4UQByMATY5CBRF6fI3sKCNcjAgNjkJlEfyuHorHwBBrJP3coG/iI1QRrTXQjDAovATAUahZeHQoXRXKlP9+lcfNRKylznYYRlCZi+rT5yDx0AbboQgxYZWKUKkcZJiR4rcuC3KIUE5AvIBn6MbiMWNQMwY0j5oA5UNp/0/GGxV5CS0BKD+8GU51eeD9FMIu/4NVzJ9pOwSjKo+fKQmAKGhxIsQJQJHf8qcBDPqMfq2RCWDQ388l+I13/3x9YB2ISQktAQh6x39BTfkfJNZabzsEo4rt5xGi2GSZ0ac1Bv3cjv2gxUi9FkI3YoJCSwBURSywtgttyv9gTlXwMyNhorgDKnPBaeOlq4UQeUjp3NP+oA73KclRdEeoHYpxCS0B0OlsIO0W4pT/wXQyDaDKdhjGsKfBmfyqqwkhzEkzo8fXSIU88AO5RZQyz/lu6B2LMYWWAGTbE2YbLKJa/tk9/aEWRQqat7ffzDVrQoi8ZPYN/EkLA/9+caLO2rtv3mstADGq0BKA9LY90JksVDz/pYBCn/I/WHLzLlSddJjtMIwZ2rTTdghClDTNjF7N6JtgcaMgxBzcbjsGMbLQKlnoTBaDz2zLu53kK23Y/Y0/Fc3gDwDJl7bnLtYpBr7GwFNbbEchRMnq9zV2en4kBn+HyM82x75iOw4xslBLWSUe2AB/cHJr9aw1eu99CZ0/fiTyVf0mSmc99PzpRdthGNH32MtyMZAQFnjM6Mj66PI1LM74H6Bc4ZHpN99cJE83xSfUBMAfTGHPbY+DsxPbIOYlhtB500O5s+UReWObNvjsNvQ/UdgldFOvtaP33pdshyFEyenTjF1ZH8kI7b0hAI6vP287DjG60ItZp7d1ouOmh+D3Jcf19cnNu4puyn803X94Fr0PFOamxsFnt6Hz1tVgbX/aUYhS4SP31N/tTfZC4+CUE73SdM/P5IrQCLNyHXD69T1o+/d7UHv2sag+Y86I5+DTb+xFYvUmJNfvsBChJcxIPLAeyY07UH/+iag4djoQ5dvGGEht60Tiz+uReq3ddjRClJQUM/Z4PiZ5k3GgUUHeswAAIABJREFUFMBlij9sOw5xaFYSAADQqQx6730JvfevR9mMRrjNNVDxGLyBJDI7uotnU9wkZHb1oPMnj0KVxxCf3QSnthLkOrbDehNrDd2fQmZHl1z6I4QF/Vqj29ORe+rfr0KpPzf84SfFsbGpiFlLAN6kGekdXUjv6LIdSeToVFaerIUQb2IG9vp+6JX8JsIl8spSJE//BcB+AiCEEGJMGkCH5yMdoY1+w6l9tyWWE35Y98Ct3bbjEWOTBEAIISLOA6MjqwO5pncyFAHlRCgjevPmROetq5I/xctWXgdCJ5j2gHg3mNvBtBGKXwThBbpDEoQokARACCEiLMtAe1bD9j7/MiJUqNyfONFYFyW7YEwHeDoYJwKUOxfIBDDAy1ZuB/GLYPUYNP5Iv/+x3BZogSQAQggRUbnB37c2+LtEqFKEGqXgjjHiT9BsMM0G+CIofJOXrfwrgHtB+k+g/kfpjjsyRnsTI4rwGTMhhChdGQZ2e17ogz8BqFaEVtfBzJiDBsf44D+SowB8BqweANdt52VX/ztfcu2Rgfda4mQGQAghIibLjA7PD7Wkb27gV6gLZ8AfHaMFoC/B0f+Ll13zEIh/BErcRXfcIXeMGyYzAEIIESHevsE/rAI/CkCdIsyMuWhyLQ/+B1IAnwfG76DrNvLylVfwihXRKYhSBCQBEEKIiNCcO+rnhTT4VyrC9LiLBteBE52BfyTHgPEz6LqXePnVKxhj7UEU4yEJgBBCRAAD6PR9ZEMY/GNEaIk5mOo6hbYOPA9Mv8FlK9fyimvn2w6m0EkCIIQQEdDl+UgFvOhPBDQ6CtNjDiqogB+iCWdA6+d52dX/zhd8usx2OIVKEgAhhLCsTzMGAh78Y0SY5jiodVSxzJ+7AH0JlcmNvHzlEtvBFCJJAIQQwqI0M3q8YDe4VyvCdNdBXBXJ0H+go8B4mJevXMWrVsmYNgHyYgkhhCUaQGeAt/oRAc2ugymug0Ke8R8HBcY/YcOOP/KKqxttB1MoJAEQQghLujwNP6D6/oqAFtdBVXE+9Y+CLoCmF/iya061HUkhkARACCEsGNCMQa0DadslYJrrorzIH/tHMRvEj/Jl11xkO5CokwRACCFC5jGjO6B1/zIiTHNdxEpy7H9TJYjv5GVXf9x2IFEmCYAQQoSs22ME8ewfJ0JL9Iv6hMUB6DZedvWnbAcSVZIACCFEiAY1Y4jND/+xfYN/SS35j40A+g5ftvJztgOJIkkAhBAiJJoRyNR/jIDWmDz5j4JA+BYvX3ml7UCiRhIAIYQIScLXMD38O/t2+8stOYdEYPyIl191nu1AokQSACGECIHHQF8Au/6bXQduae72n6gYWP2WL73qRNuBRIUkAEIIEYIe33zBn0ZHlepRv8mqgVJ/5Iuumm47kCiQBEAIIQKWYRg/81+tCLWOfIRPwkzE1K94xYqSXzWRd48QQgSs1ze78h8jQpMrH995OBNc9yXbQdgm7yAhhAhQhhlDhm/6m+IqULHc6WcL46u84qozbIdhkyQAQggRoIRvduq/zlEok3V/E1xo9Uv+6EdrbQdiiyQAQggREN/w03+MCPVKPrYNegdSFf9iOwhb5J0khBAB6fPZ6M7/JkcV+7W+NtzIy1aeYDsIGyQBEEKIADCAAYMlfysVoVzq/AbBAfP3GaW3qUISACGECMCQZvgGH/8bnJI/tRYcokVYfvVy22GETRIAIYQIQL/Bc/81SpX69b7BY/oGr1gRtx1GmCQBEEIIwzwGUoY2/xGAejnzH4bZ0LUfsx1EmORdJYQQhpnc+V/tkFz0Exr6B161qmTGRdd2AADgVJXDaaiEqgxv9kWnsvB7huD3J0Pr82BuXSWc+kpQWST+GsQYOOvD70vC6x4E2HRVd1FMTJb9rZFjf2Gai407LwFwp+1AwmBv5FGE6lPfgerT56Bs9hRr+y8zu3ow+MxW9K17DTBcsGMkKh5DzVnHoPpdR8CdWrL1Jwqa3zuEwRdeR+KRTdCDadvhiIjxmZE2lCBWKEJczv2Fi/H/QRKAADttrEHzVWciPr3BRvcHiM9oQPzSU1CzeC46f/oYsm29gfVVfmQLply+GE5teWB9iOA59ZWoXXocqs+Yg67fPIWhF9+wHZKIkCGDzxG1cuzPhlP5spWn0523PGU7kKCFPrcUa6nFtM+/JxKD/3DulBq0fuZ8lB02JZD2K4+fhZbr/k4G/yKiymNovnwRahbNtR2KiJCkoad/F0CFTP/bofAR2yGEIdR3l4rH0HzVEqiqsjC7HTcVj6H5yiVwaiqMthtrqUXTxxYAcnVn8SFCwyXvQvlRLbYjERHAAFKG1v8rHXn6t4bxIV6yqug3Z4U6ItUuPRax5mivezu15ag/32xVyIYL3wUVjxltU0QHKYWGS08BZLp2XDIMDGpGr6+x19foyPpo83zsyub+7M762OtpDGmzZXTDkNEMUysAVfL0b1MzGnacYzuIoIX2DiOlULP4mLC6y0vV6UdCVZg5keBOrUXFcTOMtCWiKz6tARVHT7MdRiR5zOjTGp2ej+0ZD21ZD3s8H72+xoCvkWRGRjOynPuTZsbAvq/flfWMX6UbpLShUF1AbvyzTamiXwYILQGIH9Ec6jG/fJBSqDjGzKBdOW+mkXZE9FUeP8t2CJGhkauEt9vzsTPro3vfE/1En449Bjr3JQuFIG2o9n+lLBdGAF/EK1YUdQmG0NY44q11YXVlhNtqZqkiVmA/t5g8tyXay1th8BlI+BoDWhubCgeAXl9DAaiN+MBo7PifPP1HQR10zckAnrUdSFBC+21yKqO58W80TrWZ3fqqwH5uMXmm3jOFSDPQ4/vY6XnoMzz479fja2QjvBqgkZuxMKGsBPeTaMabS0CmXse8ES2xHUKQQpsB8FOZsLoyQg+YKfCihwrr5xaTV6pFgag7Ub0r68EPuB8GkPB9THGjOSubMfT0H1dUUjXaB3yNAea33Z3gEFBBCnUOIWZrRoTpLADfsNN58EJ7n3mdfWF1ZYS310y8ptoR0Zfd0287BCsomSoPevDfb0hzZKswm0oAykvkWnqPGW1ZH3t9PeLFST4DA1qjLWt1D8jiYt4HEFoCkNraAZ3KhtVdfjRjaPMuI00NbdpppB0RfUObdtgOoehpAJmIHg7MGjqtUArT/1lm7Pb8cSVNjNwekL1eWGnmAerg1Rxvo+MwhJYAsKcx8OSWsLrLy+Dzrxubzs229SK1pd1IWyK6vK4BJF9usx1GSfAjOgVgat262Gv/a+ROdvgTfL0GNCNhYyZAOUVb6jPUpabEwxvhJ4bC7HLCdDKDnvteNNpmzz3Pg73COMYkJoEZPXc9F8plUiK6PEPtuMU9/qMvj82cvb6FDYKMo0PuMTShJgB6KIPO2x4Dp039qpjFWmPvL9bA7xk02m5mZze6fvu0XCFbpBJ/3oihjTL9HxYnok/IJgYmF1TUOwAYuQRg8t/P6Dd41fI4e50TcoehCX2zaWZ7F9q/96DxQTZfejCNjpseRvKVYKZxB5/Zij0/ewI6UyD7IMSYWGt03/kX9N7/ku1QSoZCNKfINXKDU75i0fvRjEoZKJWcDLsyJBXvDICVyw4yu7qx6z/uRu2Zx6H69KPgNlbZCAMA4PclMfDMVvSt3gydDPbI3tD67Ui/3om6c+aj8p2HF1xtBJGjM1kk1+9E74Pr4e0tzZ3/tlQpFcknZFNjUrFP/5uo42DqtMUESAJgGmd8JB7agMRDGxBrqYPbVJ27hS+E7J4AeP1J+D2DyOzuQZibiv2+FLrv/Au6//AsymY0wqmrhCrhAjKFRCfT8HuHkGnrAWet7EguaQRCnRvNE/KmNiZGdXnDFN/Qh60PhhNeKtjAq1YpWrWq6Db5ROK6w2xHAtmOhO0wwqUZ6R1dwI4u25EIURCaXIrGB9YITI0Mxb0DwNxMScivE+H57VUAim66L5rptBBCDNPoKlRH+HpcU5OIKqI1Dkwx9dOFnia5bnXYXYYhur9RQoiSFydCa8xBbYQHf8DgwFbkSwAmXieChQSAuSbsLsMQ1Rk1IUQJcSj3NKKI4ACIEaFCEcoLZEA0NwNQ3EwslVh5S7iSAAghhBFlwwb4Yrj8hgylAIX+OozF5/xTACuvEVNRHtmSBEAIEQpC7hhfnaOK7ry7qR3pTpG9LgczUSzJTgKgkza6DZokAEKIwFUqQqOj4BbIlP5ExVVuX3o+45siFO3rA+Sm/00sAYR4/G94r5IACCHERBABDY6K/Ca+fCkA5YryqlJXSdEscmSKZ+gMoJXZI/aLMgEo7t9KIYQ1DgHT3Ojv4Del3snv56wr8vn/jLFqiRZeJ4+7w+80eKXxmymECJUDQqvrRrJuf1DKiFAzySSg3lGIFflrZaqEr4UEYIDu/knRFQECJAEQQhimALTEim+j33g0OgqVamI/eLWivGcPCkHG0EkJCwlAMDfERUDxv+uEEKFqclRJPfkPRwCmug7qHTXmeXVFuQqHU1wnlNhsYgbShuolW7gwqWgTANkEKIQwpkoRqkrgaXYs9Y5CtSL0a0aSGVmduy6YkDsxUEmEaqWK/tjffmlmI9clx8nKU+sr4XcZDkkAhBBGKOSeaEWOS4QGh9Cw7/8zLJSwjYikofX/sgkur5jBmyx0Ggr5bRVCGFGjlKUz2oWhlF+ZfI5HDldGFoYsoo3hdxoOSQCEEEbUWlicFdHngY2dACgL/y3G8DMbQu81JJIACCHyVkEkT/9iRAO+uXsSLByV3Ey//3lX2J2GxeoeALeuElWnHIHyY6YjNqUGFAsvHM568HoGkXx1Nwaf3QavayC0vo0goPL4Wag8YTbiMxuhaspB8gE8Kn8wBW93AoMbd2DoxdfBnqEtyQIAUFUqu9nEhA1qM79r5VbW//G4jU7DYiUBIKVQd/581Cw5FirEQf9AcTh1lSg7vBl15x6PgXVb0HPP8+Csbyme8Ss7vBmNK96N+LSGsb9YAABUZRyx5lpUnDAL3ntORPedzyC5eZftsIpGuY21WRF5aWZkDVUAnGh9BUOesNFpWEL/rVUxF83XLEXdufMtDv4HIqVQs2guWm88D05ltG99rDzpMLTccK4M/nlwG6sw9eqlqF16nO1QigK7ji/L/2IkfYam/wGgwk6SeTGvWBG30XEYwn1FidD04TNQMXdaqN2OV3x2E6Z8fDEoorXLy94xFc0fXQiSo1b5I6Dh/Sej6uQjbEdS8LiqqigvShH58ZkxZGr6n8hWzYQPguvu44uuqrHSe8BCHUmqTpyNypMOC7PLCSuf04rqhXNsh/E2pBSmfOgMQIqsmEOExuWnRn7WJ/LK3aztEET09GkTpX9yKmw+lDHOhkv38oobqu0FEYxQX9W68+aH2d2k1Z1zfORmAapOPQLulKJMQq1SFXFUn3WM7TAKmxuTHZXiAD6APkNP/wBQZbtaMtEi6Mz9xZYEhDbKxVrqEGutD6u7vDg1FSg7cqrtMA5QeWK0Z04KWVXEZ6UKgLmFXlEUEr6GoaP/KCeCG40TTguhs78rpj0BoSUA8cOmhNWVEWWHNdsO4QBlBfb6FZJYcy1UZdH8TgthlcdAv2/u6b8mUkdM+Tzoup9ykRR2DC0BcGsrw+rKCKe23HYIb1IxF6pCBqggObUVtkMQoih0+76xKSGHgMqILccC+DCWX/3PtoMwIbRXlv3on68fLkqFYtjXgKFa2mJkhVD/QYioSzJjyOBnVbVS0XzUZvoyL7vmA7bDyFdoCYDXMxhWV0Z4vdGJl7WG1y8nrQKjGbovZTsKIQoag9Fl+MGpJnpP//sRwLfypVcfbzuQfIT26qZfay+op9jUq7tth3CA1GvttkMoWqm/dUJnPdthCFHQun2GZ2rnH4AqRYh4galqKLqDL7y2sNa3hwktAfCH0ki+0hZWd3nJ7OxGtiNhO4wDDD67zXYIRWvw2b/ZDkGIgpbUbHTjHwDUObbP/o3LMYjrb9oOYrJCnV/pvfdFsMGzoYFgRs8fn7cdxduktrQXTAJVSLIdCQz+RZIrISbLZ8Zew3u8qhQhHu2n/+Gu42VXX2g7iMkINQHItPWg9+4XwuxywhIPb4rsdHvX/6yD3ztkO4yiwWkPe372RPSTUiEiihno9DUMlvwHUDBP/8PQj/iSTxRGoZthQt9h0ff4y+i954VIlg7pW70Zvfe9aDuMUfl9KbT/8CFk9/TZDqXg+f1JdPzoYWTbe22HIkTB2uv7SBve21VgT//7TYPj/pvtICbKyhbLxOpN6PjBg8hs77LR/dtk2xPo/PFq9NzzfCQTk+G8zj60//f96Hv05UgdVSwYmjH4zFbs/tZ9SL++x3Y0IkTMwJDW6PZ97PFyf7p9H0OaYa5qfeno9TUGDQ/+BKCh4J7+33QtL7v2NNtBTIS1+3hTWzux+7/vQ3xGIyqOnQ63qRpUFgutf8568LoGkHp1N9Lb90Z+4B9OJzPoufs5JB7agIpjZyA+qxFOTQVAhZc2h4EA+AMpZNp6kdy8A74c+SspjNy1tAnfx0gpcx98OJSbdq61c+d8wenTjF7Dm/4AoN5RUd/5fygK0P/NwAIqkBHFWgKwX2ZXNzK7um2HUZD0UAaDz/0Ng8/JLnYhRqKZscfTSI5xPM1noNvzkVKEKY4DyQNG1681ugOYfYwRUFv4t52ejmUrP4Tf3fIr24GMR8G/2kIIMRJGboPaWIP/cEOa0e75MFfMtrj0+9p4sZ/9mhwnmlX/Ju5feMkq6w/X4yEJgBCiKCV8jdQk1qgzzGjPaniSAxyg19foCmDaHwCqFaG8eKZdjkTTjitsBzEekgAIIYqODyCRx/HOLDPaPQ8Zg5XtClmX7wey5g8ALhEa3YLd+DcK+nIhzAJIAiCEKDpDBu6j9xjY7fkYKKAS5qb5DHR4PvpNH/QfptlVxTgQvQNTdlxqO4ixFOHrLoQodRNZ9z8UZmCv56Pb1yW3KyClGW1ZD8kAE6AGR6GsWE8vafq87RDGIgmAEKLomH5g7fM1dmd9ZEogC2Dk1vtzmyGDU06EusLf9T86whm87KpTbIdxKEX86gshShUH8FCZYcburIdEEc8GZDRjdza49f79XAKaY8W27j8SdZXtCA5FEgAhRNEJamhhAD2+RlvWN7bMEAWaGd2+RpvnB77xUQGY6rqB/R1FzEeifF2wJABCiKIT9LpylhkdWR+dno9sAecB+6sk7vR89AX81L9fs6sKsdb/ZNUhzu+3HcRoJAEQQhSdqpDOlA9pxq6shz2eLqgjgwxGv2bsyubuQwjroEOT46BCldqww8tsRzCaUvubEEKUgBhRaEkAAAzq3LJAZ1YHums+Xz7nNvjtzPro8nx4ISYtdYpQ45TOo/8w74/qMkDkCxUIIcRkNDoO0tqDF2KfQ6wx5AEuCNVO7o9rucAtA0hqxoDPSLKdDYx1jkJDMe/4P7RKlPFZAO6zHcjBJAEQQhQlh4CproMO3zd+LHAsHhi9PqPXB+JEqFSESiLEQ5qV8BlIMWOIGUmtQ5viH0mJD/45jHMhCYAQQoQnrgit5KA9q61d8JNhRsZn9AJQlDv/XkaEMkWIgWBiVjzLjDTnjvGlOfcnCuodhfpSH/xzzrcdwEgkARBCFLUYEVpjCh2eDnXNeySagSFmDIGxv8qOQ0AMBJcARQQHgEP0toUDRu64nt73zyxy5Yo95kjWJWhwVHEX+pkQPpZXXNlMd9y2x3Ykw0kCIIQoejEiTI856Mj6kXk63s9n5GYnGEAkh/KJIQKmKIUqGfyHI/jq3QD+ZDuQ4awnALGWOlQcOx1uYzWc6vLQ3v56IAU/MYTkK7uR2dUdUq/7EFB2WDPK57TCqa+EqoiH27+YFE578BNDSG3rQPqvneA8bpsT4VMAWmMO9ng+hiK8U7+Qufv2XcSLtb5/Xug0SAKQU3Z4M+ovPBnlR0y1FQIAoP59JyOzqxs99zyP1GvtgfdXddJhqH/vSXCn1ATelwhGHebD70si8cB69D+1pRge2koGITdAJXyNnpAK35SKOBGmxhz7T5VRRTjJdggHs/J3Vbv4GNRf/E5QRApCxGc0ouWTf4fEQxvRe/965H2P6AhIKTQuezeqzzjKeNsifE5tBRpXnIaKeTOx5xdPgNNhHjYT+apzFOJE2GvhhEAxqnEUGpWyfOAx8o6zHcDBQh+Bq087Eg2XnhKZwf9NRKg7dz7qz5sfSPONy0+Vwb8IVRw3A1OvXBK997MYU4XK7QuoCLFgULFxQJjqOmhyFGTWf0xHRK0gUKifWrHWejSuOC3MLies7rz5KDuyxWibVe86AtWnzzHapoiO8qNbUfd382yHISbBAaHFddDoOPL0OkGV+xKoSkmgxkuhPHu47SCGCzUBaHjvSdF/UiJC44XvNNecUmh4b+SWfoRhtWfPg6oqsx2GmKRahzAj7qBcHmPH5BAwxXEw1XWM1DAoKdqdZTuE4UIbjZ3KMpQfNz2s7vISn92EWEudkbbK57TAaagy0paILipzUXXCbNthiDy4ILTGHEyRgW1UtY7CDNdBtbxAk0O6NBOA8qNbo//0P0zFXDPJSvnR04y0I6KvfK78XReDakWY4bqoc2RT234VRJgRc9DoKCiZJckD2T32dpDQTgEU2lOwU29mr4ZbYD+3mDy3Xv6ui4WiXCW7GqXQ52v0a0Y06+0FK06EekfJOr8pjHrbIQwXWgJAbuE8/QMAxRwzDRXYzy0mj+KG3jMiMlwCGl2FOjD6fUaf5Yt1wlJGhDoZ+APApZkA+H3JsLoywu8bMtKO7ksZaUdEn5corPe4GD8HhHqHcjMCOjcjoCNWUtiESpUb+Mtkmj8gFKlpwtAeT9Nv7A2rKyMyr3cZaafQfm4xeZnXI3XPhwiAs29pYFZMYUqRDJQxyt3aNzOW29lfDD9ThEXqxQ1tBiDbnkC2I2Fsd32Q9GAaqa0dRtpKbt4FzvrmlhRENDFjcMN221GIkBAI1Q6h2gGyDAxqjUHNyBbIrIACUKkUqhWhXKb5wxSpNeFQg+l9YH2Y3U1a4sENxi568QdT6F/zqpG2RHQNbdiBbFuv7TCEBfufoGfEHMyIOWhwVSQH1fi+6f1W18GsuIspEY2zqHG0MsRQ7wIYemk7hjbsQOX8SB2FPEB6Wyf6175mtM3Enzeg4rgZBTH7ISbO70+i+w/P2g5DRECMCHVEqFOABpDWGikG0szIaIaN64eaHIVKpaS2QRQQDdoOYbhwpyOY0XX7OqQNTa+bltnVgz0/fdz4Na86lUXnLavhdfcbbVfY5w+msOcnj8HvNbNpVBQPBaBCKTTse+qeHXcxI+ag2XVQ7yhUKUKZIgS9OKiIZPCPjkglAKHfBqgzWXTc9DDq33cSahYfE43jgZox8Mxf0X3Xc4Hd6uZ1DaD9W/ejccVpqDxhFuTmjMKX2tKOrt88Ba9rwHYookDEiBAjYKS9YD4AzblZAg2gI+sb6bPP16hSsgcpIiL1FGjlOmDWGj33PI/+ta+i6tQjUXnsDDiNVXCqy0OLwR9Kw+8eRPLV3Rh8dhuyHYlQ+tzzs8dRNqsJVe86AmVzWuA2VEGVxwPvW+SP0x683iGkt3Vi8MXXkdrSbjskUUQcAM6wB4NyIqQMLBmnmZFilnsOomG37QCGs5IA7Od1DyLxwHokCmRzoCnpHV1I7zBzzFAIUZyqFCHlm9kz1utrtLoyC2AfReqpIQLz70IIIQ5msgpfSjMGDe9tEpOg/DbbIQwnCYAQQkSQQ4QKg9P2PZ62cgpBDOO6W2yHMJwkAEIIEVHVjrmPaA9At2dmY6GYlB761c2RKg0rCYAQQkRUpSI4BqvHDmjGYCncZhRNkasIJwmAEEJEFAGoMXyIv8vzkZUcwIbnbAdwMEkAhBAiwmqVMvpBrQF0eh5kMSBkJAmAEEKICVAE1Biu2Z/lXKEh2RQYIp//YjuEg0kCIIQQEVfrOMY/rDPM6Mh6kgSEowsnztpsO4iDSQIghBAR5xBQZ/BEwH5pBtqzHjzZExAswmpatSpyuZYkAEIIUQBqHYVYAOV8MwzszvpIyemA4DAesR3CSCQBEEKIAkAAGgOYBQAAH4x2z0evH7mH1GLAYNxjO4iRSAIghBAFokIRqgxvCByu19fY7fnIGLiESLzpObrzlp22gxiJJABCCFFAmhwFN8CL/dKasTvro9vTMHQXUWljvtN2CKORBEAIIQqIIsIUJ9ib/RhAn9bY5Xno8TV8SCYwSQwd+5XtIEYjCYAQQhSYckWBnAo4mGYg4WvszPjY42kkZWlgYhiP0x9++LrtMEbj2g5ACCHExDU4CllmDIWwe58BDGqNQZ07klhBhAqlUEYU6HJEwSO+zXYIhxKJBMBtqkassQaqKh5anzqZgdc7iGxHX2h9BoHKXMRb6+HUVIBcmdAZidYauj8Fr6MP/lDadjhCGDPFcbCbfWRDfDL3GRhgxoDOFRN2CIiBEFOEOAjlCoEcVyxAe1Dj/9p2EIdiLQGgmIOahUej+ow5iDXX2goDfs8g+p/Zir5HN4PTnrU4JqrssCmoPed4VMydLgP/eGlGalsn+h7ZhOQrbbajESJvioAWV2G3p+Fbmp73OXeMMLV/x6APlBGhwVUoL+VEgOgW+ulPU7bDOBQrCUCstR5Tr14Ct6naRvcHcBqqUH/+Cag5Yw72/OxxpP+2x3ZIh0RKoeHid6Fm0dFAKf9yTYYilB/VgvKjWjD00nZ0/epJ6EzWdlRC5MUlQqur0O75kdm1n2ZGe9ZHnaPQEMJehQhKI+N/z3YQYwn9byY+oxHTPvueSAz+wzm1FWi5/lyUH91qO5TRETDl44tRs3iuDP55qjxxNlpuOAcUD3Y3tRBhiBGhxTV/X0C+Er5Gt1eSxYVuobt/EvlpxlDfL6oijqlXLwGVRWLrwduQq9B8xZlw6itthzKi+vNOQOX8WbbDKBrx2U1oWn6a7TCyEa56AAAgAElEQVSEMCJOhNaYAwfRejjo0xrJ0ioznAHzf9oOYjxCTQBqz5kX2cF1P1UZR8N7T7Idxts4dZWoOfs422EUnapT3oGyw5tthyGEEXEiTIsHc2dAPrpLqcQw4Qd0561v2A5jPMJLAByFmjPmhNZdPqreeQScqnLbYRygZuEcqFg0Z04KXc3io22HIIQxLnIzAeUBlgyeqCwzUqVRQyCBmPqa7SDGK7QEoPyoFqjy8I755UURyo+dbjuKA1TMm2k7hKJVceyM3HZqIYqEA6DFdUIpFjReJXLb4NfoVzfvtR3EeIX27ohNtXfUbzJsHk18GyLEmutsR1G0VHkcbk2F7TCEMIqQKxY0xXUikd96xT8DsAlN6r9tBzERoSUATqE8/e+jqstsh/AmFXPlrH/AKMQiVEKEqVoRpruu9TP5Rb4LgEH4FN18c0GdKw5tVCm0Cmz+QHTqN+hMFjpbOEWKCpEeKKz3pxAT4RLQGnPQaPGooBux0wlm0ffpt7c8ajuKiQrtvZDtLKySu17E4vU6+22HULT0UCZSCZ8QQalVhBlxBzUq/DQgHrGTCQZthYr9/7aDmIzQ3gXprZ3QQ5mwussLa43ky7tsh3GAoc07bYdQtJKbd+WuPROiBDggNLkK02MOKkIalAlAZXGuYmah+CN0xw8GbAcyGaH9lbDW6Fv7aljd5WXw6W2RS1YG1m0pqLsKCgYz+h5/2XYUQoQuToSWmIPpMQfVAe8SrFEKqjhnAL5Id9z6jO0gJivUnKzvkU3wuqM9la0H0+h94CXbYbyNnxhC4qENtsMoOgNP/xWZnd22wxDCmjgRprgOZsQc1CkF08WxXRDqi3ETM+G39LtbvmM7jHyE+rfCaQ+dtzwauafr/Tjjo/O2x+D3JW2HMqLEI5sx+MLfbIdRNNLbOtF9519shyFEJMT23eA3M+5iqqtQpVTeA4QDoCWWfzsR9CIofqXtIPIV+t9Ltj2B9m/fj2x7IuyuD8nrHkT79x5Aelun7VBGx4y9v1yLxMObAFmyzsvAX7ah40cPg0vzohIhRpVbr1dodhVmxV20uAo1Sk14E1+FUpgecyNXltiA3fD8iwp13X84K7Vls3v6sPsbf0LV6Uei5vQ5iM9stBFGLpaOBAae2Yr+Na+Cs761OMaNgd4/vYCh519H7TnzUHnczMherhQ1nPWR2tKOvoc3IfW3CCd6QkQEITeQV+x7VNQA0lojw7nyvlkGsuA399C6RCgnoFqpSJUiNigBRe+lu27bYTsQE6yNHKw1BtZtwcC6LXBqy+E21sCpKQeFULqSNUP3p5DtGYDfOxR4f0HI7O7B3l+sAbkKseY6OHUVUOUx22FFks548BNJeHv6oTMFVadDiEhR2JcQHPTvmUvihvIkmC+iO2550XYgpkTi0dHvS8Hvk3PYk8GeRmZ3D7C7x3YoQogSVQKDPzLsf7Psztsetx2HSUW4N0MIIYQwQwPY6/nYneWv7L3kqoLe9X8wSQCEEEKIEaSY0Zb1MKAZDKDf15/uvOTKR23HZYokAEIIIcQwzEC376M968M76MTVoM9ntV/0iY1cBONnwf8AQgghhClJZrR5Hvr80c9aJxnzOi6+MnoV4yZIEgAhhBAlL8vAHs9HR9ZHdhx1VpKaj++8+MqC3hQoCYAQQoiSpQH0+BptWQ+DE7wUbFDz4j0XXXVXMJEFTxIAIYQQJUcD6NMau7IeEr6edHHVAdYX7b3kyq+YjC0skgAIIYQoGT4Dvb7GzoyHbk/jEEv94zbo8z93XXzNgvxbCpckAEIIIYpeRjO6fI2dWQ+9vobJW0A0QCn27t+x4vMHF0mMtEhUAhRCCCFM08wY1Ix+zchwsDeoZZhrqrK9DwJYHGhHBskMgBBCiKKhAQxqxh5PY4fno8vXgQ/++w35vKj7kmsuCKUzA2QGQAghREHzGBhijaTPSDFbuy2dAaT87C8BNFkKYUJkBkAIIUTB8DlXrKfX1+jMauzI+NiZzW3oS1oc/PdLA417Lr3yW5bDGBdJAIQQQkQC/7/27jxOrqrMG/jvOffW0l3dXb2mOyELayDsEERIN0sQZZFBQaIzMowyCoo64zabvs47me0dZnFwGwJZAEERbUIUdRAiGCAxyBKWJCRhiSFLd6eT3peqrrr3PO8f1cHsXd116557q5/v5xPB0Lnnl+6qOs899yxgaGY4zEhrxqBm9LkaXY7G7qyLnVkXO7IOdmdd9Loaw6zhGu/yD0QAYqBP8Cc/GTedZSzyCEAIIYRvUpoxzBoZDWgwXBDA7OmsfFNsAhpsGzFCLQboNgB3mM50NIEqAFQ0kvsOFptm6HS2+O3kSZVFc2WjCDSdyuZOCRFCjNsIM7qcw03IK433VEIR6mzrD8PqTF/na/98KT16z4DJXEdjtACINFah4vwTUTZnGuzaSlDU8q1tnXWge4YxvKUNQy9sRWZnt29tx0+YgsS5xyN+ciOsqgTIlicxYcBaQ/enkd7aiaGXtyH1+i4pCITIw5CrsbeA3faCTAGosxUS6qDPcUI9ItYtAAI7H8BIAUARCzXXzkXFhSeCDv6m+URFbKgpVaiaUoWqlpMxtG4bupc/X9SRAasqjrqPXYiyOccUrQ1RPKQUrOpyJM49Folzj8XItj3Y+9BaOJ39pqMJj2kAI5rhIvdcGgCIASKCRbkPfYsI/t2yhFeKGXvcUhjgP1S5ItTZCtYRh3D5y3zrrd+lxYuDM+S8H98LABWPYMqtlyF2bIPfTR8ZERJzj0N0ei12L/o13P6U503YU6rQ9NnLYVWXe35tYUbs2AZM/eKV6Fy2CiNbO03HER7Icu5gmJTO726VANhEsAFEiBBVlPsnyVM9IFc8dTmu6RieswDU2hYSasyf8nR0ux8G0Fr8VOPn7+03AfV/dlGwOv/9RBqTmPLnl4Ii3tb1qjyKxk/Pl86/BKmyKBr+/BLYtZWmo4gC9bu5g2GG8+z8gdzT6ywzUszo1xp7HRftWQfbsw46HHe0mOBJ+6RowGU4JfR3JwBVSuGYqJ1P55/D9MliZiqErwVAYu7xKDtlmp9Njlt0Zh2qWk7x9JrVV54Fu146iFJllcdQe/15pmOIAvS6Gt0eDlMzA+nRJWy7HRfbR5euDWhvDp8Ji6ESqnzKiDAtYqPWVuPtOD/A1986tTipCuNrAZB8/+l+NjdhVe87DbC8+dZYFXFUXniSJ9cSwVV26jGITq81HUNMwLDObSpTTIzcs/AuR+fWsTsuBkt8ZICRm0cRdjEiNEUsNEYsRCb2XMcG6QUex/KEbwVAdFoNIg1VfjVXEFUeRdlJTZ5cq/z0GZ4VEyLYys+cYTqCGCdG7pm/31KasddxscNx0e1qZEuwEgj7SEeMgEZbYWrEQpwKntHxR15k8ppvPVNsZr1fTXkiNsObrZyjM+WucLKIzQjXa1wAaWajna9mHp174KLTcZEugTvmfSiki/5iRJhiW5gasVHm3Sq1S/jDn6z26mJe8a0AUJUxv5ryhEp6c6yzVRGq46FFASyPXjPCP6kALU8b1owOx0VHiRQCqvC7Zt8QARWWwrSIhakRC+X5TvDLXwSWFbhjgn0rADgbrqUgPOJ4ch2dDeTyT1EEnAnXa1zklv0FTXq0ENjthPvRAAFeDJ0XVYQINZaFGREb9ZZCtKh5aV4RLz4hvu0D4HQP+dWUJ5web/K6PcOeXEcEX7Z70HQEMU7Buf8/VEpr7NJApaVQoxS8vyktvgqLkA7YOkAFIGERKpRCzN8CpdnPxvLh2whA+s0OsA7y2+1A6S3tnlwn5dF1RPB59ZoR/jnyDm7BMeBq7HQcDITo83OfhFKIBGAUwCKgQilMsS3MiNqosyy/O38AdBYHbH8o3woAncogtX6nX80VZOT3e5Dd4832riNvd8LpkjvDUqfTGQyv3246hhinCAXr7vRINANdjkan4wbu+NujIQANloKJGiBGhGpLockeHeK3FcoVGeyBuQrXfzpQ+8D7uj6t57FXwE7Aq1gGen6+zrvLaY3eX77s2fVEMPWv3Ag9nDEdQ4xTuaGzSCZqWDPasi6GQzRJMKoIjbZV1EcY++YbJFVuBv/M0cl81ZZCPEjPThhzTEfYn6+vfqezH10/ec7PJset939fxsi2PZ5ec+iVdzCw5g1PrymCI7W5DX1Pv246hpiAmKJgdRB5cBnodFx0OeE5XS9OhGm2XfDsekJu4l45KSSVQoNt4ZiIhVlRG00RCzV2bgZ/YFcgEGaajrA/3w8DGnpxK5RtofYj7wnWBjkM9D72CvqeKs4HefeKF8Cui6qLA1UAigINvfIOun68NjdGK0Kp1rLQrp3QdKb7DGiNjMOYYilYQe3w9mMTMMW2kGXGsGZkAOiD3jeKAAJBjZ64qAiwkTuB0Ro9dCnUCN7sMOcRI9/PgefexMj2vai+5pxAnA0w8vs96Pn5Os/v/A+gGT0/fQnpLR2o+eA5iEwL3J4QYhyc7iH0PvYKhtZtQ0nv5zoJRAmoty3sdcL0dD1nRDPa2EWjZSEakpGMCBGS1mjWSXeeMkkBAACZth50Ln4KVk0CZXOmwa6rgFUW9a19nXbg9Awivbndswl/+Uht2oXUpl2ITqtBfHYT7OoEKDrp3gWhxI6G2zeM9Fu7MbJ9L0LXW4gjSiiCFbGwJ6tDNckOyD0S6HBcTLGt0D3OmHSYE6Yj7M/4iIrbM4TB375pOobvMm09yLT1mI4hhBgVJ8L0iIV+1hjSjEyIHutoALsdF/W2QiJkExsnFULcdIT9GS8AhBAiKIiAJCkkVW6ffheAi9wUDwagwdAAHA04o+cIeLNnaOEYwB5HQ1u5zYNEAEkBIIQQwaeIoABEgP22bxn9l/36V2YgA0aaGWmd+6fJaSFdroYGkJQiIHgYKdMR9icFgBBCFIAIiIEQI0JS5e7ER3RupvuQZiNzCnpcDSKgSh4HBAvTgOkI+5MCQAghPEQA4qP7C9QASGnGkNYY1uxrKdDtaJANVEoREByKA7UtrBQAQghRJASgXBHKlQUXjAGX0a+1b9tGdDkaVgQoJykCAkEjUCMA8qoQQggfWMjtTX+MbSNp+Xe6396sRkb2qggGQqfpCPuTAkAIIXxkEVAzWghU+FAFaACdWTfQRx9PGsSB2hNeCgAhhDDAGt2BsMm2in5krgNgr+MWtQ2RB7ICtemNFABCCGFQXBGmRaw/bI9bJMM6N/9AGDOC06btNB1if1IACCGEYQSgxrLQGLGKuj1+j6MxEqIdDksLbaaFCwNVgUkBIIQQAVFGhKlRG7EiPRJgAHtGNwoSfuPVphMcTAoAIYQIEBtAU8RCokgTBB1m9LgyH8B3xE+bjnAwKQCEECJgCECDbaGySEXAgMsYkaWBfmJk6BnTIQ4mBYAQQgRUnW2hukh7+ne58iDAR5vp0aW7TYc4mBQAQggRYNWWKsrBPhnNGJAiwB+Mh01HOBwpAIQQIuBqLIXKIiwT7NHayGFFkw7Rj01HOByzZwEQEJvVgLI5x8CuScCqjOeO1vKBO5iG2zuE1JZ2jLzdCQ7h+lirKo6yU2cgNrMWqrIMKiJHOxwOOy7cgTSy7b0Y3rgDTlegzuMQIi91lgWXXQx7uIxPM9DrMOpsn/Ylnpxeo+VLNpoOcTjGeoyyU6ah+o/OQXRqjakIAICqy06D0zWI3l++jKFX3jGaJV9WIo7qq85C4oITQHLS17jUfOhcDL+6HT2/WAene8h0HCHGpcFWaHc0Mh4WAYNaIwmCDSkCioL5IdMRjsRIAVB9xZlIfuAM3+72x2LXVaD+zy5C7Pgp6P7pi/DtqK4JiDRVY8qn58OuTZiOEk5EKD97FmKzm7D3vmeQfitw83KEOCICocFSaNfe7e3PAHpdRn2RdyKcpFKw9FLTIY7E99vHqstOQ/KKMwPT+e+vsuVk1F4713SMI7KS5Zjymcuk8/eAVR5Dwy3zEZ1ZZzqKEOMSIUKd7e1H96Cr4QT3vie8mO+l1nv3mI5xJL4WALEZdaj54Dl+NjlulRefgrI5x5iOcVj1NzbDTpabjlEyVMRG/Y3N8hhFhE5CKVR6/LrtlxUBXnNh4Q7TIY7G10++5NVnIwyPmYJYpJSdMg3xExtNxyg5kYYqJC44wXQMIcatxlKwPPxAHdSyRbDHllPrsrdMhzga3woAq7IMZbOn+tVcQSLTqhGdZnZy4sESc48zHaFkVcw93nQEIcZNEVDr4aMAjVwRIDyRAaxvmA4xFt8KgPiJTaG4+98nPrvJdIQDxE8KVp5SEju2ARQt5hlsQhRHQhHiHm4XPOjKRABPEH2Llt/9pukYY/FvBKC6zK+mPGEF6Fk7KQWrMlzfv1AhwE7KxEoRTnUe7hKYYTkjwAOdIPp/pkPkw7cCgIq0n3WxBCqvRaEaPQmlIh26IkSxRYhQ4eHrdyjAy6BDgfDX1Lq4z3SMfPjWy7l9Kb+a8oTbH5y8nHWhhzOmY5S0IP28hRgvL88KGJJ5ABNHWEEPL73fdIx8+VYApH/f6VdTnkhvDVbekW2BXUoaetmOXuiUFFgivCJEKPdoWaDLQFoeA4wfoQ1u5hbTMcbDtwLA2TuAzK4ev5oriNM3HLgOd+iVbaYjlKywbAEtvKUZyHLuVLyMZqQ492uEOZQH5FR7uJNfSh4DjJeGi0/Sivu7TAcZD1+3Au791auY8qlL/WxyQvofXx+47YCH1m1D8rLTEWlKmo5SUtyhNAae2WI6hiiSLDMyzMgy4Oz3Tw2M2cVHiFBhEaoUgUIwCSdKhCgRMh7cvac0o0YWxuSP+G9pxbKVpmOMl68z3VIbd2LguWCvjEhtacfA8wHcu0Ez9j64BpxxTScpHczoXv4CdFqG/0uBZmBYM3pcF+2Oi3eyDnZlXexxNHpdjUG97+5+7M4fyBUPPY7GrowbmpnxFR6NAmSYZWvgfDHupYeX/ZfpGBPh+1T3nkdewPCGHX43m5eRrZ3Y+/1nA3f3v09mZzf2/mC1FAFe0IzuFS9iWIb/Qy3DjF5Xoz3rYHvWQafjos9ljGiGV322A6DDcZEKQRGQUN6NVYzIZMA80G9Qrz5jOsVE+V4AsKOx596n0fvLl8Ejjt/NHxZnXfQ9uREdi34d+LvB4Q070PHdxzHyzl7TUUIru7sfnXc/hYHVMvQfRhkGelwXOzMO2rIuel2NkSL3zczAHkfDCfjcAAuEuEcHrclEwDH9FvHhD9PixVnTQSbKyHHAYKDvyY0YeO4tJM45FmWnHgO7pgJWZdy3CO5QGm7PMFJb2jC0bhvcvmHf2i5UZlc3Or7zOMpmN6H8rJmITq+DVVUGsuWh3eGw60IPjCDT1oPhDTuQ2rATLHc3obJvm9oBl5E11DFpZvQ4jAY72PMByi1CyoPx+2IXVaHGvBoOX03LfzhgOkohzBQAo/TQCAZWb5E7sYlgRmpLO1Jb2k0nEaJosszodxmDrD0b0i/EkNaoYYUg1wBejQBkmMHgUEyA9BXhKZRnrqUHHhgyHaVQAdruTgghckYY6HQ0dmVdDOhgdP77BH0uQITIswIlG+y/qgkPgiqvKYXOHzA8AiCEEPvLPd/XSAX4EU1Wa0AF+3FbnAiDHhQqGWZEPRpRCDkXRP+HHl7y76aDeEkKACGEcQ6AXsfFYEBX4OwvDGtw4oo8+V7KCAAAoBOkb6KH73nCdBCvSQEghDCGAQxojV5HI7j3/AdSIbgjjniUUfYCoFYo5/PUem+wtob1iBQAQggj0szoctzQ3WVGgt//I+LRxD0n4PMdioaxF8AX6JElPzYdpZikABBC+IoZ6NUafW5Y7vkPVE7BnzutKHeKuFtg/z0JC4AsgHthud8o1bv+/UkBIITwTYYZexxtbC1/oco8nGFfbDao4EONwlmiTQgD9DBc+hr9dPHbpsP4RQoAIYQvBjSj2wnjOXs5BKA2RJtt2UQFn2HAyBUBwR/zmLA0QK3Q+j9oxdINpsP4TQoAIURRMQNdbjhm+B9Nva1C8fx/H0XefL81cygmPo7TFgDLEIsspQcXheOc+iKQAkAIUTQOA52Og0yI+34FoMG2UKbC1Ql6lTbEP7qD0OsgbgXh59S69CXTaYJACgAhRFFkNGO3qwueiGaKRUBCKSSVgken7PpKgeBF9x3SH98IGOug8DswrYXjrKWf3RvMY2gNkgJACOG5lGbscdxATiIjyi2Ti1Cuk1Sjv6cod9dsITfRL+w74Hm1hz+H4SwAwnfB/BKI3oFjb0Nv005atTAYx80GmBQAQghPDY92/kG4c1TI7YoXJ0KUCLaiSfSh59VPgJHh3OMchxkOchMDmRmaR/+dct9rC0CZUignnzdM0uilR5Z9378GS8PkeS8IIYpuSGvsdbTRzr9MEcpIIU5ANGTP7b3k1ehLezaPzY/3+4EPaRcKQNK2kPTr+0/0Rf74bXdM5gl9E1HCqzuEEH7K3fmb6fwjBNRYCjOiFhptC1UWTerOHzD77F4D6HFc7PbtMRBXIZ35rC9NlRApAIQQBUtxbtjfTwSgUilMi1g4JmIjaSlYYXhe7RMdgM2WUpqx16/XBdFnecGC8GzUEADmHwEQEJ1Rh0htBSge9a1ZHnHg9Awis70LbODoUYpYiM2sg1WdAEXM/xjE2Nhx4fYPY+SdveARmV/0rr7B8k4fn/kTAZWkkLQIVsgn6hVTUA7yGdaMAc2oLP6IzExw8hoAPyt2Q6XCWM+j4lFUXTYHFRecBKsibioG9HAGgy9tRd8T66GHRorenlWTQPWVZ6L8rJlQ0UjR2xPeY0cjtWkXeh97FdmOXtNxjFODQ+V+3GwSgCpLoSqky/L85gRiGmZOr+uiQtnFH59hfApSAOTNSAEQO7YBDZ+8GFZVmYnmD6DKo6i66BRUnHc89j6wGqnNbUVrKzH3ONR99AJQREapwoxshfIzZqD8tOnofewV9D250XSkkhdXhDrLCtVOfCY54MCMAAC5Q4nSmv3YTOlKXvCpWmpd1l3shkqB73MAYsc1oPG2ywPR+e9PlUUx5dPzUX76jKJcv2LeSai/sVk6/1KiCNUfPAc1f3Su6SQlywKh3lJosqXzz4cLoMvV2JXxdz5GPtL+PGqNwKXr/GioFPhaAKhEDA03XxLcTlAR6v50Huz6Sk8vG5tVj9rr3+PpNUVwVM0/FeVnzzIdo+QkFOGYiIUKS+Yqj0Uzo8fV2JlxMeCaXYZ5JK5f8zUUX+tPQ+Hn6zur+oozjT7vz4eKRlB99dmeXrPmQ3NBSj7ESlnth+ZCyWROTxABtbZCg21hkq/ky8uQZuzKuuhzNTiQXf8ov1YlML2Pr/qLmD+NhZtvvZKK2Kh4zwl+NVeQxFmzPHtEEZ1ei9ixDZ5cSwSXlSxH/NRppmOEXoQIUy0LVVIwjynLjN1ZF3scF8Eb8D+Uj+O+CSRSF/rXXHj59i6LnTAFFAvJHRIBZXO8+TAvO/UYT64jgk9+1oWJE2GqbU36DXzy0a812hwXqQCs9c9X3N+i7iI/Gwsr33rkSEOVX015wq7zZh5ApD5cf28xcfKznrhyRWiwlWzjMwYXjL2ORkqHp+MHcpM5434Wdozz/WssvHwrAFQ8XGveVcKbR0hUFq6/t5g4Ve7fRlalpMLKLfGTzv/oUpzbVS+MxytXW74Xd1IA5MG3MRlnKO1XU57QA97k1YPF31xIBIMeDNdrPAiSFqFeOv8xDWiN3dlwdv5lRKj0f+emKbzgZpl8NQbfCoBsR59fTXki49EOb9ndslPcZJFpl5/1eFQoQo0V0CXBAcEAuhyNLsf/7cq9UEaEBmPLviMnG2o4NHwrAEa27fFlq10vsKOR9mhHwOH1O/xb/iKMGt6403SE0ChXhDpbOv+j0aOz/AcMnFVSKIXc6YyNEcvciXOulgJgDP79bDSj/+lNvjVXiIHfboFOZz25ltM1iNR66RhKXaatB+k32k3HCIW4TPgbk8tAh6ORDvjNgwJgESFCuUl+CUuh3laYHrGQNL+B03TTAYLO13V5A09vRmLucYg0Jv1sdlzc3mH0r/R2b/fun7+EqSc1QpXJJLFSxFqj++HnzR7AHhI2AQ3yzP+oXDA6HI1sADp/AhAlQoRyezTs+2VRGM6S5ymmEwSdrz9DnXXQufQ3cPtTfjabN53OoPOeVXA9nrDodA1i7wOrwdkwbNchxoWBnodfwMi2PaaThEK9ZclJfkfhAOjImu38YwQkR4fvZ0RtTI1YqLdzd/TlKlcMBL/zB0BoNB0h6Hz/OTpdg2i/4zGMvLPX76aPKtvRi/Zv/QqZncU5RCq1uQ2771wJt2eoKNcX/nOHR9B5zyoMPPem6SihUGMpf9eCh4wGsDvrGun8I5Rbqjc9YmNqxEaNpVBGFI6O/oiownSCoDOyNZ/bN4yO7zyO8rNmouLCExE/odHMXvmcm5w4+PzbGHphK7jIk21G3tmLXbc/isp5s5GYexyi02uL2p4oDqezH0Mvb0P/05uh0xnTcUKhTKkgPBMOLIb/nT8BSCiFSkWIlWZhJucBjMHc3rzMGH7lHQy/8g4oZsOuTkBVxEF+jA8y4A6k4PYOezbZL++msy76n96E/qc3QZVHYScTUJXyOg0DPZSB2zcMV9b7j4sCUC/j/ke1x9EY8anzJwAVSiFpK4MdQPFtrag/p3nR+pWmcxyCoAHqY6CHNL9FijZz1n5pzV+c4s3Ss3EIxM+fRxxkd/cBu8O1V0Ch9HAGmeEMIJPHRQmrthQsv46CDaFuV2PYp6V+VRYhaSlMhmmY/ZFYEsDlpnMcgnP/QwBAADMDdhbNi9ZvBujXWvOP1n7u9LUgKnpFKGNyQoiiiRJQKUP/RzSkGf1u8Tv/uCJMi1iotaxJ0fkDwLAVulVXpwD8BaWwpvmuDW8037nhS3PvfrG8mA3KO1MIUTS1suTviDKje/sXkwJQbys02Raik2wUJmWH+hyWE0F8R1zHtkgHb2QAABsISURBVM2767WvzL37xaL8ZaQAEEIURUL5fAJciGgGOrO6qFtH5O76bVSYmGAdAMMqdCMAh9NATN+M69i6ixZtaPb64pPzlSGEKLrkJO148tHtunCK2P1XWQqNtgV7EtdfIR8BONjpGvx0y50bvoGF7NkbS96hQgjPlStCVO7+DyulGYO6OJ2/AtBoW6j1//jdwOmMldw2ABYT/3Nz48ZfXPo/Gz35y0kBIITwnKz5PzwNoMstznN/BaAxYqFMCi8AwI7yatMRioSvcpR+8tK7t9QXeiV5lwohPBVXhNgkm3CWr27XhVOEm3+bCFMjlnzf97MjUWM6QtEwcL6jM0+13PlaQX9JKQCEEJ6arJPOxjKiGYOu971/hICpEYWIdP7vconQHq8yHaOoGDiDiR656jtvTngnOXmnCiE8Q5R7/i8O1V2E9f4WcsP+stjyQO1lSWSVZTqGHy4diKTvmOgflgJACOGZBCn5UDmMQe39Vr+5Z/42bOn8D7ExOdV0BN8wcFvLna8tmMiflfeqEMIzFbLn/yEYQK/Hd/8EQmPEQlS+3Ye1ruYY0xF8xUSLzv/eprrx/jkpAIQQnrAAxOU59CEGXe35xL9aSyZaHs3LNdNNR/BbXdTK/tt4/5AUAEIIT8Rl8t8hGECfxxP/EkrJ+QpH0RmvRFtZ0nQM3zHoU83f23jaeP6MvIqEEJ6Iy6fJIQa19nTHvwgBddL5H9WLtZPu7n8fBYu/Pr4/IIQQHpANaA7V7/Hdf4NlQb7NR/dU48mmIxjEH5v3vddn5fvVdjGjjAfZCqoiDvJh6Qazhh5Mg7PFPYnLT1YiDoqV1N7XnmEnC3dgBPB4Frb4A5tIZqMfJMWMrIevuSqlZHvlMfRH4u6LNdO3A0U9Z6kQEQBTAEx47f4YLKX0TQD+JZ8vNloARGfWoeKCE1E25xjYyaIee3xY7kAK6S0dGHz+LaTf2u17+4WgmI3KebNRfsYMRKfXgWwZzDka1hrZjj6k1u/AwJo34A6mTUcqKTHplw4x4OHMf4uAanmPj6nKSd/59OfP/kvTOcby3iWvTrcc6yoC3wLgPV5em4FgFwAUs1H30QuQOHtWbucQQ6zKMiTOOw6J845DatMu7H3wt9BDI8by5Kv87Fmo+8j5UIliFZGlh5RCdFoNotNqUDl/Dvp++Sr6n91sOlbJkF3oDuSCkfLwwJ9ay5Lntflg9UPTEfLxu1vO2glgCZiXtixa/ydMdBeASk8uTjz74rteP+mZz5765lhf6vtrykrEMfWLVyJxzrFGO/+Dlc05BtO+cjXsumCfIJWcfxoabmqRzr8AKhpBzXXnoe6G95qOUjIiwXkrB8Kgy56NQceIkJCh/3xsxPLFz5sOMS5EvPpzZz6oFTcD2OvVZV12Lsvn63wtAEgpNNx8MSJNwTylyapJYMqnLgXFAjM14gDlZ81E9TVnB6pwCrOKeSehav6ppmOUBBkBONCQh3f/crJi3m6n4D77P6q1nzlzvWK+AYA3E9OIWvL5Ml9fWYkLTkDs+Cl+NjlukaZqVF0avE5BRSOove586fw9Vn3lWbBrEqZjhBpzbhKgyHGYkfFo8l9UzlbI13bUqR+bDlGIZz935tMA7vXkYow5+XyZfwUAEarfd7pvzRWi6pI5UJFgjQIkLjgBVlXcdIySQxELlZfm9V4RRxKzs3KP+gdy928A07/T4sVZ0zEK5cL5V3gzijEbzGNWjr69umLTa2GF5E5LxSOIzW4yHeMA5WfMNB2hZCXOmCkjK4Ww7NJZT+uBYY/u/m3K7fonxtQBq8KbO2fDnrvtnG0MvOzBpSrf+923xpxU6NurK3JMrV9NeSI6PVh5ozNqTEcoWVZ1OVR51HSM0GJbCoB9NIARj0YAKqTzzw/h69R6R8p0DK8QsM6L66jIUHAKAKsyXMPXdmWZ6QjvoqgFFZVNforJrvJ/H4qSEbWkABiV9nD4X2b+5+UFnD79+6ZDeIvaPbmMUsEpAPRIuB7PuCMZ0xHexVkXrL09TlQcyE0H5+cdNhyJSAEwKs3evE9jRLKyYmwair9ACxeW1IcjMTz5MCLNY05k860AcLuH/GrKE25XgPIy4PYGKE+JYUdDD5TMCKLvyJIRgH3SHnVFCUs6/zzcTa3LwrXuP2B8KwDSb3SEau/91JY20xEOkHo9WHlKSfqNdrBTUjcRvnJlDgCA3NRtr5b/lZE8/x/DVij1NdMhws6/RwCZLIZf3e5XcwVJv9EBp2vQdIwDDD7/thxmUySDv3vLdIRQc2LRcD3fK5KsR8//LcjOimPIgnEjtS7uMx0k7HwtM3t/9Qp4xPGzyXFjrdHzC08mYXoqs7MbQy/93nSMkjOytRPDG3aajhFqTlRGAAAg41F9Lscqj4HxN/TI0udMxygFvhYATvcQ9vxoTaDvZHtWvIjMzm7TMQ6r++EXkG3rNR2jZLh9w9jzwOpAvx7DQMdiMgIAIANvHiPFZfnf0fwvHln6bdMhSoXvr7TUazuw5/5nAzcSwFqjZ8WLGFjzhukoR6QzWey+c2Xoji4OouyefnQs+jXcvmHTUUIvE4sF681sSHbsjdfyEpUBgCNZD9e5Maz7/QeRkf1uh1/djrYdPaj+4JkoP2sWyGTFy8Dw6zvR+8uXke0I/iMld3gEnXc9icQFJ6D6/WfASsr69fHQwxn0r9qE/mdeB2dk5NoL6WRFGrlDTCzTWUxyPBpJkuf/h7UTjvtB+tl9MgTqIWMb3jvdA9j7wBqo5S8gPnsq7NoKWD7uxqZHsnC6h5De0g53MO1bu15grTH42zcxuPZNxGY1IDq9FlZlHCT7hh8Wa4YeHEG2vRfpt3fLngoecy1bA9gJYJbpLCa5HhQANhEIUgHsb0TZw39/5jU/Xls38+MtV3z5gP/GIE3gPig14DK6Gdktz+0+ezsWUkm9yWOUxsz4dhwT24W4SiGuUkjrMvQ4Ndg1MgNtmWnQPP7Pf+Mn3ujhDIZfecd0jHBiYGTbHoxs22M6iZjsCG+DJ28BwAxPZgDIfp8HSlkRfOnc68s3Jpu+eqSvYRDAPPo820Zz44YUFq1/gYDfaOLHf/uZM54DUegeG9TYPbik+ik0J9dgdtlm2HTkJ20DbiVeGzwbT/ddiuf7L0CW83slGS8AhBAlQGMrCJeZjmGKV5MgZPe/P+iPxPE3Z1+LjclxH8xWBuBiBi4mpn9ovmvDVlq0/gFbq7tWff60jiJE9dRJ5ZuTV9Q+hvfVrESE8ptfW2kNoDn5LJqTz6I7W4fle2/Ac33NY1YB9IEP3RS6ykiIye7aa96POaecZDrGPg9d9u1l68H4V9NBTBnRjHan8Dkl1ZZCtTzKQ3tZJb56znXYXu7pIWhpEC/TrP9t7W1n7/Lywl5gBvWumfollyO325Qt+Hl4Rke3xZH906qL29Yc6WvklSaEKJzmV01HMMmruyjZAgDYWlGHz533Ma87fwCIg+nzCtameXe99pVLF/4mMCPgXc/VVvWumfZzAv7bi84fAKIqc6xWvKp3ddNfH+lrpAAQQhSOs89hEi/P8mgF4KSf/vfrxtn47HkfxZ5YopjNVBLTN7ON9b9tufO144vZUD4GnmlqsJzYKgJ/sAiXtwH6j57VTd9hPvTlJQWAEKJgtOL+LgBvms5hCnu0BFBN0hIgo2x8e/YlWHjGVRi2fVsN9h4QrWu+c+O1fjV4sD2r6ytdRY8BOKeY7RDoL/p+2/RvB/++FABCCK+sNR0g7CbjB/I7iRrccv7H0DrzbN/bZiAJ0o+03Pnarb43DiCCyH0A5vrSGNPf9j079ab9f2syvt6EEMVAPGkLAK/u3CfTTkpZZeH7x52PT53/cbxdUW8yisVEdzcveu3LY3+pd3rXTL0FwPV+tsmEO3vWTH13ua4UAEIIbxA9YTqCKVEPZu8RAfYkmQX4Yu0M3Pzej2PJCRcibQVlLh59s2XR+pvG/rrC9f9mWj0Yt/vR1kEqCPjWvv8jBYAQwhPUuvT3AF4zncMEBSBeYOddRlTyH8jby2vwtbOuwZfOvR7bErWm4xyMGFjWcvfGlmI3pCP8VQBmvgGMD/etaXoPIAWAEMJLhBWmI5iSLPBMk6oSPgXwrcoG/MtpH8CfXngTnm04wXSco4mw1g+e/71NdcVqoO3FaeUA3Vas6+eDWf0VIDsBCiG85OoVUOofTMcwoUwREoowpMe/IqBCqYJHEIJGg7CudjoePHYunq8N1S7RM6JW9i4AC4px8UQaH2ZwshjXzh9f2/vszJrSLTmFEL6jFfe8CuBt0zlMqbcsxMa5nW+cCHUltPvf2xV1WHRiM25ouRlfOvf6sHX+AAAG3dB812tXF+fa+FAxrjtOcZDzARkBEEJ4jO8H6B9NpzCBCGiKKHQ5GoN5jARUWoRaywr16v+ssrAx2YR1NdPx9JST8HZF0UbP/aXVHZcu/M0TqxbO9+qoh1F8ibfXmyi+VAoAIYS32FoC0t/AJD3cjkCoty1UMqPf1UhpPuCkQEVAuVKoUoRoyA7/cYnQHk9iZ3kSm6sa8XLNdGyonoYRVYILGIlnZxvrPgbgh15dcmBN4xSX0ejV9QpBwOlSAAghPEWPLG7nj9zyU4CL8gw1LGJEaLBzHaMLwGWGRUCQ7/ezysJjU+dgIBJHWtlIWREM21F0R8uxPVGD9ngVsqXY2R8RfR3MD3p1nLBmGN96eB8NOkEKACGE99hdBFKTugDYnwXACsHd/uNTT8F/zHmf6RhBcmrL4tebVwOrPbmaUskDhoMMInDSRu4oaykEhBDeeeSeVfjIpzcCOM10FJE3vbO89gZi3m46SL5csiyLuFFDn0Sga8C4BB4vb9fMN8GrAoDZDtCRT1EboCEYX5IghCgllDsf559BeMh0FpEvWn7b7Z8I8z4O/91y14azmPlbAC716qLEfD0W8m1YSAXfu2uNoQANBA0ogPtNpxBClKBHlv4EwCumY4g8Kf530xEKtfqzp786rW7T5QDf4eFl61uaNp7hxYUsWG1eXMcjuxRAu0ynEEKUHgIY4P9rOofIyy+odelLpkN4ofWjH3XX3HbmVwC6z7ur8qVeXKXS2bUVwIgX1/LAFgXSW0ynEEKUJlq+7OcAnjOdQxxVBkr/lekQXovEE7cB8GQ+g2ac6cV1aD4cAl7w4lqFYmCNglYbTQcRQpQwpf4agCfLqERRfJta7ym5G8FVNx+XBuGfvLgWASd7cZ0cDsSpmRr8hNLsPms6iBCidFHr4tUALzWdQxwGYTeU+lfTMYolTSMPA8gUfiU+rvBrjF6J9IMwXxC/WtfSsVE5A7teBCATAYUQxROL/i2ADtMxxEGY/5ZaF/eZjlEsL33mvD4wv1zwhZg8WylX3dz5NhimRwEWAYBatWqVA+Axw2GEECWMHlzUA6Ivm84hDvA4li+733SIoiPaWfg1UL7gJz/xbAtETfQvXl1rArYn+xP3Afs2TFD0A4NhhBCTAD285CEQP2o6hwAAdCKLT5D5oeiiI/JkhJt27pwe9eA6AIDalrbVIPzIq+uNC+ErdPVbI8BoAZDp2f4rgIK0PlEIUYqi0U8CvM10jEmP6RZ6dOlu0zEmMwv6SwT2ud+ln1Q3ty/f9/8UAKxatcphxjf9DSKEmGzowUU9UPgYPJmYJSZoET2yREZiDKts3t3pgv4YPu0LwMDrrp2+Zf/fe3fPZErz3QTs9SOIEGLyotZlzwP8d6ZzTFIvQlV+1XQIkVPb0v4sCDcClC1yU+9ol66su6D7gMch7xYATzzxwJAGfaPIIYQQAli+7FsgPGw6xiSzE1n9IWq9I2U6iPiD6ub25QT9YQBDxWmB1jvKaq67pG3Hwf/lgFOTms85fglAsmuXEKKoCGBQ340AnjSdZZJIgel6evQemesVQMmWjv+1LLwHoPVeXpdA96WH3Avr5+087Jb/BxQACxcu1K7CJwAMeBlCCCEORq2tGSj1EQCvmc5S4jTAH6dHlgRiC1pxeJUXtm9K1tScB9DXUOjePIxNILoi2dJ2c9MVu484snDIuclPrrj/DSb+TEGNCyFEHqh1cR8c9xoAha/VFoejQfwZWr7sp6aDiLHRaRsz1S1tt3M2Nmu0EBjPFs0ugJVg/miypf306ua2MTcbsg/3myt/+oMfvf/am+YSQSaLCCGKin527w5ecPMVYGslGNNM5ykhGoxbafmyZaaDiPGpmb+tF8DtAG7vWt10mk3qMmY+k4CTGagCqALgXgB7CNgMot8puE9VNu/uHE87hy0AAGDlow/89fs/dNMUAm4q8O8ihBBHRa33vs4f/mwzLOfXAE4wnacEMECfp0eWSOcfcnUtHRsBFOXQvkMeAeyHq6Ppm8FYXIyGhRBif/TTu7aBcSmAzaazhJwD8M20fMldpoOIYDtaAYDW1lb3iUcf+Cwx/zMmwZaRQgiz6JGlO6HtSwCsM50lpHqhcTUtX/Z900FE8B21ABjFjz/6g/9LoA8AkK0jhRBFRSvu6kSl0wzwfaazhMxWKLeZVixdaTqICId8CgAAwOM/u//XzNlzidBazEBCCEH33Zem5ctuBuirABzTeQKP8TR05nxqvfd101FEeORdAADAykcfanv8pw98FMwfAPBSkTIJIQQAgJYv+W9oXAFgj+ksAeUA9E/onn45rbi/y3QYES7jKgD2eeLRH6x84mcPnEfMVwH8BHLrD4UQwnO0YulT0PbpAC8f+6snE94GwmW0fMk/0KqFMkoixm1CBcA+jz/6g1898bMfXMGcnUmEvxotBoY9yiaEEABy8wJo+bIbAHwcgNzpMu5Fls+kh5c+azqKCK8j7gMwHisffagNwDcBfHPBggXR3pH4mYpoNhNmg3UTQBVEiHrRlhACKC+PXwBghukcfqPlS3/E1376KUTxPTBuMJ3HgNeg6C+pdcnTpoOEXdLuw7RoG2IqjQhlkdYxdGXrsTvbBJct0/F84UkBsL/W1tYMgBdHfwkhiuBvvvq5HwH4Y9M5TKBHl+4GsIA/cut7Af2fAC4ynckHPQD9I7qO+R8Z7p+YmBrBvKo1OL9qLc5IvIYau+ewX5dlG2+mTsG6gblY1Tsf7ZnS3ZzS8wJACCH8QMsX/46BS3DDp24A07+hNHcQHAJoMfTIv8okv4lpiHTGr679Oa6u/QUS1tgn7kbIwanlG3Bq+Qbc2Hg/1g3MxUOdH8eG1Cwf0vqLTAcQQozfk8+uDdIIwEPvu+jCPzEZgBcsiEJX/SlAXwJwhsksHukF8fcQsb5NP1q813SYsOpdM/WWtBv/blylY4Vey4X6SZScvxjvfvtBJiMAQojQo9yjx3sYuBfXffpyKP4yQFcifDc5W8F8N8rSd9EPf1jYkbCT2J7V9ZURRO4D4/q4SntyTQv6o5qppXv11D+ubWkvicmXUgAIIUoGAYzcTngr+SO3ngLiPwPzxwAcbzrbUQwCWA5F96J1yTMk264XZOCZpgYX9BiAuV5fm0HTFLCyZ/XUj9e0tD/i9fX9JgWAEKIk0fLFmwF8HcDXecGnzofGxwBagGCsnugBsBKEX4Kij1DrnYOmA5WCrudqq1yXfgXGuUVsJkbAT3qenbqg5qL2FUVsp+ikABBClDxqXfY8gOcBfJWv+/QcKLoErC8B0SUApvoQIQ3wq2B6EpZ6DOhZS62tsoGah5hBvWviDwJczM5/H4sIDww803R+5cUdod1+WQoAIcSkQiuWbgKwCcBdAMDX3TIbCmeD+GQwTgFw8uiviglcPg2gDYwdIFoP4nVw9To02K/T4sVZz/4S4hC9a6Z+icAf9LHJhKvUQ7zxtPPotI0ZH9v1jBQAQohJjVYseQPAGwf/Pl/3Z3WwIzVwVQ2UWwOtakBIglgD6PvDF6oegDuh3HZqvVfOLDCg6+lpMwj8T/63zGf09fR8BcDt/rddOCkAhBDiMEbX3cva+xCwbP4GeEIjNh7gr/U+O/Pu6ou2H35noQAr6CwAIYQQwqTB56Y0gvEJgxGqQM5nDLY/YVIACCGECK2sa90IoOCNfgpC/OdG258gKQCEEEKElmJcZzoDGCd1rW46zXSM8ZICQAghRCh1PN6YYOB80zkAwIaabzrDeEkBIIQQIpTiCTUHCMZR8ww+y3SG8ZICQAghRCgR0YmmM7yLcJLpCOMlBYAQQohQYuga0xnexRycLHmSAkCIcNKmA+xDDNnSVhjBmgIx/J9DcdMJxksKACFCiMGBOTyGgQHTGcTkRArDpjPsJ3TvAykAhAghAnWazrAPg2X7W2EEM+02nWE/gXlP5ksKACFCiJm2mM7wLhWgLGJSsYDAvPYoQFnyJQWAEGFE9LzpCPtYin9nOoOYnCqb295EQM5rYNBzpjOMlxQAQoTQ5Re99w0A203nAGHb/Hnz3jIdQ0xORNAAVpnOAcC1yP2N6RDjJQWAECHFRD82nQHMD5mOICY5CsRr8KnK5t0yB0AI4ROmpYDRJXiuq9U9BtsXAsm+ip8TuM1oCOYlRtufICkAhAipyy967xvEeNhcAvrJBy654E1z7QsB0NVvjWjQfxkLwNiUbOlYbqz9AkgBIESIucr9GwBDBppOKYe/bqBdIQ5RXVP7P2BsMtE2EX91dC5C6EgBIESIvb+lZTsx/t7vdhn0tfnzL9zmd7tCHA6dtjGjiW4F4PjaLui+ZEvHY3626SUpAIQIufkXXfAtACv8ao8Jy9/X8t7v+NWeEPmobWlbDfg5KkXrU0PuF/xrz3tSAAgRckTEZRbfSMDqorcFrC5XfBMRcbHbEmK8qls6/pPB3/WhqXccpa5qumK3icdvnpECQIgSMG/evFR2uPxKAMUcjnwySu7V8+bNSxWxDSEKUt3c8UUQ/3uxrs/A665LF9XP27mrWG34RQoAIUrEFVecNaSc9LUA/hHenhbIDHwnWRa5qqWlJXQHnojJhQhc3dzxdyDcAFCfx5dfgWysue6Sth0eX9cIMh1ACOG9p55Z26yJvkfgswu81DpW+guXNzev9SSYED7qWTN1FgHfAuPDBV5qB4i/Ut3cYXDZrfekABCiRC1kVhetXvshgL4I4GLk/37XAJ5l5m+976ILfybP+0XY9a1peg+z+iuArwUQz/9P8msA3ZnsT9xHV781UrSAhkgBIMQk8OSaNbNIW1eA+WImzAFjFgiVo/+5H8A7IGyCxjNauY+/v6XF/DkDQnis5zfHVlMkcwXAlzJwBgEnAqgEEAPQT0AbA5sZWKPBT9S1dGw0HLmo/j/E15NWBwEG6QAAAABJRU5ErkJggg==;container=0;" vertex="1" parent="1">
          <mxGeometry x="-1026" y="-1040" width="102" height="102" as="geometry" />
        </mxCell>
        <mxCell id="bc7KVerA1UK6MyxtnoFU-28" value="&lt;font style=&quot;font-size: 20px;&quot;&gt;Davinci model&lt;/font&gt;" style="text;strokeColor=none;align=center;fillColor=none;html=1;verticalAlign=middle;whiteSpace=wrap;rounded=0;fontSize=20;fontFamily=Architects Daughter;strokeWidth=5;container=0;" vertex="1" parent="1">
          <mxGeometry x="-1120" y="-1110" width="60" height="30" as="geometry" />
        </mxCell>
        <mxCell id="bc7KVerA1UK6MyxtnoFU-29" value="identify patterns and relationships" style="text;strokeColor=none;align=center;fillColor=none;html=1;verticalAlign=middle;whiteSpace=wrap;rounded=0;fontSize=20;fontFamily=Architects Daughter;container=0;" vertex="1" parent="1">
          <mxGeometry x="-924" y="-1110" width="150" height="30" as="geometry" />
        </mxCell>
        <mxCell id="bc7KVerA1UK6MyxtnoFU-30" value="" style="shape=link;html=1;rounded=0;sketch=1;hachureGap=4;jiggle=2;curveFitting=1;fontFamily=Architects Daughter;fontSource=https%3A%2F%2Ffonts.googleapis.com%2Fcss%3Ffamily%3DArchitects%2BDaughter;fontSize=16;" edge="1" parent="1">
          <mxGeometry width="100" relative="1" as="geometry">
            <mxPoint x="-1030" y="-1100" as="sourcePoint" />
            <mxPoint x="-930" y="-1100" as="targetPoint" />
          </mxGeometry>
        </mxCell>
        <mxCell id="bc7KVerA1UK6MyxtnoFU-55" value="&lt;font style=&quot;font-size: 24px;&quot;&gt;AI Model (Fine-tuned)&lt;/font&gt;" style="text;strokeColor=none;align=center;fillColor=none;html=1;verticalAlign=middle;whiteSpace=wrap;rounded=0;fontSize=20;fontFamily=Architects Daughter;container=0;" vertex="1" parent="1">
          <mxGeometry x="-1150" y="-550" width="130" height="30" as="geometry" />
        </mxCell>
        <mxCell id="bc7KVerA1UK6MyxtnoFU-58" value="" style="shape=image;imageAspect=0;aspect=fixed;verticalLabelPosition=bottom;verticalAlign=top;sketch=1;hachureGap=4;jiggle=2;curveFitting=1;fontFamily=Architects Daughter;fontSource=https%3A%2F%2Ffonts.googleapis.com%2Fcss%3Ffamily%3DArchitects%2BDaughter;fontSize=20;image=data:image/jpeg,/9j/4AAQSkZJRgABAQACWAJYAAD/2wCEAAgGBgcGBQgHBwcJCQgKDBQNDAsLDBkSEw8UHRofHh0aHBwgJC4nICIsIxwcKDcpLDAxNDQ0Hyc5PTgyPC4zNDIBCQkJDAsMGA0NGDIhHCEyMjIyMjIyMjIyMjIyMjIyMjIyMjIyMjIyMjIyMjIyMjIyMjIyMjIyMjIyMjIyMjIyMv/CABEIA9QD1AMBIgACEQEDEQH/xAAwAAEAAgMBAQEAAAAAAAAAAAAABwgBBQYEAwIBAQEBAAAAAAAAAAAAAAAAAAABAv/aAAwDAQACEAMQAAAAn8AAAAAAAAAAAAAAAAAAAAAAAAAAAAAAAAAAAAAAAAAAAAAAAAAAAAAAAAAAAAAAAAAAAAAAAAAAAAAAAAAAAAAAAAAAAAAAAAAAAAAAAAAAAAAAAAAAAAAAAAAAAAAAAAAAAAAAAAAAAAAAAAAAAAAAAAAAAAAAAAAAAAAAAAAAAAAAAAAAAAAAAAAAAAAAAAAAAAAAAAAAAAAAAAAAAAAAAAAAAAAAAAAAAAAAAAAAAAAAAAAAAAAAAAAAAAAAAAAAAAAAAAAAABjVG2aLcH1YyAAAAAADBlrPIb58fqZAAAAAAAY15sWg256GMgAAAAAAAAAAAAAAAAAAAAAAAAAAAAAAAAAAAAAAwYibkYpXfaF9l+Pr/XiJanOmW+S4LUbdAAAAGEEHUQpzZT6+pfhJUWkuPuKb2oToAAAAAYjrnYIXquVfRfn9fXrySp3p9sEue5Tq0AAAAAAAAAAAAAAAAAAAAAAAAAAAAAAAAAAAAARdKFTjkvr8p4X0yv8AbKY43sxUHnrf1GXvLO0gt8dCEAAAj+sHfcCv6nPwzueb05Jyddra6opr2PNeNbu/rjuxQAABx/YVvIy/KVV2c1ezKY5zpBVTi7o1EX224pJZwkMIAAAAAAAAAAAAAAAAAAAAAAAAAAAAAAAAAAAB8qUXWpOuLmUzuke0IAq1aWr68BZCt9jSUggADGcFMPB7fC1bzpNDvmQAK2RnKMXNT9MMNzIyAAAqDb6ny6G1NVrXHYhAFfLBwEsOzdCM1E6hAAAAAAAAAAAAAAAAAAAAAAAAAAAAAAAAAAAAMVFt3DpAVia7e1bpI/79Msac+tP+p4tVta9WuMhAAGMiqvFWOris8TPSixhJbBM+Pz1zOU1bomrBd38/oyAAArNZmPysEzQz9Fu1mKJVT9MeI9FRurjRVk4CuAekIAAAAAAAAAAAAAAAAAAAAAAAAAAAAAAAAAAAA+f0FXeCuvBqw1v9T5l6zmPkDuuWOitBSztUtU8fsQAADFbLKfMpInCG19+y5Iv3+Ds05a0v26pAAAAEaq3L+fy7teE3Hw1x13NeYPt0tgE83eiAAAAAAAAAAAAAAAAAAAAAAAAGODO819X+RW3u3pX+y7isM8J0wAAAAAAAAAAPJynbDguj3QxynWCmOutnV1eks9SztS1Tx+xAAAHm9OCpfK9lxrVkZO4HvmQAAAEaq3K+aVxYV+0+HLdgOA33QjGQAAAAAAAAAAPnDpMumqlpluDu6Se0ukgCck9oAAAAAAAAABzRxNfPp8lfuXJwKha67ujKe+rteALUdvTi3qeoAAAAAAAAAAAADk+sFMddbOrq9JZ6lnalqnj9iAAMZwVT43suNatD33A98yAAAjVW5XzSuLCv2gAAAAAAAAAAAAD8fuHTiI5epfL6bBycUz8N3eIKs9N49KXP2FcLHJkAAAAAAAACv1gaoLx8kRvZokTIgHnqRb+DVhKxlc/2XcUmF2VJhdlSYXZUmF2VJhdlSYXZUmF2VJhdlSYXZUm+hdVHEjoAAA5PrBTHXWzq6vSWepZ2pap4/YgDGcFU+N7LjWrQ99wPfMgAI1VuV80riwr9oAAAPMelVviluypMLsqTC7KkwuypMLsqTC7KkwuypMLsqTC7KkwuxT7UfEWIr3dU+uRAOVqZdypi8vcimlnyQAgAAAAAAAGKn2xrssU2erDKxYljKAIRmupy8oT2QGuaKZLmimS5opkuaKZLmimS5opkuaKZLmimS5oplm5kDkYWTrP9S7SOJHQAAByfWCmOutnVdeqs/Su152ARjOCqfG9lxrVoe+4HvmQEbSTWA4P5pRX7WFftAAAB5hWJwysbCzZVRc0UyXNFMlzRTJc0UyXNFMlzRTJc0UyXNFMlzRTLNy6lGvurSSzBI4QDFUbI1CX52crJcQ3QQAAAAAAABx/YYKRJshJZ6mGkmzLmeOrPOklRU/Z7LgcPJCAAAAAAAAAPz+hXSK7u12WMLJ1n+pdpHEjoAAAqHbyoa85a+qFrzsAjGcFU+N7LjWrQ99wPfMgKwWfrAsf2SrbZIk0IAAPMKxOGVsFoh1ogAAAAAAAACDpx85SjZ7/jWrT9vSHoEt/z1aeaOm5ZuDqbO6TeIAAAAAAAAABiKJYFNtTdvllqatFuitM/d1lAAAAAAAAAAAH5/QrpFd3a7LGFk6z/AFLtI5kZAAFQ7eVDXnLX1QtedgEYzgqnxvZca1aHvuB75kBWCz9YFj+yVbbJEmhAB5hWJwyvetGOtEAAAAAAAAAAA8kE2BwUo+F0+VWq36tH0pXqwG5ygAAAAAAAAAAAAAAAAAAAAAAAAAB+debL86kQZFdxa9rwdlKzfUu0jTs03DTjcVDtJVddBa+qFnCQ2nJuMagVq43reSatD30YduzuGnG4rBYeuK8NZKttgiXWnJuGn/BsqxOGV7/hZI3HW6cm4an2npYyAAAAAAAAAAAAAAAAAAAAAAAAAAAAAAAAAAAAAAMfCvhKkQRsX2+HP1X4vYPG9hPI9ZfJj2DxvYPHn1jyY9g8b2DxvYPI++D4PXk8b2Dx59Y8mPYPG9g8b2DyPWPJj2DxvYPH+vT5jppMgwl0fdTayCdyxkAAAAAAAAAAAAAAAAAAAAAAAAAAAAAAAAAAAfL6wicZwL2L55bkntzl+l/ZAAAAAAAAAAAAAAAAAAAMeL3CMYUtz51pR9pGjMtH3lM7dJsgAAAAAAAAAAAAAAAAAAAAAAAAAAAAAAAAAAa6nc+V5VZWGLYGQgAAAAAAAAAAAAAAAAAAAAAHxqlbOPSsU0wtuVuM/P6QAAAAAAAAAAAAAAAAAAAAABjX1tJp4GGCytuoPFtuopFLZYN8vqgAAAAAAFd4okWOmpym2LJTZAAAAAAAAAAAAAAAAAAAAAAAfL64KUfDe6Jq4255PrGQAAAAAAHm5athOfIRCWWenr+LmbOldhElAAAAAAAAAAD5/SKyJuNbFr4yjMHRpDHJ2TJSP8WcrKstWDpDbY6gIAAAAABWSO5EjtqxspRbKTIAAAAAAAAAAAAAAAAAAAAAADGcFP8AQ77QrbPrOT6xAAAAAAHP9BWk4PxO5XSSdNPqITjy1/5SkX6l2IGrOSHT63zP7AAAAAAAAArHZupZys8wNaVe6CAYrbZOGCB5Fjo1PqAiT6gIWBlWlPelonm9KAAAVkjuRI7asbKUWykyAAAAAAAAAAAAAAAAAAAAAAAxnBT/AEO+0K2z6zk+sQAABxPjrSTsgIs+oCE+QV8At3U26pkIB8Kb3OqwvEWzqZZgkcIAAAAAAAAq3aSGSBrEV36FbfNfsEAV6mCp6+XrOTtORYsWSuixYpZ47V1gXsbM0p70tE83pQACskdyJHbVjZSi2UmQAAAAAAGq2tfDvFRxbhUcXv2EJzYAAAAAPh99UcaqOLcb2lU2lkgAAAMZwU/0O+0K2z6zk+sQABHqtI+CTF1O+sP9ErosWK5xfdurK8Rcem8qlimMoMGKeTRX1Vqqy3IPuEAAAAAAAAeP2CnmjtzWJfrMteRaTkYJGw17tF9VoPBsGQAHGdmKWeO1dYF7GzNKe9LRPN6UArJHciR21Y2UotlJkAAAAAADFKbTUxB+j8g724NBLvm9AAAAA1W11RRUCbYSm0skAAABjOCn+h32hW2fWcn1iAI9VpHwSYqx76IAA4rtRSP8WNryvdStWgWfjmJh+vzmZTczBjKAAAAAAAAAAPH7BDXA2jFS91ZoRbJ/7AAAADjOzFLPHayr69jZmlPelonm9KVkjuRI7asbKUWykyAAAAAAPyV6gfpObEnRjZQrx4pJjYWOrj25chjIAAAA1W11RRUCbYSm0skAAABjOCn+h32hW2fWcn1iI9VpHwSa0sc+jIAAADn+gEBcfa0VO6exQ4zssgAAAAAAAAAAAAAAAAAAABxnZilnjtZWBewszSnvT7x33nBrY2UotlJkAAAAABxXa1zIMBm7FSrtEHVyutSox+vyLu9FBE7gAAADVbXVFFQJthKbSyQAAAGM4Kf6HfaFbZarlIUHwSaLHPogAAAAAAAAAAAAAAAAAAAAwZeHiyQkWbo7l8fsAAAAAAOM7MUt8VrKwL4gtjZSi2UmQAAAAAPzSG0tPDBkm6yHAd+YpTdevZAgOyuZQK6x1AAAAGq2uqKKgTbCU2lkgAAAMZwU/wBDvtCok0WOx9UAAAAAAGDLR8gSWi/pzqX5/QAAAAAAAAAAMGIU08Sr6fM6ZeZSHyx8p8rdlLu5iaWUAAAAAAcZ2YpZ45EjtqxspRbKTIAAAAA/BXKEN3pBu9JN5Y39g5LrcFAsdZyYsFX3rC6bGQAABqtrqiioE2wlNpZIAAADGcFP9DvtCsm2N5frUAAAAAAHhPlXzm+aXOPp2S8S77jDpbE1G96XQc10qAAAAAAAAAOE7uuBF/0+cxL18m5Jj8fQQTC13arrydwKbTSTs5MnWOTHWOTHWOTHWOTHWOTHWOTEIR32/ENWNlKLZSZAAAAAcB39aSFgZuHVm75+gAQDX669KTGcC6XW17sIAAANVtdUUVAm2EptLJAAAAYzgp/od9oVtn1kYdGnWOTHWOTHWOTHWOTHWOTHWOTHWQHJ9XV1+70lozb9JkmNdshVfiLlU8Xr7UUhuAb8IAAAAAAABipts6prxloavWVJKCAIUmuCCFz3teBviaFvhoW+Ghb4aFvhoW+Ghb4aF6fMtjZSi2UmQAAAAPlRy0lRAZJxsbxHbgAGKZXOgYryDprsUCuWdmAABqtrqiioE2wlNpZIAAADGcFP9DvtCpuPsaFvhoW+Ghb4aFvhoW+Ghb4aFvtCv3utSW6SeoIBiqlq6kLzFm6yWiO9CAAAAAAAAIFnrRlPO743zNXd/Va5yZ6J8uSOlqNtuQVZODbcH2CAAAAAAVkjuRI7asbKUWykyAAAAPgVrhvaasdFzuzL1ZpwLjqcC46nAuPzdXBxX5+nzE6wV0Bd9+f0AANVtdUUVAm2EptLJAAAAYzgp/od9oVtn1nJ9YgAAAAAGKi27iorrPcCfRbtoXldNi8sdG4qvsdcv1uVBtgTIQAAAAAAAACNa33a5NamJE4NfhjGxNfspFm9Nd1QgAAAAAAhM4fhBqxspRbKTIAAACNpJq+RAAAAAAABnAuN3NcLHgADVbXVFFQJthKbSyQAAAGM4Kf6HfaFbU9tT60ybsAAAAADGRXqJbvRitb3WcquMN+aDtZBmNPn6hAAAAAAAAAAAHz+g8np/QAAAAAAAEJiDGWsPf4CxspRbKTIAAAHmo1aCpwBIVqYsmc1baDVtoNW2g1baDSUpvjVoiUG7vBQW3xIAAGq2uqKKgTbCU2lkgAAAMZwU/0O+0Kt94PAtxN3T60zO7AAAAAABj5fYeb0ZAAAAAAAAAAAAAAAAAAAAAAhMQYy0npMiVkjuRI7WxspRbKTIAAA8pWSJfd4R9PnIJabcAAAAAi+UPOUJxsNeJphbbl6Hy+oA1W11RRUCbYSm0skAAABjOCn+h32hWzkC2R2qU33315xq4m7p7adndgAAAAAAAAAAAAAAAAAAAHDHc+KsHGrcLaUo+pdpWadk6MAAAAhIzBjLSekyICVkjuRI7asbKUWykyAAAiyU6rEUgWVrdeI3IAAAAAKvxBbSphjOBbqRax2cAGq2uqKKgTbCU2lkgAAAMZwU/0O+0K2z6zk+sTUVat5qCm+++vONXE3dPbTs7sAAAB+IiJf1dUdEtx9tSLYlz0CzenrAAAAAAAAAAOcOLrz9Pir9SxORUDxXe58qD7Ov4QtZ2dOreJ6QACEhBo0ntMiAgFZI7kSO2rGylFspMgAAeKjNm6sAHf3AhObAAAAAAD40ZvZWQhsGzvLQi2ZJYGq2uqKKgTbCU2lkgAAAMZwU/0O+0K2z6zk+sQDUVat5qCm+9+3ONXE3dPbTs7sAD8fuIDio0ehfP8AawMolMPNd3gyr3Va3Tl0PfXOxaZAAAAAAAAAgCf6orx0ix1ZkkXIgHmqRcCDFhOx1cfsXZUtF0lLRMsGgntMgCAAVkjuRI7asbKUWykyAAxkVcjG+Iod+r3jSbsAAAAAAEdSKKHL4ih0s2YADVbUUOXxFDpmsWAAAAGM4Kf6HfaFbZ9ZyfWIABqKs291BTfe/bnGribuk33S6SloujUDW+IWFr9dQ+2RAOSqdd2pa8xcmmdoDvwgAAAAAAAGKnWyrqsVWfrBLJYZjKAISmup68kTqQUuKKdLiinU9yZuEAAAArJHciR21Y2UotlJkAAAAAAAAAAAAAAAAAAAAAABjOCn+h32hW2fWcn1iAAAairNvfIUrXFLTpcUU6XEqeeG61I7NkiBAMVSslUFflZysdxDdhAAAAAAAAHGdngpFmZoXWf5dpHty5Hlq7zRJkSv0eu4HCyYgAAAAAAFZI7kSO2rGylFspMgAAAAAAAAAAAAAAAAAAAAAAMZwU/0O+0K2z6zk+sQAAAAABBc6eYpTtdzyK2s7KkPTFuNHWrljqOTbU6m0Gi3yAAAAAAAAAAYiOXRTLW3a5JapLOborXPvffpAAAAAAAAKzxxMcONWHliAZ+ZAAAAAAAAAAAAAAAAAAAAAAAYzrypGn/WFtr1Ph9yAAAAAAAeKBrDYKTfK5/JrVzNnunK82C3mUAAAAAAAAAAAAAAAAAAAAAAAj2sV26hr5rgUpmIn1jKAAAAAAAAAAAAAAAAAAAAAAIdkWpq6/ruRsUSpkQAAAAAAAAAAAAAAAAAAAAAAAAAAAAAAAAABH8gCkOJ9gNqZZzpNvkuChDqkkVwI75wI75wI75wI75wI75wI75wI75wI75wI75wI75wI75wI75wI75wI75wI75wI75wI75wI75wI75wGpJU5SF43XdaJ0i7C1Gs2zIAAAAAAAAAAAAAAAAAAAAAAAAAAAAAAAAAAACOZGFONPdiNlrglLRHFOwLx7sNec+A2m8OPdgOPdhyx8DpjmXYDj3YDj3r8gdH7Tj3YDj3Yc6eE35oHYDj3YfM5MB6OnOQdgOPdhsCP8zZJqQrYD3ZQAAAAAAAAAAAAAAAAAAAAAAAAAAAAAAAAAAAAAAABjOmMVac+rfrSjdiAKhW9qGvOWvqha87AIxnBVPjey41q0Hf8D3zIGKw2frAsf2SrbZIk0IxkQrBV3oWWCp3ggXezDEzJkAAAAAAAAAAAAAAAAAAAAAAAAAADHhrgTTwMJllvdQULd9HSOXyfnz+iAAAAAAAAAADTCrTnlb9aUbsQABUO3lQ15y19ULXnYBGM4Kp8b2XGtWh77ge+ZAVgs/WBY/slW2yRJoQBjIhWCrvQssFTxA4u9mGJmTIAAAAAAAAAAHw5ethOvIQ4WXunr0Ln7Cl1hkksAAAAAAAAAD8fuLSJ+KbBr4SbMXTpCnJWYwlI/zZitKy9P8ASG3B0wQAAAAAAAAaYVac8rfrSjdiAAAKh28qEvO2vqha87AIxnBVPjey41q0PfcD3zICsFn6wLH9kq22RJOCAAMZEKwVd6FlgqeIHF3swxMyZAAAAAAAAA0O+rYcF4HbLpJMm31kHR5bT8JSP9SzEjVn5AqBbxn9gAAAAAAAAVlszUs5Wd4ItKvdBAMVqstDBA8kRuWwSvosEr6LBK+iwSvosEr6LBK+iwSvosEr6LBK+iwMP88G/WlG7EAAAEOmYCYVbSO5vARjOCqfG9lxrVoe+4HvmQFZbNaMp50nn0bVydtUS0rO2AAAxkQrBV3oWWCphh4WCV9FglfRYJX0WCV9FglfRYJX0WCV9FglfRYJX0WBgbzhbiqF1TIQDz04udVdeJtpUuzBI4QAAAAAAABVq0sLkEWJrt0a28eH3IAr5MNTV8nU8taQipZAlb1kBW9ZAVvWQFb1kBW9ZAVvWQFb1kBW9ZAVv/djRpN2AAAAh4xAbCpwTeAgDGcFU+N7LjWrQ99wPfMgAaOrFw9GU86Tz6Nq5O2qJaZnagAAYyIg46yAresgK3rICt6yAresgK3rICt6yAresgK3rICt6yArdGd3KrrxVyaay0WFYygwYp7NdeVWprLck+4QAAAAAAAB4fcKdaW21Yl9cz10FquRgMbLWuvX2Wj12yZAAAAAAAAAAAAAEPCAmGk4JvQEAAYzgqnxvZca1aHvuB75kAADR1YuHo1p50nn0a3K2tRLSs7YAAAAAAAAAAAADh+4FIvzYiviyDK1YxaSOogH7/CYDdzJ+f0gAAAAAAAAADwe8QpwVqBUbc2gEUSl9QAAAAAAAAAAPkfVG3Fk+q99GTC1MaCAmFTgm8BAAAGM4Kp8b2XGtWh77ge+ZAAAA0dWLh6Mp50nn0bVydtUS0jO3cFwhPCvO9Jpc/vzIAAAAAAAAAHN9IK+8fbIVJ6ayA4buMgAAAAAAAAAAAAAAAAAAAAAAAAak19afDqlNtKCwynPgE5P4YKnDnbIoCAAADBnHCwofDjfp82rQd/TaUUnh4vagAAAGjqzcLmyono+P5aPbKCREnbizgJohXBd7MHTgmQAAAAAAAAAAAAAAAAAAAAAAAAAAAAAAAAAAAAK92Dpmut6zk7UnT+8RjIgqFbuU+X4XEpPaM7wIAABiG+wquuMJgIfzcTZFKFnq/H1tNTfvS0TGUAAAQ5MdVDi9vqLDr3e9EYyIsrnd6ri8TcCnVgSXggAAAAAAAAAAAAAAAAAAAAAAAAAAAAAAAAAAAHmpTd2li+W69KLdHShAFZbM1KXlrE12s0SKEAAGCs0dbLWtS1YTmOoZAaDf4KU+eSI3atp1cQS+yAAAp1cWpa8pbSpdmCRwgCCJ2rYsaTPDE7k0BAAAAAAAAAAAAAAAAAAAAAAAAAAAAAAAAAAAAMVnszypUqSY8+LV3P3VuW2ZJcJwB2Favr8l9FyIcnIBAAGMilfj7DkGribuIpdZAHwK9xXutKs9TLH0goAAAgid9WU063Sa1q63pqVMjMo44jjDvap+jxKtpC1kzIQAAAAAAAAAAAAAAAAAAAAAAAAAAAAAAAAAAAACNq5XW0RT1MnGLxzqukWMZVkvvk/P7EAAAAiOvl26vryVmqr5Lu5qhsiydeeC1o3Wqs6dv8AYQAAADjqy3L1q0yTjwhxLqN6sdd3K0lp5vYIAAAAAAAAAAAAAAAAAAAAAAAAAAAAAAAAAAAAAAAxkYyAAAAAADy+oV7ii7eqWmqy3lK59BYzsDiO5yQAAAAABjIxkAAAAAAAAAAAAAAAAAAAAAAAAAAAAAAAAAAAAAAAAAAAAAAAAAAAAAAAAAAAAAAAAAAAAAAAAAAAAAAAAAAAAAAAAAAAAAAAAAAAAAAAAAAAAAAAAAAAAAAAAAAAAAAAAAAAAAAAAAAAAAAAAAAAAAAAAAAAAAAAAAAAAAAAAAAAAAAAAAAAAAAAAAAAAAAAAAAAAAAAAAAAAAAAAAAAAAAAAAAAAAAAAAAAAAAAAAAAAAAAAAAAAAAAAAAAAAAAAAAAAAAAAAAAAAAAAAAAAAAAAAAAAAAAAAAAAAAAAAAAAAAAAAAAAAAAAAAAAAAAAAAAAAAAAAAAP//EADcQAAEEAgACCgEEAAYCAwEAAAQBAgMFAAYQERITFBUWIDA1NkAHITFQYBciIyQyMzRBJSagcf/aAAgBAQABCAH/APD3zyWzAgXlKy6q5F5NZIyRvSZ6/PJrEIdeUzburevJscscrelH6/PJjwx/+5LyqcvJI54pk5xf09VRE/W53aAVzoK866sbFV7TwHKIFf0x6veCoFbHYBHDWA6TjepdbkNXudAIffWdiq9fwhnmHf04KvdzhVRhtfZC2YyTi+pd7aJVudDCfsdpYqvW8IpZIX9OKs3SwDVGlVduHbQdaL/TF/RM2nZ3GyPBC4RxSTLyikDKhTnJwqbcmnLSYetsYLQJhUHpbXtDnvfXAcI43yryjeEXGnN/CusiaotpA1PbQXALSIfS2zZ3QOdXA8GMdI7oscCYxvSdwCNIrymEDUV1FdBdaz+l7pcKCAgcORxvmlbHHSaVBAxs1lFDHCxGRcstNZrrNqq63pyaYrqZ81G4WutEhk9HbLhaurVkWNarnI1tHpLEjaRaQDwjRoyHLPXa60avW3dCTSEdGTNat1qLVjnJ+qejslt3TUvlYqq5VV2UOl9axpNoMIOJGkY+WNFXWbFQi+10ikkR3CjtX09nGSjHtkja9v8AStmNU6/Kfw0emayBbSbyXFXFbV8g0ksb4ZXxSZRmd4UwpK+huJql7BKzho1O2VzrObyWIENkDKLOWNIGXKNLmrmqdr4z3ehvBqz3LRkzSqZphbj5vIWLEYLIPPZgPrLGYSTNMNUugjY7+kyO6ETnY5yve565XjtFrhoG+XcIEg2Qjo5oknToXMX0DpFmsCZVygGQWhCjTy7yOkN82RM/H8irXlxejeyddfHvXNTgSDWxOXl38dGWQs6Z+PZV5nxf0qVvThe3FToryXA5UnCgmb5dzlSXZJkTNDYraKR3olsWM0hi5SzoRSBSJ5d8mSS8ijTPx+xUCMf6N2xY709q5q0qTa2EqeX8gTIpocPD8exr1p8n9Lvw1BvS4eGk2zSa7sEnksDoq4KUqYkh5ZUpEua4GoNCJC70NrDUPYieGi2rXQPrJPIUREINJPNZGvsbGct+agGomvQdL0N1EUe+dNw0W2SN8lbL5JZWQxukfdWK2ttOVw0cNR6Prnf0realZx2WMWCFzglMJHpNqDtGNjk4WFoHWQ9YVsGwzXc6Ima1VLa28bXft6O61Km1yFxZBPINOyaGj24WwY2ErgbYDV8KylbHssly/qYspKx1taRDIxqMYjW+httStlUq6LGPdHI17KHcIC2NgsEVFTmmFGDhQrMTsm0uteYomVlfLZ2EQkQ8LBx44Y/6U9jZI3MdsmuyU5CyxcBru0Eb0YJNmuZW8nSSPler5OGvX0lIUvMYmIsdk8HoKnNOS7TrbqyZxYvAW4sgm9Ed+z3UjeSyzSzydZNgw0xZDIB9eo46UHoels2zNqo1GGc5XOVzuAtqeCnIZ20XT28lnInJk6c+RRSTytii1mgSmF6cv9MmhjnidFLc6PIxzpquceYWRYyOH/vllZqdlY8nuNBIri3jE5r2wzUpHRcMTEWOyeD0HsbIxWPutI5udPVEiEBydWTxq9YsrNUVKahDpoeUPo7NszaqNRhnyPlkdJJldqlhZV7i4ywSgJOrK41muWVo5FipNcEpm9Jv8pMeIN/3pfVSryyEmAhOcP2JxYCWdCeXUqSVeeM02kavPBaivC/8bLyjHuReg80IiuKeMTmvbDNSkdFwxMRg7J4PRmginZ0JtkgiG2AuGDNOBFWigJX0tm2ZtVGow0kj5ZHSSZq+rqcrTjmtRqckkijmZ0JJtWpZ15uTTKRF54NRVYa84OX2FVETnktvXQfpJHd1cq8mMe2RvSZ9i72kOo5wtsNltLFVR/7rzXGOdG7pMrdwswXI2aovQ7mLpD/cvKMe5F6DzQiK8p4xOa9sM1KR0XDEwmDsng9Bc2v5Mbw034yN6WzbM2qjUYaSR8sjpJM1fV1OVppzWo1OSfbe9GNVzrjeY4ldDWGWp1g7pFcByyA39Map3meJyR2QpcBsDZx/q7Xsyg8wQlVVVVXGMdI7osWvNa3pKv6LyXByJhJ2Twa5fsuhP833LyjHuReg80IivKeMTmvbDNSkdFwxMJg7J4POubX8mN4ab8ZG9HZtmZVRqMNJI+WR0kmavq6nK045rUanJPtucjGq52zbK+1mcMNwiHmn/wCmUMqBOcvCluyKYrrIgjITxIyR/p3to2pqpSckkfLK6STNf05SmNKshQhgo+rGw+nAso1aVsGsTU69fFlXYS1dhEXENPGSPHPF9y8o4LkXoPNCnrynjE5r2wzUpHRcMTCYOyeDzLm1/JjeGm/GRvQ2bZmVUajDSSPlkdJJmr6upytOOa1GpyT7m8W6wQNrYcHHlLIZBBTaYIIxspzI2xtRrFTmmWuq11kxzktKsmpLUcnNLt1Dsewy/T341ZDxwkzTqdtlZKRN5JoY54nxS3datTazC8NFNWeneM77t5RwXIvQeaFPXFPGJzXtgmpSOi4YmEwdk8HlXNr+TG8NN+MjefZtmZVRqMNJI+WR0kmavq6nK045rUanJPu3Jq2FwUSuaVTtGA7fL5L+oZcVkkOKitcqK1zmPR7a4pDq0cpPpbVIsuymquaUOkOuxv8AN+QYE6QJCY17m/8AHrpc66XOulzrpc66XOulzrpc66XOulzrpc66XOulzrpc66XOulzrpc66XOulzrpcYTPG9r2azszLaNBiPRvKOC5F6DzQp68p4xOa9sM1KR0XDEwmDsng8i5tfyY3hpvxkbzbNszKqNRhpJHyyOkkzV9XU5WnHNajU5J6BBEQsD559h2Sa4I6MXXS510uddLnXS510uddLnXS510uddLnXS510uddLnXS510uddLnXS510uddLnXS510vCNnWSNZkMbYYWRM8uyjoNsRrG5pkqya1Ai/S2hix7Kci5pkyS63A1PL+QZk6IMHHmmc0zmmc0zmmc0zmmc0zmmc0zmmc0zmmc0zmmc0zmmc0zmnCOR8MjZI9Z2ZltGg5Ho3lHBci9B5oU9eW8YnNe2GalI6LhiIix454OK5tfyY3hpvxkby7PsramPsw0kj5ZHSSZq+rqcrTjmtRqck9AgiIWB88+xbFLdT9CPhzTOaZzTOaZzTOaZzTOaZzTOaZzTOaZzTOaZzTOaZzTOaZzThE/q5mSYxySMa9vkX9s2mZJ9lNcmaWxWa3Cq/S3wNYraIpM0i2aIc8GXyOcjWq5ditO9riSdmaRVxOrJip+7gs7uCzu4LO7gs7uCzu4LO7gs7uCzu4LO7gs7uCzu4LO7gs7uCzu4LO7gs7uCzu4LO7gs2jV1r3ONCyOR8MjZI9Z2ZltGg5Ho3lHBci9B5I8ghUo8uat8ZA8i5tfyY3hpvxkby7p8mm4anrjLN3bSmtRqck9AgiIWB88+xbFLdT9XHgQU9gUwYan1sKsDSN/dwWd3BZ3cFndwWd3BZ3cFndwWd3BZ3cFndwWd3BZ3cFndwWd3BZ3cFndwWd3BZ3cFi1wWWYigWZIq5p1sh9S0d/kt7OOqrpSZJHulkdI/8AVV5JUCdgqRRfp7LVd7VEkTFRUXkqKqKipr+5RyMYNZse2RqObhBUAkSykbJti2DHBg4GJKeZELCCLGCFELF9NzUc1UXaNXWvc40LI5HwyNkj1nZmW0aDkejf/ILDhq3xkDyLm1/JjeGm/GRvLunyabhonx93okERCwPnn2LYpbqfq48CCnsCmDDUVFBSi9Fn1N6qVVWWkWAHkVpjCRqbZwbZjWcbO5CqolcTeXhF2V05M1GpWxtmzP8Aprm3a07pPswuAtiaF/4q7PdK3o4QVOU/pkYxjpHoxmra73TB2gj6rmo5qou0aute5xoWRyPhkbJHrOzMto0HI9C/+QWHDVvjIHkXNr+TG8NN+MjeXdPk03DRPj7vQIIiFgfPPsWxS3U/VswIKewKYMNRUUFKL0W/VmhjIhfDLsFBNSlfpwHvbQVqNhl2O4mTk9znPcrnZW1pFqY0YaqrIaoFg0H1bzTITVcQAbWG1z+iXxraCxtHJ1FFrAtOiSr9dzUc1UXaNXWvc40LI5HwyNkj1nZmW0fZyPPf/ILDhq3xkDyLm1/JjeGm/GRvLunyabhonx93nIIiFgfPPsWxS3U/VswIKewKYMNRUUFKL0W/XIGhKgdDPcaRPC50tbNDKPIsc3BEVzka2q06wPcjyK2rFqhuoF+u5jXtVrp9ZpyHc3pptIi88GoasR3Sh5fac1HNVF2jV1r3ONCyOR8MjZI9Z2ZltF2cjzX/AMgsOGrfGQPIubX8mN4ab8ZG8u6fJpuGifH3eYgiIWB80+xbFLdT9WzAgp7Apgw1FRQUovRb9ogUcpnQnk1KklXnjNPpGfrgtaGEn+2/mHNRyKi7Rq616uNCyOR8MjZI9Z2ZltEg5Hlv/kFhw1b4yB5Fza/kxvDTfjI3l3T5NNw0T4+7ykERCwPmn2LYpbqfq2YEFPYFMGGoqKClF6Lf6oqoic1dYBM/597V2d7V2OtKxyKi7JUBiyqVXZHI+GVskWv7WOeP1Z3e1dne1dne1dne1dl49kl6c9ma1YhQ66FHL3tXZ3tXZ3tXZ3rXZs0sc2xGSRZqR4cGujsm72rs72rs72rs71rs26aKfYppIc0o4QeiVk/e1dne1dne1dj7isjY57ti2KW6n6tmQQuInZE2iHp6UXoN71rs72rsS0r1/aMiGX/r/p9ttFdVKrFO3a0K5pBOYUU7mRyTOSZyTOSeXkmckzkmck8nJM5JnJM5J5OSZyTOSZyTyckzkmck8vLOSZyTOSY1VavNomw2wSp1VbvrXKjLEUscyBJhv6VNPGPC+WW+3Cc1XD1/FsUj/wDh2UjOykZ2UjOykZ2UjOykZ2UjOykZ2UjOykZ2UjOykZ2UjOykZ2UjOykZ2UjOykYsMqLyXqpMQadyc07KRnZSM7KRnZSM7KRnZSM7KRnZSM7KRnZSM7KRnZSM7KRnZSM7KRnZSM7KRijTp+6/ovJeFfZF1ZHXCUGyD3LOgv8ASHvbGxznbLsT7ghYYcYx8r2sjqtFnmRJbEPXqoFE6pGtanJv8POGMS3oz2GkVxSK4W2oTqd/+4yKWSCVksWtbA25F6Mn9H3e6VP/AIuDBRZjSWDj0Ouj00SO/jZoY54nRy7NrC1aqWJledNWmxFQAGRHhRFQ/wBFOLYCDMVIQRIUTIRLmo0aVwKFTfx0sTJY3Rv2GndTWboUzQ7LoyzVr/6LvhnU1UQrc1quSyvIY3fyG413bqR8jcqS1AthSUT9v47nlhttXXuVmT/kGZV/26b9Zc/1G/IP68iq3YK60Xoj/R32bp28EXD8fDp0DSV/kJGNkidG6eJYCJIlyqm7RUBzfRmniHiWSY3eq4dVaPJ+QDVX/SZv9gi/5xN+EkVGlhWAlhD1gv1jTh68V5JN5tBds50cfkReS80oNxlGc0ayjkbKxr2evu3yR/DQk/8Ag5V/krpOV4eiZrP662B9C92Eelh/zWVqZaz9aV5Bipw50mG1zbGWatEM+o97Y2Oe7Yrx9ycqtwcacuZIRwtCLlaji1/H0HR/Q/SLEVqvHc1zHK12abfqNO2tJ9fdvkj+Gh+xSfyV376fw1n40B69zaRVFc8qQsqY4qQkjK2mOtn8hB/x8qt5ky/j5nR/0bTWbKqRXyYiq1UVNUvu9g1in+nvFkotY0OPAAprE2IWCnphacRIoOOya3FbQOmhc1WOVrkVUXmmv2PelNAQ71t2+SP4aH7FJ/JXfvp/DWfjQHr7pZKZcKK3NaoFui1dJAPENCyKHgqIqcl23WmBotiFlNYuq7WApGqjmoqfS3UlZ9iezhoICNGnPd5d2r0FuUIZmt7Kykgnhl/xAFz/ABAFz/EEXP8AEEXGb+Gr2o6CeMiFs0Xobt8kfw0P2KT+Su/fT+Gs/GgPRutmEpXMjk/xAFz/ABAFz/EAXP8AEEXP8QBcmldPPJM/KGvbW0446eSaJk8L4pDxVBPnFdmskqVrocjvormyfrsh/PNQRqayJy8v5BROzAr6GubHJTzdVLBPGRC2aLz7t8kfw0P2KT+Su/fT+Gs/GgPQ2TZI6iHqYpppCJnyy+YdEUqFF823I1NnL6OaR8cZ9PcIOp2UheGhmJLVSCL5d9NSWygEblPr5d22Vw/gKzzwFZ54Cs88BWeFCzBEvHIzXNjkp5uqlgnjIhZLF5t2+SP4aH7FJ9GxsRqsRSi/HVBnjqgzx1QZ46ocDMhPEjKH9SaVsET5X+OqDPHVBnjqgyr2GuuJXxheld++n8NZ+NAefZNkjqIepimmkImfLLlVq1hbDdoi8BWeeArPPAVnngKzxzVY9Wu5qn6pWGNPrRym+RVREVVty+325RKZqcHUa0Ii/S32vWQeCwZlLayU9kwlgZkJwzCB+N1cQUwTppSCJSyZCJs1SuWvookf5L+gguRsKFmCJeORmubHJTzdVLBPGRCyWHy7t8kfw0P2KT6P5HsP8wte3yfjqw62vnBd6ln7UX5Pxv7kb6d376fw1n40B5tk2SOoi6mKaaQiZ8suaxrLrJyFlsY2NqNb5Nsr1AvplTNP2BoEqglJ+qeTcNhaOO+uGwEN550IkcMbYYWRM+kUPEWLIPNbVk1Se8WbKq6Np5emMFvYEjEQtdwpEbzyw32JGq2vMOJsCFnKzVqNbWwSWVE5ea/oILkb9ShZgiXjkZrmxyU83VSwTxkQslh8m7fJH8ND9ik+gq8s2Gw7zvCifLp9h3fsY6qn7epZ+1F+T8b+5G+nd++n8NZ+NAeXZNkjqIuphmmkImfLLmsay6ychZbGNjajW+XZqXvitVrHNcx6sflPtptW1sMg+7VErU6yXc6WNObbXeCCWrGAqq5yudmlUajRd5EfUuqUe5E6qazqS6kjqSfLR64Vcyo7AgoK8Vgw/nv6CG5G/UoWYIl45Ga5sclPN1UsE8ZELJYeO7fJH8ND9ik+htFh3brxUycETpLyTgxVa5FSmPSyqBS09Oz9qL8n439yN9O799P4az8aA8mybJHURdTDNNIRM+WXNY1l1m5Cy2MbG1Gt8+zaqllzMDmhkHldFN5P3zW9Rc97DLNE5J9YkWEuF0JFhoUMiq8CfTrqFf0TWrpV5YNpVxMqdZWaQCKqSFsY1jUa30b+gguRv1KFmCJeORmubHJTzdVLBPGRCyWHhu3yR/DQ/YpPofkaw5zC17eGjVyHXqq8sdwhcw7+H45sOsDJAd6dn7UX5Pxv7kb6d376fw1n40Bx2TZI6iLqoZppCJnyy5rGsus3IWWxjY2o1vo2VKDbM6JRugzsVVBl1S7iXGavdPXkgeiWEqopVVrNdVKj4/4i/oIbob9ShZgiXjkZrmxyU83VSwTxkQslhzdvkj+Gh+xSeuq8k/W+P7zuii+P45C6usJMXeQ+y7LM9OGp2Hd2xCvX07P2ovyfjf3I307v30/hrPxoDhsmyR1EXVQzTSETPllzWNZWzc0stjGxtRrf5m/oIbob9ShZgiXjkZrmxyU83VSwTxkQslh3b5I/hofsUnr7ZYd3a6TInHXwu76EMdfyOF0wxDU4J+i/pRWHedKKV6dn7UX5Pxv7kb6d376fw1n40BmybJHURdVDNNIRM+WXNY1lbN7Sy2MbGxGt/m7+ghuhv1KFmCJeORmubHJTzdVLt80ZF710OaH7FJ6/5FsOmWMA3hQBd43oY3DYwe8aAwdOP44sOlATXu9Kz9qL8n439yN9O799P4JscdPqoEMM00hEz5Zc1jWHWb2llsY2NiNb/O39BDdDfqULMES8cjjofsUnrOVGoqrdHLZXBRfH8cgdYcScvDYQO7b0sbjq9h3bsAsqp+3pWftRfk/G/uRvp3fvp/k1jWHWb2llsY2NiNb/ABZBg4kfTIn3SmhXk1N8q+f6jbdSkryyOWOZiPj9e/oIbobChZgiXjkcND9ik9bb7Du/XCHN46dX9364Oi8PyPX8ni2DeCfvmvWHedEISvo2ftRfk/G/uRvp3fvp/HWNYdZvaWWxjY2I1vrmXFdX/wDlS7zUMXk1m91Ll/zB7FUnKjYef13ORrVV15u3Rc4eqnImKlWUjiDZGVsvWCUG3Q2TmjF+vf0EN0NhQswRLxyM0P2KT1vyLYdYcMA3hUArZWwwiNajWo1vDZa/vKgKgTj+OLD9Cq93o2ftRfk/G/uRvp3fvp/DWNYdZvaWWxjY2I1vrHHjVwriCbjcDT3OjFVea8141Wy2NU5Gsp7wS5H6cH1du2NxUz64TgHr1qe1HQLpV0jeeG1J9d/5fDUdjcezsBfr7t8kfw0P2KT1XuRjVc63OWytiS14fjqv6w4g93Fc2Sv7svix04a3Yd2XwhCp+3o2ftRfk/G/uRvp3fvp/DWfjYHrllRBiyETXVzPdGrNJjGOkejGD6ldEN6WS6bdRN5oQNOJL1ZGBmTgFMJGpLeK5r2kM+ntVqtXUP6vGMdLI2Nmv6lBXsYQZy4OY17Fa7ZtSbFG86uweeQUiOeGtNZY10JbPW3b5I/hofsUnq7lYdg1yfo8dQr+79cGa7yfkev/AEFsW8E/fNasO8qASdfQs/ai/J+N/cjfTu/fT+Gs/GgPX3q1V5DKyPKqrntzWjQVNIHUQo0flnLDQBbAdYSti16WknRzc1a1WruGdJPp70Ws10wfholW2YiWxl8ipm01aVd09seadeiBATDG+JqXPE1LnialzxNS54mpc8TUueJqXPE1LnialzxNS54mpc8TUueJqXPE1Lm1ljnXr5hs0P2KT1fyJYdbZQAt4UoK2VwKJjURqIieTYq/vOiLGRf34/jiw5PKr3ehZ+1F+T8b+5G+nd++n8KG+qhaIOGbxNS54mpc8TUueJqXPE1LnialzxNS54mpc8TUueJqXPE1LnialzxNS54mpcPKcaeQS7NTqkrqaNzvJZAxWQEwss0Lx55IZMpC+3UohC/S2Zyv2Q5VzTYkj1oZU8v5BjTqgZfp6H7FJ6kj2xsc99oatjZkFu4fjmv6ZZJ7vKubPX927AXCnDX7Duy8EKxP1T0LP2ovyfjf3I307v30/wClCzrJ42K1Ea1ETyL+2bXEkWzGImaS9Xa3Ei/S2uLqdlM4aQSk1A2LzfkAlHTBCpgwRRnS7N3Ja53Ja53Ja53Ja53Ja53Ja53Ja53Ja53Ja53Ja53Ja53Ja53Ja53Ja5OPMLL1RGaH7FJ6m62HYdcma3jqVf3dro0a+b8j1/SiFsG8dVsO8teFlXz2ftRfk/G/uRvp3fvp/CKpsZ4myxdyWudyWudyWudyWudyWudyWudyWudyWudyWudyWudyWudyWudyWudyWvBrlY9r0GnaSNFMzyLmwkoXsBsrc06LqtaHVfpb8CrSBjm5qtylTZ8pWqjkRU4llQhCyET2tg+0spi35pAKjUnXu9bdvkj+Gh+xSep+Q7DrraEJvCjA7zuRRMTkifp5r4BLOkLFxf0Xj+OLDoEFV7vPZ+1F+T8b+5G+nd++n8NZ+NgevfgrX3ZUHDSLpsg/dc3k2W6bUVzuhkUb5pWRRgjNDBgGb9K3ro7StmEeQPKKRJBNlBts1W1oxQV5WntRYFkYic1sNnq69F6V5sJV3KnTylq5LeyjGbFG2GJsbPW3b5I/hofsUnpyyNhidI+xMcfYkFv4A2BVaR14ni+/zxff54vv88X3+eL7/PF9/ni+/wA8X3+SPdLI6R/CksFrLkUvGrzTmnms/ai/J+N/cjfTu/fT+Gs/GgPX3SmU0JDocY98UjZI6beI3MbDaDniFMR0EpMELelLa7oCI1zAzjiLEpxJOaRTLOX3lN9TZ9aS2j7SNJE+GV0UvDmvLlxBAJsimji0dJDShdUz19vIiI2KZ0OaH7FJ6e8WHYtdkY36Go2HeOuDPXzWftRfk/G/uRvp3fvp/DVCIptdEbH6ypzzaNWcI95wHD/3zxf1/fhr+uz3M6OUceIUdkMP1bjXgbhnOaw0y0DVVhlgmgd0ZuaYOCWW7oj1ujGTqjz66rEqx+pF9fatq6PTr6/hofsUnp/kGw7Rcxht+h+ObDqzSAHeaz9qL8n439yN9O799P4VNsTTmIQPV2g9sG0gf1v3y40wQ9zphDdatgFXrHNVi8nJ+v7B0lkcqdnqtFYxzZbOKKOGNscX2FY1ycnIKOi805In7fQ2rauj06+v46H7FJ6U8zR4HzSHFPOOnKfw0yuSw2GLrO7Qc7tBzu0HO7Qc7tBzu0HO7Qc7tBzu0HJqkCaB8SmDPDMmGk4VBy1tsKWjHI5iOb5bP2ovyfjf3I307v30/jU2xNOYhA9XaD2wbSB/oPhjk/5tHhZ/w5fxu1bV0enX1/AsOcGVsRGaH7FJ6W9WHY9edE3j+O6/qauc13pb/X9lvEJbx06w7frg/Py2ftRfk/G/uRvp3fvp/CcOcaKCWTKm2JpzEIgq7Qa2DaQP/O7VtXR6dfX8NW1bqOgefu3yR/DQ/YpPS3+w7TeNFbwjY6R7WNqwm19YMI30t7r+2a+6ZvH8dWHU2U4LvLZ+1F+T8b+5G+nd++n8KuuHtNPDHJuKcimMWGbKm2IpzEIgq7Qe2DaSP/N7VtXR6dfX8NW1bqOgefm7fJH8ND9ik9Emdgo8k8hhLzDJiZOGmAdu2OBXenPEwgeSGQ4V4J04snCsNdXWYxbY3tkja9nks/ai/J+N/cjfTu/fT+Gs/GgMsa4e0EcOTcU5FMYsM2VNsRTmIRBV2g9sG0kf+KlLHH/7kuaxV5JFPFMnOL1Nq2ro9Ovr+Grat1HQPP4bt8kfw0P2KT0d9sOyUCwN4/juv6qtIOd6n5Br+zXLC28dKse3a5C13ks/ai/J+N/cjfTu/fT+Gs/GgOFjXD2gbhibinIpjOpmyptiKcxCIKu0Htg2kj+pJZBQrylZbV8n/BrkcnNPsXW0B1HOLLDabWwVUVV6S83ZHI+F3SirdysgnI0iquw7iHpjejtW1dHp19fw1bVuo6B5/Hdvkj+Gh+xSejvth2q+7M3gxivejW1ISV1WMInqbxX9t12SRvH8eWHUW0oTvJZ+1F+T8b+5G+nd++n8NZ+NAcbGuHtA3DE3FORTGdTNlTbEU5iEQVdoPbBtJH9Bzka1XLcbxDAroa424sLByqTwFPLCf0hanepGOSOzGJhLgbNB9XatlWuRQg3OVzlc7ERXLyaoZLW9JeApU4RDCB9evoroPn6G1bV0enX1/DVtW6joHn+Tdvkj+Gh+xSegWSwMSYiQqd5RUpEnDTa/t+xj8/VmjbNC+J9iI4CxIEfwrzHgWA5TIZGzQslj42ftRfk/G/uRvp3fvp/DWfjQHksa4e0DcMTcU5FMZ1M2VNsRTmJPBV2g9sG0gfzOcjWqq7Nsz7OVwonCOKSX/rkHnh/7OFJeEUpPSYGXCcJGSP8ATu7NtTVzFLLK+aV8sua/pzjWNKsBK8QFnQFw+kr7JioTf61PTO61mVVlLVWMRcQ8zCB2TReXatq6PTr6/hq2rdR0Dz/Lu3yR/DQ/YpPQ3+w7LRIM3j+O6/q68g53rfkOv6i2iMbx0ew7ZrscS8bP2ovyfjf3I307v30/hrPxoDy2VcPaBuGJuKcimM6mbKm2IpzEngq7Qa2DaSP5d3uFGGbXQ5BBKTOyGGm0sUZrZbCOGOFvQjVqOTktrqVdYsc6OyrCaotRyc0q4UQ/sEv09+NV5o4Tc1CmbZ2SzTJ5J4IyYXxTXNa6ptJhVzRjVIpnjO8m1bV0enX1/DVtW6joHn+bdvkj+Gh+xSehvMxB18sUfYyc7GTiBFKvJKgJK2pGET1t0rlsNel6HYyc7GTnYyc0GecO4kGl42X61haJ2MnOxk52MnPx3DLFZGLJ6V376fw1n40B5rKuHtA3DE3FORTGdTNlTbEU5iTwVdoNbBtIH8l2athclE8NKpmjg94y+TYadlxWPjxUVFVFY90b2vZXFIdXDlJ9LapVl2U1VzSR0h16OTzfkEdEeESmMlli59X2wrO2FZ2wrO2FcdW1bqOgef592+SP4aH7FJ/JXfvp/DWfjQHnsa4e0DcMTcU5FMZ1M2RzSxc+r7YVnbCs7YVnayeDGdZI1iQxNggjiZ5F/bNkHQbYjY25pkqya1Ai/S2dis2U5FzTJkl1uBqeX8gyp0AYfQ1bVuo6B5/obt8kfw0P2KT+Su/fT+Gs/GgPQsa4e0DcMTc05FMZ1M3mif1c0cmMcj2I5vkXNqmSbZTFTNKYrdbhVfpb4IsVvEUmaPatGMkAl8jlRrVVdktEtrmSZmaTUQTVsxRPdFbndFbndFbndFbjaoBj0cz0d2+SP4aH7FJ/JXfvp/DWfjQHozjQEtRs/dFbndFbndFbndFbi1FblkIoNkSK7NQtUPqWQP8AJbWUdVXSlSSSOllfI/8A/lOJ2CoFG+ns1UtrUPjYv6LyVFVrkcmv7hFOxg1kjkciKmTkRDRLJNsu29uY4KvwQWU4uIaEASMAGEWL1t2+SP4aH7FJ/JXfvp/DWfjQHr71Ur02WkWV9gRWGMKGptkBt2IjeFlbh1cPWFXt7Pdk9J2alUrY2zZX/TXNu1tzXvsguAloeD+gq7Xdq3lhJhJj+kTjWq5yNbquu91w9qJ9fdvkj+Gh+xSfyV376fw1n40B688EZMD4Zb+impS+XEfYbcVqNil2e6mb0XPkfI9XyZXVxFoY0Yapq4akBg0P1FTLzS4ynOIrjK8uvk6BfGuo7C0d/tqLVhqjlM/6G7t5bEq8NBei087P5K2eklwa9M1xvQ1wBF9coWEwd0E9xpJI7nS10kb4ZFjl4cua8kqdRsLFzXzVdSLUjdSN9eSNkrFZJPqtMQqq5NKpUXng2uVIjkdFyRE5J9H8gD8jAyOGgFowwoRf5A4loYM5LnOVzlcqIrl6KBw9nCgg+jywkIUxnRJl0+lkXnjNMpWLzwSqAB/8b+P3IFTKGR7crDnVtlAWyCaMiCOWL+P3q0SMRldHmsgqffjM/oz2JIxzHXNa+ptJhXZpuwIO5Kwv+OtrQepBeROaZMeZKVPmkVSiVzjZP6NtVH3uD1kKoqKqLmu7j1LWiWccrJY2vj/i7i/Cp4v9W1tibgvryM1ukdc2CdNjUa1Gp/R9q1ZSleeAqKi8lyuuT6p3MQP8gfoiGx7tTPT9fGVJnjKkzxlSZ4ypM8ZUmeMqTPGVJnjKkzxlSZ4ypM8ZUmeMqTPGVJnjKkzxlSZ4ypM8ZUmeMqTPGVJnjKkzxlSZ4ypM8ZUmeMqTPGVJnjKkzxlSZ4ypM8ZUmeMqTPGVJnjKkzxlSZ4ypM8ZUmeMqTPGVJnjKkzxnSYRvlbGn+jYbtZForB3Pc96vflPSk3JXVQ11fBWBsGH/pN9qY1qrp4bCrMq5erL/jETmqIlNphRqtlODDHBGbAN/S5YYp41jlO0euJVXDEaHZR/9D9Su2Lnha7zwtd54Wu8MpLGvh64vgFXGWL3ME8LXeeFrvPC13nha7yaGQed8MuD6/aljsng8LXeeFrvPC13nha7wkaYMh8BGC0NmcO2cbwtd54Wu88LXeeFrvCwyASFgJwOksrCDrhfC13nha7zwtd4/WbmNjnu4QQyEzshi8LXeeFrvPC13nha7yLS7qT/AJCfj9efMyuoa6r/AFG/qdlZD1YjiCLe3IuDFmmyoqCLgxIIKysHqw2jD+S/+QWHDVvjIHkXNr+TG8NN+MjeXdPk03DRPj7vJyzadW63p2AHDVtp67oAH/1iysh6sNxBFxbkXJizTZUVBFwYkEFZWD1YbRh/Lf8AyCw4at8ZA8i5tfyY3hpvxkby7p8mm4aJ8fd5eWbTq3W9OwA4attPXdAA/wDmLDaaqucrHz/kF3P/AG/+IB/P9RvyBGqohVde19p+gv2bKyHqw3EE3FwRcmLNNlRUEXBiQQVlYPVhtGH81/8AILDhq3xkDyLm1/JjeGm/GRvLunyabhonx93m5c82nVut6dgBw1baeu6AB/2ZZo4Y1kkN3esGVWwS/kElV/0mfkA3n/nE30GVUaUIaMdD1o31jDIABnkEXm1l2jnRQeRFVrkclBuUkLmjWjHte1HN+tZWQ9WG4gm4uCLkxZpsqKgi4MSCCsrB6sNow/nv/kFhw1b4yB5Fza/kxvDTfjI3l3T5NNw0T4+7z8s2nVut6dhX8NW2nrugBYfXvL8alg5yWdwZbTdMryCGEAzpMLrm1xWnIUn6j3Ixiudsl6+5NXoZBBMVM2GALRDpmo4pfx9H0f0P0uzDar4VRWqqOzTb9YZm1hP1bKyHqw3EE29wRcmLNNlRUEXBiQQVlYPVhtHH9C/+QWHDVvjIHkXNr+TG8NN+MjeXdPk03DRPj7vR2nVut6dhX8NW2nrugBYfVuLOKprpCpDDJzy5CSMr6k60k6Ig/wCP5XN5ky/j7/L/AKNnrljVIr58a5WORzdWvu9wurm+nu9molW0SPAg5rAyMWCmpBacVI4eOy61FaQunHVFa5WuRVaqKlDY96U8BK/TsrIerDcQTb3BFyYs02VFQRcGJBBWVg9WG0cf0b79dgsOGrfGQPIubX8mN4ab8ZG8u6fJpuGiL/8AX3eltOrdb07Cv4attPXdACw+putkpdv2Rua5Quui16Yw0IsDIYODmo5FRds1poPM8LKWxdVW0BSNVHNRU+lupKz7C+PhoNe1IJ7B3l3WvQS5Sdma1ssdIPPDP4/Bzx+Dnj8HPH4OePwc8fg54/Bzx+Dnj8HPH4OePwc8fg54/Bzx+Dnj8HPH4OePwc8fg54/By4tyLkxZpsqKgi4MSCCsrB6sNo4/o7TtPZukAB+/DWo5IddBjk4rm1/JjeGm/GRvLu0b27E97sprkimL62KvsB7MRpI3o7Tq3W9Owr+FRu6iiJCf4/Bzx+Dnj8HPH4OePwc8fg54/Bzx+Dnj8HPH4OePwc8fg54/Bzx+Dnj8HPH4OePwc8fg54/ByeV05Ekz8oK9K2nHg8s8LCIHwynCuCPnFdmtEqXrwcjvormyrz2Q/nmoI1NZE5eX8gonZgV+vUVBFwYkEFZWD1YbRx/R2naezdIAD9+Gq6ry6FhYeRc2v5Mbw034yN5bWrGtg3DkWtURUGKORlNckUxfWxV1gPZiNJG9HadW63p2Ff9YdEUqFF823Na3Zy+jmkL/wDXGfT3CBYdlIXhohjZamQVfLvpqS2A4jcqKAy6bK4bwJbZ4Ets8CW2eBLbPAltngS2zwJbZ4Ets8CW2eBLbPAltngS2zwJbZ4Ets8CW2eBLbPAltngS2zwJbYzQ7NXp06ysHqw2jj+jtO09m6QAH78NV1Xl0LCw8q5tfyY3hpvxkbzWtWNbBuHItaoioMUcjKa5Ipi+tirrAezEaSN6N/p3bie01/gS2zwJbZ4Ets8CW2eBLbPAltngS2zwJbZ4Ets8CW2eBLbPAltngS2zwJbZ4Ets8CW2eBLbPAltngS2zwJa45qtcrVRVReaVpjT64clvkXkifrcFofcFEtzUoOo1oTn9Lfa9Xwj2DMpLZ9PZMJaKVCYOycfjcW8FOE6eYkiUsqQibNTrlAooun93adp7N0gAOGq6ry6FhYeZc2v5Mbw034yN57WrGtg3DkWtURUGKORlNckUxfWxV1gPZiNJG+7tVeoF9NyzTr9oUnd5Xk2/YGijPrxsCEecbCLHDE2CBkTPpGDRGCSjTWlbNVHvFmypvDKeVVHC3qtlYiErttGjeeWG+DMarQDrAqyJWcrNXpFtrBHyInJPu7TtPZukABw1bVeXQsLDzrm1/JjeGm/GRvQtasa2DUci1qiKgxRyMprkimL62KusB7MRpI33Nnpe963/Tc1WuVrsp9vMrWNhnH3SmmanTm3CkiTmlrvM07XR1znOe5XOzSqRR2d5kfUu6Qe6E6uWyqy6olYSvLSa8VcyoqAgwVwjBh/ubTtPZukABw1bVeXQsLD0Fza/kxvDTfjI3o2tWNbBqORa1RFQYo5GU1yRTF9bFX2A9mI0kb7mz6qlgrjQpIpIZHRy+XW9RfM9hlkick5fWKDgNhdCTYaExyq+vn1K6gXE164VeWDabczqnTrdGDHVJDY42xMRjPubTtPZukABw1bVeXQsLD0Vza/kxvDTfjI3pWtUNbBqORa1RFQYo5GU1yRTF9bFX2A9mI0kb7lnRg2zf90doRUaqoUusXUS8lZrdzIvJBNGspnJ2mp1avq1SRE/k3yMiar5Dt1qxVVsMv5AJVf9Fu/nc/8wm/CvVEKCsg7GLrBNp2ns3SAA4atqvLoWFh6S5tfyY3hpvxkb07WqGtg1HItaoioMUcjKa5Ipi+tiAsRrENpQ9ht1UCqsSb8gS8/wDQTfz+f6i/kCJVRCq+6r7RP9r/AE65uxqYbrJrW8NuJeZHkhnlHlSWDhq2q8uhYWHprm1/JjeGm/GRvUtaoa2DUci1qiKgxRyMZPNHE+JnkY90b0ezX9yd02C2qLzTmn9Lsj4awGUqaxsJ7M15RGAVhlnL1Ygv4/mc3mVJ+PW9H/Ss9XsqtqyO4aWCEZYSPI9O52kGp5xIfttsaqoj3uker34JZnAf+LV73I1yR2YpcBsDZhvSuwQzq2Rhq8ukvRwUQg2dIRg9BLlajinfj2Lo/wCWx06zBaskf7cNMv1Vzasr+l71ZLMewBmUFJJdHdXgYcAIzRx+HLNt1lkUb7IHK459bYQlxwytmiZKz0dq2lwzn14CrzXmvBf0/fhT3JVMV1sFbYwWYTCR/R3uyWISKvZlZXTWh8YsFXVDVIqQD8do1lh8TzRMjkfFK2SOpPbZVg5af0lf2ywIUuyJIXNWr0AooPK9rXtVrrcHu62JE4aeSpGtj8/Q2a47oqnOjVVcqquUelOJY0iyEqQAmo0d8EUjeT7PUKw5quitagqnK6knNUuVq7Nscno7WSpOxlcNFr2w1bzXeRc26vQC+k6GaASr64kdf6SQqoPIqcIURsEaJ5d2RE2N3LNBVe5Zk9HdDlKvnQpmlUjSyHWBHkt6uG2AkGlngkGIkglzXDlsKIaZ3oXCqt0cq5rSI3XAOXl/IKJ14LuH4+Ve0nJ/SnJzaqKTCo5U0LsoTUPpBZk8uxmIdflTMzSYFh1xjl9CwlWeyKlXNdFQSgCjTy7uMkGwdYmaBKrq0qL0dlgUfYzWrmlGNIoGQ+bdzEJvEhbn4+gVBzSF/pK5uleol2s6ZqV+2rJUYlHI5Oacdr2BtaIoo+QQSEkRwRBCtCChGZ6BTVYZOxf/AFlPK2amCkb5d9lR91CxM/HzVQQ1/o77Xqko9g3NeuXUtikiwTxkQslh4315DTBK9ZZHzSvlkzXa9a2kHgd/StgqG3FY+DJYnwSvilym2o2pakKjbtUTInWy7hSRt5pZ73JI1Y66SR80jpJM0mjd0u9Z/R2gTsewlt4aNaNmBdXv8k0rIYnySWx62doQWuaaIo2vROX0LEGKyAlEmPBnrjZBSMp9gNpncoRN5rJmp2h+3UjW88sd9Z0FZXFFznEOnJzUKNbA5DJv6ZsusMtm9pGnHmFndDP5dc1KU17CrBrWsajW+jvNUpAbD4sDLmBKjJHo9lEuI0bnPhORENC6WbZto7z5iB5VV0lpZQiRxRthiZGz0b+gguhuWH15VaSsBXloNZJuJGyyCjQhjMgg/ptjUBWkXQKO0Gdqq4GXVbqFeSt1u5cvJBNGtJl/16vUq6sc2RfTe1HsVrtk199OUskWIvJeaC7RcCNRrH7rdPbyQuwLPf0i8jjfNI2OPWaBKYTpS+maAMfAsJJ+goqq6vm1K6gXE1y5VeWDaVcTqnWVmlABuSQpGo1ERP6jy9eceImF8M11pJA7nTVr2PjerH8a2lPtn8haLWRqZvWL6/L+zF1oR7eRU2kU8i82N0OrRf1E1WnEVHNa1GoiN/8AxHf/xABIEAACAAIEBwoMBgIDAQEAAwABAgADBBARMRIgIUFRU2EiMFJxgZGSk7HRBRMjMkBCYnKhssHhM0NQVGCiFCRjgvBzoMLS8f/aAAgBAQAJPwH/APD5TaOh0GYI8IUYn/6iGDDSpt9BpciWdDTAI8IUa3/6iHVxpU2+g0qTL95wI8I0brRExJg0q1v8RUUiaMhmHzB3xS5jDgA2LzCudMlNpRrIXx8vWKLHH0MTRMlnOM2+gUmeMhNu4XlzxSnwOAm5XmFc15TaUayB/kyuFc474mh1z6V4xvv+xSReoO5XjP0iksks/lytytbtLYZ0NkH/ACpXtZH54m22ech85eMfw57KMuR3H5h7q5bufYUmKNOQaWlkVtuT58s3OIa1GzZ1Og73MsQZJ01c/sitGc6FFsUWeo0mWa3wWF4zMNBjIbnQ3odG9vZMumzR6vsjbWrMdCi2KJPUaTKNcwpMX47DG5mrkmy+Ce7+GNZOpN5Hqpn57qlLuxsVReTAE6bf4q3cL3xLVFGZRZVJEmdmmyhYeXTAtU+ZMFzCpv8AXpBwW2NmO9NZSJ+4T2RnNQJJyACBhOcokA5B70SklroRbKqOFmZpsvct943clvw5ouPcaj/rzdxNGzTyb0fLvuJXHp5IJJOUk1AgHKtHGTpd0SZcpdCLZVRlw80xcjDlg+NozGxZtl2w1W+L82aulYNqsLQdP8LO4RvFpxD/AMal3b2rJtzLnOKMpyo3BbMYFjoSrDbV5zJuuMZDvJ3FHHix9altCHAkg6c5xRari/QdMefKYqaja6DxbcY/8N5O4o6Xe0cp+lS2ypBsQHO/2xUwpcwWMIymW2Q6RmNRtajsZXJm/hWYWxextqGSXLVfhjDJMCzOcfar1JzDsO83vNY/GrVBjxnLjfnSgx4xkquWaDzj7bzrmHNkqGWYDMPKcYZZksqeQ/eq7cN2/wAKzqRGbJVc8tW+GN+Wip8LfrV609uwbzesxh8as8lezG/Lki3lJNVxmqOYffede3bV6qYB5DZjXrLZjyn7VXWIvb/CxYuGXXiOWpvLUfzdqfbFNiSxbx7I8+axY1Cx8DDbjOXeRuZp8avL97am3aWvK2rnGK2DLlrhMYyGY1tmgZhULGmkzTy3fCzeRuKQgccdxqazDOHKt05xisFRRaxOYR5jGxBoUXVDLSJhfkuH8LW1pO5me7p5KnKTUNoMMtHpWeWxyH3TXPVBmHrHiEAy6Kh3Ev6nbUvkJW7mnZo5d6W2bRrSbM6Z++pykxDarDNDLR6VdlyK/F3VzklJ7WfigGXRFORTe50nuqBwPOmHQueBYoyAaN5W2fI3aDSM4qYq6m0EZjDrJpN2Gciv3GDkqnJKQZ2MYSUT1ib5n2qvc5TwRnMCxJahVGz+FgMrCwg54BahOdy3A9k106eqj1cK0fGPCE0D2bBDs7m9mNprGHRph8ogv4xEwPKcWqw3pLaG5ygflHurps5F4OFaOYx4Qmj3QBEx5j8J2tNUszJrmwKIsakPlmvp2DZvRDU1hySxpO2DaSbSa6ZOlLwQ2TmjwhMHEAPpE6ZNbS7W1IXmObFVbzFjUuaPKEeqOCP4agdGFjKwyGDhrf4hzlHEYlPKceq4srviX/jSeHNF/EITAmL8doqteiOd3L0bRtiYHlOLVYbyAynIQc8EDOZDH5TEl5T6HFmJKMmTrZos5hnhcKafPmtee4b0Q1NYcksaTthizsbSxvJqwEH5avk8Z3RIeU3tC/lxJBlytbMyL948pSCN1NYdmj9VpUmX77gR4RovWCJ0uYPYYH0mSk1dDrbFCVT7DFYorN70xookmWdIXLz1bmcv4c2zzftCYExfjtFVr0Rzu5ejaNsOHlOLVYb1LSYuhxaIlrLlqwsVRkGQVUeUZ5ZrZhUW372Q1NYcksaTthizsbSxvJqSyjDKks/mfbtjIIRXXQwtEUCWp9i1eyKMx45rRQZKtpwbT8fSTFOoynQZgjwhRif/AKCGDDSDb6T5elatT5vGYpBlSz+XK3I+8X1MVbSpsh/8qTwZl/I0PZMHnym85fTdzOX8ObZ5v2hMCYvx2iq16I53cvRtG2HDynFqsN64S/KKuE/zHeiGprDkljSdsMWdjaWN5NSWUYZUln8z7dsXemEADKSc0IJrD85/N5BnilTJmy2wc1c+ZKb2GshPGprUFjDjGeJqzJbXMvoz/wCyR5SYPyx3wbSbzUrM2hRbFDpAXT4povqmNLmobQwgBKVL/EQdo2em7mcv4c2zzftCYExfjtFVr0Rzu5ejaNsOHlOLVYbzwl+UVcJ/mO8kNTWHJLGk7YYs7G0sbyaksowypLP5n2i70wgAZSTmhitCU5vzNp2VyZkz3FJijTkGlpZFZwpTfiSszfeHwpbi0eiWF/NljSxuhizsbWY5zVhJKOVZIyFuPREiXKXQi2VUdHPCssYcsEzaIT52dOPvqvQ7peEucQ2FLmKGU7PTdzOX8ObZlX7QmBMX47RVa9Ec7uXo2jbDh5Ti1WG8cJflFXCf5jvBDU1hySxpO2GLOxtLG8mpLKMMqSz+Z9ou9Nax5wwppGZdHLUhea5sVRAFJpF+CfMXkzwoVRmAsqliRPzTJYs5xnhct6sLmGkVN5CkHc+y/wB/RDuZSYbcZ+1S2yKNYbD6zZsVQ0txYynOIyoN1LOlTdUbTR3sHunL3+nbmcv4c3Ov2hMCYvx2iq16I53cvRtG2HDynFqsMfhL8oq4T/Mcchqaw5JY0nbDFnY2ljeTUllGGVJZ/M+0XenG0M5C+6MgqXy88bn2U++KB45d1KbQ0CwjIRBsZTaDtj82WG5fQ/VYLzAVDLOdnPPZ9MbzjhSz299TMvEbImv0jE1+kYmv0jE1+kYmv0jE1+kYmv0jE1+kYmv0jE1+kYmv0jE1+kYmv0jE1+kYmv0jE1+kYmv0jE1+kYmv0jE6YrKbQQ5yRYlNUckwaRvW5nL+HNzr9oTAmL8doqteiOd3L0bRthw8pxarDG4S/KKuE/zHGIamsOSWNJ2wxZ2NpY3k1JZRhlSWfzPtF28uEloLWY5oLSqIh3Cg2Ftpia/SMTX6Ria/SMTX6Ria/SMTX6Ria/SMTX6Ria/SMTX6Ria/SMTX6Ria/SMTX6Ria/SMTX6Ria/SMTX6Ria/SMTX6Rq9YheePNRQoxhYC+Hzi2r1GZfj6HnfC5wKr5bMh57frjedaz/SsiCIIgiCIIgiCIIgiCIIgiCIIgiCIIgipyjqbVYXgxYtNUckwaR3b1uZy/hzc6/aEwJi/HaKrXojndy9G0bYcPKcWqwz4vCX5RVwn+Y4tjU1xySxpMMWdjazG8mpLKMMqSz+Z9ou3lwktBazHNFqUNDuE4W01kQRBEEQRBEEQRBEEQRBEEQRBEEQRBEEVeqwb4xlVhaMa5WCcwsq9Z3b4+hjczpdhO1ftZU1iUjKhPD++KQALyYPkV3Er3Rnqky38bMsTDW3IPvFDo/VCKHR+qEUOj9UIodH6oRQ6P1Qih0fqhFDo/VCKHR+qEUOj9UIodH6oRQ6P1Qih0fqhFDo/VCKHR+qEUOj9UIodH6oRQ6P1Qih0fqhFDo/VCFtopyug/L+1TlHU2qwvBghaao5Jg0ju3rcTl/Dm8H7RZ4yUxVrNNWr+pxeEvyirhP8xxdWnZVYaNLawS+G23ZF28uEloLWY5otShodwnC2mpMOY+b6mJcufNbLMmOttp2bIodH6oRQ6P1Qih0fqhFDo/VCKHR+qEUOj9UIodH6oRQ6P1Qih0fqhFDo/VCKHR+qEUOj9UIodH6oRQ6P1Qih0fqhFDo/VCKHR+qEUOj9UIodH6oR+XMIHFmqby9GGARpXMcW9RYi8Jswg2sxwidsZTF8uWAePP6GPLJu5XHo5YFhGaDYRD4E0ZBPNzcegwQVNxBqmrKli9mNkYS0Y+fMOQzO4VC2ZMawbNseZKXBHogBBvthbaKcroPyvtU5R1NqsLwYIWmqOSYNI7t617Vav6nF4S/KKuE/zHF1adlWvb6by4SWgtZjmi1KGh3CcLaakw5j3D6mLHnv+JNsv+3oq/8AHOs+B+lT4MxeYjQYcSaTnlOezTXOAbNLGVm5I3ElPw5Vt33qXyFGOG21sw9FS23LPlj5h9a6VOlbEbJzR4Qm8gHdE6ZNbS7W1KWYmwAXmAP8uYMv/GNHowBByZYW2inK6D8r7VOUdTarC8GCFpqjkmDSO7ede1Wr+pxeEvyirhP8xxdWnZVr2+m8OEloLWY5otShodwnC2mpMOY+b6mLHnv+JN0/b0ZA0txYynOIteiufJzPodtdPnqozFrR8Y8ITrPZOD2QxZjeSctS2k+cxuUaTFy5WY3sdPoxWRPOUofMbuijvL2kZDy4kgiXrZm5X7x5alZ5hF3EM3pABByZYW2inK6D8r7VOUdTarC8GCFpqjkmDSO7eNe1Wr+pxeEvyirhP8xxdWnZVr2+mO4SWgtZjmi1KGh3CcLaakw5jZtG0xY89/xJun7ekS1mS2FhVhfB8dL1THdDi0xLaW49VxYawSxzCAaLI0uN0eId8S8FfWOdjpPpCgqcxEUCUDpTc9kUVutaKBIU6Stp+PpYBByZYW2inK6D8r7VOUdTarC8GCFpqi7NMGkY+varV/U4vCX5RVwn+Y4urTsq17fTGcJLQWsxzRalDQ7hOFtNSYcx831MWPPf8Sbp2cXpcmXNXQ62xQVU+wxEUPC96Yx+sUWTK2ouX9ZAIOSwwttFOV0H5X2qYo6m1WF4MELTVF2aYNI7sbXtVq/qcXhL8oq4T/McXVp2Va9vpiuEloLWY5otShodwnC2mpC8x82jaYsee/4k3T9v4rkEUuQvHMEU+i9csU+i9csU6iEHJYZqxSpEyQxyykmgmWdmypyjqbVYXgxNlyKUgyljgq+0d0U+i9csU+i9csU+i9csU+i9csMGVpzEMDaDVTKOjhMqtMAIyxT6L1yxT6L1yxT6L1yxT6L1yw6uhIsZTaDuRVS5Etwz2q8wA+cYp9F65Yp9F65Yp9F65Yp9F65YmJMTATdIbRdVSpMtvHMcF5gBzRT6L1yxT6L1yxT6L1yxT6NYBabJoMWpQ0O4ThbTUVBY2Wu2CBxmKfRHnv8AiTfGrl2cUU+i9csU+i9csU6jdasTUf3WB/iEzx08flS8tnGc0YFFT2Ba3OYpE2afbcmAIECBiiBAgYggQIGIIECBiCBAxRAgQINh2ZIpswrwZhwh8YkYH/LKyjlETlmyz6yn+FuERBazNcILSaPcZlzv3DElu3EtsUed1ZijzurMUed1ZijzurMUed1ZijzurMUed1ZijzurMUed1ZijzurMUed1ZijzurMUed1ZijzurMUed1ZijzurMUed1ZijzurMSpgPumJb9ExImke4Yo87qzFHndWYo87qzFHndWYo87qzFHndWYo87qzFHndWYo87qzFHndWYo87qzFHndWYo87qzFHndWYo87qzFHndWYo87qzEiaP8AoYyGuaUOcZm4xHkqUo3Uq2/aP4SwVVFpJzCCVoSHcjhnhGpSzsbAqi0mJniV1SZW5TmihS8LhOMI/GABxfpFHlTB7aAxhUWZ7OVeaJdso+bNTKp7qnKTENqst4ixaXKHlF0+0P4Q1+6nkfBakLzXNgEATKUw3c36DZ+morowsKsMhgFqGTuhnl/ao7tDdpGcQdxMW0bNn8G82UhYwbZkxizVL/tTxafYXMP09QyMLCpziLTIfdSjs0clTZG8rL484/gxyz5mXiH3sqFspPKTOIfez9RXytG8ovFn+FXqTBbxZ/1Cd4+YPUk5fjdFAQD/AJHt7Io1Fs4m74oHLKf6GKQPGat9y3oV0uTbzn7VDKSssdv6jlVhYYvRyvMar3kqTzegzEloL2Y2CEmUo6V3K85ih0dR7TExRKMRswhFFmSfaQ4YikJNXPgm70eYElpfBaRRNWpyt7x+mLkIhjMk3Cd6ycekQwZWFoIz+gapKv3B7B+pa9+2rVD0DylIbzJQPxOgRNLcFB5q8QxZrSpg9ZTGDLpeY+rM++z0UgKotJOaCRRZZslL/wDyqlPNmG5VEUlJHsqMMxT51u2WIZKUozLkbmhSrDIQc1T+RmHyRPqNo4j6Bqkq/cN2D9S179tWq3/KRkROE2iHw5rm0mqQWUXucijlin2HRLT6mPCDhvbliJXjJI/NlZQOPRUbCMoIg/7Unz/aHC9ENj0k2N7gvqFsyYebbC2ufPmG9ziKEpqjctw9hgEMDYQc0GwjPB8pZgzPeF+/6pKv3Ddg/Ute/bVqt/PkqNuf+2fuqtWiSvxCPWPBEIsuWosCqMgxEwZNvlZY9XaNlXmg2ONKm+DaDd6GdzJRUHb9ahunbxacQv8Aj2YwsWkrhH3hf9KpLzVdgy4JGTTFBn9JYoM/pLFBn9JYoM/pLFDnqpOVrQbIdXluLVYZ951SVfuG7B+pa9+2rVbyrTZzZfFobhpMUGf0hFBn9JYoM/pLFBn9JYoM/pCPOdix5ahusHCfaxvxVwkcYLDZF8pytRtYJgHkyeh636CrPhE9I41/jG7N4tehud0vA2iHDy3FqsM+8apKv3Ddg/Ute/bVqt4semONyuZNphy8xzazG8493jFt58f2SePBFWtft9DumBXHN9qju5Ey3/qfvbjG3xKYTcbfap5SCUQCZhOW2J9F6Td0T6L0m7on0XpN3RSKL0j3QhSYhyg1WvQ3O6XgbRDh5bi1WGfH1SVfuG7B6C+BKBAtstvilP1TRSn6popT9U0Up+qaGw5MwWqd98xFLHiEUp+qaKU/VNFKfqmicXZFwmtQjJvevftq1WPY9McblcybTDl5jm1mN5q8XKlW7kzSRhcUT6L0m7on0XpN3RPovSbuifReke6LwbDF8H8RATx58U2CPNmTDg8Waq9wX5z6GPwj4uZxG749tW6TzZicJYcPLcZCMQguckuXncw2FMmNhMahZNm+Vflu+GLYlJQeTmfQ7IQpNQ5QarXobndLwNohw8txarDPjapKv3Ddg9BN3lnHwH1xTupLYa+6fv277qX+U4mpHbvevftq1WNY9NcblcybTDl5jm1ma81KRQwci637QAFAsAGbFFkuf5VOW/41PZR5htRz6jdxxXtnzBZNI9RdHGavOmtg8WkwLEQBQNnoa4UuYuCwjNlRuGumqZuT50tsqtEmbIfYMJYpduwS27oozO3Dm5AOSJpmTDnObiqX/Ukm1/aOZcexKSg8nM+h2QhSahyg1WvQ3O6XOm0Q4eW4tVhnxdUlX7huwegm1C9ie6MgxTZLneRflu+Nm+6l/lOJqR273r37atVi2PTHG5XMm0w5eY5tZmvNSkUMHIut+0ABQLABmxrP8iVupR+nLAKspsIOaof5NHFysd0vEYabIOh0t7InvM2JLP1iV/jqfzGyvyaIJJOUk1JZNmiyUD6q6eX0XcuMsuYL1MS7OC481uLGtlUUHdTSL9i6YQJLS4bxYlJT8OZ9DsiWUmobCDVa9Dc7peBtEOHluLVYZ8TVJV+4bsHoBsmMvi04zkxjYRlBi+ZLBb3s/wAd81L/ACnE1I7d7179tWqxLHpjjcrmTaYcvMc2szXmpStDByLrftAAUCwAZt4sWl+stwmfeEZJi5CrCwjGTBQZUkG87W7vR5STJbXqwtikGUdXM3S898UdZo0y5g+seDp3whJUgaXe34CGNKcZiLE5s8ABRcBm3qxKSn4cz6HZEspNQ2EVWvQ3O6XgbRDh5bi1WGevVJV+4bsHoByKPGvxnIPrWLZcqSxPLufrHnSnKHkNZyym8YnEb/j275qX+U4mpHbvevftq1Vdj0xxuVzJtMOXmObWZrzUpWhg7ldb9oACjIAM29SQzC5xkYcsUpJi8GbuTzxQWb3GBjwfMHvED6xOlSF0DdmJfjJ4/NmZTyaP0mxKSn4cz6HZEspNQ2EGq16G53S8DaIcPLcWqwuNWqSr9w3YPQDarzNz7oyCsZZ0zAHEv3MDcz1E0dh+IrNkuYfFPxH72b5qX+U4mpHbvevftq1VVj0xxuVzJtMOXmObWZrzUpWhg7ldb9oACjIAM361YlJT8OZ9DsiWUmobCDVa9Dc7peBtEOHluLVYXGNUlX7huwb+bJjjxScbfa3EFjLLBbjOU9sDLLcy24jd2Yh3Tpu/eGQ73qX+U4mpHbvevftq1UWPTHG5XgbTDl5jm1mN5qUrQwdyut+0ABRkAGb9csSkp+HM+h2RLKTUOUGq16G53S8DaIcPLeShVhnq/cN2Dfzklr41+M3fDtrFqtMBb3RlNQtcphJ7wyjEOVD41OI5D9N71L/KcTUjt3vXv21WPTHk7lcybTDl5jm1mN5qUrQwdyut+0ABRkAGb9esSkp+HM+h2RLKTUOUHE/cN2DfsgEHJMmHB93N8KxklJ4teM/YfGsWKHwk905RWbEZvFvxNk3vUv8AKcTUjt3vXv24ilaGDuV1v2hQFGQAZv0yckpdLtZE6ZN/+csxKpVnuDvileKOiapWHV1NzKbR6BYlJT8OZ9DsiWUmocoNf7huwb8bJk0eKTl+1uILJk7yz8t3wsrF/kXPxH1xDa5TBf3hkO9al/lOJqR273r37a1K0MHIut+0KAoyADN6BS5Us8G2080f5Ez3ZffCUleNPvFNl4Z9V9yfj6QbALyYsNmQzyMn/UfWJrzZh9ZzbiT3lHOBceMRZJpRu4L8W3Z6BZLpKfhzPodkSyk1DYQav3Ddg35sklfGP7x+3bX+a4B4s/wgWACwCsWvg4ae8MuIf+ZOw/TetS/ynE1I7d7179tSkUMHIut+0KFAyADNv8wJLX47BBajUfYd23Gc3JF5z4kzxsjVTDaOTRDWTF8+U3nL6M/+uhsmsPXOjiroczAPrPuR8YlSTs8bFFmSxwiLV563tpKDcOfzB3+gapKv3Ddg302AC0mPzZhI4s3wrGSSuAvGb/h24osTDwk905RWbEw8B/dOQ71qX+U4mpHbvevftq1W/tgy5YtYxuZS5JcvMo76lLMblUWkxRPFj/lcL8Io6TPcmCJLyn4LrZU5SalxjcvdMTgt6I1k+cfFy9mk1KWdjYAM5hVnUu+w5Vl8W3bWoZTeDCWBcsyQNGle6psGZLbCUxdMW2zQc43/AFSVfuG7BvpsmT/Iry3/AAtxBZMmjxr8v2sxR/wv2j64htmYOA/vDJvOpf5Tiakdu969+2rVb+25l7ubtOYVZM7ubkGmJdrnzprec1clZiHTm4oJmUWYdw+cbDU3kJ/k5n0PonmyJY5zl7qhaJW4l+9nP/tOMtkmaPGSxo0jnqpKSgszCl4We2+PCMjnjwjI548IyOePCMjnjwjI548IyOePCMjnjwjI548IyOePCMjnjwjI548IyOePCMjnjwjI54mrNl+LUYS1fuG7Bvp3MhMJveP27a7pjjC93P8ACBYBii1ymEnvDKMQ3+WTsP03nUv8pxNSO3e9e/bVTpSTEl2MpN0eEZHPHhGRzx4Rkc8eEZHPHhGRzx4Rkc8eEZHPHhGRzx4Rkc8eEZHPHhGRzx4Rkc8eEZHPHhGRzxfNmFql8tPHjHPYObFG5mLZboOYwLHlsVbjFXnPLGFxjIfQ9ZZ8BVe5Zjz43nYTL8PQ/wBw3YN8NiqLSdkfmzC3JmrGSWvi04zf8O3HFiFvGJxHLWbFV7H905DvOpf5Tiakdu969+30L1nA+MXDJjesQ3OBV6sxx8fQ/WIfnAqO6kzGUj4/XGOVQ0w8uQfWqjTZ2D53i1tsjwbSuqMeDaV1RjwbSuqMeDaV1RjwbSuqMeDaV1RjwbSuqMeDaV1RjwbSuqMeDaV1RjwbSuqMeDaV1RjwbSuqMeDaV1RiU8qZfguLDV+4bsG+GyZSPIry3/DEFkyYPGvxt9rMcZVPin4rx9cQ2zFXxb8a5O7eNS/ynE1I7d7179tVBpDy2yqyyyQY8G0rqjHg2ldUY8G0rqjHg2ldUY8G0rqjHg2ldUY8G0rqjHg2ldUY8G0rqjHg2ldUY8G0rqjHg2ldUY8G0rqjHg6ldUar1NsHczFDDlxjavjMEHiyfSr1yz/H0Mblh4p+MZR9amso0/cueCcxg224jhJaC0mMmGdyvBGYVCxqS+H/ANRkG/6pKv3Ddg3w7mjpa3vN9rKxuXcYXujKd485ktT3hlGIcjjxqcYyH6c28al/lOJqR273r37atVv4sXDw0905amsmS8sm31l0cmKw/wAmaMGUv15Kha7kKo2xdKQJzeh5MMbluC2YwuDMlnBYVK06ijzbPOTi0iKZKJ4LHBbmMOoHHFJWbM1crdGPJ0dTakoH4nSarcC+Y3BWFwUUWKNA3/VJV+4bsG9mxEBZjsi+a5auaZU2zBwgBdHhKZ0V7o8JTOivdHhKZ0V7o8JTOivdHhKZ0V7o8JTOivdHhKZ0V7o8IzOivdBtZjaTWdyj7r3TkPwjKMfUv8pxNSO3e9e/bVqt/W2dRxugPWT7VMVdTarC8GBgOPzlGQ8YzRSZUwHguDE6Wg0swEH/ACp2zzBxnuiYXmN8NgqXyUrJKt9ZtPJ6KAtMQdYNBhCjqbGVhlFZrll3PMBpMbqa2WZM4R7vQHDhVVCRpF9X7huwb2bJlJPihxZ/h6CbZkseKfjH2sx9S/ynE1I7d7179tUwM0tcBxwT6BLJo5yvLH5e0bMTLx12y6Ip3czTsEIEloLFUZvRkKzh5s1POHfCClS9MvzuaJUyWdDqRBijTZp9lCYcUeXwV3Tn6CJIQZznbjPoEzdXTZy5tgr/AHDdg3s7ijJl945eyz0E5Jq+MTjF/wAOzH1L/KcTUjt3vXv21HJc6G5xDZLmU3qdB9AIos83gDcNyZoojOnDlboQCp2iyMsUKaRwiMEc5iZ4w6mX5vKYQIiiwKosA9JAPHEiXb7g9Cmbq6bOXNsGJ+4bsG9GxEUsx2CPOmuXPLWgaVJBmuCMmS74xQ6P1SxQ6P1SxQ6P1SxQ6P1SxQ6P1SxQ6P1SxQ6P1SxQ6P1SxQ6P1SxRJADqVtEsQN3KcoeSv8uYCeLP8INoOUHG1L/KcTUjt3vXv21nJc6G5xDZLmU3qdB9BRW4xbEpF4lH6c+6umzlzbBWmA5QPgm8A6av3Ddg3o7ukt4scV5/9txBup74K+6v3t3sbikpb/2GQ/TENsyT5FuS74WY2pf5Tiakdu969+2pLJc9MOW2Yio5LnQ3OIbJcym9ToP68+6umzlzbBWnlr5Uo+ptO2NUlX7huwb0bUoyWf8AY5T9KxazGwCPypYXlz/Hexu6M3jOS4/+2Yh3M9cJfeX7dmNqX+U4mpHbvevftqW1TKFhzqdIgWocsuYBkYVHJc6G5xDZLmU3qdB/XH3V02cubYK08tfKlH1Np21apKv3Ddg3k2JLUu3EI8+a5c8tYtlyPLNyXfGzfBakxSrDYY86U5Q8lf5UwNyZ/hBtVhaDsxdS/wApxNSO3e9e/bVqoW1Tcc6nSIFqHLLmC5hUclzobnENkuZTep0H9LnypfvuBHhCi2//AFETEcaVa3fX3V02cubYK08tfKlH1Np216pKv3Ddg3k7ulNgf9bziDdT3wF91fv2b6NzSUy+8Mh+FmIbZlHPiW5Lvhi6l/lOJqR273r37atVUtqG451OkRukOWXMFzDvqOS50NziGyXMpvU6DvtMo6H2pginUZjsmiCCNI9J8tSdUhu4zmieZEvgSdz8b4ynSanZG0obIP8AlytD+dzw+6HnS285d6fdXTZy5tgrTy18qUfU2nbiapKv3Ddg3k7iipgf9jlP0rFrE2AR+VLCnjz/AB30WzKMfGjiz/DsxDuaQlq+8v2txdS/ynE1I7d7179tWqrW1Dcc6nSI3SHLLmC5hUclzobnENkuZTep0HeSABeTCCc4/NbzBxaYpcxhwQbF5hXSZso+y0S8NddLGXlETFmS2uZT6M3+0w3b6sd8EknKSc9QJOgRRpwGkyzXMMualzCLEpMv8VPqNm8Purps5c2wVp5a+VKPqbTtxdUlX7huwbx5kpC55INrzGLnlrFsuR5ZuS742b8LUdSrDZF8pytfnSnDQbUcBlOw4mpf5Tiakdu969+2rVYi2objnU6RG6Q5ZcwXMKjkudDc4hslzKb1Og45AAvJhitDU5SPzftXLd/dW2JM1PeQisl5DHykrMfvD4UtxaD6JYXG5lrpY3QxaY5wmY5zVhS5ByrKGRm49Aijy5Q9laqMhbhqLGHLBM6iE2CZZlXYavVO6XhLnENhS3UMp2Yz7q6bOXNsFaeWvlSj6m07cbVJV+4bsG8Hd0p8H/qMp+mIN1OfAX3R9+zfxuaQlh95ftZiG2ZRm8UeLN8OzE1L/KcTUjt3vXv21arFW1Dcc6nSI3SHLLmC5hUclzobnENk9ZTep0HGayZPFsyzMmjlqQvMc2KozxZSJ/A9Re+EVFGZRZAtG2JYo0/M8sZOUQtjXhhcw0ipvI0g7i31X+/oh3MtfGMNp+1S20ej2MQfWbMMVQ8txgspziMqg2odKm6o2tR3sHunKPrivurps5c2wVp5a+VKPqbTtx9UlX7huwbxKmNKo6YAsQ2W3n/2yKPN6BijzegYo8233DH5UsA8ef47+uFNkETVsv2/CKPN6BijzegYo83oGJUxZdITOpswhlH1xB+S/YYo83oGKPN6BijzegYlOvkR5y2Z97179tWqxltQ3HOp0iN0hyy5guYVHJc6G5xDZPWU3qdBxTuS9i+6MgqXy08bi31U++KB49N1JbQ2jlgWEXiDYym0HbH5ssN6H6rBeYCoZZzs57PpjXnClnt76pjpbfgsRFJndYYpM7rDFJndYYpM7rDWnlr5Uo+ptO3eNUlX7huwfqWvftq1WOtqG451OkRukOWXMFzCqY6W34LERSZ3WGKTO6wxSZ3WGKTO6w1esQseaihRyYwsBfDHLlq9RmX4+h53t5wKr5bMh5/vjedaz/TeE8tfKlH1Np27zqkq/cN2D9S179tWq3hLVNxzqdIjKh/DmC5hj+qwb4xcRaMa5WCcwq9Z3Px9DG5ny7Cdq/ayo2JPyy/f0cuKbAM8G2Snk5XEM9VHlzfGTLE8YluQfeKBReqEUCi9UIoFF6oRQKL1QihUZWGUEShk3rVJV+4bsH6lr37atVvMmXNUG2x1tigUXqhFAovVCKBReqEUCi9UIoFF6oR+XMIHFmqby9GGAw0rmOL6o3I4TZhBtdyWY7Yvi+XLAPHn9DFs6X5SXx6OWo2EZQRDiXOGQTT5r8egwbQc9UxZaC9mNggkUc5Hm3F9g2VC2ZMbBEeZKXBG3f8AVJV+4bsH6lr37atVv65Pw530P0qax1vBuYaDDiVSM8lzl5NNc4JoT1m4hAwJCfhytG07al8hRzhttOYeipapyz5Yze0K6XOlDghsnNFObkRe6KRMnH22tqBLHIAM8KP8uYLtWNHH6Bqkq/cN2D9S179tWq39A8txYynOItejOfJzPodtdPnYIzMcLtjwhMA9gBeyHZmN5Y2mpLWN5zKNJjLZlZs7Np9GKyZpymUfMbuijvKPtDIeXEo5wM8xsijlg+PpWsIyL7o9B9aUh7ar1nnsH6lcZ79tWpB9AlrMlverQfHytWfPXvhGRxerCw136IU0WRwpg3R4hEuzhMfOY7fSEV1OZhaIoKKdMsleyJM3rTFAk4WlhhH4wPQrmQpzG361H8RA68Y//wB/UTklIWi8m0xecgj8uWq8w9Co8qaPbW2KJge5MIiju3vTWiiSZZ0quXn/AFAWvR28aOLP8Kvy2tI0jOIbCR1wlOkfqDbubu5mxR9+yoWpLPjX4h97P4MLVYWEaY80G2WdK5qnslsfIucx4P6ebsipnc6INsyYbTs2VLZMpPm7Ezc/8HX/AGpOVPaGdYFhGapiUGRJ+j3u+HDo2UMptB/THwpxG5kr5x7ob3EFyDZUD/iyss1tPs8sCwDIAP4Qnlr5soevtG2L6qQyrnQ5VPJFDPvSW+hibNT3pRikt1TRSW6popLdU0UluqaKS3VNFJbqmikt1TRSW6popLdU0UluqaKS3VNFJbqmikt1TRSW6popLdU0UluqaKS3VNFJbqmikt1TRSW6popLdU0UluqaKS3VNFJbqmikt1TRSW6popLdU0UluqaKS3VNFJbqmikt1TRSW6popLdU0UluqaKS3VNFJbqmikt1TRSW6popL9U0SqROb3cEfGMCioeBlbnhizG8k2k1CyWPxJpuX7wliLzk6T/CrJFK4Vm5fj74ksmhr1biP6blJi2jSL8H127olLLlrcB/DJauhvVhaIL0VvZyrzGJsicOPBMUIn3XU/WPB79Je+PB79Je+PB79Je+KMZUu2y1mF9chppUWtZmjwe/SXvjwe/SXvjwe/SXvjwe/SXvhcGYhwWXQaqG7ynFqsCMseD36S98eD36S98eD36S98eD36S98IUmp5ynNVRGmSmuYER4PfpL3x4PfpL3x4PfpL3x4PfpL3xLMuaACVNVFabLtwcIEXx4PfpL3x4PfpL3x4PfpL3xQJlii02EGsWzHNii2y0x4PfpL3x4PfpL3x4PfpL3xQH6S98SJcv35g+kU3/rJX6mKMomaxt03P8AxRrFFwF7HQIyIMkuWLkFQsUZXmG5BCWKLyb2Ok4uvarV/U4vCX5RVwn+Y4urTsq17fTFl+Uvmyl9baNtb+VulTW9bYdv8ZexRcBex0CDYgyS5YuQVCxRleYbkEJYovJvY6Tja9qtX9Ti8JflFXCf5ji6tOyrXt9MaX5S+bKX1to21v5W6VNb1th2/rM/xswepJ3R7ooAs0zJndFDo1nG0UFl9qW9vwMUhS+rbI3N6U9iC4C9joEGxRklyxcgqFijK8w3IISxReTex0nH17Vav6nF4S/KKuE/zHF1adlWvb6Y8vyl82UPW2jbW/lbpU1vW2Hb6U6oi3sxsAjxlJb2BYvOYoMpR7bkxQqORsYiKPNkHhDdiJ6TU0qfR5gSWl5MFqPReCDum4z9MUkEXEZoYvKuE/OvHpggg5QRn9HexBcBex0CDYgyS5YuQVCxRleYbkEJYovJvY6TvGvarV/U4vCX5RVwn+Y4urTsq17fTeJflL5soettG2t/K3SpretsO30jdz2/DlC87ToETbV9WWMiryYs5pUwZ1MBZVLzcGZxbdnopAAFpJgkUSWfJLp9o1S2mTGuVRaYny6P7I3Zjwi+FtlDvjApSDV5G5oBBF4NT+Sc+RY+qdHF6M1ii4C9joEGxRklyxcgqFijK8w3IISxReTex0nede1Wr+pxeEvyirhP8xxdWnZVr2+m8y/KXzZQ9baNtb+VulTW9bYdvo2WzIi8Jswh8KY5y91UgvZe1yjlinKp0S0t+Jjwhl9uV3GJOFJ1svKvLoqJDA2gjNBH+VJ8/wBocL0Q2TKSbD7gvqW2ZMNg2bYW2YfxJpvb7YihaaoyHWbD3wCCMhBzQbCMoMfiWYMz3hf6I1ii4C9joEGxRklyxcgqFijK8w3IISxReTex0nete1Wr+pxeEvyirhP8xxdWnZVr2+m9S/KXzZQ9baNtb+VulTW9bYdvop8lRsnG5vqtWiyvxGGf2REtZctRYFWsWgwllHJ8pLHqbRsqO4BwZg0qb4NoPoZ3MlFQdv1qG6ZvFJxC/wD9sxhYlJXD/wCwv+lUqZMV2DLgWZNMUOk/174odJ/r3xQ6T/Xvih0n+vfFDpP9e+KHSf698UOk/wBe+KHSf698UOk/174odJ/r3xQ6T/Xvih0n+vfFDpP9e+KHSf698UOk/wBe+KHSf698UOk/174odJ/r3xQ6T/WDYgyS5YuQVCxRleYbkELYovJvY6TvT+XumTR6mwba0KOJeUEbcXhL8oq4T/McVCFeWuCdOSrdS2/ElG5h3w+Ejc4Og71L8pfNlD1to21ypk9kyLMUi0jbFDpP9e+KHSf698UOk/174odJ/r3xQ6T/AF74odJ/r3xQ6T/Xvih0n+vfFDpP9e+KHSf698UOk/174odJ/r3xQ6T/AF74odJ/r3xQ6T/Xvih0n+vfFDpP9e+KHSf698UOkf1jzpjFjy1Dd4OFM2sb8VcKW64LDZF8pytRtYJgHkyeh636CrPhE9I41+Gw+Ho4sUZXmG5BC2KLyb2Ok70/l7pk0epsG2tMt8qSw+J7sbhL8oq4T/McVdqsL1OkQNqOLnGmrdS2/Elm5h3w+Ejc4Og71L8pfNlL620bfR7i628+PnwSeiKs01+30O6YFcc32qO7kTLvZOXvxj+CmE3GfsKjLAlkAmYbL4mUXpnuiZReme6JlF6Z7omUXpnuiZReme6JlF6Z7omUXpnuiZReme6JlF6Z7omUXpnuiZReme6JlF6Z7omUXpnuiZReme6JlF6Z7omUXpnuiZReme6JlF6Z7omUXpnuidRlW3KQxNnwhbFF5N7HSd6fy90yaPU2DbWmW+VJYXbT3Y/CX5RVwn+Y4y7VYXqdIgbUcXONNW6lt+JLNzDvh8JG5wdB3oy5Uxj5RGyKdoiZReme6JlF6Z7omUXpnuiZReme6JlF6Z7omUXpnuiZReme6JlF6Z7omUXpnuiZReme6JlF6Z7omUXpnuiZReme6JlF6Z7omUXpnuiZReme6JlF6Z7omUXpnuiZReme6JlF6Z7ovBsMXi6DaJiA8ufFujzXmHB4rhVe4L859DH4fk5nEbvj21Ash3MxOEsOHlOLQwxDa10tM7mGwpkxsJjULJk4+Nblu+Hpz+XumTR6mwba0y3ypLC7ae7eOEvyirhP8xx1yXqwvU6RA2o4ucaat1Lb8SWbmHfD4SNzg6D6cLJc7yqct/xqfBkzDbLY3K2jiOK9tImiyYR+WveavOmsFgWIihRxD0NcKXMXBYRmyq3CXMantlt50pvNaEm0d8+TCXnEU5TsCt3RIea/Dmblea+JpmP8BxVL/qSTbM9o5l9Ofy90yaPU2DbWmW+VJYXbT3bzwl+UVcJ/mO8LkvVhep0iBtRxc401bqW34ko3MO+HwkbnB0H00D/JlbqVt0jlgEMDYQc1Q/yaOMgBO6XiMTnknRMQ/SKX4zYiExKMgH818rcgzQSzE2kk31LZMmCySDmXTy+i7mav4cyzKp7ol4J9Vh5rcRxgZdGB3U4js0mEwZafHafTX8vdMmj1Ng21plvlSWzbT3b1wl+UVcJ/mO8rkvVhep0iBtRxc401bqW34ks3MO+HwkbnB0H00BaV6yXCZ94RkdchVhYRjJgyr0kte3Hs9HlJNln1WEUnA/45uUc8UTxg0y3BjwbSOjElJC6Zj/QRMNJfg2WJ94UKoyAAWAemv5e6ZNHqbBtrTLfKktm2nu3vhL8oq4T/ADHelyXqwvU6RA2o4ucaRVupbfiSzcw74fCRucHQfTZQw80xcjDliky5y8GZuW7o8HzG9who8HTx7wsh5VHXjwj8IXx08fmTMtnEM36owVRexNgEF6S41Y3POYoMpR7bkxQ6ORsLCKLNk+0hwxE9Joz4JyjjEP5e6ZNHqbBtrTLfKktm2nu3zhL8oq4T/Md7XJerC9TpEDaji5xpFW6lt+JLNzDvh7ZZv0qdBiaZ8werJy/G6KAgH/JMt7IolGs42ihOntS3wvgYpCu2dDkYcn8POFMb8OWL2iZZL9WUvmjFmvLmD1kNhrTLfKktm2nu33hL8oq4T/Md8XJerC9TpEDaji5xpFU11lzPPUNkbjxWKsLiDYRDWi5aR/8A274u/hnmoLuEcwhrXa4ZlGgVSGmEXm4LxmKciHgy0wviY8Ithe3LiWJ0kfmSstnGKzhTpIDS5RuO3k3zy9J1aG7jOaJ/+PL4MnJ8b4YsxvLG0mqlTZQ4IbJzRKwl1soZeURNWZLa5l3uxZaAv4zOm2DaLchqktNmHMoilS5PsoMMx4Re3bKEBaTLGq87mre3UMfl7v4YfJyRhP7x+3bUSshMs19A0ccSlly1uAxEwQMs6Wt3vCq+W1pGkZxBtRwGU7N6fyt02aPU2DbF+M1qH8SUbmHfDWq2bOp0Hemyzt3M90ffsqva9syjTCe8585zpOIgWlqLSo/NHfU2C6HCU6DH5i5RoOf+F/mTWPxqHlJo8a/Gftii0EWER5qPufdvFV8omXzHeT/sTTgSth08kG0m8motLQ5VkjIx49EUSSm3By88SkYaCsS/8admeVdyiFv8xx5rjZU3+tPIV9hzHerpZEscgqHlKQ1gPsj724wslzx41R2/Gr8qZhDiI+38KvwT2V3BRZjZ5SW1XePPYN5Pk6OuAOO81LbKkmyWDnfTyYoGXKjcFtMCyZLYqw21G2YFwH4xk3m/x79tV3iRjedguOyq7ATtP8KzxfLcrzGo5cDBbjGQ4xtQNgKdgyVfmzGf6fTeb3msfjUL5Yc8Zy4ws8dLDnju+lVyTrecfbefWmYY5ctR3dHYoRsvGMbRR0wTxnKfpV6zqg5B9/4WPJ0kYf8A2z1NZRZx87gNp4oNoOI/+5NFmT8tdNQtmTGCqNpjzZSBRvN4mMPjVcZK9mNekgW8pNVxmKPhvI3JHin4831qtMiZuZqjRp5IcPLcWqwuOIQ09skqXpOnihizucJic5qFkwjDme8f4XYJq7qU2hoUpMQ2MpzGry9GF0tzlXiMPNkNodLfiIpeHsSWTEkyrfzZl/IIdndjaWY2k1LskA/Ft6G5dvGLy1N5SQbUGlD3HFYKiDCYnMIudtyNC5qhY05jM7uzeRuJgst0bYWx0PONIqbDkk2tKe77Qs2jtntXCHOIpoOwI3dFHZm1k7IByRNaZNa9jUv+tINot9d9H8Nsl0xRnumbD3xLaXMW9WGMhSjXrLOQzO4QAFGQAb0tryMj+59qnwZiG0GGEqk+tKY9mmuYsuWt7MbBFq0UHdNcZn2q9c7o8Fc5gWIowQNA3rcUhPw5ujYdkSij5tDbQcYNKoYvfO2xe+JYSWgsVR/DpAezzWuZeIxSldeBOyHnEUF22owMeDp3LYIaTR12thH4QppE4evNzcQ3wAqchBzwC1DmHcNwfZNV8UxnUZpowomyU2rKikTJxzYRyDkqUs7GxVAykxYaXN/EI9X2d8kLNQ5mzRSsH/jnd4ih+MGmW4MeDp/NCSpC6Xe34CCaXMHCFiDkgWAZv5DLWZLcWMrXGLZ0q/xR89eLTCsri9WFhGJIJTPMbIo5Y8tSiMs0i7i0fzajS5vvDLzws+V7kzvibSm/7juihq7DPNOF2wLALgP/AMR//8QALBABAAECAwcEAgMBAQAAAAAAAREAITFBURBhcYGhwfAgMJGxQPFQYNHhoP/aAAgBAQABPxD/AMPaCZcKdCFkd+Jrclz/AK0MX8AD5KEcPfhMUsCMUXxNTU8EQ963KdI+ShEk9+G+lUfMnPhamMvjnW69KPShHD+nqFAF1cqvcoC/ui74W30hIXJXwHzUGh8Uw4g0DGsFfXGjJ4KIGqf4NYJ/cxomI7n3FjGktVAudEYtx81dbs+L7Oc1nME67BYLg59KA9hsAXHDm+afCmBEJpkPuKGNCGW0Mv3bl+FE+bAkcrvNabst1zbuwEupGs5lDcOzYBuz8/mrrGAWF07mDWP9MUjMUuFy/CWIOnrw27uFfQlbk+C+UrgjsSIoDOEdHRxKQ8GFYDHeHtLBemuNWIXmmhgueG3e/wDb+Ct2+3PlNrR7B+ODM+sqQ65NTmV9jme0sUms7reWZ1OWGNKqrddm9jYXwVu0qJ9VmmZiabFDPZMBmGY6UeAjzZdQ1WTyy/piWTIiEMXHuVlRz7EyjAClnMIeRYx9ONWOXBycikJCSOTT+YWSfcw5vmoap6fltEzMtiPAxLbC+ezud1DPszUioYwdMYN6bEwuASq4AU2ohBOOMXcW40If2CHpUFSRcsAHiW4GaKXew43KZGnxsWKIZITbjV+E07kiansmQSxOTPol+KeoyhKriu+glgutEOTISjVYnBzcqFiyIg6Y1HH5p0FFib8DHgyU5VDKCtHJ6PTYlqTAz2/MxOFEHIPgEkfj+lMxarrUKmxZtxZc9hEV4DCsO9ZOBvoAIPQbQKzuWB9O5aVi6GQYSiRkUckypVcnPMYj7IHkA9+L+WOWwbyIFg/TMHOgAg9FnC5myhvG9C9G+tMzckPOsbOFOnUdzsjzJezaGEZWxT4hsA2UNbGnkh4ppQB6B0Ot01NExHUpLrFq9+YJslCoTjC/Shy/pW/P+BNOhKG6qz3q+WOVE0IJwE9fS4UtQQzfA9VsVZMZwT7F9h70oMp3i6WCdKCYE34Mur6Uko6w4sR+gbFU2b7KdRMk4KHQ2HkDTqs/UeoIgs6trpsSK5E32Pb+lOXj8wRSpaUrlapi5iXpcBMJoh9LhS1yLRqSbDjwYcAOz7Dlxom4TnB0kialNOId4gHqPpbFLDKbi+gjYwyyX2VipC8lJ97Hml4It2eottstIA+2xEGyZvlf0pwr5Fibb7jlsiIMEt2bJxMPKhnD0BRVRm8hvW1NdPGtZjlhWF6kIEHRZfcewklYQDJGIb9GwLIWQ4lw4N+DurH0CfcRkHfKgDUyndcgA2KcDKNXY9kbIIG4dgeewPkp8DD50BODQjn6ENqagC6tXwkjbl/rnskNCHD/AILz/pcU5RhdbbmLyd2yIWJdRMxwSotwCCXVMeGPGpNak1p1G11nchdqQIpm69fcwOuxcixEtBtzrcJoAQeytyEBdsHK3y2BN+zdFEugIcrVuDvcpoZBkvU76LqMFX3BivCh8r2AGHZycdl/ow8v7OBvaHaUBgAgPZdo9JjFb4lzeGw8yn4QwRodiAc9zhuG2mlCwKJEZGpNSsZgUY4Ga7iihDZsHMJMtzPPTYDjk+w4nA6xW4z4gIP6WwMA0gbI7q1i46T4Dnx2isCyhcCVTSzSvyA1i9kNOK32zhjRLIw3xpnU/TQ2T/d3sgwSNkc6a5KAxMnfycsNNjcihA/gIvyFRyGqfyE06SsUfM7IHkFu/wCGrQpMOUsstwy1u+zMY1xomFfoHN3pgWRmt12lTDNvzSdKikNXvkpvVjn12GYgRKOQUuAhijITQzc3l/TbrqwA0SpEbdA41ZNzfe1aKEpfXHaCgXVgMWr2ATOHqXjYpgKbmIMkzHXZkExN15ozqfpobJ2d2XsgJNGEDiI4lPOBMGOZhwfmmZ9mZcHB5bcwzaX+7qBHyfTfSpR4GcPsHX2ZiuPEwr9A5u9gOnZRirsnAV3qGaOTRcetP8nrZwYHk7W2NqRQW4pG7PkKj+x123gydXNoII/k5phEzEU+FqD5Kt6DvpWpNfx0krcNWHrTJNad8DFSduij7qJTeX6l6irbyqUlaOqzKcim5iDJMx12ZBMTdeaM6ni6mydndl7TdJxL8TVnwTkjMHFdk8EUThhdvgUEezNceJhX6Bzd6AdOyjFXYphUJC9XzyUDEAgAgCnCjiVOTTthxX0UFTJuUD7ombYOFzk0Aw/IUIAYq2pBEtT+JrcASL7aGJuAh8n5CxThIDKH0uGNYXulYd6X5mm5cWK3dhs2uMRzKjUFlbT5PmaSwiNjvIzN5b8228qlJWjqsynYpuYgyTMddmQD03XT3M6nC6Gydndl7OD3WADjxsK/QObbFAOnZRirsU4qEher55KBiAIAIA/MDq6hADNcirRSEGD83EwcaayPPF4GA+KAMAOBVnEmjodm3yCzzox+DG3jA5IeNAa+USO7c7n8aJ43oGRv9DfSNkKjKrmuzeRoL4K398AfVBQEGIkJy2TkgLc/03Z0kAgGWdN86NtPzbbyqUlaOqzPi9OxThiDJMx12ZAOTddPczqcPobJ2d2XsYPcYAOOEwr9A5tsUA6dlGKuxTCoSF6vmeFAxAEAEAfmHQNQgBirUEBGRZ+gc3dsbjwlsVCHslfKVjhsDocTNnU0GT2o+k8YJqJkjZPxEeBJP6QxdxTLnsSoyrsjeEUhZLxDoX4UMEyIEuLi86i1MjBY8gN6bQ+DLzgR6fTYrKwJLJicTrFbwgCIk/Nt/KpXGjqsz4vT8U4YgyTMddmQT03XT3M6nD4Gydndl68HtsAHHDYV+gc22KAdOyjFXYphUJC9XzPCgZgCACAPzbvkAvLbmDyN+zPj6FexvyqLHBXH0PsfirXSAwORQINxxGmwss0n4PtvoeJqfXHbE2DkWQW2SnQ74oZPw8AELlnwOuwRc5KRcDqES8Cggj0OxSRImI0sVQJ3rmLjvNmOMdcLLrD8638qkXNHVZnenopwxBkmY67MUGibrp7mdTh8DZOzu9WD2mADjhsK/QObvQDp2UYq7FMKhIXq+Z4UDMAQAQB+asFMw3KbB8HXYLJdNLyWjkl3RQQR6HBALi5GE6OD/wApwylGIlkp1QhsQMj81GJcoyRc+Z/CbFKRMLuBbCnBs1wOnqHCxJqEDxrsk75jPL4rwbvXg3evBu9eDd68G714N3rwbvXg3evBu9eDd68G714N3rwbvXg3evBu9eDd68G714N3rwbvQdaSwjBxpKbyMAdTU5lsPZt/KpFzR1WZzxp+KcMQZJmOuzEBgm66e5nU4vA2Ts7vTg9hgAwK44LCv0Dm70A6dlGKuxTCoSF6vmeFAyAEAEAeyjHjMAq5fJRG7z0Mq8G714N3rwbvXg3evBu9eDd68G714N3rwbvXg3evBu9eDd68G714N3rwbvXg3evBu9eDd68G714N32IPiZzB3oXIIdAIPr0uFWqijSL7LsQaYfgNPv8ACcKECIRwVsUCdzjIdB6oucSNCAfbsUMUOLX7Cv2FfsK/YV+wr9hX7Cv2FfsK/YV+wr9hX7Cv2FfsK/YV+wr9hX7DYd6zMAwRpC76MAdTXmLYezb+VSLmjqsznjT4U4YgyTMddmIDRYrp7mdCAHhAfRg9bAA2KUJISSUYajoc3egHTMoxV2OYVCQvV8zwoGQAgAgDT2UY8ZgFOb2Esr79DLjsUMUOLX7Cv2FfsK/YV+wr9hX7Cv2FfsK/YV+wr9hX7Cv2FfsK/YV+wr9hX7DZ+muD2p6ABjMST04lLDMk3muo7DIiM4TO34aDOelH2+GwhShSABEcluIUMk+guRKiADNaJYRJs5OpV5mzCZscThSTNPxXiPavEe1eI9q8R7V4j2rxHtXiPavEe1eI9q8R7V4j2rxHtXiPavEe1eI9q8R7V4j2rxHtSp4PxTi3YgtzPMcNh3rMwDBGrlbQWB1NeYth7Nv4VIlWjqsznRvAKUkHJ0oxrrHoMHrYAMtpaCZM7AhdwSWz4UBIAQAQB7KMeMwCnFzC2V9+hlsSiqwwDNMgzaiQkB3AOAyPmvEe1eI9q8R7V4j2rxHtXiPavEe1eI9q8R7V4j2rxHtXiPavEe1eI9q8R7V4j2rxHtXiPak6Gf6aOlOIGyvhNgTUim/+FZ3m/wBLfDIDdMDn0GlkvqzTK/LQABRgDNqVCOUuepfw1AF+MT6JPikaEQohEyaRAiRGEdaLsU5J95g7qEukjImolTRGJkMdcadGyEhaB/1dxsemFpaluCXlQiwXeRiu9Zef4gJgQCRHJpZasSU5nmOGw71mYBgjVwtoLA6mvMWw9nxetGNdY9Bg9bABltK8Xp7JGPGYBTm5lbK+/Qy2JRVYwDNMgzat+AWuehoMjm/isIQCBhr/AG5bJkhwbqxDMaYkBhiu+4Ou6hqahrKW8li5sFACuApB1XNZvI2TxCIlsb57u430EH4YkilOMK7zmGe5z124CrikX06VPxGoX5Kbz1tnCcNgCLDyjgBm1OPRhjmxdXN5fjAmBQJEcmlEqxJTma/XhsO9ZmAYI1IW0hYHU15i2HseL1oxrrHoMHrYAMtpXidPYJx4zAKxw5Wyvv0MtiUVWGAZpkGbVv4Cxd6GgyOb+M5DJNkISmMGGdH1Drs7VhZCiXKVPy2QgS+BTlolZXFdmPBXEdNPuh+m0F3iuPQg/FSSmOwjQutsfC26nd7wTOEbPztbY241Ln8QROL9BpIBiIY1n3MWojD8cMwKBIjk0slWJKczzHDYd6zMAwRoHO0hYGRrrzFsPX4vWjGusegwetgAy2leJ09ZOPGYBWOHS2V9+hlsSiuwwGaZBm1b+AsXehoMjm/kXlpkApc91tN2mx4w8asl+UlydroEgCV4BTG1dsPo8Yc6HCklb64zehl+Ok40fbITI8mmT5iC+oq5UaMH3R4RwiXOTQACC2H5QZgUCRHJpZKsSU5nmOGw71mYBgjQa60LA62pzLYerxetGNdY9Bg9bABltK8Tp6iZeMwCscOkYV9+hlx2JRVYYBmmQZtW/oLF3o0GRzfykHErcpxnrUwIaP8AAxSRIjIChYR0IueNQTMX/mA7AoJEcmlsqxJTmeY4bDv2ZgGCNXM2hYHW15i2Hp8XrRjXWPQYPWwAZbSvE6ekkXjMAqcM6Syvv0MuOxKJWGAzTIM2rf0Fi70NBkc3+qLBSpAM2xTKLGR+9eMd68Y70DYFJCOTermK0c0DL9eGw9lmYBgjUPAosOo2HX4WrxjvXjHevGO9eMd6Ff0oE4iYlGNJYWNxLEWSvGO9eMd68Y70ueR81ERXOwLJZ2LEgB0oSLNeMd68Y714x3rzjvTIQQFkuuW2YOz5KLoXCvGO9eMd68Y71ORaQoNAZeVThnSWV9+hlx2GG8Ab0lgKi4AWmei9hkc2vOO9eMd6Xhbu/wBq8Ho0akmP6coUo7MIl8H23Uw9NgsW/tBThsxegLFfoK3D4rcPitw+Kg0PjbxrcPitw+K3D4rcPjbBofFbh8VuHxW4fFbh8VhsgcQ+K3D4rcPitw+K3D4rDYg4g8q3D4rcPitw+KgMj4241DR8VuHxW4fFbh8UCQWC5dKjTn/Jy6Vc3rXeItzkvCsFRMo4Ojuf6W0PjEAZrV0yAWO7931tkCVjjXWQvoV5z2rzntXnPavOe1ec9q857V5z2rzntXnPavOe1ec9q857V5z2rzntXnPavOe1ec9q857UuGMRJ+q8e7UUXMxz6rzntXnPavOe1ec9q857V5z2rzntXnPavOe1ec9q857V5z2rzntXnPavOe1ec9q857UHI2qfagxG4bO0Qn78tMBOtQvJhJAzXM3YnWhkk/pDlgPQBdV0rRgzUvAMuOycrhCNAMaZ297K9Dkmpwo13vmXSjAUyEH8PFLkoiPsCtKRTnd7bckqDkyOSE5tzsNthqEMykzmILByDRzMnlQz/RsKjY6RDLHmYvLZH/E+quQYrS0ghTDXR6nPSgAg/jIBqkIaI1fpQWVdXPS5YOuyErKk2zjclql9mLNZreMjw/ozWWi1gsc2DnUyulvWf+bIXY5C633K4vIyoI/jkdqNkSyJUBoT854nVW+HPY9gpFcBYuJDyax/oqJBKvxOXq2Jl9iizDBzg+aMP5AJcSYLwsftyNihIMjm2B8LUYIyZfxyDFCKmkskCLvlD5piZGXTyB91dF6AKBBQZzY5B90ODeV8I48pqTX8Fh3IN79hsFchO4FfZ/ImrJlqJD91iDL5h2pJE1KdhlG3wn8G/tMMObQEjkdweRTLRU30iuCDJPmWnAbiAeJZ6NagmXOIxOdY/jEwa5xXIDNcipeqggBqGPBbj6UBFEiMI7qWX4VfwF8TfQUKLyBwRzPwGoLhB8OwABdl/kdoDEB9yjGkrWXuP4AEAFYhd5+zKlUMcgOncx3+nC23CeDqbm1ZUCO3B06mWlDJb8RiaFLAurT8AJzM0avQg2Z7syeO43tS9om2eLIfdJs2tJ8TV78yLHxWeTTnhQ4UZI4bJLkR2J+po8amff8ACaP8nRa8dqoxrpX2+/GZjtdsODN3DSwZJ9AMgwDYtYEP5tZ7iWgkhxnhzO1JWgBw/CUTbHIk3MeYjfscsoQhEwRpDVMF8fFk7+P4koloG5B1MHCdlmOAuAxVuC9QgBJuMdDQwKLbEkipAUxICeY5cKS+oSFFkaBIRIMR1qNR+qFzs8/f8Jo/ydFrx2qjGulfb70xTk07DBd3ytyOyaWBsnEE1cVyOJVpuJgcNqoJEhHMqc0iPZvxJsmU6bGRbPbkPi/EKMsCUZjg/h3DhjRSfXo2DvZ05RPyR6Tg1a1vBbC+V3N2Aj+jTiMWtvivPO9eed68U714p3oeyCxmbA3oFRWZA5+z4TR/k6LXjtVGNdK+32Jq4UYIdcbE5GLXnvevPO9eed68U70uWmrYhXt1S965TQKAlY1C7cvSV5VOCiEpbpl+oNnmQ1E2q4oFdW/QPwsDTUrRsLbeqXPVM4RE4Rn6PYDvPBup80z40GqrMgcz2PCaP8nRa8dqoxrpX2+wiu1S4PmGfCkjYZlHN9eMjCWkJow9Lg1qq5xJsSitgT8M8Qm/qQPVbLvgAXej6RwoNAcDKKD4HzsM8RBILBA6dfT48eNUf9nTI5jk7AzzwbqfNM+NBmq3IHM9fhNH8OjL5JDUqAAu14V2rwrtXhXapfK6Vh6zqSTGDcue6lMIITAS9CvCu1eFdq8K7UO7wQaYzNfaa8dqoxrpX2+ppEs1S4PmGfCkDYZlHN2MkRDehQDbf6PHjwifGUimRwOSMNCRYFx35UbpNyoQOSJ6SZASqwBQp1Qlpt0BsUqjUd8nSPw5xKiGTSuUjYMZggMSYnExN5Ultn0kyTM9B0HZXA8DNyphSmoXtlsmM1BLjCHIHpNCoLeH2LpiVHvR0yOY5OwM88G6nzTPjQZKtyBzPV4TR/Do5P5Cc2e79OV+15scA+8OO3zGn2mvHaqMa6V9vpcKT3YpcHzDPhSRsMSjm7JXymsoyPu54GdGXUNADADI9CTUoNSRa63lL5NgdptbJiOmpk8aQCZ7VgmgzSh42PYZHE2F6pZaOwS8q3PISBB0Pw53Sage+dC4pgNkwHfR2IbrH56MneXrNSJ+KS/So/a3lRtFIOfgsvNKtHdwAaDANxsbbDZwxw11d3GoEeo0JBbw+5dMTfHrR0yOY5OwM88G6PmmfGiyVbkGp6fCaP4VEBLY10pA2n5pgTz9N8uMjaMbkKYHunHb5jT7TXjtVGNdK+30Nik6TVLg+YZ8KQNhiUc3ZK+U1lGXe54GdGXUNADADI9QCZS60sXboOsU6kg0KMRNdhlrOHDTR3MnCredukHOVP0u8+gKWcaFhDgtxXafAyhKrirnsTKgSuuK0fpx/FR3mhT3Q5mdM1BXHjqu2J6nGRz4QOLfgdKA2UBi6q5rivsHxCNvD7l0xN/1/kMjmOTsDPPBup80z40WSrcg1PR4TR/Co84MHPHAV5U47HgFdxtUsoBkmDSYDCGQsfg+6cdvmNPtNeO1UY10r7drYpOk1S4PmGfCkjYYlHN2XTwqyjLvc8CjLqGgBgBkexapi6wzVy3889aS6suRvPSCgBVYAJVp8qg27iBkdWelWAwPxsngxn/u+mtq4LyBZzmkYfzCeUGoQB3wPmalSeI0fJUPnkjTwX5nlQN0gEA0DL2jYhG3h9y6YlT/AJD6I5jk7AzzQbqfNM+NBk63INTb4TR/Co3/ANRjuH4Fz23L4UtJgdTyoCEkwzQ7bbw5CeGOQH3Rx2+Y0+0147VRjXSvt2LBNJ2vUuD5hnwpI2GJRzdl08Isoy3a3PAoy6g0AMANPaiLCPjsfTJWVVBw7oSPwUgEOo71ricQ3WkrD3V+Eg606zSIu5hyE76CD8qD3o6hG3h9y6YlfX+QyOY5Owc80G6nzTPjQZMtyDmbPCaP4NEpkAYq4UskQL8OwhttVkXdf6fFS4Gmkp9h87cdcXLBF4ScqMPcOO3zGn2mvHaqMa6V9tLBNJ2miXB8wz4UkbDEo5uy7WEWUZbtbngURdQeAFgDT3oNP4yOoRt4fcumJX1/kMjmOTsHPNBup80z40GTLcg5leE0fwaPYfNJ5ScqdhjUfgLjzFVixJGjMua+drRUiMiZUEWQkHDuI+4cdvmNPtNeO1UY0oTc+2kbzVbgfMM+FJGwzKObsuxhFlGW7W54FEH0FgBYA0/nL9GNvD7F0xKj/I6ZHMcnYOeaDdT5pnxpqjuZAjc/Bo3zVAcMPALtKjAzHgA0YFXURDP/AFCOdOLtwLwbwH5Fz9w47fMafaa8dqoxpwCqlwV/5mfCkjYZlHN2XAwiyjI01ueBRjdAYAWAP52Jq/Rjbw+xdMTfH+R0yOY5OyVi+H4FFSwCq4BTpShPIWPwNuB3EeO/FDKkkphkvY8QY5beW+njF4MPL3A47fMafaa8dq2KuLOyQMJLKMjTW54GdGM0BgBgBl/FrBNNtP4XhONN2pmw+WClxHqkoIvuHUmHWsMEQJzPficav2MbeH2Lpib4/wAjpkcxyfwaNq0osZtXlJS/GwJq0GWQhnC+G1C/BRGZPRhyrDZYIYdaEAD8UxJ5+2cdvmNPtNeO1bbgYVZRkaa3PAox2gMAMAMvfWKtmq3SpelLrJnAPyKhAeop0pkkgy/KE8qCxGf44ZBSiANVq/zV3cxjxW0M6x+oJXXDl6DUsSqeOWaDS3Ob+84bzk0M+8g40smIbeH2LpiV9f5TI5jiP4FG7k0Dgg8BtFeopMsa5BovAgMgwNtv93/BfMJzpx2zX+IK8B+/tnHb5jT7TXjtWy8GVWUZGhzc8CjHWAwAwAyPfti0lurIMVdKXO7BaNx0fJpFZbimV4u1uQ3KZSTd0G9jyW3UyQQtP+pvLfirBNQOZh4eMtL8u42sFBJE5uYTyqIFaDPUir9K4JhySddgoiKJglAromXHEdzqXyffSca8Jo+/RH8sjAAlaaZgG5YRyBtw6K/PXIUy2iSsUAeaWmOW3BRGj2SZ5VvJ9o47fMafaa8dqoxok+cPt9+bvu66Gq4BrTwqEb/1LN7bH/8AwgjcGNABJwkO7pTQkEo5+GKWG+YXKceWxvISGCZiZjmUcoLey6XBxHT8THqIMZFjgdU2HCEfKjABrTZ4EDgBg/oqGlQaUe6YGImiNJiM30M3Az+Gmx/ggMkfrLnVtcz5LkInv+E0ffo5XRdvrfCjsCavShMXm8OUHpnwWqhxX6U2dpHmG/4qeMDz9o47fMafaa8dqoxrpX2++ui1E4uNwL8U02HSWRG8rsZtH0FaC29yNxaoaVDSsFZwbrVYjvKUtQYu48eMHPZZOQFbEvRX4WlJf8MiuTTvz8bEhExpaRPIEOaggg9AI2njVid0wC2OEuSbCeImpAWHBJ51+6/5X7r/AJX7r/lfuv8Alfuv+V+6/wCV+6/5X7r/AJX7r/lfuv8Alfuv+V+6/wCV+6/5X7r/AJThyJJJBk9+i89wM+F4A2hSKNDIXfwaEsAAMj0iIqeKXSOdYmzCsJ8grmR0ZcvaOO3zGn2mvHaqMaM9xNKls2r91/yv3X/K/df8r91/yv3X/K/df8r91/yv3X/K/df8r91/yv3X/K/df8r91/ymLvP8pC14CFsciKwu4UE0MrEE6XUvpGswEL5RvGGoiiLRIfquFqZfMk17wP4ThTmXAeAWwMuays+g9VviE/UQ9vz6ItXHYAJX4qS6ShylZyANt20Tc9HABTL0yi2Ncsd3DBwVOW1GELe8AZ5UgEZNdfZOO3zGn2mvHavwJdhYOb4IO9CGAADIPSJVEqBZ9VPXZgAA8L+/4ThTiSA7ed1OyLjckFi+MvUcJKdLPo2MmVub2Exhg15p2rzTtXmnavNO1eadq807V5p2rzTtXmnavNO1eadq807V5p2rzTtTwMBNAcGH3qNwkEDeLn8H52hNZjQ2OIHKDl60uGHDNdeYOe0xrmtl5x4kufsnHb5jT7TXjtWwYewQNRzrzTtXmnavNO1eadq807V5p2rzTtXmnavNO1eadq807V5p2rzTtSBKZ4ZUkMONYaAPEZ7UERSjQT39OCjgSDZhJ9WxxkPLlx0Pw7xRoGEnyD8NjqMB2APwko7ndQkAJEZE9Cgjv00NVwCg7cUODbkHWdiqcgnwMXn7/hNH3qN+OJTvOg+W1roS3ewjRMAAIAyKk1qTWpNak1qTWpNaNoL5Mu4gc6KokJiabbCYyeA8xXsjjt8xp9prx2qjGunfb7yViJLeWX2nLZDnLRbxG9dHdRh6J7DMwOb3faClVlVXFc6VoeGaYPuoG4smcIX5n8NWRSNkX+TpNIndTknbTdss0ESt6S+BwycqVs8Ypxga3voQFF5AsorvixzaAM3GJ1P+BlsFMTj5OLxcDe0M4MuAEB7/AITR92iYxEMgSvwU2Db7kLY5EHLbcXGQMsS46ezEiRIkSJEqSmHjBKsrBtJSB2uNh+TQGglxMz2Djt8xp9prx2qjGulfb77S3IkuI81fhOwwOmYBgjSlgAT9+V1vJOFAn6Z6RNIgvEZ1aHhEgzF6vD5FZhoMAZBkGmxJeKQ3KNw6u6ggt+Gk0wgTBsFgmSZPJ3NotAE0TZA4g0tIk0W1FiAg3bMYKeWqMisaGFkO60GR76xjTYehkCYTun3aNh8Y8ZXfwTn+AY0tyynHBHnJ7Bx2+Y0+0147VRjUWSYbitk6++AhwpLDp8qzDP68MNhaCzqUlylb07Q7wg3h87vwOlENXhAPxUkioGmiEbhyG56UB54Wob3f4mnQTil6lbh80AXMIj5iKx/PWAafs4UExTx21xF99YpHnxznfXVywL+7RypZDsM799G0FqKioqKioqKioqPRZ/MDwxzXsDjt8xp9prx2rZKRULcK79HKpK6+S4a/ePvoCGnBgsgm8dR8UxBt7nK5zKSDGIy61ci5oXoOTad+Ao0IXkT7LwI41CgggGgGH5CTUSLoJ+6hA6iT6oIAgMjCgj31ipOfHOZ9dXLAv71EJGjoEvQpybeThKQ5EHLafyPCWAI7x8V452rxztXjnavHO1eOdq8c7V452rxztXjnanlwA0EiRizeklHEVRtftAiZuw5posAwGCNx9Zx2+Y0+0147VtkIqFuFd+jlUldfJcNfvH8CCuhN/an5W1N9FQn+MWKk5+c4F9dXLA2AqAXcKUBvaAIZO73KNo80WOd+CPQsDyyNx1Xw9pJIq0aJoeIS57TEnCs+ZlZdb5escdvmNPtNeO1bHLgBvmidTM2SG1C3Cu/RyqUuvkuGv3/OzFSc9OcC+urlgbAVAJXCj0uJ5C6DLjh4TR9ujlVs82Da30IctqsgDYqsB80TRDSZwu5pfbuMmKY5X4RokMbbA8HeZ8p9Y47fMafaa8dqoxqe74MwwmSVfgeCdkmZlsktqFuFd+jlUvNfJcNfv+bwqTnpzgX11csDYCoBK4UelxPIXQZccAgivCaPt0RMKzQJfqmam6uamNtvEspb9z3G/AIgQ9GjITf5KB5kPPbODLAZys5pKIoIbNEj8eo47fMafaa8dqoxrpX21j3eHAJklX4HCjskzMtklNQtwrv0cql5r5Lhr9/xbHiDm1I40f8Aetw6kelT7cxUnPTnCvrq5YGwFQCVo9LieQugy44BBs8Jo+3RsKlMYwu9A5+gsQA/J8p9wkkVabOoLW/sNpiVcNCRvFz+R8eo47fMafaa8dqoxrpX27MeTQ4BMkpwF2FHZDMy4bJKahbhXfo5VLzXyXDX7x9xQJmmwBkN+JpuNMSfug7hgkj+QtTZMdvBmmO6kEnBkRvxPmmdl8UlebUGhR8uwazmUYscVgm495ppZ5hOKaby3tbztzhX11csDYCsBK0elhM7hdBlxwLG3wmj7VFwqNlkgYYj1HLa2wIGasBQ9lyGcZXNPu2qR1YWPymiQxts5xhd8fK+B6jjt8xp9prx2qjGulfbtx5NDgEySnAXYUdkmZlw2SQ1C3Cu/RyqXkvkuGv37IIglEAatWm3M0m4X6TjS4tpbhAVBMwfFQOR8UCIsnB4mD8UG/BsjvwXlHChX3MwP/d34xh7gLzYRv8AQvpSYXUJU4q57DLHkK/BW6ipnzFYKZmJpsQnE/VTM1HGmCIgFsab50bexJzW5zvrq5YGwFYLtHFsBc7hdBlxwMPR4TR9qikcMs5CalZOd6V+9uZsSltL5e8H0wGaIT4alwv9zBs8yHbOnD4zBucyTnUOAQzCR+H0nHb5jT7TXjtVGNdK+30Y4mhwCZJTgLsKOyTM7bJI6hbhXfo5VL2XyHDX79YJiVEAGK1ENJYKM36meLtRhnRvqUJJupPU2nTCnbOpoMn5ooEcseCZJgn4h0ASN2HDN3DScUoSpddjPkysHVZny7qHgpFoXi4vNqLU8DFuMwL/ADWXqYEcBOiWdzsZBbE1kxOWG8KDYEOaJPVvL3Od9dXLA2ArBdo4tgLncLoMuOBh6fCaPtUbEpEDf/Qhz9Fq8DvN+U+8SSrO89DdPyvhtMSr8YSY5n8o9I47fMafaa8dqoxrpX2+nFE0OATJKcBdhR2SZmXDZJHULcK79HKpWStxHDX79SQZDV5IOZ0HXYCfhMqo2WE339Iz7226iODo4ORTEyYgkaaISRhPwvR31E/M0yyadTZvLIWyY4LcYoZJ/DuseDhnwH52EGiismNusrwNaEEehrtQZExKYtlvvy45O8djgE5svpGFTU1NTUnN7nO+urlgbAVgxq3bAXO4XQZccD1eE0fZouDRodOxO6W1Qp592rz7tRtNIBjPxRzQ7x41zT77q4REoLE5n4pNxfPSvPu1efdqiyeEwzRMyHx6CqCpAEq1ePdq8+7V592o1CgKSt19prx2qjGulfb6hElkOATJKeBdhf8AEmZlw2SR1C3CO/RyqVsrcRw1+6mpqaWKVCVz5WD4J57CQFkxfcb8XCKCCPRZGDEuBm0wPJypGyETEcykqmGyDI/NQwwnGSlz5n8JsUjEgPAWwKCbNYYdPUCS0nUIH3sc8eTxhvXh/evD+9eH96U8frsBWC7UcSwLncLoMuOHr8Jo/wAnRa8dqoxrpX2+sxJZDgEySngXYUdkmZls5i8njDevD+9eH968P70v4vXY2NjOaHeiCAxMgQfXpxKPBChlE+y7EOmD4DT7/CcKNSITwVsQydwiN+h6o7bnGgAPt2Wzak1PmpNT5qTU+ak1PmiFAuuAVHEYBfIXQZccI9jwmj/J0WvHaqMa6V9vsGIvw4BMkpUN+ijskzMqk1PmpNT5qTU+ak1PmpNT52G5h8cHtS7SZDMb+nBSLzzAY9Z2CxEbwmdvw1QQOQnq2DZpGWwCPg6hrQyT6BDAlTAG+oBLE1m6lXhGzAB1kRhSS0p+K8L7V4X2rwvtXhfakmiBKjBGMaj2fCaP8nRa8dqoxrpX2+zG0AMR1hzrwvtXhfavC+1eF9qUZXnlQcI77SlfCbD4pGN/8K3E9MEuE7iYHF6TTZmQzTK/LQKgFWAZtSuQU75PUv4Yq1b1JfkScYoKAiMIkI04JQhCJglHnYs/Ef8AB3UfYUgZE3NTQTrkMObWJzqEOhianF4Y1GX4dNV3BK8KEKxTcxXesvP3/CaP8nRa8dqoxrpX2+/cIQQGGv8Ablsw2MuEYhmNQHDaCW9l4X1KGd1TSdUlq6aYj9UJU5gZ4jNf8NkngypbF+cl3FBB+GJIp3trMrzDRzMsddou8ldaTpU+kagfmke1wXhwGxy2J7UClTgBm07WzTv/AKmfx+B4TR/k6LXjtVGNdK+333/TwhMaXMQW8TpDrjsFERRGRMSiQrAYnwadI1mQ+QNYyBlTiuzEkd+KTIOtWt1zLrFdjID8WQbFPs5siamvpwptM9n4DA8nbhjbjRcTPu8x4E1FZDeFqmRxb8KAMPwHewE6O2wX4k84vr+RcKx3EPnsfE3VX7/gDrKCWf8AHflSsr7OG4Mul408BITDk7RCSqwLrypIJuxA+XmwUOMW99ql2wMvx0khrFgEROTTVMz9BQVdCNGP7qKAYOLnKgwAFgCxUR+Cxpd7vgdFsF0RJzWHoPj+RH0N53Fj5ikRlyb1loQMpBqtihO/wQ7fgocSstRgceE4UuCToXxNTxuqD7qNTWV6l+tQTMX/AI+EuABeFusvLYVypiz7cwWjCnBwQkf49YJq6swBxVh4j42ETkUsXT5g50TF/wCilTYVgGyUZTfXPxdneOwpF1tnxWgtzfbOhEk/jpSuBO4ju5FYTPTAZDcEBssRkhLj3JeEf0dYRG6/eMTfxpGyIUQjomyF8BN0ZGZP21oskQgGomP8WoY0qb2NObo3vWnhoJOTnc4uw4Eh0gOvQTuoHZ4CADAP6OkkNS1/IbnM+OKIEDCJCOyQhM/KytzIaC5WcwfDWgi3p2E15Z2ryztXlnavLO1eWdq8s7V5Z2ryztXlnavLO1eWdq8s7V5Z2ryztXlnavLO1eWdq8s7V5Z2ryztXlnavLO1eWdq8s7V5Z2ryztXlnavLO1eWdq8s7V5Z2ryztXlnavLO1eWdq8s7V5Z2ryztSBMm4/wpTpixuanpQUWacHx4cimUXKyNVcdheXSBb7rI7VDet1urFM1/pKSRSJvum43TPcvxq5Sv3gLP3/GoAUQASruKLq1lLfDLvb7q4qx26rmur/S29G++A04jT1beH/kcmm1yeK+JE61FnfRPQkSJFinDeVgAMvLbhs/EBlKoemRIkSHXvqRQxLbI36gwTGbOXpkSJEhyqAgWQJhbBNjVYQmMMOKOJ6ZEiRIZeoAoJJgpsZHrQRDEump6JEiQdGyQoNwy8togZinQEqHoESJAzFYbINzsuUmoo0Z4zw0o4AC915sOUVB/UIKg0q1FftrrKBmv/adO9S4Q1XNz2WMAE4x1dDOsXAOO6Zv1hUFQaVBpUGleL1oxo/Iog0qDSoNKFvQwAQaVBpUGlQbSh5eVINKg0qDSkOVPYVxXMfUZ4l8dlo2Brlfoc+OIiZTUGlQaf1Y51tdZAM1/wC1djVKdIarm57LGACcS6uhnWLgnHdM36w9Xi9aMa6x6DB62ADLaV4nT0kONPZVxXMfUZ4l8dm7Oa5X6HPjiMm/+XkM6wxOSgdFwc2noNkunkO9GIGgB+ZoQNmKPIPuoeC5bHzY8pqRz/JOZaXWQDNf+1cjdKdIarm57LGACcY6uhnWLgnHZM36w9fi9aMa6x6DB62ADLaV4nT1EYqw1XF8x9RniXx2TsnNcr9DnhjiMm/8kHcSWDetHAPP/aOQ0l05K9AoA10NdZpmGtYHjEPShytjLjcmI8fxxvdPQAZrkUjkqWw6l9LcfS4IpRCtRypVKRRPat+JvoHriEgcEcz8c5lpcZQM391cjVKdIarm57LGACcY6uhnWLinHZM36y9jxetGNdY9Bg9bABltK8Tp6yHGsNFxfMfUZ4l8dk7JTXK/Q58cRk3/AI4uxWTG9Op8U3YTPwV3N/ToZIk7kwTc0iUTBbsP0UIkn4izXIQAXVoWcRg6UNXLQ57FB9CyUPTSYEeMQHy1hl3gdKY9QJIDjx5LT1WgEI6Jsf8AMRv77LR4/jYc3XGQDN+savRulwBqubnssYAJxjq6GdYu68dkzfrA9nxetGNdY9Bg9bABltK8Tp7BBrfoF8x9RniXx2TslNcr9DnxxGTf+Ld72lu2B9ugNMCnlkGQMgwDY6PKH+SrcsaOJ2L48w+qvl3KWnnQWAs2L7cxsC6pKFGCOVTcBBlmwHHB38fxJApOYncKHzsx5WmAzWgF2iYHIF/toNqSRUiVQkAOvp2U+F0CFFkacsoBiJglGpJQDK18sef4mHN1xlAzfrGr0bpcAarm57LGACcY6uhnWPuvHZM36w9maYgRMc40Y11j0GD1sAGW0oIJJJyd3skmt+gXzH1GeJfHZPyU1yv0OfHEZPw5q+GcwwBK5EHzsamwNopwTVzcjlUCIzQHmu0OwIRJE0aOjoCWbhvDaMnc2pwFiNyHLHiUYYEiZmv4d4gY0Un9PjYDtnLlEo4sHpODV7uQC00fO7m7Cg/auxEpc4Piv3FH7ij9xR+4o/cUfuKP3FH7ij9xR+4o/cUfuKP3FH7ij9xR+4o/cUfuKFhOp/qrsapcAarm57LGACcY6uhnWPvvHZM36w9maMmN7vOnW5ccFUqqrKrjslBRhklJJwT0YPWwAOFLk9ctGDDnDsPuqBkdkMntR/LJG2aDJPZSa36BfMfUZ4l8dkXatygmkprnnX7ij9xR+4o/cUfuKP3FH7ij9xR+4o/cUfuKP3FH7ij9xR+4o/cUfuKP3FDFZXj/AKpVFb3VL3rlNF2KDRqJcMOXpKwknNENIrM/1Bs8yGsbVdOC729v4WBpEKUhsLbZ5p6i25E3BK/R+PYwATjHV0M6x9947Jm/WHtGSG92d9Oty44KpVVWVdkjI+GND105miwejB7DABKiMG3dO2dT6RkLhXcy2H3lA6OyGT2ofFkjbNBknspJW/QK5j6jPEvj+NhJ1wImixHpcK/0EjJsRFbBPwyKE3pSB6rZfaRORPzD0uFFQZhMo4PgeexBfiQoUCB0/EhQoUKFChQoUKFChQoUKFChBLETgM0IS7qx9947JmvTD2jBDe7O+nW5ccFUqqrKrskZH5YHrpzNFj04PZYAJURg27p2zqfCMhcK7mWw+8oHR2Qye1D4skbZoMk9lJIq9Qy1Tuhh1MHHj+HChQoUKFChQoUKFChQoUKFCRKIDsOByRhoFbSeIwoKybuhZyZPS0qAEquBSjK4nT2A2KUozHfJ0j8OYjJYyaXwuNgsBQnExjeYnCp3uF+9EzMvQVhRC7iG7VyKnXNvDkbjA4Vxwq8/gpcshyB8/nGSm92eM63LjgqqqqsquyRkflgeunM0YerB7TABKiwNu6ds6nwjIXCu5lsPqqB0dkMntQ+rJG2aDJPzUmr6rkC11nKXybH4pV7rFOWpk8aGQdqwTR5JUcTEdxaMi+mwv1KbhxeAS8qinEdAg+vw5WTbg5m8xOFFqq7OzYHlmTYWZk3u8jJ3nWv0I01z5K5z4n4o4MWBg35nSmDEgmw6DANi34bOGIHHPdxqwEcvzRJbFdnjOty44Kqqqt1XZMyPywPXTmaMPXg9tgAlVYG3dO2dSwRkLhXcy2H1VAyOyGT2ofQrjbNBkn5ssSFbDidzqFJhUBCjETXZHHpAy0zDc/NMmd7VzkUjQtXPQKlCkKEO4txXac+KXKcVXF2PUwJXfHdcm7j+K4S8Tl3SzKRumqHXM4YnqiZMtXA/8DOivEgMVZpmub+aJLWLs8Z1uXHBVVVVuq7N0OZyHrpzNHsYPcYAJV2Bt3TtnUsEZC4V3Mth9VQOjshk9qPUK48UGSfmwgpNveZy38HPWmavKEaI+mJsZ0ys0KjRTluYvCjIABYg/Gx+pyidTR3lPZncNDgbnMaWcst5SPSoYl3gPmalQmXk+RotCvhTvMeZ5UF24cDQDD8xwoSWsXZ3063Ljgqqqq3V2boczkPXTmaj2cHusAEi7A27p2zqWCMheUxMtk/2EOjshk9qPUK48UGSfmx5QI+P8xuZKyOh+yJXSlcKzA6NEFjmB6tPmb56ezrS/wDDGJfB9t9CD8qPyTM/JQN64VbnZhS+L4mmOjJXoFD4OKfbWp3ABys/dQgvB3AOZRktQuya063Ljgqqqq3V2bocziD105mo9rB7zABcXLFu6ds6nkjIXlMTLYfdhDo7IZPajVlxWBiGSVbu8hEdH/Zp700ovgH3WJfQB3oOZmIHwPWpydJ+VFf4oZJ/Iio/lZupAu/2NWmjxZWnLzd7f0lgSBIHEpVVVVurns3QZnEHrpzNQe3g99gAuLHwXTtnU8kZC8piZbITWSxBhAx9KSLl5GolyhSFh1kcjc/bWiNBRIjMn9MU9vgN0wN62qTUbDuG4P8Auxn/ALg0WKDMGKocw+qm0OgUfhrHlgqBriH1v2x1ofmXeqotvmoDL2lgpxyOUv8Ai4Lu6pEZhld+N8lJj+VEb1u7HiGMyp8VbpQCcO0G/BeUcKGY1xJw3O59vR8KVDC9s8KJBBUhCmTGWzBXRMg1XAN7UgPvNDiyH3UhFyzDo0IjJWUDe7vKaRSIiMI5OyOIhn3ti/vmNKGSf6UsE1beohxK08NhE8FKYmA3stLuVDqOz6rm73ahGxQgbLoBoZbznrsa5jAd2nEkrec5BEj8PsrBUTM3Hxs3LjgiIqZVZV12TeJvQRIQ322iUPBH/Noe1JMt1cQGSe0o4ew51jnsAyhpYs8VuOrBR8wQSTqDtgVBpsgcqcmIWAMROlzwaccI3NMsFDiDI1AyJpZNhyR/pUJThnT7yg8JR0iuOFHqQy5oyHKB6RNvIJEbJUXTKvzXYTYCOWbusdE9mIQQW4vyr8YpyylRKrm7CveJwNX9C/Ch5pkKuKlfmkjLkk6lC5a4IT8KcIaSFiTLdQvsxNidAzW2FyWzud1DPszGyZ6BT1XZeWhRg8AcZOR6RJSSZoMBVCci89iNTCOn+pfP9KwDDnyolCcaAbODjWGXHBB6njEriufQbEOwR+xrFSKRFlO71DlsBLE9bGVqWc3dQQegWRFncsB31JrdI4QMNOEVfNAa3zzgefs4jqb51nQxnHNlevqObEzgP+thM0Tn/SgLyBDzoqkbjlIdqSRNaOYsiZWz5J5+laPQIbBG7mi7AGhL3kw9g5caduZPz1hfSgQDvTdPX0txpcIRwxEp6NjBbA7ofZENByAnc7IUNU0mT4U5elYJaOMLE53QIbAYsy4i/T+lCRCoX8c5Asfp57IHism2HLesOkDRQQJEuJtwKKargrpi9FyOeWxkJCZpBUV0jawRPNv7DWKg7kyklGpTsT8uAep6ku+Eqvo2Qmszk3v7OP3SGAlbxIcjZEWxfG6wNcXyUGXLMg5m1YL0VQ2RfWbmK8qVgXEkZWuBO4qVQPyKcrHL+liiWmZBg7nB47qSjEmEMR2FqZQA6XBk4U7ZiWD5KkDeouoUf4stpNzY5rwp6xpwHNdhJcISsZt2Dm6ey0llYKshl6ybCNDGYom3EfkoZJPQvdOBAStTVF2ZFh8BsmbFjjCx0B5+zkCCF3iDeMNWFCSYZW4S+xeO6Et1M1vOY0aZXfB3PkqH26stAqDYDiAsvNKxqyHLIDADQ2NHjwLBc3gxeRQQf0vGnFiC2EYJk6cjuZf8Rif837Z2iF8B7lJ/1etGzQAgAsAae1d+Ewupx5r8F2Lw05OomYlkpBjmaLq8nUzqCxUlBFiRg5tOVXpkkwtlu4uewkEJTyOx1SjrliyCA+D2hbQzAT3C6YlCm103DkE9SgElSOKY9BvrJHegO7v/AKakkVP9Cz8AucMKyWWCPdBD8FNQpkt+Go+bqQ+VoW5y+js61eDsEItcE43d9AGHtntVCkDZHdWvlLT8IczebEJEDIjCNW8gBYnFv1rhAAnqtFizBPwMByNhH/TJGAFMSEG6BiB0M3N4HuZGKi61HEd5UZQ3AkNxe+SmhLQW8pHpUKEuoDq1OksRI+Sr6ggmH35rwo8QIAQBoH9RQWahp78RABSG+gSu03IWXrxpW6wgjeN9uU5UZmSPldY8CWiiENEBcQ5N+L0oALe9BUKw/siTUa+YJo4Yj5pXJMlQ5BqUHaIfVE5NIx/FnSh6GgEAbj/xH//EABQRAQAAAAAAAAAAAAAAAAAAALD/2gAIAQIBAT8AcE//xAAdEQADAAMBAQEBAAAAAAAAAAAAAREQMFAgQIBg/9oACAEDAQE/APyTMz3Nk5aH6uheEPjIeUPch5Q+Mh5Q/K2ofHvh82E+GfbCbqX4p9lLsQ8rEIQhCEIQnub4QhCEIQhCDyh6kPKxSlKUpSlL7Q91KUpSlKUpR5Q9kJ8aH6Q/jhN1L8aH6Q/jpeEh+kPnz5pyL814yH0oQnNhN1Lh8ylw9SH5hCcWEw8oet5Qy5fFoh5Q9aIT2+PCbqXnUv0r65/KzpTeh8t5Q9SHz3lD3IehcZD3XmXN6j4S+1/NCch+oTdS8l+aXYh5WITjQhB5Q9SHlYpeNSlHlD2QnOhN1LqXEpfpQ/pfGnzTkX5rzLlD9IfChCbr4Q/SH4W+EJtpcP4UP0h+VupcPUh+YQhCEIQhND3whCEIQhCDyh6kPKGUpSlKUpfopSlKUpSiHlD1ohMPmQm6l51L9cxdU03kIeUPysUvpDyh8ZDyh7kPKHy38b49Li+liE93N6VKX8q//9k=;container=0;" vertex="1" parent="1">
          <mxGeometry x="-1140" y="-680" width="110" height="110" as="geometry" />
        </mxCell>
        <mxCell id="bc7KVerA1UK6MyxtnoFU-86" value="" style="endArrow=none;dashed=1;html=1;rounded=0;sketch=1;hachureGap=4;jiggle=2;curveFitting=1;fontFamily=Architects Daughter;fontSource=https%3A%2F%2Ffonts.googleapis.com%2Fcss%3Ffamily%3DArchitects%2BDaughter;fontSize=16;strokeWidth=3;" edge="1" parent="1">
          <mxGeometry width="50" height="50" relative="1" as="geometry">
            <mxPoint x="-1220" y="-345" as="sourcePoint" />
            <mxPoint x="-1085" y="-500" as="targetPoint" />
            <Array as="points">
              <mxPoint x="-1085" y="-345" />
            </Array>
          </mxGeometry>
        </mxCell>
        <mxCell id="bc7KVerA1UK6MyxtnoFU-88" value="" style="endArrow=none;dashed=1;html=1;dashPattern=1 3;strokeWidth=4;rounded=0;sketch=1;hachureGap=4;jiggle=2;curveFitting=1;fontFamily=Architects Daughter;fontSource=https%3A%2F%2Ffonts.googleapis.com%2Fcss%3Ffamily%3DArchitects%2BDaughter;fontSize=16;" edge="1" parent="1">
          <mxGeometry width="50" height="50" relative="1" as="geometry">
            <mxPoint x="-990" y="-600" as="sourcePoint" />
            <mxPoint x="-560" y="-600" as="targetPoint" />
          </mxGeometry>
        </mxCell>
        <mxCell id="bc7KVerA1UK6MyxtnoFU-89" value="" style="shape=image;imageAspect=0;aspect=fixed;verticalLabelPosition=bottom;verticalAlign=top;sketch=1;hachureGap=4;jiggle=2;curveFitting=1;fontFamily=Architects Daughter;fontSource=https%3A%2F%2Ffonts.googleapis.com%2Fcss%3Ffamily%3DArchitects%2BDaughter;fontSize=20;image=data:image/png,iVBORw0KGgoAAAANSUhEUgAAASAAAAEgCAYAAAAUg66AAAAABGdBTUEAALGPC/xhBQAAACBjSFJNAAB6JgAAgIQAAPoAAACA6AAAdTAAAOpgAAA6mAAAF3CculE8AAAACXBIWXMAAAsTAAALEwEAmpwYAAABWWlUWHRYTUw6Y29tLmFkb2JlLnhtcAAAAAAAPHg6eG1wbWV0YSB4bWxuczp4PSJhZG9iZTpuczptZXRhLyIgeDp4bXB0az0iWE1QIENvcmUgNS40LjAiPgogICA8cmRmOlJERiB4bWxuczpyZGY9Imh0dHA6Ly93d3cudzMub3JnLzE5OTkvMDIvMjItcmRmLXN5bnRheC1ucyMiPgogICAgICA8cmRmOkRlc2NyaXB0aW9uIHJkZjphYm91dD0iIgogICAgICAgICAgICB4bWxuczp0aWZmPSJodHRwOi8vbnMuYWRvYmUuY29tL3RpZmYvMS4wLyI+CiAgICAgICAgIDx0aWZmOk9yaWVudGF0aW9uPjE8L3RpZmY6T3JpZW50YXRpb24+CiAgICAgIDwvcmRmOkRlc2NyaXB0aW9uPgogICA8L3JkZjpSREY+CjwveDp4bXBtZXRhPgpMwidZAABAAElEQVR4Ae2dB5gdV3n3jyxbvazKSlqttqkXq9uy3LsxGGOKaTYJtjGBkAYhISHfx0PyBL58kJACCQY+AyGATTAOLmDZxkUucpNkVUtWX21R7724fL//zF757uzM7L2re+de3fu+z969c6edM/+Z85+3nXO6vY04E0PAEDAECoDAWQUo04o0BAwBQ8BDwAjIHgRDwBAoGAJGQAWD3go2BAwBIyB7BgwBQ6BgCBgBFQx6K9gQMASMgOwZMAQMgYIhYARUMOitYEPAEDACsmfAEDAECoaAEVDBoLeCDQFDwAjIngFDwBAoGAJGQAWD3go2BAwBIyB7BgwBQ6BgCBgBFQx6K9gQMASMgOwZMAQMgYIhYARUMOitYEPAEDACsmfAEDAECoaAEVDBoLeCDQFDwAjIngFDwBAoGAJGQAWD3go2BAwBIyB7BgwBQ6BgCBgBFQx6K9gQMASMgOwZMAQMgYIhYARUMOitYEPAEDACsmfAEDAECoaAEVDBoLeCDQFDwAjIngFDwBAoGAJGQAWD3go2BAwBIyB7BgwBQ6BgCBgBFQx6K9gQMASMgOwZMAQMgYIhYARUMOitYEPAEDACsmfAEDAECoaAEVDBoLeCDQFD4GyDIHcIvM2p3nzLubdZeIuPlvWtj2v71rZu/OwG9Yv9u/HjLC2nfXdnWetNDIFSR8AI6DTusHjlLUhGRKPPgWPObT/k3K4jfB90bvM+57bw+8AJ5w7y2X/SuaN8enV3rn8P/9PvHOeq+jlXP5Dv/s5V9nVuGN8Dezl3DvuJnIyQTuMm2aFFjYARUBduz5swz5tvOnfoOCSz17k1u5xb2Orcou3OrYd4tkBEDqKRwC+uJ9pMd445O02r4XCnzwnWcxpfuBsinokQ0HmVzp1f7dzkYc7VVTg3qHcbGUltMjEESgSBbm8jJXIteb0MgSQt5xjEsmG3cy9sdm7eBudegXy2o/H0ZQcUGXe2NBaZVF2oTcp0O8m5DvOBy9wAiOcSyOiaeucua3BuzBA0p56+yWZmWhdAtkOKCgEjoE5uR4p49h11bgGk8+vVzj3X4ty2wxABGg1c4JlJnZymy5vlPzoh844zDOvj3KVoRTeM98loxABWst2IqMvw2oEFRsAIKOYGSOPZBdE8s9G5e1ei9WyBbNCAzpGWA/kkLSKj49TpbEy1OVXO3TTJuavHOTdKRFSA+iR9/VZe6SFgBBRxTw/ix3l2k3PfX4RvZyuEg8NGplUxtHN4yDMHu0NEs4Y795Fpzr1rgu8nirgcW20IFCUCRkCB23ISolmFM/knrzr30Fo0DjzExUI8garK+vJC/BXYgZfXO/exWc7NrS2Mdhasm/02BDJBwAgoDaW9+HkeXuXcXa8417rfdyR3xb8iYvDyfvjyQvT+T48wvDwg1ChpUnJUe/k//NCyp121beNnVqLj6zHFbprq3Mchokr8RSaGQLEjYATEHRJhbCSa9cOFzt0HAR3Hz5Otj0dEkwqpy0fTk89IcnrqIIUhRLL6EI/vzacHuT3Sso6+4ecE7YH0Wgh3teBrOkS5b/HhUNcTRvHyf7J5griQCvKLLm9w7vYLnZs+IpuDbV9DIHkEyp6ATkAGi5qc+7cXCKm3oLHQiDMlH5HOEfbfj9YyCrKZPdS5GTR6NfyGQX5OT18IoQeMIse1kgpTogTGN0RaIiNIZz8+pyYSF1dg/i3Z5tyrO517HWIazPa+kFamddL5RV7TCd1/4gLn3jsRzcpTrVIl27chUDwIlDUBSQt5dp1z33jeudVoQD1EEhncG4XFd/HpiWbz7mrnrkPjmFtDJjPaTl/8MZ7mkjoXjT+u/Uv7kgqm71S3DRHSVuLuS1ude3SDc4/wvZOM6ipO1BMy6kx0Lu02lvrcOgeTbKZPgJ0dZ9sNgaQRKFsCOkTXiMdfd+5fFpDJjObRB8KIIwrdmJOQTiufOjKVbyHq9H60i3FoPX0gHSUgSsPp7ByZ3mBpYtKSjlBPJT7+DqL8/mrnNu2BiChH3TlENJ1JHZrZR2c798nzfDOws/1tuyGQJAJlSUDqlzXvNef+CbOrEU2jM/IRGezAFKok1fnOKc59YDLaBRnJPfDpiHjyLTL1pBU10e3jUSJzX1/u3B6WazDtVH4cEWlbFZraR2Y49xn8QvJFmRgCxYJA2RHQERryE2gS/wez63U0nwo0iTit5TDEs5N9bhvj3KfRJKaPxAxKiHiCD4mI8AhpAevwD/1kiXPf5joqMCMrIKI44RLcMLS0O/EJ3Y5JlokZF3c+22YI5AqBsiKg47TEZ9EgvvEcWc34fIbFkI/8MS3sPx1n8p+dT/cHzK2BhLbVQ73QIuf1HqJmL25y7ksvOrcWx3Udzu44Z7PIq5r6/9HF5AuhDZ1dBNdRaByt/MIjUDYERPtzL9Ngv/kMCYZbiFrJXxOh+iicvoXPx+tosJgts0fhcylC00X+IZHPd15x7kdoQzWQipImo0Q+rDEDIa0rIdRJUXvZekMgOQTKhoDW7HDuu89htqxxrpZGqgTAMDlKIz1GQ/7MZOf+YC77Di7uCJK0oS2Ykvcude6vXyL3iIuSiQV/hsoR9p9LmsDX3u3cuXxHwBB6rK00BHKNQMz7MtdFFe58GiRs3krnfrzBD2VHkc8hGufZmDJ/Ocu5P73UudFEuJS/U8wiJ3QNJKko112XQ0b4g45hOkYRS2/2f3YbSZeQ1Q7yjKKIqpiv2epWOggUefM6faCP0hhfWO/cfxH16obDVkl6YSLyGYCj9guQz6dx1lZjqkQ14rDjC7lO9dTQHDdPxzl9BTlEmIvyd4WJ9h3Av5/gC7t/uT++Udh+ts4QSAKBiOaYRNHJlLF6q3P/g/az5ABZxZgmQVGDPAb5dKPR3kk/qlvRJDQkaldE2gSnKpgMJU3gBtIE7sLRvIU7q/B9mEgD7AUZ30UkTcmOUfuFHWvrDIFcItBJADeXRSV/rp1H/KjXz3A6V0dQrRyzuyGmvyLKdQvkMyJL8tlLWHwDYfGt+GEOHvUbc79e5AyhkYwb5tzwvsle9xDK++A05zSA2pdxTtfBimHOdiUyrqTD7c8hobFDnRN5iYxNDIEkEShZApI28mqjP6RGb972YeFz9Uxv4fOHdWQLQz51hNwzFRHXwib6j21Au4Lg1qJh7SHH6A3ONwBUx9CgZw5nXOfRDB5WT64OpJSUDKPsW8lZ2ggp/ohsbyUshomiZv+BeXpFg3M3not5GrFf2LG2zhDIBQIl+8g17kX7oXE9TdeFugjtZzN+khshiQ/OcG4KEaFMRcmM81Y5999Enu4jDN6N34NQH/BfewIXudf4d/82565qpssGZuBlEyijCid3QmrGqAqIdS714Po3oaGFJR+qz1pfQvk/WgZR1kJUEHCUg77t0uzLEMgpAhFNM6dlFORkK2j4j6GhSKkJM0GOQD5jMVc+MMW5i9BSMuUFDaWhPmTKpL4f/0kNmlAdND4AbUJmjT79+FSzrpaTvriLiNpCUgCeZayh5YwlTeQpCdH1iFT/4gIiXTjXlVgZJkOp6zw0uOc20TMfTdHEEEgSgZIkIA1rsbDRucU09gEhVyjTawct9EP1mB9oJpn2j1IjXoM28S8vM/0OZXiJfzHMJW1iOEQ0CtL6AdrYlyGhn7xAQuRmulSgNeVbNPbQlePwbY33xyoKK0/k3Jv63UOUcMchC8uHYWTr8odASPPMX2FJnXl5i3Pz+VRAGGHazzYa3DVDGNAdx3PD4MxrJQ3hIUwv5dEoohbDPe1OqlydeohoB2bZXy927lvznXsQ800926liXqWiN/6gmeQ0oQqKeMOkkrrNQ5t7pcnC8mH42Lr8IVByBKTI1wrI53kae5j2oz5RxyGP94zGSYzfI1OR9qMxeX61zh8OI2P2SRUAW6nTqLKw72tGK3mWZMAFmD5oRvuOpXbKz/e5+J5uJrM7qpuG5/dBI3uALPH9R/NTBzurIRCGQMkRkELiy9FQzsI3E+ZQbUX7uZ6w83n1hJ77hEESvk4EJNNuGcQWlR0tBUPT5ug7TLRedao/h1wjwvdfX+bcV5/Gl4RW9DrObA10lg+RKfbuSW1aUEQBVZDjzyHGZrQy+blMDIEkECgpAlL7XUvEaSERsOEh9pFI5C2u+Np65yagFWQjOnY32pXGbA4z60QuIqazezFdMw24MzLpAynIeT0f4rnzeTqUPscyzm35YfIhGr/oOvxBvSLuuEjK0cP+JUhIYw+ZGAJJIBDxOCZRdO7L2IJ2ot7hGzBpeoQQ0F6IYU4F4zbXoIH0zb58jd+sVOeQU3v+le5oNv/7fHrQ09DfIia/i/1l8kWJiKyBY6o553dXO/e5J9FCSB5c1pp7J7X8UNfgjK4iRyisSromEehDmzDDIFoTQyAJBEqKgDbtxpTh04cWFtRS1OgO8u9KNJ/6ytOAVicKETl4j9KKr5tC/s1lzv094e/LhxN2Z1/1sI84zFuvhi+zbPt+5/78RUyzp0ghwNmtqYHiCCykGrGrJnLdU7l+FK9QqUQLemIHyZmU65Ft6F620hDIHQIlRUCt+C/WYcJozvagKHNZmYIzGK+iamBwa2a/Q07b7sDjsIwsmSkQz0fmOPdFiOhLEJLmdN9J+cqSjhROXgkJ1XKC+xpJjnyCMaAXkM3dxLzw+ItyIZoW6OIGnOF8h1XF820dJcWA3KXjRPxMDIF8I1AyBKQ5tURAjTTWMPNrJ+bQlYPwu6AF9BZL5EGkdXl+Jlr3AMhOOTifupR+ZheS8DgKAqLcgxBRVDhcpOA5qTlWTuq/xzn9xced+zUh+0Y0u1xoJbOoR1X/8Iv3CJZKLMSPdowMaRNDIN8IlAwBKUSugbkO8OYOi36dpGHNhnyGDcg3pO3P34DP6cPnOfcnlzO06zS0I7QvfOSZOanRVJ7Dp3XbfEZy5PPSRo5FQxFRdVVGUX79UPw9sE3YefryRKjMQ3lODehq/e240kKgZAhIDuhWSKgfrcp7k6fdJ2klso3GD2aW0i44n9NO1aVFzTd2QS0Dwl8CCV1EDlA99ewJWaINeXWLOGu6k/oufEKfeoxxjXBSr8NPcwyi7Yr0xgE0fpg/E0jY8f2p61IyyEXontkatpOtMwRyhECUPzJHp0/uNHtpMDt4a/cKsg9V0Hg/rjfDlWKC9afhF0o0NIc6vo4b4dzE1f5cXwvR2rpTv54h9VY9xZ2ekxqzbBfO4c8vQENphoxm4c8ZjalH2D9bmQABVYDDviMdyVqakQPHPWx7A7PV8wtlW4DtbwhkiEDJEJBCxzvxm4RdkPwusyGgwRBANlMcZ4hh1rtNhYDq0MaUi/TYa3TtaCF3CNMKX3Vs/ZRJPQBGur+RbG/suL9A6/swhJbtUB+1ImII7W0wC4qXLQ0B7Tjsa0DAZmII5A2BsPaat8LydWKZCntpTAd4Y4ddEG3b1dG6NYNpsYic1NdPxBwa7twktCH1sF+Eo1mmlYaNjVCIfCc1vqFWyOc7L3O97PuJ87LTVAbBKgP5dEf7ipImtC2vd3wRYRZVV1t/5iLA43vmi+Z4PwTLHISAgvk/3tWhNdSQgFdMBJRCXZ1EPzkX0+pKfEMT/IHMUEA6zf9RB9KNaCkPrSBqhUmWjfSFwAYTCZM2KBOvg7Be/jSZYCaGQD4RCFMY8lleXs6tqWn0tlakK6g5pBrYUN74yoMpRpHGc0kDviGidFPWOPdbzLJXcTQroqeUguA1pa5hMMctxxSbzzHn1bBvhq8TjXwoDUiDowm7sAIOEIaPShdIlW/fhsDpIpDhI3u6xeT3eA2qrg6USgSMaqx9aHTFPhvocLS0j88mb+hatKGpmGdoKVJCxBFhonSDg5DURsiqOcacCh4rx7JISDc/RdDt9mk771tRBbfb2X4YAl1HoGQ0oJNtGpDXqkLw6MWVngkRHZHCdJzTDXQenYlWc/9SPzHwAImWweFcRbbafxf+LxHQGBzbmYpHQBFsrXPupzzTgDJF0/brKgJ61s540Zs6NbVMhzbV9orXoPRnnUFXKyf1jZOZJPFqxpNuoH8W1xiWM6RLkg/scJaZyx4eEXceqNxhzhmqHUUcY6sNga4gUBIakEyR1GBbajTtSEg/WClfR1gD7gpoSRyjumr86EWbmT6HvlnDYZqwDG/VRZpdttqdh0fEhQhDzaDaDseIfW21IXA6CJQEAXXnlX0OV6KQdJQckYkmh8oZIIfQZl6BeO5exJzvfFdBnho/SMQQFDa5gSQjVuIvylR0nuOYWFGEDFRuIBpYaEQx00JsP0MgAwRKgoBEPDIplLIiv0WHhsOrXINsFXtYWYSwDm3nvmXOfW8lOUH4djSlULco8mF/XXtNBT6jLPw/MlfV213kFaXlDCBi2AHHDB4o28UQyAaB0iAgWpEISCHroOM01cA0g2kxDzGh0RZ/t9a5/3wVp/N2+opR8f5cU5xoeI9xJFjOrPe7VsTtm75N88YfJNnIUwhTAKXvwLJ8UGeSzyxQfft5hiBQEgTUk7d1X8yQvtIU9FoPCo2smcS6w5BQsYnMwsUtmFpLnPvNBkgS80sdQiN44VT1NVCZ0gouqXfesB+nNmSwcIQydoNHZGdTzj0cYoszaTMoxnYxBDpFoDQIiAZbQYMZSIPcQ+MKhqtlmjWSNXysyAhoM6HzBzG17iebuZGuDyKdTJzJMtWOsPOH65372PnZDy+7H+1Hfec4TXjWAiRex7Ad8quZGAL5RKBkHrGBdDQdgtmwg4YV7L4kjWItjW4PJCQFiZ8FlcP4o55ezxQ/S5mksNUPo0dFuNIrKsKQ+dSd6/wU/chuv4Be9ZXpe2S2rCFXD0LUYeINActToaRImbUmhkA+ESgZAhoEAVVihtGmHYvtRCFlJettpeEpwiT/RqFEUwb9Gifz79YxgFobIWbi7JW/ZwefS+m8ettMptmBgIag9XVFXt/BUBxog2Fmntc1g24a6rBqJlhX0LVjskGgZAhoBCMdVtMg6STuggEhbwgOtI71u/F90OgLQUDSzOatop8XJpfyejQ3vQggjATSb6Cc6ppdQxrelyc799EZdNEY2nUHsXrba0Czw5wzTI6gIo4VmRPW96bqCdvJ1hkCOUKgZAhoOA1GA46pi4HCzB3G/aGlL6Hh74ahGtgvKZGjd0Gjcw8vd+6FzSQXYgrKlOqMeFQ/kZTmsP9og3N30EfswnqiY2hvmWhMOj5MNO/YJnAI67ir/fdTuZuHQdJokyaGQL4RKBkCUuJcNcQymm+NmxwkoBGYYfPoOf4ptKBpNZn3HO/KDUj5c9ZRljSep9YyXRAOZ/lvRB5x5KNtMoOa2XciqtzfovG8F81nJBpeKtu7K3VKHbNkC6YfJBxJgmyYW0UmNDiaGAL5RqBkCEhAVUFAY3CePoe5E3yB95RDFWJaudW588cw/Q1RnlyLolPSwPbjX3kS0nkM8lmIz2cXfic5vlPEFFkux7diIp2g8X9hCj3jIZ8pI/xhRE5H60mVp5D/C41+pDC1Lv3bC8vjwZeJp9QGE0Mg3wiUFAE10HAmVpBPg4+Dr3aahjQLjRf9LBrANZggXSEgaQ1RovMP1vkbnVtNZOv5Tfha6MslUgpqY2HnOAo5bEfzuXoUM6vO8sd7lpM5F1pPqryNaIDLWyA46qT6BmU/dZhFVK1GpqxFwILw2O88IFBSBFSDVjMejWH4ZnwcaB3BAbqGooY8tYdJA2mEU6qzH0vZ02DCWi43RlnDb1Dmj1/wRyo8gtNbxBNHPjqV/FVNaD0OH9Y/Tvd7wNcP8TWpXN/vJ4m8NWN+Rckh6nJzg59TFbWPrTcEcomALIOSESXxacaJCyCi/TSmoHhhZRr7k41+JCi4Pe63yGKAEowwTYLdPVLHyXezfB8Jj5CPkiF1TKSghWxlvya+7yCkPv8G/FPk9YzDASwzLtfSRL1+t8YfZiOsXl74Hbv1kjrSGIKJVLmujJ3PEGhDoKQISNekQd5n8jlMKwsjimqu+D5MtKWbCdmjsWQqMoXqME1GEaL2GmvEgeqPFufrUeOXM1ozuI7B3PnpNc599WoiXKPJvcHkijs2osiMVj+2Fkc4pmcUK26DmK/D+TwGM9bC7xlBajvlAIGSI6CRmDLn4keZgjNaOS1BkZZ0NsQzbz1T22CKZSoihioiUe+twakcct7OziPikT9oE8SzFS3qq2g7P32PczdhdtUS7cpno1+zk8HrcYhr4LIwEVG/QQVvQRMbCAmaGAJJIVByBCTgFGa/rpp5wmhYYYPoVOFg/TVakAZz34KjOFPRoPafmIYGgxYkLSYb2StzCwJ4P5rOIxDPZy+inhBlvidKVOKhhvdYAQlFRdI0ndEMtMaL64t34P5ssLZ9zxwESpKARuPEnYMvowGiCNOC5BgeRKN7eINzL66P6RUeuI8yw2ZAbD+YixbDclQ2cfphCm3L3DpBWO67lzv3f6+l9/oE55S5HeegTj/H6Sw/t5E+Z2RghxGxd15Iei+fz0zx65QvE/B0rsGOLV0ESpKA5ACeUYu5BFmo/1SYL2gAV74Q7ecBTJPFTZnf4L7k6HwALeh7l6Jh0V+qEXPuEGSmaJZMLH20rLC6iKeVcv6M/R+7nujbbGZDRdPQAPlJyFq0nh++AgZ0P4nSfjSXmjq0XklulCUfJnFXrIx0BBJqCulFJrM8lkZ1xTh6nW+DBAg9DwxcqRrkSKrya/KCRmGiVKKRZDqrxFA0q5tnknWN7+aB1Wg2IjCSHx3mjufk5dzKhLy1gbng8avMhAyVW5Nk585dkM5PF6Hl4eeqVH1CRMS8m23/OAMMqF8SGllINWxVGSPQ7W2kVK+/db+fl/OVpTh6aWhh5sVRtJXBhJ3vpBHeMgczBOd1piI/kHrYt9Dlonmv3+Oe07lBkI+GSR0FQY3kW1pTknIAzesXi537EjlJAyHFsOsWJzXhl/oQms+3rqcbC/WM0pKSrLuVVV4IBPSC0rr4avKBrhiPKbaV7Gg0nXqcyEHRUB3baLD3Yor1g4hungUhYVplIsoWrodkFMU6xDnk8JVovc5VCI1CCZCaWfVrmF59MA/Poi5hIt/Um32c+zRmofxRRj5hKNm6fCNA8yttUaTp5skkEUIq8tWEWSMDQWH1IUyWpX6v9b3HssNEICpJcRimmT6apaIQ5KOxjh7D4fy1F7lWTMKo7hTSeVv4/AMpAOfXYBpGkFR2KNjehkD2CJQ8AYkYrpjg3BcnYSLBPlFJhJU0wqUHiHDhN/n1Ehy3ENKZJBoBYB5a3FcX4PzeBwnGkEorRPx7o3GKz/CJ+Uy6TqtraSFQ8gSk26UM5huJRN1Wh6+GxhcVklZfsWX4dP4N80U+FHVfOBNEvq6Hljn3uefIdsYXNSzGsJYWOB2T8bMX+OZjmEZ4Jlyz1bE0ECgLAtKtmkLI65aZhJuHoSG0+WrCbqE0oRYiSP+MJvT/cOIuayWHR57lIhRpc6u24r9aCLk+Tz4TWlt1DPkcZ/8emKJfIo/pvNpw53QRXqZVqYQRKOkoWPC+aSD2RzFTvomPZBGaQgNO6agQoKJj2znBx/CR3I6jdgbfw7KIkAXLzvVvzSOmriT34rf6wTpGAECViZo9VWWLrN7o4dzfQT4f43psxMNc3xE7X1cQKCsCEkD78JU8uNy5r7/EsBkHCZeHRMZSQGog+BZMlvFEiZQpfO1EzJahdJ+gIRdKFOVq3MV4Q+ud+9cVOM9ZruUalKUdRaaKeB1nny9DPJ/E9OrqYPaFumYrt3QRKDsC0q1Ukt79OJplZq1nuTbGbFGjVrbwHr6vx4y7fSqJhWhDwwf6kS+dLwk5jPamnKPXWvFPEen6xSYyl6nccNU9xpEj87E7jvjPUe9Pov1U9U+itlaGIZAZAmVJQIJmJ8TzEJrQ93A2L6Jh1ytqFNOQNV9Ws3xHNPibCO1/DG1oBt9DMMsG4lfJR292mU0HSAnYiab2GnlMD6wlVWAzdSDnSKQZp/WIOEU+ymm6czqpCGg/o9DkTAyBYkKgbAlIN2EfjVuDxt+NE3c+Kk4tJBSWNZx+w2TOaNxmx74XDqerRQO5NNVE2oaQ8Uz+Tx+0DfX16koekPqRaf56mVmHMBW3EIVbjMbz2434rrZRJlrQSEypnjHmluqq83BpbjTk+ElC7R+aRXcMkg5NDIFiQ6CsCUg3Q6aNBpC/F03oF0SUqmi8auCdiTqcbsM000Dvmgnx3ZDRZVXOTSbKNgrzbAjrekAWmt5YfcA0ZKtISRnH0k7e4ngRxRtt5zgO6eyHdBRSX72TXvpoPL8S6RDZkmY2ivNoLCMdGyfyW73J/nMrIZ5ppB9genkjOcYdVAbbpMHqngm/9M5HeuHoI22SL5OEESh7AhLearSLmhg351WSENE29mDiVOiBzPCJ9PqEiYj0dKMZnY2pMwcCGo+/ZXQF0TO0D/UH6wMhyVSTaSUtR+S3C9LZBOlswMxawmcvH2k6ag3D2Lc3n0zqoUZFtZ2mJ7quxrn3YXapM65GBig3SWmSGhrX0ygBRqas8D6Bhin8hZdeDJp+uhf3RVHB/nx6QPS9wFBabJKdh8vtHqWu1wgohQTfjXud+59lmDuvM2c7pNCPB1VaRzZt2BuKg+P28OHPJyWdQOQk0XfYCVk3mLL68Mn2wdckg29z/CSI77qxzt0A+UxBEysnEawinEMQzS60xs3cy5XkUSxFm9TsJEvx+Z0QQ8t8Tr0swFo+PYfZPBlf2VhM1ikkaWpwtrFD2gINrNdAdNneE85qkgECRkABkNSf6pkN/pxez7XyIKOh9KVxn44mkeKeQFHezzAuCtsvbJ3MCtqcq+LNfVGVc1dN8jvfDuZ3uYi0naOAsOOAP+fbU42Yrs2kT+A/88iGL03H1B+y0ctEnCONUrjrvnhmsM7B54D3xtAOfNBabwbT6+qZ5ACNsgZi0mD9+Qg2UFrZihFQxK1XNwzN5f7MWma62MNbFWJCM/f8BXo+CyWpRqOX+CAqNHUQM1mMYa6zKQx2xlu7XEQ4SONpQdN5mhfGPau5V2g8Ip0hsIySMuXb6cq9knmmCOJWgcwJBqBZfhZz9v0TGbwN7UimmmlEuXnSjIBicNTbcfk2HnBIaNEmuj1ARNt56LuzXm/SziJmMafOepPqohf0WzSIoZgEkyGe2bXOXTqevKRqyFEVKhOR438HZpVM5R+uwGG/A3OZax8E6XQl+hgHG7C7Y5SnSSOlFX1xAuOCE1kcj5NfI0h2heDiyiu3bUZAGdxxNf5VPOQioiWbcRrz1t2Cr0HjTXdjmx7ClFqfweky2kUPvt7E3jcF9IJgZGo14NRWt5DLeCNPG4lZUWYt4Aia6IuNEM+rRC75roAc1PM/E0e9O02RVrSF8sZC/l8kteH95/IyINhg2lDXgTUCyhK7JpzTipgtaXZuLdrRFhyee2gUIiMRVVcUEZGMmMb7hlD0Le1Kg6UNQtup4iEfh+o/q5bPKEgIf0Su3/RZwpD47iLjXUdIlVjqJ4/KsazZTZLUQlMXLY2IW+9+H+3zLy/2tSFFz0yyR8AIKHvMvCMUet+ISbZiK0SEdtS0i0xp/EYKpytZMU5Sm6W86KNGpOdXIfe+LAzE2alRCmuH+DOlnoszdNxQLIAyfchFyBvB99sLIKA1kC/YZ5KrxWGeeMTOUuq7bfWpL92DlKQvp9aFfese7sXfpIkcv3klpnADWiovC5PsEDACyg6v0L31YO8hWvYaTtB/eAxzDRMt7M2s/ZTwpumCBuA/OBtC0ZtTTs3BrBtG3tBIiEcajgaxH4rPodw0nSDAwmwV6sY3nyEyuckPBGSCiY6TiFA0W62IXQQvX5lMJq33oogwiWYwOQKZHGOZRU+0PRPRZI/duG/fvYq+gviHFLI3yRyBMn2nZg5QJnvqYR1Cvsg0zKQKiMV7ukMO1Dxi/SGaL/GwyqRSQ1BouA/HaAxpFk0CCKyEfL72hHMLWvxweibEIPKR+VoJsY/CZ1aPJlkHqWuM8MGQupzHekEoSVHZ59vQWpt4aTSi0Tbx0W91QJaW01l5vWlBJ8kx+vjjzv0X57txipFQ4BbG/jQCioUnu41KCNRDGyV6E2/igdebWN01RD4m0Qis343m8zRJoa2QNdh1RgbyEwnbMRDOJfXkRjWQmkC0So7iTLSmg8f9ZNSFzYT0N/p5RcqKF6HFla37OIT9/ni+/yK5ehwmorWs6BubtsVgSgMj34se4UBAy/AbTSF0rrexSTgCGq3gW88Q8YIMJHEEkEpRmATZfAgN5Lrx+M8wYTMhHf/s/n9Nkz11hP/54FTK3uzcL5f73zK1wszq1PEy7d7CSf6nTzn3M7Th2TW8YCBDk3gE7B0cj09Ot3qNiH+P8GDv52E1CUfgBObPjxY69yxaiPrpebiF7+olDL6FSfWp2c79+/sYemRObqKEFZhv10Nk//xe575yNYSGCef1IYuoh1b3gnB2E4j4++fpVMy3iNEkHgEjoHh8cr51JDrnPDSgNTis9VY16YjAvDWMfYTmIZ9ZFPmobe8Hv0o0ne9cS17OZX44XE7+XIlyiwahzXx0unN3QW5XjSVDmoJl6kWJZuB9pIk8pcX4kcgVM4lHIIe3K74g2+oj4GUs4y94gEa2G2enSXsElGf1UxrvdkzVOPLZBvlMJxHz+9czFMoknPuYT/kSBQsmD3fuG+8iCxoyOkHFokhIda7m39dW4Lva7Du681WvUjivEVAB7qIS6L6PebG0xR+WowBVKMoiZeL8cim5VUS+YpQMt5XuMBfhQ/vX60jMxNeShMNX/h+lSfz15c7dMcPvBBxVRy+yifZzF0SqLiNR+xXlTUi4UkZACQOu4rwZS3lA715G2Hd3ASpQhEVKo1iFWfrwarQGTK8oOYDmMxZns5L/JuEwTtLRKxKSSfb5SxgJc3K8j2cIL5kHmoimbeAlQ6a8STgCRkDhuOR9bQ2+ggebGX8IVX073TnKXaT9/AbykQkW1a9LGeZ7MLW+dSkmEeZXIYbGUN0UvfwiXTBmUocoR7MicD2p789W0YXETO3Ix9sIKBKa/G7QA4pbwX0HAnqch3Q/fqFyFTVidWt5bF10g5YZ00qD/qfzGW62geTNAmYcSxNSVOzzF2GWkWMURUIa0fIxcpiUV6TRGE06ImAE1BGTxNYoW/cEpti3CTn/jrf/IXwb5SgyvxY00o+ObOSoXBtFvC7H7/NB8nzyPakiPOfdi8Mx90P1vKieGVIwxTRSgQgyKF4eEueYhxmmkRpNOiKAIWBSSAT685ZcfwBN6EUcm/g+bmCIh3IaRF4N9xDa3xM0Ui+yRMMOitbvo5H/Mc7fEWSQR5FU8Lhsf2s4Xc1C8uTrTIWEKah+euOqnLt6gnP1FR3PJuf3zdMgz434r9DgQqruhrHPj5qYlw1y1RRONnRHexyNgNrjkfgvPbQDaVwr9hE1eQkfBwmKNxHqLZc5vDQ7yHp6ur+KAzpq2NsDEPN1tUyDVI+2kacnVsmPmh3lB7wIlhEY0PAqGmupejOaGVG523E8jxvS8fEYT2/4q8bhu0KLPcwxQRKSluvI6l6yFec5NvfAXh3PUc5rBI9JgRFIkdAqNCElsP37fN6qm+KjQQWucs6Kl3ajweO3Qbxhmo00JJQHdzNZyRoxIMpBfToVUtTtCfKy/vk5HOGQjaZK6kXBZ0EozdTr4Q1MYomvTo7yoKjOV0JA1Wg3ngYX2MGrL8e9soXe9uYHCqADxh3W2IqCIaCB07fiK/g5jeHb8yGjF8gV4s2pkfhKVdT4pR2cE3GNMosq++NvqctP1EvlPwne//o8I16iiVVzD+S7EXGIXJQ4egDiWLgZkoyIVk4aRqdXtBvl/4gwgzIAM3vBTrRbNKGw7cH9y+l3nhTacoIwu2sVmegB9xyUIYdqBoc3aRSP8yZeiVm2mAdfc9Gr8+oYHnTN7V5Kw7CKYDR1jpchHoLHIba/Z4Q/TlIuu1moqGM4tp/C7PrOAoIAkE8dBBKlYR3mxSBfVZj0PYcOrNyfFxoJueN05ha2E71YNEaUpguSn68Q6QPtKlREP4yAEr4Z/ckhaeFh7kvD0hxgYSJyquCjqaN/SQj3KUyU6etIvMMHofDvcByig1D5NSe9BsBSMl6Y+RJ27mJaJ22glYYpzYJLCJV97DSnKvdj7JwiH7TMR3dAPlQginw0EUAvfDdKQoySKZDk4J4+AQX38V42ENP2g2izRkDt4DECagdHfn80osp/YxY5P5DPQ6j9q3kglZAYJdIK4Bx3kuPm00geRlOohHBqeNBH0hiG8K1hWqX6n4kEpOveDclqwsAw7cbzqXC9Gt9HU1tHyUHw0TRKB476pFw3CILnuCgR+WiCgf8Q+UDuceQjjVUkLz9PJT6oKBk5kPuh7SFmmkdsEGkzPj4NgtavR9RZym99zONffmDk/Yp5+BRGvnksPgMayTdeRjUn3FvLXYgiEKnzIhh2dxU8xG/wJm2iwa2BvA5KhehMtI9OEiZx29L3j9ovfX36so7Vb0l62cF92OxFmiLUHyX4DUPzkNkZhc/rEPOzr2PGbcFZDZkNgpSnjXLu2sk+cXl1SPunEQiehvy/+yK91jMgn7eo20enkH80NboOOr2G7xgEAelS4Kx2l52CYCvk9Ablm7yDgBHQO1gksiSfxwga1Pun88bs49yPFzt3fzPLPKX9O7kbepOqwerlzqGedpRIpQtUiBqyMKlA2wsjoEa0nl8ugkxI4twO+ajxa5xn1+Lc/4LYPzGHiQTxm6XkFPm85NxvOyGf4xTejRN+6lzn/mCuf89S5wn7llajYXVlbim1oB0DtR0gZ3ZU1nTYOcthXSePfDlAkOw1qn3IEal8kKsm8nYf4Ny5K+nfxFt8N1GSkTz05qT074lMMGGhbhe06w7ywgb60+EbO4YJV5/2JCuD+etgqsb++yIhIlSe2YXmo1yr326LN7s0OH13znc75HPnBWioUj87EWmpmhVDLwnd47D6ql5GQO2BTLtt7TfYr/wgkP5gakDzGbU4lSEhzW76AG/y/9xMubwpR9DwNPVMlGM0P7UrvrPq+j0nbjpwVFPajBIE16P5VAT8Q/3Arjsk8g+r/OjaezCfdmP+/ACT9zdbIR9wj8L1KMf1hEhuw+y6A81H/qRMRecMVLPdoepMG5Yr1G6nMvthBFTgG662U01UazBRrfG8qd/VTAieN/uPW9lwxDc9REbeoOydPOAFvpTcF8/1ymT15lkLqBXSJLxtIaVqV2Ugj0DT/DGa5et0kziO9vGgNJ8Y8lH2sxzOt6H53Ibmkw35qEzVJ45g1HUjivhCLqMsVhkBFcltljak8W1qCLNPq8FHRGORY/VZPk8SqnaYGdLtRVjquqEOkFrW50x/qMP8O1yWp00oUVD5N7RtBw+fEpllSkfQELcab6dnQPXwSIgDTkI8/90EXmyvTz/BqTP5CyIfnVPkI7OtPgvNR2eQiXdUPh6Wo+6HInNR1+rXovz+GwEV2T2XM3MyRKRBt2Y1oBFBPp/jDb6Zz+rdTOtD9Evz0q8SISmioieeRnoq6sTiGSMiDT4NEIMIIygi17006t1ogmO0g/ZvEy1ePJZEzRYyxhshbrZ7plpqB751iDTHdP9Q2uZTi+rDJdxvI3L2e5CPJobMVkSSB7gvuhVRMrgXddRFmZxCwAjoFBTFtSDnq+YO0+dELQ3xqO/HOEBjPMiyBjw/AQHJoa3Maan+ae2zuC4mojYiiK0Q6t2rqT+aSlBzkLawHwJqJX/GiywFGq+S/z5xHn09peW0ghXnC5JQRNGnVot8+raRj6JmXSEfnUwz4+7BzyTTMFBNn1y5llFEP8+xFncKey0YHO3gKM4fSkgcTo6JPinRdDUKOeuBF/nE+R5SxxTbN9X2pq/56SbMLIgm2BveIyRIdtVO594rTS8gIpuLxrSR70vO3QsJ1bBPpiSkbh79RT44nG8937nRJDx2VTajqYqEwsS7NyIggg1JjF8dVodiXWcEVKx3ppN6qbEGG2wnhxTl5pFoBWNpmIvI2wl7GCu5zhe3oPFh4vSCLPjZTkTOl4zzV3WDhO7JkIRS5HM75HML5KNs69OR5dRRs6gG66dzek50cpkqCTRYikV7lIPaYvut9ssQyDMC6sc2qwofu9ShENFkf4+hAW3YhcYXogXpECVnioTunAuZVNPlgXN5CYkh59OqU+SDzycX5LMLs3ilSDLCAbSLel+KU3soBGQDkrW/KWEvnfZ72C9DII8InA3BzMCX040nURwU1CC8qBGmzVMb6XE+0s82DqtOioS8beT73NMSbo4dgiQ0h9jtIh98Pqer+ai8JWhdIkjP/xO8ALZLA7pwuN9Pzauf/TuFgGlAp6CwhUIgIIKZQuOsxwwL03DUnofz7+drfX+RGnmUpEjI04TwSEsTOgrhSBuSz2wH/qS+Ih+ZXTkin6M4wB9fQ49+SDLoRFc9PU0Mcp2DZiYT0qQ9AqYBtcfDfiWMgAiohkjfxTTQ+3Dkhj2QvdGSVpOGMA8SqmLfuEHpPRIa6zuiBywmhwrtpBmS6EE5s/E3vW+Ccx+YmRvNR1AtbPHHAVKveU9bC+Ans2w8/iVF7PoYAQXQCb/fHXayFYZAPhFQ14drII2HIJi3abDSetoJK6r4fGUZvp5aTLaaeF+KR0Jj6KyLz2VOI5rPfvxEkJjGZJ7TQIY063Mhyk/6+RJSCQi/h5GPytjH9fxRvT+rqpkbHVEPe+F03MvWGAJ5RECEcz4m02wIYiEaS1gYXbPJbkVDuvtViAgtSN1X4sQz7dA6pHkcwfRSAqD61uVKNK7Pb15jaA98U3BMh9wflaMsbtcXcoUM+5KEaNIRgRzeko4ntzWGQCYIyHcyAh/QjZN8TSXqmFo0pe+vYmA2Gr5GDshUNGhbLslHg9MvanbuXxb6XTCitJ+t7PfZ0X5muzcdd6YVLqP9jIDK6GYX+6VeM46QPBpLVFKlGvpIPn/4AnOuryNL+ljyVyTyWbPdua8+w9xhjEcUpq2pVhp6tTu5Px8i2qahc03CETACCsfF1iaMALzidTv5yAxGFsRciQp2SZOoPEHDng8J4TPaR/QpKRGprNvh3N88yTxm5P1EJRWq7lv49+cTIVRMS8t+jr5DRkDR2NiWAiDwrvHOXYnZIudkGAlpXT82DsEEu+kJImOYZJptIkprytUlKNy+DP/UnzxGTlITWg1EGCWHIarziHzdCpkOMO0nCiZvvRFQLDy2MWkENC3179HBdGpluGNX9REJDYCERqD93AIJfY8uGBt3+x1zc11f5SbtJdr1yGrnPv5bNJ8WMppjyMebvJBw+59yDROGxUfrcl3XM/F8RkBn4l0r8TrPHOl3kRhFBClMC9Lla73GUKqBIL7yMqHuR5jbi4RATW0t0jhdjUgJhBpn6LVtzn3taSYSeJRe90ThBlJmlKhOKGPuThIdb8T3oyFaTeIRiIEz/kDbagjkE4GbaMAtNPh7CbvvPB5ekhq8wuv1OJBeISp1w3Ya/xjnPnIuuUKQmJy/chLLeR2WpZx+Vp1LpCXyUoh9ExrVbyC0u1cxCwnO5hq0nu4xmo/OpbGk39Pg3GfmmOmVjm3cshFQHDq2rWAIyMF7xwX+aIj/s9IfmAweCRc2SDPpj+/lV5hK925gWp4q564ejS+GDOuGQWzDsa2OoMH5xVKkIx/PVsYdWgGJPdOIb6nJn0hQs5WMyqCVnIS8zoP0/uYKf/LIqNB8+AWU79oMoC1fcOzKC4vAQPxBn73Y9+08DLFodMRIEqKqavQVPNFvQUQvQSDPNvvdNurogjEWEqqrwH+DWacByLTvMUhHs8+2kCm9Hm1rE987MOG6cbyGvB3eicaTQkfm2rThzv3tVf4MHEY+KWQ6/zYC6hwj26OACFT2ce4Ll/vjNf9qhW+OwQ2xIgLQMB7wl3sL820DJLNuJ8v6DVnoWyIy0746nz4y1/ry0XxgmYrOd34NeUGQz7kj/PNleqzt50c7DQdDoKgR0Jzsf3ypP/PoPfiENmEqiTj4ixVtl+8nHxqJiEf9y9411rm/uIzRFBlHOh/lxF5gCWw0DagEbmI5XIIGjdckgRq/54eE3Z/bQoNHlUl6kHd4xxtiYzCa2R2zmUFjlj8tc2dO7nK4R125RiOgrqBmxxQEAZlI6q4hEvrlMj6vEaFCG9IcYFFdInJVUZltyvHRjKlX1DFd8/nOza3FhEAL6kwTy1UdSvE8RkCleFdL/JrqMXe+cBnDnDYwG8ZyJhzc6HdO7Q8TyCzKJSF4YXnUnjdoKRcQ5bp1mnPXj8ccRAMyk+v0HzQjoNPH0M6QMAIiGIXp56KJTCXc/mHMMUXJHtxER1E0ov5oKv3RijRof7YkwaF+LhCks4vPEPxPV1HGByeh+Yz2o2gy+8zkys1NNwLKDY52lgIgIHLR+M4XQkQzyfe5g4RBJSQ+1UgIngzmjUpLJtSutGkRkmZH1QOfIg/lAIlwTvC9nwU5lrXDQLSbCzHzrqplALQ6v0uFylEeUepY9jTJAQJGQDkA0U5RWASkkSi3R7PJamLB9032O6hu2EP4nYzmRoipkRyf5sOE8SGkLXyOQzjVdJUYxmcEWs7oAc7VM9DZ6EEMoTqUYT9Y1vjRMuk8jaewl1iypRsBleytLb8LkyNaTuIefJT5XAMZXToa/w2JhepeoeE05NPRLKtSdqRBiVyk2fTiGM1aqt+pdeWHYPJXDOQmhkDpISBy8cbrQYNxaDkkQ/sdW2EekU9KUiYVu5sUAAEjoAKAbkUWBgGPZPhnZFMY/MNKReE0MQQMAUOgMAgYARUGdyvVEDAEQMAIyB4DQ8AQKBgCRkAFg94KNgQMASOgXD4DgQhLLk9t5zIEShEBi4Ll8K4qpKsIS3qYN3h6L9s2uNJ+5wUBzUyqcZ0Pt300AJlygjSAmO6D8n/UmVThes3brmRG75uwvUkyCBgB5RBn5Z4omS1FQvoOihLi1AXAJD8IHGAAMk3To5lTNXf73qMM6woBHYF8joH9G2AvAtI9UOKiSMgjIO5bX4hnAAmMQ+mKMZiRE4fw0bAb2sckPwgYAeUQVz3QysLV8xrKMWw/TENQAzDJHQInyWzefpAuFnS3aOWzheU9jIKoOeFPovFI0jkk/cWQuhX61kdko8kPB6ANjehHdw26aKhbRhXf6g9mklsEjIByiKcGPNcsmNKEQkmG9bt4I7/Z1ihyWHRZnkpdK7ZBNprBYj2fLWg+0nZkXolwZBL3SGeeDFCSZiRNSRrTNrSo1Zy3Un3F6CM2mg6qNXxr7jKT3CBgBJQbHL2zqOOiZsLUMBChBERj2MhwEam3cg6LLrtT7YBs1u5wbhVjPWtQMpEG8J/q39VVQERaOk9qgDP5jFqkXUFGayCjCZDQpOE+EUlTMjk9BIyATg+/dkdrIPTK/rx1eYiP8SZN9TNK7aQBs5ZgIhzBT2HSNQSOQjQbdzFN8hYIgd7u0lS8fl9ZajqZlq5z6yPzbId60+NX0uwZMxmAXkSkWTZMuo6AEVDXsQs9chgE1BsiOkBDCUo/GskG3qbbeGPXMeSD11kyuJP9jkRgD+brSojnFT7SgETw5+SJeIKVoCjPPyQiaoaAREYy/86rYR4wzLKUxhQ8zn7HI5DQ7YuvRCltHYXDUvNZ6UENiuePwDm6lje43twmmSOgSQOf3eDck5t88vGGzRArZCDy68gk1pjOcljLd6SPTGH99oboYDt/nYqKFOmd5AUjIpy3Fj/Rdv9cnR5sO3RAwDSgDpCc3go5KqWWr+HtGBTPJOOBf4kH912T/NkUgvvY744ItDCg2PyNzNOOv0dj+WQSFpcjWh+RikwoBQc0l7y0zpS2ou0iIPmPjrWRUTfW6a2sgEIcv4kAtd/Gvb7jW4Q0CbNM4wqZZI6AwZU5VhntWUXoVpGSnjhI9YYN+oEqyTW5u8W5T/PgVqEtpRpDRicvw51EPo+vZ2RDtEaRiRp+nEjTEbGIaCrJ6RnGy2AIuTwDWdYIhyIID3PYRWQmTUjJiofwy+3Bv6OZUXdi6ild4iyRUQwRiaCk1e7EHPvtOjQpfmuManNOx92h9tuMgNrjcdq/9KadwJtw0AZ8BDyRtIN2oilkHObEwmaGEMWJqUQ3k3AElNvzJJrPWqJPIvI47vE0Hk7TB/xH4Yer4yUwktydobwQlFwo4onTaKQJiYSUvLid+yM/z2Y+yicS88W9KGSSaYrnxyBKEd+kYZhpwRsffollv9YIKA+PwIxqEth48LfwZg0+h6moyj28MS8fYwQUBf9+GrTMrtcxu0QcUeQBN3iajBp8LYQzodLP1xmuaGQQ/KjCWC8S0Qys+mjeMWVQbybKtpby1/F9kHspAgxqtKlTShPaC3lJW+uDltvAOeJIK3VcuX8bAeXhCZjIG3Ac2s0KzCy9WUU66TIK1F/Yhi9oM0Q12H/o07eX+7LMImmIy8FIEoDPX8l/z7nM92BI41wwl/kzquL0G77K0zkH8yKp4/7UUI+lfJrRjKRpBe9nqkIiPGVhP73Jz5oexksoirBSx5T7t0jdJMcIqE/R7DpMgF6+XyB4er0Zz+FB/v5KMni3+w91cJ9y/S1SWYPW8SIEpMYeRz5wu6tB07lyNFPojPPNrlxrHSKiCxsIGox3blqbaaV6RYn8P6up/8IWvxNs1H623kfACChPT8IFdfgCMAf0tlSjShf9HIkWtIi36iOr/f5L6dvLeVm5Ps81+pGlKO1BeArD0Wg710I859f4Zk++cBMJyiy7FhKa3eZkDt7TVNna9xz+vQgBNWK6KfRvEo2AEVA0Nqe1pZ7GMXeMrwURoe0galxVkNDfogW9iN/gIA7Qchc11ldb6fqA8zdKkxHxSAMRvponfgJaSZRJlGs8lV4hTWsWppl8TqpLmChSdxSf0QK0uH0Qqkk0AkZA0dic9pbLxjo3gwYiOyLsjamuG90gnq8vQhvaXN7JbGrMyixeDAGFYZW6GQqdV2F2XQ22moQQaBMVdUS9ghfLVHx8USSpCskU06SIcmJrCBaTcASMgMJxycnaMTSQyyeivuOMPBlyRjW6OrSg5Tyk332ZfmK8MUM7sYYcW2qrlI28fKsfzo4yvYSNBg3THO2jwTYpzSeItTLdRUK1aGFRomsQkb7KNR1QKN8kFAEjoFBYcrfymgnOXVbrvxFDyYUHtf4c537V6NxdkNCylvJzSquh7iKZbwXJm1Eajcha284f5ZyijJ0lJObuDoafqRJz7NL6+KE5ZKYpl6iRaKgieyYdETAC6ohJTtdUkmh43bnOzaHzqTRxNaQO0kZC/0lu0Leeo4/RZj9832G/El0hn47MlX1HIJkIBpKGpH52IiAlexaDKOdo6ohoU0yNS2M/vQaxalhYk44IGAF1xCTnay5ucO4GSEim2IlQBqJIkRAN656NOKafIgN4jR8Jito955Us4AnlI1HoPSq8LQzU/+sCyKeCsHgERyV+BTIBZ+OQjhuSQwmOjfvIqEbDi7q+xCteRAUaASVwMwTyDVOdu5Ewrob61LjEodJGQvPxG3z6cef+6xUS21DhS/nB1bVtZ2iNVpL8onw6io5J+xmHFplJR9RQbPO0cgQO8YloQhqELkxkKh5A+1HXDnNGd0TICKgjJnlZM5ikxPfPcu59Dajs+AZC/UEqmQdZ4fk3eWP+0fPO/dWjaEOYZnJkliIRyf+j7OGjeOmjzC+tV9RJDuhiFA1MFjdMq66xyQgo9NYZAYXCkp+V43mDf/wC595TB8HQqOIIRWFcdnOPbHDuzkec++rvSNDb9A4RxR2bn9rn56zSbjSQfNT1KOyuxq2oV6Edz1EIKC1Ag9ZzS0OFW+mNL63OribtESgSd177SpXyr5kjnfv9uajjOCcfv3GYNQAAD2RJREFUbUJ15+0YZXrozT9Q2hLaz09XOvcbyOgSfA7KgZmDP6Qas8Tr5d325Htf/Gv7WfQwcunuBP6fVjSgqDoDkxtF45bvJwqnQl+o/DwKycuRrvsavBaZjcrw1pRBcqYXK5EWAkcjoAKgPrfWfwjPecG5Bxvptc1DGde4lPCm8aRPQEQa8uEJNCGNO6SuHtNHMKwH3QTU+1vzWakntkhJE+6lh9zUKHqwTY0lytTJFAoRhzQWaSdajhJvW8wOMk3U61wRoqg66fAaiDbTnu0ag0nmrfBUw4/DNazeqpOOl2bG4e5ssNR3Z5J6GYSF23VtIqaD3D+d1wjoHTSNgN7BItElhZN7X+77NX62ltCyHkyxRIyoMfXko0aicaU1TOnTG/wco36YKfKRqKGGNTwRj0ZrvGkSWlQ9+3XxzquBNe313/Yij3RflurFn/fPW26rq7dK2/Rpu0Zvmd9qmJqxNIwodC4Nc6Gcm7DtOm9K1LA1Nc8K+tdpvOhekO1ETN4pw33tKbVf3LeubQPnWEoQQBqLyHw8mE2r6nxOMGlo/cBfDucgK3uXzMVozCCNjsCtMmlDoIuPoeGXCwTOpXF8/kr6i/GG/94ywu7kwfTS67atkUaVoc3pZKXGp7FoNKKfRA1XQ4sGZQUN65lNzn3pUuc+PN3XhoL7xP3W0KWLWxibudE5jdcjiauqVw9/t2CbbFvrHx+p/XACEYl8QFH76EQiwUXNfr12Qxyqk8oWIal7x+Wj40PlOociVJpp45F1fj+uVHmb6FCqvmnvJqM9ztGs4V77Q0AqWGV3wIWVKRNM5Zn4COhxNykgAjIv/uAi5755NWPaYE5t5UFN1yoyrZoajLQEfUROGko0+OnGOmUcf/tlf2qbKMdvVJkbdjGGEQ1dmk+qLJUb9dE+qW2p/YPf2h4lasjKJpYmErObayLPZkkroxlSL+/a2VnfMhGXoBGtIREwzDRKlatydkBUzzT65qBMpFQ9Re4aFE3njxNplL0gIB0XJtL8pO2pTibvIGAE9A4WBVvSlL/vmwIx3ODc35xHYyFkv4M3cleIqLOLkHm2TA2Wt70aV6aixqPxmTWza1Qjy/RcGe8HM4gMREJxDNRKvTSOc7Dt61iF96XBSPuIEpHTNsw2zYQqfIKi7RvRpqQBRokIT2ZupHAt8k+J7EzeQSAOsnf2sqW8I6DGMnG4c1+4zLlfvJdwPb6aZt6qrTSgbIiis4qqkaoheSZUFq1BM4Rq8HY1osQIiLqqvnEDw+t65UOSbyVMtFrXq/pHifxRx4Uz+wRJTMcIJk2I2Jn2EqfN6TyexpkF5jqm1IVH3KRYENDDL2fypaNxfI507hbU/vtX0VN+Ixt4Ow9ih35oAyKAsIaSyXWosTnuuvxOnTWY9PMpqtYTU0hvep0jm2PTz5PVMmWp0Sp0rWpHXXN/NEblTSmkn75T6hhpmHH9x3RN/TjHOeCi8oIEq3I1sL0XWYy5gDiC0jn0kkmvX8ypymaTEVCR3erUgzqIkPplYxj8ahSJiKj/CzY79/AGBj3Hn+FkTtAoh9DoNA00Xz4psazjo0SNaxuN9Npa+jBBcGHmRtSxauDVFZAg5WsaGv3Ot8iRLjPUIxa+oy5O4zZX96fTJ7h483oBgnaX6STi0LhBA4lSRYlMPM2gMWaQ3ydNDmURrM4h8pNzWdG0uFQAaakqT8dEiY4PklvUvuWy3gioSO+0iEQEofDuVMhCQ1B8eCrDO+x1bhUkIOfqC9uJ/uC78AYbwoQQKXktIPXNz1OiE6LBXFXDAGhXMl8WDTZbLUaZ3Brhb35jmyP61MmjF+IapI5Sg4wkM65f5HOIa6tk3yjOG0FO1CUNmFAUphksvD5XnFfjOV9RRyidg6V8xImmR7pujG/uavgMEZ80lqGc46Jan4DijpeZ5812y3EU3VFYqfwsI6D20BgBtcejKH+JiM7mLawoy2AamwjpA3rgeeNrKFd15tTn0Anf3xHmE9E56nnDq/e2JkTMRvtJgdIbApsDgakDpvJl5EcS16lRpRpditT0rXXe+rTlU9vbTipyUU94aRDevqnCdF4+IhORnmc6BndI21djNg9C21FETNEwNXZFGJWgqXp3JsJDmtRHp/p5TsrZUQqAzqGuFnHaj84tZ7fuBfwTKZocsSu4R56wBDYYAZ1BN1HtT5EWfdSoBvB2Hs4TX49mIlMh5eRUIzjVELTQRgB6o6d33ejKpatcNXZ1PZDP41Q5OllbOW2L4advIxF9iVQU0pdWp8abIqf0A0VMIlfv2tI3BJZFgkP6+qaWtBedXz4b+XcyFZFDJQQvrVPl6VCZZ5loLUpvkJM+TDyMOFkFvqjO/Ehhx5fyOiOgM/juqoGo0Xpv5yj7JA/Xp4aaqze5GqcmA/SGLdUFBUTX5/UkR8PoTAvRviKMDBSeQCnv/FQVOivnnb3fWVKoX6kKYSKiVi6TnOGeIzpspzJdx6NkYggUDgE19mocwJ6JFVINaTDK0dmOhpGPvKiQIrNepXnk1T0lKl1C9VY/PWms2WhkWVfkDDzACOgMvGmlVGWZN+rIqTGSPFMlcHHaLtNm3S4IKELDCByS+E/5ndT/LKz+qowIaCSmXSa+qMQrX+ACjYAKfAPKvXiPgHDyyjyJasF6SDWusvq6RWlKhcJRWs8qIpLSgsJEpHQW5FoHycr/ZtIeASOg9njYr4QRkN9GIXBNNBjlaFYm9A5MsJXbozOeE672qeLUWVWdXuGhUBFByfxS4mdXRyAIPXGJrDQCKpEbeSZfhhzHGttIju0wMwaO8iJSi7fGj56YNAbK+9Ec8HH9zERA40l/UAhe12HSHgEjoPZ42K8CICAtqIHQvrKRo7QgOW8V6n6xqS1iVoB6phcpolxKh16NghhGmtpXvp8+5G6JXPVt0hEBI6COmNiahBGQZiAf0PQqP0oU1aBFQpq88NVWP/Ev4Wq2K05TLosM43rIq+PuRBEr5leu0hbaVaIEfhgBlcBNLIVLELlMpruJImJRjmY5rBUJW0DD1zTOXh+xAly8ol7PbPT7xIk8w0SJob3RejQGuDoYm4QjYAQUjoutLQACSkjU5IPqGxZFQtIk5HOZv8kfwTBOA8nHJShr+6n1jA8ECcl0DBNpcCf5N5MB5pQxbtpPGEr+OiOgaGxsS8IIqEFLC5rEJ07UFWUnIfkn0UIWN8c7gePOk802OZNldj0J+awmJ0ncE8E/XkKiOsieV23aT2cYW2ZCZwjZ9kQRkLP2wlq//9fWg9H9sDRYvUZnfAISkkakgeM1N5fMtFyLOt2uk88HslO3EGk0UcXI8axw+yVcg3w/+ahPrq+vkOfr9jZSyApY2YZAEAE9kXI0P7rO76Qa14ilmShPaBLOXjmx6wh5qzNplHkULCvut8Lsmn1kFflHr5JsqA6zceSjesv0EvlcNZauF+b7iYPX22YE1ClEtkMhENAwHM838tnsR7ziSEihew3JKh/SZEYG0LhFGoZDfa8ixxqKuCg5jzWsyW5C/o0kGa5E82mGhDTQWZwvR+Sj8YjOJeR+/YS28ZYiyrDV7yBgBPQOFrZUZAiICJ7d4NwraENyNseREG3f872ou9hgkv4acP42oA1pTjEN2apuEDKNRCKpMaZFXCIcjWQowtP4Suru0YyZtQFn81b6d6knuxIlo0wuQSbykek1hvGErh/va2Fab9I5AkZAnWNkexQQAQ0M9vxGTKAtEEQnJKRqiohEKtJGRBwapGwYXSE0OqKykTUsRopQZL6J2GRa7aEcDTWrwcxkesFTPlnFMY/KoxxO4w3nKrNLs9SaZI6AEVDmWNmeBUJAJPQypthiNCHNPCr/Tie84NU0peFIO9EB3nFtB+pLq0Ug+tY/rTubfykNSavjROfXOSdAOpeNZuZZNCCT7BAwAsoOL9u7QAjIHFvSAgmhCWlsIBFHnEkWrKZIRh//X9pWCETEo0+movOIfPpg0k3G53NhvXOjiHiZZI+AEVD2mNkRBUJAJtNqIlLShDaRCCi/TabaUK6qnNJ6KjHrpo/wZy2R89ukawgYAXUNNzuqgAi0EpVagSb0OgmBSkj0QvHUR2SUD/G0J/7p/P3wIcm5PZWQv2YqiZ0NNR+VKbFzGgGV2A0tl8tR5EqjJEojUveIvTiSRUSSXGlFKf9Qing0O4ZC/JPRfOTUNjl9BIyATh9DO0MBEdBIhJq3XZnK0oz24rBWZEumkuSUUsTCqWV/06n/bbt6/qHUskhH2o166Y/A3NJwIePQeIYT1jfJHQJGQLnD0s5UQATkD9oCAUkbaiWPZzemmRzXmqlCIfmUNqMqalniEVIbKynsruiXunj0xcxSyF7zn9VibtWQU1TBb5PcI2AElHtM7YwFRsDLZIaAdhz0BzFTno8Gtj8KSb0BISksLxLSFDlKTNTMHOqD1o+PpsRWFvVQNB116WCzSR4RMALKI7h26uJAQAODKblQWpK6bIQRkGas0JzwJskiYASULN5WmiFgCKQhYBpmGhi2aAgYAskiYASULN5WmiFgCKQhYASUBoYtGgKGQLIIGAEli7eVZggYAmkIGAGlgWGLhoAhkCwCRkDJ4m2lGQKGQBoCRkBpYNiiIWAIJIuAEVCyeFtphoAhkIaAEVAaGLZoCBgCySJgBJQs3laaIWAIpCFgBJQGhi0aAoZAsggYASWLt5VmCBgCaQgYAaWBYYuGgCGQLAJGQMnibaUZAoZAGgJGQGlg2KIhYAgki4ARULJ4W2mGgCGQhoARUBoYtmgIGALJImAElCzeVpohYAikIWAElAaGLRoChkCyCBgBJYu3lWYIGAJpCBgBpYFhi4aAIZAsAkZAyeJtpRkChkAaAkZAaWDYoiFgCCSLgBFQsnhbaYaAIZCGgBFQGhi2aAgYAskiYASULN5WmiFgCKQhYASUBoYtGgKGQLIIGAEli7eVZggYAmkIGAGlgWGLhoAhkCwCRkDJ4m2lGQKGQBoCRkBpYNiiIWAIJIuAEVCyeFtphoAhkIaAEVAaGLZoCBgCySJgBJQs3laaIWAIpCFgBJQGhi0aAoZAsggYASWLt5VmCBgCaQgYAaWBYYuGgCGQLAJGQMnibaUZAoZAGgJGQGlg2KIhYAgki4ARULJ4W2mGgCGQhoARUBoYtmgIGALJImAElCzeVpohYAikIWAElAaGLRoChkCyCBgBJYu3lWYIGAJpCBgBpYFhi4aAIZAsAkZAyeJtpRkChkAaAkZAaWDYoiFgCCSLwP8HnvVEEhFIeY0AAAAASUVORK5CYII=;" vertex="1" parent="1">
          <mxGeometry x="-640" y="-1139" width="159" height="159" as="geometry" />
        </mxCell>
        <mxCell id="bc7KVerA1UK6MyxtnoFU-90" value="" style="endArrow=none;dashed=1;html=1;dashPattern=1 3;strokeWidth=4;rounded=0;sketch=1;hachureGap=4;jiggle=2;curveFitting=1;fontFamily=Architects Daughter;fontSource=https%3A%2F%2Ffonts.googleapis.com%2Fcss%3Ffamily%3DArchitects%2BDaughter;fontSize=16;" edge="1" parent="1">
          <mxGeometry width="50" height="50" relative="1" as="geometry">
            <mxPoint x="-560" y="-610" as="sourcePoint" />
            <mxPoint x="-560" y="-910" as="targetPoint" />
          </mxGeometry>
        </mxCell>
        <mxCell id="bc7KVerA1UK6MyxtnoFU-91" value="&lt;font style=&quot;font-size: 24px;&quot;&gt;Automated Actions&lt;/font&gt;" style="text;strokeColor=none;align=center;fillColor=none;html=1;verticalAlign=middle;whiteSpace=wrap;rounded=0;fontSize=20;fontFamily=Architects Daughter;" vertex="1" parent="1">
          <mxGeometry x="-650.5" y="-960" width="180" height="30" as="geometry" />
        </mxCell>
        <mxCell id="bc7KVerA1UK6MyxtnoFU-93" value="&lt;font style=&quot;font-size: 24px;&quot;&gt;Auto&lt;span style=&quot;--tw-border-spacing-x: 0; --tw-border-spacing-y: 0; --tw-translate-x: 0; --tw-translate-y: 0; --tw-rotate: 0; --tw-skew-x: 0; --tw-skew-y: 0; --tw-scale-x: 1; --tw-scale-y: 1; --tw-pan-x: ; --tw-pan-y: ; --tw-pinch-zoom: ; --tw-scroll-snap-strictness: proximity; --tw-ordinal: ; --tw-slashed-zero: ; --tw-numeric-figure: ; --tw-numeric-spacing: ; --tw-numeric-fraction: ; --tw-ring-inset: ; --tw-ring-offset-width: 0px; --tw-ring-offset-color: #fff; --tw-ring-color: rgba(69,89,164,.5); --tw-ring-offset-shadow: 0 0 transparent; --tw-ring-shadow: 0 0 transparent; --tw-shadow: 0 0 transparent; --tw-shadow-colored: 0 0 transparent; --tw-blur: ; --tw-brightness: ; --tw-contrast: ; --tw-grayscale: ; --tw-hue-rotate: ; --tw-invert: ; --tw-saturate: ; --tw-sepia: ; --tw-drop-shadow: ; --tw-backdrop-blur: ; --tw-backdrop-brightness: ; --tw-backdrop-contrast: ; --tw-backdrop-grayscale: ; --tw-backdrop-hue-rotate: ; --tw-backdrop-invert: ; --tw-backdrop-opacity: ; --tw-backdrop-saturate: ; --tw-backdrop-sepia: ; border: 0px solid rgb(217, 217, 227); box-sizing: border-box; --tw-gradient-from-position: ; --tw-gradient-via-position: ; --tw-gradient-to-position: ; color: rgb(255, 255, 255); font-family: &amp;quot;SÃ¶hne Mono&amp;quot;, Monaco, &amp;quot;Andale Mono&amp;quot;, &amp;quot;Ubuntu Mono&amp;quot;, monospace; text-align: left; background-color: rgb(0, 0, 0);&quot; class=&quot;hljs-operator&quot;&gt;-&lt;/span&gt;&lt;span style=&quot;color: rgb(255, 255, 255); font-family: &amp;quot;SÃ¶hne Mono&amp;quot;, Monaco, &amp;quot;Andale Mono&amp;quot;, &amp;quot;Ubuntu Mono&amp;quot;, monospace; text-align: left; background-color: rgb(0, 0, 0);&quot;&gt;Resolution&lt;/span&gt;&lt;/font&gt;" style="shape=ext;double=1;rounded=1;whiteSpace=wrap;html=1;sketch=1;hachureGap=4;jiggle=2;curveFitting=1;fontFamily=Architects Daughter;fontSource=https%3A%2F%2Ffonts.googleapis.com%2Fcss%3Ffamily%3DArchitects%2BDaughter;fontSize=20;fillColor=none;" vertex="1" parent="1">
          <mxGeometry x="-550" y="-620" width="210" height="80" as="geometry" />
        </mxCell>
        <mxCell id="bc7KVerA1UK6MyxtnoFU-94" value="" style="endArrow=none;dashed=1;html=1;dashPattern=1 3;strokeWidth=4;rounded=0;sketch=1;hachureGap=4;jiggle=2;curveFitting=1;fontFamily=Architects Daughter;fontSource=https%3A%2F%2Ffonts.googleapis.com%2Fcss%3Ffamily%3DArchitects%2BDaughter;fontSize=16;" edge="1" parent="1">
          <mxGeometry width="50" height="50" relative="1" as="geometry">
            <mxPoint x="-561.13" y="-430" as="sourcePoint" />
            <mxPoint x="-561.13" y="-540" as="targetPoint" />
          </mxGeometry>
        </mxCell>
        <mxCell id="bc7KVerA1UK6MyxtnoFU-95" value="&lt;font style=&quot;font-size: 26px;&quot;&gt;Human &lt;span style=&quot;--tw-border-spacing-x: 0; --tw-border-spacing-y: 0; --tw-translate-x: 0; --tw-translate-y: 0; --tw-rotate: 0; --tw-skew-x: 0; --tw-skew-y: 0; --tw-scale-x: 1; --tw-scale-y: 1; --tw-pan-x: ; --tw-pan-y: ; --tw-pinch-zoom: ; --tw-scroll-snap-strictness: proximity; --tw-ordinal: ; --tw-slashed-zero: ; --tw-numeric-figure: ; --tw-numeric-spacing: ; --tw-numeric-fraction: ; --tw-ring-inset: ; --tw-ring-offset-width: 0px; --tw-ring-offset-color: #fff; --tw-ring-color: rgba(69,89,164,.5); --tw-ring-offset-shadow: 0 0 transparent; --tw-ring-shadow: 0 0 transparent; --tw-shadow: 0 0 transparent; --tw-shadow-colored: 0 0 transparent; --tw-blur: ; --tw-brightness: ; --tw-contrast: ; --tw-grayscale: ; --tw-hue-rotate: ; --tw-invert: ; --tw-saturate: ; --tw-sepia: ; --tw-drop-shadow: ; --tw-backdrop-blur: ; --tw-backdrop-brightness: ; --tw-backdrop-contrast: ; --tw-backdrop-grayscale: ; --tw-backdrop-hue-rotate: ; --tw-backdrop-invert: ; --tw-backdrop-opacity: ; --tw-backdrop-saturate: ; --tw-backdrop-sepia: ; border: 0px solid rgb(217, 217, 227); box-sizing: border-box; --tw-gradient-from-position: ; --tw-gradient-via-position: ; --tw-gradient-to-position: ; color: rgb(46, 149, 211); font-family: &amp;quot;SÃ¶hne Mono&amp;quot;, Monaco, &amp;quot;Andale Mono&amp;quot;, &amp;quot;Ubuntu Mono&amp;quot;, monospace; text-align: left; background-color: rgb(0, 0, 0);&quot; class=&quot;hljs-keyword&quot;&gt;in&lt;/span&gt;&lt;span style=&quot;color: rgb(255, 255, 255); font-family: &amp;quot;SÃ¶hne Mono&amp;quot;, Monaco, &amp;quot;Andale Mono&amp;quot;, &amp;quot;Ubuntu Mono&amp;quot;, monospace; text-align: left; background-color: rgb(0, 0, 0);&quot;&gt; the Loop (HITL)&lt;/span&gt;&lt;/font&gt;" style="rounded=1;whiteSpace=wrap;html=1;sketch=1;hachureGap=4;jiggle=2;curveFitting=1;fontFamily=Architects Daughter;fontSource=https%3A%2F%2Ffonts.googleapis.com%2Fcss%3Ffamily%3DArchitects%2BDaughter;fontSize=20;fillColor=none;" vertex="1" parent="1">
          <mxGeometry x="-760" y="-410" width="410" height="70" as="geometry" />
        </mxCell>
        <mxCell id="bc7KVerA1UK6MyxtnoFU-96" value="" style="endArrow=none;dashed=1;html=1;dashPattern=1 3;strokeWidth=4;rounded=0;sketch=1;hachureGap=4;jiggle=2;curveFitting=1;fontFamily=Architects Daughter;fontSource=https%3A%2F%2Ffonts.googleapis.com%2Fcss%3Ffamily%3DArchitects%2BDaughter;fontSize=16;" edge="1" parent="1">
          <mxGeometry width="50" height="50" relative="1" as="geometry">
            <mxPoint x="-560.86" y="-270" as="sourcePoint" />
            <mxPoint x="-560.86" y="-330" as="targetPoint" />
          </mxGeometry>
        </mxCell>
        <mxCell id="bc7KVerA1UK6MyxtnoFU-98" value="&lt;font style=&quot;font-size: 21px;&quot;&gt; Feedback &lt;span style=&quot;--tw-border-spacing-x: 0; --tw-border-spacing-y: 0; --tw-translate-x: 0; --tw-translate-y: 0; --tw-rotate: 0; --tw-skew-x: 0; --tw-skew-y: 0; --tw-scale-x: 1; --tw-scale-y: 1; --tw-pan-x: ; --tw-pan-y: ; --tw-pinch-zoom: ; --tw-scroll-snap-strictness: proximity; --tw-ordinal: ; --tw-slashed-zero: ; --tw-numeric-figure: ; --tw-numeric-spacing: ; --tw-numeric-fraction: ; --tw-ring-inset: ; --tw-ring-offset-width: 0px; --tw-ring-offset-color: #fff; --tw-ring-color: rgba(69,89,164,.5); --tw-ring-offset-shadow: 0 0 transparent; --tw-ring-shadow: 0 0 transparent; --tw-shadow: 0 0 transparent; --tw-shadow-colored: 0 0 transparent; --tw-blur: ; --tw-brightness: ; --tw-contrast: ; --tw-grayscale: ; --tw-hue-rotate: ; --tw-invert: ; --tw-saturate: ; --tw-sepia: ; --tw-drop-shadow: ; --tw-backdrop-blur: ; --tw-backdrop-brightness: ; --tw-backdrop-contrast: ; --tw-backdrop-grayscale: ; --tw-backdrop-hue-rotate: ; --tw-backdrop-invert: ; --tw-backdrop-opacity: ; --tw-backdrop-saturate: ; --tw-backdrop-sepia: ; border: 0px solid rgb(217, 217, 227); box-sizing: border-box; --tw-gradient-from-position: ; --tw-gradient-via-position: ; --tw-gradient-to-position: ; color: rgb(46, 149, 211); font-family: &amp;quot;SÃ¶hne Mono&amp;quot;, Monaco, &amp;quot;Andale Mono&amp;quot;, &amp;quot;Ubuntu Mono&amp;quot;, monospace; text-align: left; background-color: rgb(0, 0, 0);&quot; class=&quot;hljs-keyword&quot;&gt;and&lt;/span&gt;&lt;span style=&quot;color: rgb(255, 255, 255); font-family: &amp;quot;SÃ¶hne Mono&amp;quot;, Monaco, &amp;quot;Andale Mono&amp;quot;, &amp;quot;Ubuntu Mono&amp;quot;, monospace; text-align: left; background-color: rgb(0, 0, 0);&quot;&gt; Improvement&lt;/span&gt;&lt;/font&gt;" style="rounded=1;whiteSpace=wrap;html=1;sketch=1;hachureGap=4;jiggle=2;curveFitting=1;fontFamily=Architects Daughter;fontSource=https%3A%2F%2Ffonts.googleapis.com%2Fcss%3Ffamily%3DArchitects%2BDaughter;fontSize=20;fillColor=none;" vertex="1" parent="1">
          <mxGeometry x="-715.5" y="-140" width="310" height="130" as="geometry" />
        </mxCell>
        <mxCell id="bc7KVerA1UK6MyxtnoFU-99" value="" style="endArrow=none;dashed=1;html=1;dashPattern=1 3;strokeWidth=4;rounded=0;sketch=1;hachureGap=4;jiggle=2;curveFitting=1;fontFamily=Architects Daughter;fontSource=https%3A%2F%2Ffonts.googleapis.com%2Fcss%3Ffamily%3DArchitects%2BDaughter;fontSize=16;" edge="1" parent="1">
          <mxGeometry width="50" height="50" relative="1" as="geometry">
            <mxPoint x="-560" y="-160" as="sourcePoint" />
            <mxPoint x="-560.78" y="-260" as="targetPoint" />
          </mxGeometry>
        </mxCell>
        <mxCell id="bc7KVerA1UK6MyxtnoFU-100" value="" style="shape=stencil(lVvZchw3DPwavbJ4H8+O8x+ushypokguWc7x9wGjcLWLnmnMvMlr9JBNgCBx8C59+vHw5fv9XfQ/3l5ffr//6/Hr28Nd+uUuxsfnh/vXxzf56y59vkufvr283v/2+vLz+ev7v79/mZLzrz9e/pxf+Psd512uExT9P+8/hOF6/O+XX9/lnx6fr+SDC+FGPlYXqfzwN/Ipulz25aOr/Va+u0rk0/raks/JdSKfXbj9fs6uDCY/ipZPfV++uJa0vCfy1eWh59/yvnxzsWn5QuS781nLp8Tk/9f+lXz0+/LDVa/lA7MH79KtweXoBlFAEIvLACAaFsAIGtCJCoLY3AAAWdMgRtcAwKaUXUwa0NiUivPAobFVKut71wA2peoK6IEZXmgugR5aI4DuggdAoICOHNiUxnINB0eY3g71wADBRdQDmdL0d2AajeyfeFHTNYBsIPF4JZ4aQRwW6oEByvJYR0mXtV2uAJVYq3i9inpgpMX4YIvSEcT4zumhg6M3SI9lOQenlLwrqAdCOonxwRalI0Rw9py0ALS356STGB+YBp2SGB/qgZEuLoBp0BHKhrunpOuGu6ekG9wxjCl18Bp+7cE9wLidkozpGWAs13sBiGaII5MJKHcv9suO3Ry04ubVgKySrEkoGlAJh3mMRw0o7OqW9I6bgEoAWZ/TE8CmVFwEDoVYa67OA4fMlrWuY/wooOkdZ02p63N6jkDO6TzWhe3oKkmEgBzICMW7CnrI7BId9I6bUyLmXaLecXMEYhol6h1n6KGI8dVTI+R1Lz+6SsWlU3ooVZ/T1pSq68iBkW76nLZGkP9GPTDSYnygB0p66HPamFL1OiIzSNegz2lrBDE+1AMhXZPzoAdGWgAdTINOKeuwzCJdNtw9HaFuuHtKuroBeqCkmz6nrSn1DXdPSQ8XcYuSEZrfcveEtAA66IGRbgHOaWNKccvdE9ItQQbHGCGddPctb7h7SrrosMyaUt1y94y0GN8pV9nalrtnpPuGu6ekhw7LjCl1Mb5TR5YA+ilX2cOWuyeke9xw94x0T/p2L6FgYekoND5PL4kdjC8kGg70ou8adX1hW75qbx9WRmtbvmm1+RXL7sn3puQD+77csrOWJ1elPvRm8zRhN7w+of06vfbkh56/J+s5wgq+ruRJnDHiugkelE96nxnzz/pw9isXtyffT82/uArzZ9+vK998UL7pzIfIkw0j8kPbAws9x9D5p4tf2pPXG5Im3EW+367PJcDfk1dh5MznMoMecBYEuqLBX1bkEm17nhQfeg9IwB75nJSbk7gvMCuCBEDhefephttlkmiAFQ4EoCpDEg1Qw5YDTSlOQiC28wfUYgatrQjAQ+bGc9IqIZbSqp8cBERxB+R8wimFYo2gSDfLvNWqxhXPHFSbX1nEg3bh183noOFdKmoHLTv45aAO7p3QqYPZ2J6ypuwIRA+QKs3PoY/JedUpjzqxQE999JKl0DwpumHZnpGTPgmAg0EAdJXg5JkjsKMHjrYJYKsEZ6cFgMN5Ak6d/tYIcL2YgFP3l9K4x4ALkgWAG9gEMJ8BVzxDcXiHFADzAnhJnSOwWzncgg1rFUAAPSSygeQerwLn0jmHonMqM4/DOGTtBJqnh7oAVHqhGcua1q1iAeQXlnPHgK1zN4Mh4QTwKFUFnTZAnaATwDogIHCegFOhuUEag3+DA6YXbEBEPTDSkCKxSEMcbJGGSNviAIkkCwCpKos0JMMs0pBus0hDQs/ggClDCwBJSYM0pj0N0phYNUhj6tbiAMlhCwDpZ4s0JLgt0pBCt0hDkt7iAGUACwCFBoM0ljIM0lgsMUhjOcbggAUfCwAlJYs0FK0s0lAWs0hD4W0CyG0GS3sWaSgeWqShPGmNAAVQizSUWA3SWMQ1poRl4l5oJIqFaGsEKHVPAGtqgGK6oQcs11sAaAiYAFYbh5YDQ3HY1DDvmaxcD20TE8A6CKAxw1rWoJutBNCZ4jx4jUoBaeiwTEKQzFpwhnb3M1DjHTWqT1ai00ysFZt8rvIK2wjoIxqDNqZip9LgPTjYC2XOCdqtPtIp2wBo6DKHgJ4xizZ0pVm0oe/NnBO01hm0sXnPGgL7Aw3a2IFo0MYeR3NO0EZp0YZGTXMI6AW1aEO36Ue2bRsA/azWOkHHrMUaenKtEaDrdwJYLyj0FRuksXPZAkBvtKEH7L62RoD+7o+s5zYAOsitKUGPurGs2AU/AcRasc9+AlhpBzr5x+Ct//BWwALAa4SP3PAeIIAeaBc8vKiYgDNPNmZqmFW8Nxw+7TvY8PeJ2AU8aZk1EiIPT2ZGp2YET3JE3njyk7V8oPJBrb/cJcjGSWs1LvKFPhGKq+HhcrvqVD7oCk3jG9nraKYFmi722lHUQve91ymTmullz+v1lFCcFVsggShRbKfzV/ZZEi0XeXiL0+hbHChHzRs4l7/9frqc63vyt/YgFyZ2tfUbT/aYF/W6QhkTrft4vX/lF77+yl99nIY78ueeKNry8sfHe8hvj09P788pr/9fv5+Un97fXqbP/wI=);lineShape=1;hachureGap=4;fontFamily=Architects Daughter;fontSource=https%3A%2F%2Ffonts.googleapis.com%2Fcss%3Ffamily%3DArchitects%2BDaughter;fontSize=20;shadow=1;sketch=1;curveFitting=1;jiggle=2;" vertex="1" parent="1">
          <mxGeometry x="-552.3068323145644" y="-244.95354024465064" width="389.07606871921365" height="6.613381325577232" as="geometry" />
        </mxCell>
        <mxCell id="bc7KVerA1UK6MyxtnoFU-109" value="" style="sketch=0;outlineConnect=0;fontColor=#232F3E;gradientColor=none;fillColor=#4D27AA;strokeColor=none;dashed=0;verticalLabelPosition=bottom;verticalAlign=top;align=center;html=1;fontSize=12;fontStyle=0;aspect=fixed;pointerEvents=1;shape=mxgraph.aws4.search_documents;hachureGap=4;jiggle=2;curveFitting=1;fontFamily=Architects Daughter;fontSource=https%3A%2F%2Ffonts.googleapis.com%2Fcss%3Ffamily%3DArchitects%2BDaughter;" vertex="1" parent="1">
          <mxGeometry x="-230" y="-895" width="139.49" height="160" as="geometry" />
        </mxCell>
        <mxCell id="bc7KVerA1UK6MyxtnoFU-112" value="" style="shape=stencil(lVtbchw3DDyNflkkweHj23Hu4SrLsSqO5ZKd1+0DRuZo2eA2d//kMXqHAPEG5kHeff/84dvjQ/Tff7w8//7499PHH58f5JeHGJ++fn58efqhfz3I+wd59+n55fG3l+c/v358/fe3D52y//XH81/9F/55xaXiQu6o6P99feJd8v8/+PWV/svT10v67Fqc6IPzQuiLaw3oSyX01ZWZPrqjEPrmZKYXJ5nSNz/RJxfSdfrDu3gAfSP8Kv0xy/NwJVD6n+IY9NkdRP5K//P1g744YfTBhTDRV+eJPDt9A/rK6WWWZ3P54PSzfIIqHBOoAmYBheAiByR4Q3Sei8gCKgccs0yDuIModQeA0SQnXKr4hmPY6VVARkBjei0uz/cWsiuM6ewS8FBcagRgLDNUFwkgRwNozjOADCFeAH56pzUgo/Kpt8vkHoo6q9n61X0lot6ljN87AXE4kCWg6j3M6q0OzDNAcT4joBLlq/ZIyWUiVgUUABz0phVQQUrZRaKtHZBmwMnVVUBFQCXqvQBUl4lqdACItQ2FvwaAQCJ+uM6rb2gIaBzQZicgYdzMrYA43MKNUhI1Ka58EP1FwydxxgspJWqiizcc1C8tmM5bbYV7KNQv1fMAJ6C6wHiImMMogDFdGlqc6BMGUF89ZwHJjxCzBiT0GknjKslLcnVpVo0UKdPqvVNBAGO6BxTIxIQyfcRx4hOQxiGvBkXg4aDOuAPgSJlmtz11aAiojIdgxKrumeWHeqTZVWqGLCzsKgBUo7mwkVJGQLsr1+hJ7EasMw/9yQYwS6nfPRcrHklG3nvrG2S4hVsBaUTuq4A5KB7HVltnXVIL2WnrbHFHoanD4h54FD3EMF25thqb1iwwMUDDFC5rwUXcfXczEQGNiFWTRAQEmt1nw7S+kzGdj1HxnACh2b31rVmjKE9DoUJRQGOAhM5YD8lSh3JghaK5Mqu7FQB5ay6UaQVAKq1iCCyVVkBGACtpOmBW79zGk6uA2eKKH3XXVcAs1hJo9a2AOttD0VqUaOviSJHW34sjCS9p9EhzFO3Kcp+UNIpyAL5BoyhLTqyU8viJW5kuo5y99Uh1tBXWgLNaOAGN53wyYuYFoLG8tWHRVD0ty9phAIEmuq1ha08TUyEXpwC4aeWKNccUALl3FwPJl1rD7L6mkcleBcxuRrNx1h/rgFk1aqYmGrwf3aETUaiNdrkaAMsdmomKtdKapskImiegca49htH+hGlfHQX6CQiUaZUiyFUBtO2QXJyvukXedgjDq5wAofqtNhpnKbVECzn1KtALVZtizVDrmLoREnXtjmlOvvXuWdvBRsVWaP9dvXsDQB2CXje8I3oy1V/GQy+fDwSwuBvb8O6XAHIP0fSkL4xwbaSCmWt/BUsezE230d9ZHwkzssYLcD9Slwt6li750Va5oGd5sQxjvKCnHbVRpl7Qs75MSNjTUACrHVRCYk7kGQeaxxcDICKVggVTB7BRkYy85ZJpondaattbEDa8qhhy+7XxNxQjJTYOSWkhpULeIBXz7rcgvAaYsvItpq5vWtAlba3zMLGh0fKkLbSbBVBZSJVVMx4Lsn4L1Jq9MYZErC1gU7PrEasQMRHrisoKxDvpe38ezL9S8+/+EVw2DzsdAFfMA5sCMJrz0KmAYoMzDzuQS7ZEI6FEAxDa4pcD2+MtUqbVODFMBdpg6W3eigDGdArG1DwP/8nkw43OW5Npj2uumPnEG5oTb/Oga20ouSvh7oBZrJucvgPmm95UDR0AUuJ1SQdAMSZ83hrQ0ffaiknJm2Is0sZv37SAewguc13Cm/ZcW4/RirgAMG2Vs5d3URQzbY1nA/PGOr0DoDnBOwHRjE83vYYlgOUxsWB02/RLFm/gHZnujEGsvOfT3wD9Et5VWgKYiS7ugXfGFlLivTcbsjbdPSulTf9wCWAmaquMTQ9UA3uDDmWmiyM2E8gHNVFNlVBKmyjqDQ+JamsoaNNZqLZqdgjZ1aafrrVJBR4CHappdQg7Zgpg6wQhmCOpp2LtQOxC9bEGi1hoPn1uwhQDPfFmMBNxWWEz+Ykj9Trp+WgpoqPfzK4i1kmb4VjE/Y/N9M2eh4/37Hn4/NDKnw8o7Xn4BNTQb0as0Swp8hmuOf9mSByxibSZQkf0W5sxd0SD3MzRZXB30vOQmbDj1DcByPkrthaS0HaNuiAERLq2Gj1WYD1TZ4Bj9JcuAJFdQcUUNXm6iiZmcVJ4L0IS5rRSaSIvpihUAPO7egCIHZvVG2nmDXy5ZwHg60PScN91s6AkZqqyWYHqTMOCEl+ykobWsFnjWjDNF8UW98BX0RZH4stu/Q2zPWzW6eyRNgt7VqyblcAOuGvpcMEDX2vsgLsWJ+3FxcS1tZpdTj5wU+2HCZ0C2H5FNGPJ3htnADG7nGfHce1bK+pS9NS39nwQNsAbZTqY8BAa3Z4OHvO7UPkyA8ZPzYpZPDmwrO3L1jT+Q76w2eY2na3NurjJLzb76Pb3+cJ7xFbEZqM+YpNqs7IvRp78mwDBfHzz0YEMj3522XjkREfBv5kQ052iU0jBHUP+xYeMps9Z29DWl5hSgn6vktBj8c9hkllG5F/bjFr1DDP0Y54DWeXfCmXM0finSMV8g0Fz2IITdf4hlVmB93SE0DAh9TRbVPuJFejpPNC0uj3Vyf5zeHzaFEu4gMNHSrHh1JrTyzn5v+08YioCzm9ffkZ6Js9kYha/r5Rx6ZCrw92f7W3p9Y+3bwQ/PX358vqJ4eX/4zeF+uj1e0R5/x8=);lineShape=1;sketch=1;hachureGap=4;jiggle=2;curveFitting=1;fontFamily=Architects Daughter;fontSource=https%3A%2F%2Ffonts.googleapis.com%2Fcss%3Ffamily%3DArchitects%2BDaughter;fontSize=20;" vertex="1" parent="1">
          <mxGeometry x="-164.28246121065285" y="-721.4403257205299" width="9.437266805585491" height="464.9125548948959" as="geometry" />
        </mxCell>
        <mxCell id="bc7KVerA1UK6MyxtnoFU-115" value="&lt;font style=&quot;font-size: 32px;&quot;&gt;Issue Resolution Capture(db)&lt;/font&gt;" style="text;strokeColor=none;align=center;fillColor=none;html=1;verticalAlign=middle;whiteSpace=wrap;rounded=0;fontSize=20;fontFamily=Architects Daughter;" vertex="1" parent="1">
          <mxGeometry x="-229.56" y="-1020" width="140" height="120" as="geometry" />
        </mxCell>
      </root>
    </mxGraphModel>
  </diagram>
</mxfile>
